<?xml version="1.0" encoding="UTF-8"?>
<svg width="790px" height="568px" viewBox="0 0 790 568" version="1.1" xmlns="http://www.w3.org/2000/svg" xmlns:xlink="http://www.w3.org/1999/xlink">
    <!-- Generator: Sketch 61.2 (89653) - https://sketch.com -->
    <title>docker-1</title>
    <desc>Created with Sketch.</desc>
    <g id="New-v2" stroke="none" stroke-width="1" fill="none" fill-rule="evenodd">
        <g id="docker-1" fill="#061D2F" fill-rule="nonzero">
            <path d="M158.55102,457.367347 C136.102041,457.367347 115.693878,439 115.693878,416.55102 C115.693878,394.102041 134.061224,375.734694 158.55102,375.734694 C183.040816,375.734694 201.408163,394.102041 201.408163,416.55102 C201.408163,439 181,457.367347 158.55102,457.367347 Z M685.081633,234.918367 C681,202.265306 660.591837,175.734694 634.061224,155.326531 L623.857143,147.163265 L615.693878,157.367347 C599.367347,175.734694 593.244898,208.387755 595.285714,232.877551 C597.326531,251.244898 603.44898,269.612245 613.653061,283.897959 C605.489796,287.979592 595.285714,292.061224 587.122449,296.142857 C568.755102,302.265306 550.387755,304.306122 532.020408,304.306122 L3.44897959,304.306122 L1.40816327,316.55102 C-2.67346939,355.326531 3.44897959,396.142857 19.7755102,432.877551 L27.9387755,447.163265 L27.9387755,449.204082 C76.9183673,530.836735 164.673469,567.571429 260.591837,567.571429 C444.265306,567.571429 595.285714,487.979592 666.714286,316.55102 C713.653061,318.591837 760.591837,306.346939 783.040816,261.44898 L789.163265,251.244898 L778.959184,245.122449 C752.428571,228.795918 715.693878,226.755102 685.081633,234.918367 L685.081633,234.918367 Z M421.816327,202.265306 L342.22449,202.265306 L342.22449,281.857143 L421.816327,281.857143 L421.816327,202.265306 Z M421.816327,102.265306 L342.22449,102.265306 L342.22449,181.857143 L421.816327,181.857143 L421.816327,102.265306 Z M421.816327,0.224489796 L342.22449,0.224489796 L342.22449,79.8163265 L421.816327,79.8163265 L421.816327,0.224489796 Z M519.77551,202.265306 L440.183673,202.265306 L440.183673,281.857143 L519.77551,281.857143 L519.77551,202.265306 Z M223.857143,202.265306 L144.265306,202.265306 L144.265306,281.857143 L223.857143,281.857143 L223.857143,202.265306 L223.857143,202.265306 Z M323.857143,202.265306 L244.265306,202.265306 L244.265306,281.857143 L323.857143,281.857143 L323.857143,202.265306 Z M125.897959,202.265306 L46.3061224,202.265306 L46.3061224,281.857143 L125.897959,281.857143 L125.897959,202.265306 L125.897959,202.265306 Z M323.857143,102.265306 L244.265306,102.265306 L244.265306,181.857143 L323.857143,181.857143 L323.857143,102.265306 Z M223.857143,102.265306 L144.265306,102.265306 L144.265306,181.857143 L223.857143,181.857143 L223.857143,102.265306 L223.857143,102.265306 Z" id="SVGID_1_"></path>
        </g>
    </g>
</svg>