<svg height="255" viewBox="0 0 575 255" width="575" xmlns="http://www.w3.org/2000/svg" xmlns:xlink="http://www.w3.org/1999/xlink"><linearGradient id="a"><stop offset="0" stop-color="#eff6ff"/><stop offset="1" stop-color="#c4d8fb"/></linearGradient><linearGradient id="b" x1="0%" x2="99.993738%" xlink:href="#a" y1="50%" y2="50%"/><linearGradient id="c" x1="0%" x2="100%" xlink:href="#a" y1="50%" y2="50%"/><linearGradient id="d" x1="-.004604%" x2="100%" xlink:href="#a" y1="50%" y2="50%"/><linearGradient id="e"><stop offset="0" stop-color="#fb6b14"/><stop offset="1" stop-color="#fdb522"/></linearGradient><linearGradient id="f" x1="54.340282%" x2="36.410359%" xlink:href="#e" y1="69.731209%" y2="26.515388%"/><linearGradient id="g" x1="1.066938%" x2="102.400408%" xlink:href="#e" y1="51.075181%" y2="51.075181%"/><linearGradient id="h" x1="1.102026%" x2="102.391779%" xlink:href="#e" y1="51.075034%" y2="51.075034%"/><linearGradient id="i" x1="0%" x2="99.977393%" xlink:href="#e" y1="49.897219%" y2="49.897219%"/><linearGradient id="j" x1="0%" x2="99.977344%" xlink:href="#e" y1="49.898894%" y2="49.898894%"/><linearGradient id="k" x1="-.4329%" x2="100%" xlink:href="#e" y1="50.5%" y2="50.5%"/><linearGradient id="l" x1="0%" x2="100%" xlink:href="#e" y1="50.5%" y2="50.5%"/><linearGradient id="m" x1="0%" x2="100%" xlink:href="#e" y1="49.5%" y2="49.5%"/><linearGradient id="n" x1="0%" x2="100%" xlink:href="#e" y1="50%" y2="50%"/><linearGradient id="o"><stop offset="0" stop-color="#eff6ff"/><stop offset="1" stop-color="#8aa8da"/></linearGradient><linearGradient id="p" x1=".197654%" x2="100.35184%" xlink:href="#o" y1="49.997461%" y2="49.997461%"/><linearGradient id="q" x1="0%" x2="100%" xlink:href="#e" y1="49.904031%" y2="49.904031%"/><linearGradient id="r" x1="-.092026%" x2="99.841703%" xlink:href="#o" y1="50.000039%" y2="50.000039%"/><linearGradient id="s" x1="-.109044%" x2="99.863747%" xlink:href="#o" y1="49.934835%" y2="49.934835%"/><linearGradient id="t" x1=".014622%" x2="100.008407%" xlink:href="#e" y1="49.892965%" y2="49.892965%"/><linearGradient id="u" x1="18.444161%" x2="47.020104%" xlink:href="#a" y1="35.528575%" y2="65.964011%"/><linearGradient id="v" x1="0%" x2="99.999125%" xlink:href="#e" y1="49.909472%" y2="49.909472%"/><linearGradient id="w" x1=".10616%" x2="99.839175%" xlink:href="#e" y1="49.839228%" y2="49.839228%"/><g fill="none" fill-rule="evenodd" transform=""><g fill-rule="nonzero"><ellipse cx="300.372428" cy="187.063819" fill="url(#b)" rx="189.57893" ry="18.92465"/><ellipse cx="287.241523" cy="209.265259" fill="url(#c)" rx="287.241523" ry="18.92465"/><ellipse cx="290.233374" cy="235.598305" fill="url(#d)" rx="257.869136" ry="18.92465"/><ellipse cx="184.711235" cy="237.806576" fill="#c5d9fb" rx="48.65321" ry="7.313416"/><path d="m160.871399 198.675054-9.497942-1.139753c.118724-1.875844-.92605-9.023046-1.021029-10.139054-.166214-1.780864-.997284-3.727942-2.49321-4.10786s-2.920617.949794-3.371769 2.611934c-.3858 1.691341-.227916 3.461302.451152 5.057654 1.066975 2.296638 2.476022 4.418214 4.179094 6.292387-3.253045-.379917-6.482345-.83107-9.73539-1.400946-.439492-1.018015-.781368-2.075445-1.021029-3.158066-.284939-1.780864-.118725-3.632963-.427408-5.413827s-1.329712-3.585473-2.849382-3.846667c-1.519671-.261193-3.37177 1.947078-3.37177 4.10786.140002 2.102712.975332 4.099151 2.374486 5.675021.403662.498642.949794 1.210987 1.590905 1.923333l-.807325-.166214-4.274074-1.021029c-.704519-2.574369-1.585154-5.09727-2.635679-7.550864-.461958-2.224123-1.384004-4.327034-2.706914-6.173662-.598418-.843696-1.55098-1.366036-2.584097-1.416997-1.033116-.050961-2.03246.375097-2.711006 1.155803-.922996 1.919386-.769713 4.182558.403663 5.959959 1.545171 2.698581 3.601887 5.069854 6.054938 6.980988-3.015597-.83107-6.031193-1.733375-8.9993-2.683169-1.638395-3.632963-.759836-9.687901-3.32428-13.225885-1.044774-1.424691-3.395514-2.968107-4.915185-1.329712s-.379918 4.179095 0 5.698766c.771335 2.857204 2.268196 5.466487 4.345308 7.574609l-3.514238-1.210988-4.511523-1.638395c-.809601-2.068615-1.429517-4.206531-1.852099-6.387366-.569876-3.205556-.593621-6.814774-3.7279421-8.168231-3.134321-1.353457-7.6220988-.237448-5.8887243 4.274074 1.5179923 3.216712 3.7225873 6.061613 6.4586004 8.334445-2.8731271-1.116008-5.7225098-2.374486-8.5481477-3.514239-.8619635-2.55908-1.4042922-5.214896-1.6146502-7.907037 0-2.968107.9972839-7.123457-1.7096296-8.690617-3.2293004-1.875844-6.102428 1.021029-5.3900823 4.867695.7123456 3.846667 3.8229218 7.123457 6.0786831 9.735391.2374486.284938.83107.854815 1.4009465 1.472181l-5.0101646-2.232016-3.3242799-1.519671c-.1899588-1.021029-1.1160082-2.873128-1.6621399-5.223868-.6173662-2.801893 0-4.345309-2.6119341-6.007449-2.6119342-1.66214-5.5325515-1.258477-4.7489712 2.588189.9303147 3.052511 3.0300968 5.613221 5.8412346 7.123457-3.3651726-1.582859-6.9147672-2.739468-10.566461-3.443004-7.2896707-7.788313-20.9429629-6.886008-28.9449794-1.685885-1.478614.685939-2.3500707 2.243355-2.1611883 3.862346.1888824 1.618992 1.3954518 2.933971 2.9922583 3.261111 2.5398668.961194 5.3434254.961194 7.8832922 0 2.5881893-.807325 5.0339094-2.113292 7.574609-3.086831 2.0507451-.756759 4.188881-1.251402 6.3636214-1.472181h.1424691c3.6988385.140179 7.3423116.944478 10.7564198 2.374485-2.2112052.074954-4.4010841.458582-6.5060905 1.139754-3.5179038.962672-6.5855929 3.131066-8.6668725 6.126172-.4574607.58687-.6778 1.32416-.6173662 2.065803.2908476.812935 1.0000425 1.403931 1.8520987 1.543415 2.8312612.678283 5.8175553.079288 8.1682305-1.638395 3.0868313-2.208271 5.437572-5.67502 8.4531687-8.025761v-.142469c2.0420576.902304 4.0841153 1.899588 6.102428 2.896872-2.7133809.54938-5.2991005 1.604611-7.6220988 3.110576-1.1861095.802592-2.123808 1.92125-2.7069135 3.229301-.5859668 1.416461-.3685199 3.038252.5698765 4.250329.5604246.555461 1.3246276.855991 2.1132922.83107 2.3744856 0 4.5115226-1.899588 6.3636214-3.751687s3.7991769-3.632963 5.5800411-5.556296l.7360906.332428c3.5142387 1.638395 7.1234568 3.2293 10.6376954 4.748971-2.1390035-.03181-4.2765849.127118-6.3873662.474897-4.3788552.671963-8.4649812 2.611841-11.7537037 5.580041-1.4313338 1.233572-2.4986625 2.834565-3.0868313 4.630247-.3222961.775975-.2516046 1.659619.1899589 2.374486.2529368.296592.5940437.504584.9735391.593621 2.3474402.515806 4.8030285-.022167 6.7197942-1.472181 3.1407097-2.303847 6.0942814-4.852493 8.8330864-7.622099 1.658041-1.64975 3.5955524-2.992341 5.7225103-3.965391 3.6883679 1.582991 7.4083949 3.055172 11.1600819 4.416543-4.140788-.088579-8.266884.521505-12.2048556 1.804609-3.6203045.741633-6.5858947 3.328637-7.8120576 6.814774-.1541237.555928-.2024514 1.13586-.1424691 1.70963.3515586 1.671025 1.8820594 2.826503 3.5854732 2.706913 2.0518894-.20258 3.967715-1.118479 5.4138272-2.588189 1.5671609-1.400947 2.9443619-3.110576 4.5115229-4.535268 2.625386-2.350502 5.751741-4.072027 9.141769-5.033909 2.896873 1.044774 5.841235 1.994568 8.785597 2.873128-1.663836.277107-3.300464.698182-4.89144 1.258477-3.392661 1.167533-6.466022 3.110742-8.975556 5.675021-1.010392.858193-1.592205 2.117339-1.590905 3.443004.053682.35219.174603.690768.356173.997284h10.423991c.853372-.879715 1.646655-1.815789 2.374486-2.801893l3.490494-4.535268c.832062-1.119578 1.862176-2.077263 3.039341-2.825638 3.27679.902305 6.553581 1.70963 9.87786 2.374486-1.398512.157863-2.780824.435914-4.131605.83107-3.211807.897457-6.045104 2.814099-8.073251 5.461317-.348469.442385-.635975.929548-.854814 1.448436h8.595638c.332427-.546132.664855-1.116008.973539-1.70963.428068-1.067898.969378-2.086833 1.61465-3.039341.901105-.970228 2.003211-1.731978 3.2293-2.232017l.736091-.332428c2.588189.498642 5.223868.997284 7.859547 1.400947-2.783096 1.2533-5.160089 3.260172-6.862263 5.793745h6.719794c.271296-.808873.588407-1.60165.949794-2.374486.725977-1.055102 1.519111-2.062383 2.374486-3.015597 4.163648.544555 8.369995.687682 12.561029.427408.949794-.023745.902304-1.970823-.261194-2.137037z" fill="#42445d"/><path d="m66.3668724 70.3815969c66.4855966 28.1139094 23.4599177 102.7914811 77.8593826 135.5831271h47.03856c.664856-2.279506-48.748189-125.4678185-124.8979426-135.5831271z" fill="#584efe"/><path d="m158.140741 189.153366c-2.374486-1.66214-5.603786-1.709629-7.812058-3.110576-3.134321-1.994568-5.033909-7.930782-7.503374-11.231317-4.231497-5.881142-9.776371-10.694287-16.193992-14.056954-4.416543-2.208272-9.497943-2.706914-12.062387-6.933498-2.564444-4.226585-4.06037-9.070535-7.740823-13.083416-1.826713-2.074673-4.005032-3.810898-6.434856-5.128889-2.6594238-1.329712-5.0101646-.142469-7.1234568-.73609-2.8968724-.759836-4.3927983-4.511523-6.9572428-6.363622-3.5379835-2.516954-9.7353909-5.295103-14.0332098-3.466749 1.2221503 4.343143 3.1299229 8.46329 5.6512757 12.204856 2.3744856 3.158066 6.8385185 4.369054 7.8120576 8.144486.1699065 2.110966.5355656 4.201582 1.0922634 6.244897 1.3366204 3.508442 3.1763066 6.80388 5.4613168 9.782881 3.4192593 4.131605 7.9307819 5.033909 11.8724279 8.16823 2.374486 1.994568 1.733375 3.751687 2.754403 6.814774 1.599694 4.449015 4.143195 8.499175 7.455885 11.872428 4.131605 4.15535 8.809342 3.680452 13.890741 5.318847 2.968107.97354 1.923333 1.614651 4.179095 4.440289 3.553597 3.679883 7.981081 6.40009 12.869712 7.907037h18.710946c2.051511-2.566426 2.214547-6.1628.403663-8.904321-1.450758-3.084527-3.606175-5.784898-6.292387-7.883293z" fill="#0a429f"/><path d="m204.466955 125.184724c-3.766584 6.551287-6.588462 13.601985-8.381934 20.942963-.427408-1.970823 0-4.226584-.356173-6.292386-.427408-2.991852-1.163498-5.983704-1.780864-8.928066-3.965391 4.748971-5.318848 12.37107-6.64856 18.331029-1.828354 8.025761-2.968107 16.217736-4.250329 24.362222-1.266911 9.377601-1.058603 18.895694.617366 28.208889.237448 1.305967.379918 2.730658.569876 4.155349h14.650577c1.424691-4.084115 2.208271-8.595637 3.039341-11.302551 4.271102-12.928598 7.44826-26.193235 9.497943-39.653909 1.210987-9.046791 2.374485-18.117326 3.632962-27.164116 1.035398-6.86177 1.194974-13.827272.474898-20.729259-4.820206 4.464033-7.764568 12.37107-11.065103 18.069835z" fill="#0a429f"/><path d="m190.552469 176.853531c-6.458601 1.377202-14.698066 9.09428-18.995885 16.43144.142469-3.965391.403663-7.954526.736091-11.872428 4.630247-5.057654 12.442304-5.888724 17.048806-12.062386 4.606503-6.173663.189959-11.302552-6.719794-6.363622-3.32428 2.374486-7.242181 8.500659-9.87786 13.415844.284938-2.873128.641111-6.862264.92605-9.735391.237448-2.49321.451152-4.98642.617366-7.43214 5.271358-4.369054 16.47893-6.933498 17.761152-15.291687.87856-5.86498-5.105144-8.26321-9.996584-2.374486-2.969082 3.683718-5.473223 7.719053-7.455885 12.014897.189959-4.559012.213704-9.09428 0-13.534568 5.793745-5.627531 18.995885-7.693333 21.560329-16.241481 2.160782-6.980988-6.64856-6.268642-11.706214-1.828354s-7.550864 10.637695-9.949094 16.383951c-.14247-3.300535-.403663-6.577326-.807326-9.806626 4.369054-5.200123 13.463334-10.234033 15.315432-17.35749 1.852099-7.123457-3.727942-12.6797528-10.495226-4.345308-3.289414 4.567786-5.275612 9.943655-5.746255 15.55288-.617366-3.514238-1.377202-6.980987-2.374486-10.376502 1.245216-2.833702 2.697586-5.571777 4.345309-8.191975 2.184527-3.395514 5.366338-6.9809877 5.057654-10.5427161-.546131-6.1736626-5.817489-1.6383951-8.21572 3.0868313-1.563116 3.4712172-2.37241 7.2344328-2.374485 11.0413578-1.139753-3.727942-3.039342-9.3554731-4.487778-12.9172015 2.374485-7.1234568 19.731975-23.7448559 7.265926-21.5128395-5.888725 1.0922634-8.381934 12.5135391-8.595638 18.9958848-.87856-1.9233333-3.086831-6.2923868-3.229301-6.60107 2.113293-5.8174897 12.323581-24.6709053 3.799177-23.4361728-6.767283.9735391-6.814773 11.4925103-6.316131 16.6213992 0 .6411111 0 1.5671605.166214 2.5881893-1.590906-2.8256379-3.27679-5.6275309-5.081399-8.3581893 1.614433-2.6576446 2.913347-5.4945378 3.870411-8.4531687.664856-2.1132922 2.706914-11.0176132-2.991852-6.6960494-2.160782 1.6621399-3.158066 7.9307819-2.920617 12.1336214-1.353457-1.8995885-2.778148-3.7041976-4.274074-5.4613169-8.049506-14.2469136.284938-36.9707407-13.20214-31.6281482-16.004033 6.3636214-7.123457 26.1193416 9.759136 30.7258437 1.495926 1.9945679 7.123457 11.0888477 7.859547 12.2760905-6.268642-5.7462551-18.995885-16.977572-24.196008-7.7645679-4.748971 8.1682305 17.689918 8.0020165 25.383251 9.8303704 2.065802 3.6092181 6.624815 13.1546502 7.123457 14.2469136-2.849383-2.3744856-5.200124-6.3161317-9.070535-7.4558848-3.41926-.997284-11.54-.5461317-11.682469 4.2265843-.166214 6.8147737 10.329012 5.0576544 15.481646 4.9864198 3.704197 0 5.223868 1.1397531 6.268642.5936214 2.018618 4.9826975 3.739199 10.0810066 5.152633 15.2679426-3.870411-5.746255-15.339177-17.2862554-21.109177-8.120741-7.455884 11.872428 14.246914 6.672305 21.370371 9.497942 1.430635 5.46836 2.524948 11.019221 3.27679 16.6214v.213703c-2.374486-4.748971-4.369054-9.640411-9.497942-12.466049-4.559013-2.564445-12.893457-2.374486-13.083416 6.411111-.142469 6.434856 11.872428 4.630247 17.381234 6.363621 2.374486.783581 4.20284 2.137037 5.461317 2.564445.561708 5.395143.823304 10.817322.783581 16.241481-9.497943-5.461317-16.6214-26.35679-25.264527-13.914485-7.693333 10.993868 15.457901 7.242181 25.240782 15.837819 0 5.010164-.356173 10.091563-.783581 15.244197-1.221455-3.670338-2.973386-7.142202-5.200123-10.305267-1.495926-2.374486-9.782881-8.643128-13.795761-1.519671-4.012881 7.123457 8.096996 9.213004 11.729959 10.281523 2.892326.765368 5.381828 2.609129 6.957242 5.152633 0 .949795-1.329712 12.703498-1.733374 17.642428-2.374486-7.764568-22.272675-33.527736-30.868313-14.650576-5.508806 12.086132 19.494527 8.524403 25.050823 10.970124 2.755989.878846 4.887358 3.081558 5.675021 5.864979-.213704 2.849383-.356173 5.675021-.403663 8.476914-4.748971-6.624815-16.455185-18.687202-22.961276-5.888725-7.669588 15.149218 12.561029 6.719795 16.288972 7.788313 3.253045.949794 6.933498 1.163498 6.767284 5.437572 0 .949794.142469 1.852099.213703 2.754403h4.748972c-.166214-2.801893-.261194-5.62753-.237449-8.476913 5.81749-4.582757 18.568477-7.717078 22.510123-11.611235 5.532552-5.580041 3.846667-10.566461-3.253045-9.189259z" fill="url(#f)"/><path d="m435.314444.00184378h-67.957777c-3.831842.06358942-7.012471 2.9791659-7.408395 6.79102881l-7.123457 80.73251031c-.196752 1.9484958.448385 3.8882206 1.772959 5.3307361s3.202368 2.2503659 5.160539 2.2209475h67.957778c3.823701-.0630069 7.001304-2.965625 7.408395-6.7681034l7.123456-80.73251026c.211954-1.95410376-.427168-3.90492695-1.75432-5.35479427-1.327151-1.44986732-3.213995-2.25857554-5.179178-2.21981479z" fill="#42445d"/><path d="m366.121934 62.1658767c-.653433.0147657-1.271885.2982229-1.709629.7835803-.353265-.5003223-.93103-.7936489-1.543416-.7835803-1.215812-.0073757-2.240766.9048335-2.374486 2.1132922-.055848.6264508.201993 1.2399333.688601 1.638395h.118724l2.58819 1.7808642 2.873127-1.7808642h.142469c.530109-.3907839.874106-.9841792.949795-1.638395.059665-.5119203-.091239-1.0261116-.418088-1.4245987-.326849-.3984872-.801585-.6470626-1.315287-.6886935z" fill="url(#g)"/><path d="m375.477407 62.1658767c-.653432.0147657-1.271884.2982229-1.709629.7835803-.363541-.5009019-.948315-.793289-1.567161-.7835803-1.215812-.0073757-2.240766.9048335-2.374485 2.1132922-.065811.6228802.183604 1.2375113.664856 1.638395h.142469l2.564444 1.7808642 2.873128-1.7808642h.166214c.539059-.3862273.892047-.9802797.973539-1.638395.059665-.5119203-.091239-1.0261116-.418088-1.4245987-.326849-.3984872-.801585-.6470626-1.315287-.6886935z" fill="url(#h)"/><path d="m396.871523 21.3722009h-31.485679c-.755351.0205936-1.376752.6012473-1.448437 1.35347l-2.991851 34.4537861c-.04158.342912.068247.6869301.300831.9423165.232584.2553863.564861.3968155.910156.3873954h31.485679c.747212-.0191279 1.365631-.5868568 1.448436-1.3297119l3.015597-34.4537861c.033573-.3475048-.081536-.6929802-.316832-.9509003-.235295-.2579201-.568781-.4041745-.9179-.4025697z" fill="#333242"/><path d="m398.937325 58.4616792h34.145103l.118724-1.329712h-34.145103z" fill="#333242"/><path d="m398.557407 62.8307327h34.145103l.118725-1.329712h-34.168848z" fill="#333242"/><path d="m380.891235 62.8307327h13.700781l.118725-1.329712h-13.700782z" fill="#333242"/><path d="m380.511317 67.1285516h13.700782l.118724-1.3297119h-13.700782z" fill="#333242"/><path d="m380.131399 71.4501154h13.700782l.118724-1.3297119h-13.700782z" fill="#333242"/><path d="m379.751481 75.7479343h13.724527l.118725-1.3297119h-13.724527z" fill="#333242"/><path d="m379.371564 80.0457532h13.724527l.118724-1.3297119h-13.724527z" fill="#333242"/><path d="m379.015391 84.367317h13.700782l.118724-1.3297119h-13.724527z" fill="#333242"/><path d="m378.635473 88.665136h13.700782l.118724-1.329712h-13.700781z" fill="#333242"/><path d="m358.191152 88.665136h13.700782l.118724-1.329712h-13.700781z" fill="#333242"/><path d="m358.547325 84.4385516h13.724527l.118724-1.3534568h-13.724527z" fill="#333242"/><path d="m358.927243 80.1882224h13.700782l.118724-1.329712h-13.700782z" fill="#333242"/><path d="m359.30716 75.9378932h13.700782l.118725-1.329712h-13.700782z" fill="#333242"/><path d="m359.663333 71.6875639h13.700782l.118725-1.3297119h-13.700782z" fill="#333242"/><path d="m398.17749 67.1760413h34.145103l.118724-1.3297119h-34.145103z" fill="#333242"/><path d="m397.797572 71.5450948h34.145103l.118724-1.3297119h-34.145103z" fill="#333242"/><path d="m397.417654 75.9141483h34.145103l.118724-1.3534568h-34.168847z" fill="#333242"/><path d="m397.013992 80.259457h34.168848l.118724-1.329712h-34.168848z" fill="#333242"/><path d="m396.657819 84.6285104h34.145103l.118724-1.3297119h-34.168848z" fill="#333242"/><path d="m396.254156 88.9738191h34.168848l.118724-1.3297119h-34.168847z" fill="#333242"/><path d="m401.834198 28.9943129h34.145102l.664856-7.6220987h-34.145103z" fill="#584efe"/><path d="m400.813169 40.4868232h34.168847l.664856-7.6220988h-34.168847z" fill="#584efe"/><path d="m399.815885 51.9555886h34.168848l.664855-7.6220987h-34.168847z" fill="#584efe"/><path d="m439.161111.00184378h-74.867531c-2.110345.04749005-3.858058 1.65294693-4.084115 3.75168724l-.664856 7.66958848h82.370905l.664856-7.66958848c.101824-.96463105-.213765-1.92675675-.867154-2.64366957-.653388-.71691282-1.582191-1.12015999-2.552105-1.10801767z" fill="url(#i)"/><path d="m364.056132 5.24945695c-.786358.01942518-1.436484.61875965-1.519671 1.4009465-.041348.36185478.076097.72387695.321996.99254442s.596134.41762867.960226.40840208c.790621-.00879294 1.446735-.61364761 1.519671-1.4009465.041348-.36185477-.076097-.72387694-.321996-.99254441s-.596134-.41762867-.960226-.40840209z" fill="#333242"/><path d="m368.828848 5.24945695c-.786358.01942518-1.436484.61875965-1.519671 1.4009465-.041348.36185478.076097.72387695.321996.99254442s.596134.41762867.960226.40840208c.795031.00242968 1.457563-.60834156 1.519671-1.4009465.041348-.36185477-.076097-.72387694-.321996-.99254441s-.596134-.41762867-.960226-.40840209z" fill="#333242"/><path d="m368.092757 23.1768232c-.380304-.4852151-1.081945-.5702626-1.56716-.1899588-.485215.3803037-.570263 1.0819453-.189959 1.5671605l23.887325 31.5569135c.186839.2429098.477149.3836661.78358.3801723.257747.0052503.509451-.078651.712346-.2377031.490795-.3481346.607586-1.0276445.261193-1.5196708z" fill="#ffb725"/><path d="m393.119835 23.1768232-29.419876 31.5569136c-.203017.2007237-.317265.4743433-.317265.7598354s.114248.5591117.317265.7598354c.185253.1575687.421698.2420135.664856.2376244.324923-.0044958.633876-.1418079.854815-.3800936l29.396131-31.5569135c.207896-.1931795.32601-.4641696.32601-.747963 0-.2837935-.118114-.5547835-.32601-.747963-.447215-.3761385-1.113639-.3232477-1.495926.1187243z" fill="#ffb725"/><path d="m523.692798.00184378h-67.910288c-3.831841.06358942-7.01247 2.9791659-7.408395 6.79102881l-7.123457 80.73251031c-.204072 1.9460564.43526 3.8863106 1.756235 5.3298501 1.320974 1.4435396 3.197038 2.2520674 5.153519 2.2218768h67.981522c3.814586-.0748885 6.978722-2.9744982 7.38465-6.7681467l7.123457-80.73251026c.212558-1.9583051-.429647-3.91315961-1.762135-5.36388889s-3.225831-2.25642015-5.195108-2.21072017z" fill="#42445d"/><path d="m527.51572.00184378h-74.820041c-2.119464.03568842-3.880615 1.64413901-4.10786 3.75168724l-.664856 7.66958848h82.370905l.664856-7.66958848c.102375-.96881052-.216306-1.93492465-.875011-2.6526863-.658705-.71776164-1.593974-1.11802018-2.567993-1.09900094z" fill="url(#j)"/><path d="m452.434486 5.24945695c-.786358.01942518-1.436484.61875965-1.519671 1.4009465-.041348.36185478.076097.72387695.321996.99254442s.596133.41762867.960226.40840208c.795031.00242968 1.457562-.60834156 1.519671-1.4009465.041348-.36185477-.076097-.72387694-.321997-.99254441-.245899-.26866747-.596133-.41762867-.960225-.40840209z" fill="#fff"/><path d="m457.207202 5.24945695c-.786358.01942518-1.436484.61875965-1.519671 1.4009465-.041348.36185478.076097.72387695.321996.99254442s.596133.41762867.960226.40840208c.795031.00242968 1.457563-.60834156 1.519671-1.4009465.041348-.36185477-.076097-.72387694-.321996-.99254441s-.596134-.41762867-.960226-.40840209z" fill="#fff"/><path d="m450.202469 85.1271524 9.782881-.0237448.189959-1.8520988-9.806626.0237449z" fill="#333242"/><path d="m461.576255 85.1034076h5.318848l.166214-1.8758437-5.318848.0237449z" fill="url(#k)"/><path d="m475.182058 85.1034076 3.870411-.0237449.166214-1.8520988h-3.846667z" fill="#333242"/><path d="m472.380165 85.1034076h1.305967l.189959-1.8758437h-1.329712z" fill="#333242"/><path d="m468.486008 85.1034076h2.398231l.166214-1.8758437-2.398231.0237449z" fill="#333242"/><path d="m460.03284 76.6027491h3.846666l.189959-1.8758436h-3.870412z" fill="#333242"/><path d="m450.986049 76.6027491h7.550865l.166214-1.8758436-7.550865.0237449z" fill="url(#l)"/><path d="m467.013827 55.3273582 7.550864-.0237449.166214-1.8520987-7.550864.0237448z" fill="#333242"/><path d="m463.119671 55.3273582h2.39823l.166214-1.8520988h-2.39823z" fill="#333242"/><path d="m466.206502 63.8280166 7.550864-.0237448.166214-1.8520988h-7.550864z" fill="url(#m)"/><path d="m462.312346 63.8280166h2.39823l.166214-1.8758436-2.39823.0237449z" fill="#333242"/><path d="m456.352387 16.7419672 14.223169-.0237448.189958-1.8520988-14.246913.0237449z" fill="#333242"/><path d="m475.63321 42.2439425 14.223169-.0237448.189958-1.8758436-14.246913.0237448z" fill="#333242"/><path d="m472.071481 16.7182224h3.537984l.166214-1.8758436-3.537984.0237448z" fill="#333242"/><path d="m459.011811 88.7601154 14.223168-.0474897.166214-1.8520988-14.223168.0237449z" fill="#333242"/><path d="m490.806173 76.6027491 14.246913-.0237448.166214-1.8758436-14.246913.0474897z" fill="#333242"/><path d="m455.948724 20.9922965h3.870412l.166214-1.8520988h-3.846667z" fill="#333242"/><path d="m477.34284 29.4929549 3.870411-.0237449.166214-1.8520987h-3.870412z" fill="#333242"/><path d="m461.315062 20.9922965h7.550864l.166214-1.8758437-7.550864.0237449z" fill="#333242"/><path d="m470.361852 20.9685516h2.39823l.166214-1.8520988h-2.39823z" fill="#333242"/><path d="m474.327243 20.9922965 7.550864-.0237449.166214-1.8758436-7.550864.0237448z" fill="url(#n)"/><path d="m483.374033 20.9685516h2.39823l.166214-1.8758436h-2.39823z" fill="url(#m)"/><path d="m477.722757 25.2188808h3.870412l.166214-1.8520987h-3.870412z" fill="#333242"/><path d="m483.089095 25.2188808 7.550864-.0237448.166214-1.8520988-7.550864.0237449z" fill="#333242"/><path d="m492.135885 25.195136h2.39823l.166214-1.8520988h-2.39823z" fill="#333242"/><path d="m455.568807 25.2663705 7.907037-.0237448.166214-1.8520988h-7.907037z" fill="url(#m)"/><path d="m464.97177 25.2426257h5.698765l.166214-1.8758436h-5.698765z" fill="#333242"/><path d="m472.166461 25.2426257 3.846667-.0237449.189958-1.8520987h-3.870411z" fill="#333242"/><path d="m472.427654 72.3049302h5.698766l.189959-1.8758436-5.722511.0237448z" fill="#333242"/><path d="m484.490041 80.8293335h3.846667l.166214-1.8520988h-3.846667z" fill="#333242"/><path d="m467.916132 42.2439425 5.698765-.0237448.166214-1.8520988h-5.698765z" fill="url(#m)"/><path d="m480.809588 85.1034076h3.870412l.166214-1.8520988h-3.846667z" fill="#333242"/><path d="m479.337407 72.3761648 3.846667-.0237449.166214-1.8520988h-3.846667z" fill="#333242"/><path d="m465.70786 76.626494 5.342593-.0237449.166214-1.8520987h-5.342593z" fill="#333242"/><path d="m479.337407 76.6027491h3.846667l.166214-1.8758436h-3.846667z" fill="url(#m)"/><path d="m476.51177 76.6027491h1.329711l.166214-1.8758436-1.329711.0237449z" fill="#333242"/><path d="m472.641358 76.6027491h2.374486l.166214-1.8520987h-2.374486z" fill="#333242"/><path d="m484.964938 76.626494 3.846667-.0237449.166214-1.8520987h-3.846667z" fill="#333242"/><path d="m467.749918 59.5539425h2.683168l.166214-1.8520987h-2.659423z" fill="#333242"/><path d="m462.739753 59.5776874h3.514239l.189959-1.8758436h-3.537984z" fill="#333242"/><path d="m455.236379 29.5166997h7.907037l.166214-1.8758436-7.907037.0237449z" fill="#333242"/><path d="m464.639342 29.5166997 5.698765-.0237448.166214-1.8520988h-5.698765z" fill="#333242"/><path d="m471.834033 29.4929549h3.846667l.166214-1.8758436-3.846667.0237448z" fill="#333242"/><path d="m454.856461 33.7907738 2.659424-.0237448.166214-1.8520988h-2.659424z" fill="#333242"/><path d="m459.011811 33.767029h3.537983l.166214-1.8520988h-3.537983z" fill="#333242"/><path d="m464.04572 33.767029 5.675021-.0237449.166214-1.8520988h-5.675021z" fill="#333242"/><path d="m463.618313 38.0648479h2.683168l.166214-1.8520988h-2.683168z" fill="#333242"/><path d="m467.797407 38.0648479h3.514239l.166214-1.8758436-3.514239.0237448z" fill="#333242"/><path d="m472.807572 38.0648479 5.675021-.0237449.166214-1.8520987h-5.675021z" fill="#333242"/><path d="m476.203086 55.351103 2.683169-.0237448.166214-1.8520988h-2.683169z" fill="#333242"/><path d="m480.358436 55.3273582h3.537984l.166214-1.8520988h-3.514239z" fill="#333242"/><path d="m485.392346 55.3273582h5.67502l.166214-1.8758436-5.67502.0237448z" fill="#333242"/><path d="m468.24856 72.3524199h2.683168l.166214-1.8758436h-2.683168z" fill="#333242"/><path d="m463.238395 72.3524199h3.514239l.166214-1.8758436-3.514239.0237448z" fill="#333242"/><path d="m456.067449 72.3761648 5.67502-.0237449.166214-1.8520988h-5.67502z" fill="#333242"/><path d="m473.282469 68.387029h5.675021l.166214-1.8758437-5.675021.0237449z" fill="#333242"/><path d="m464.069465 68.1020907 7.645844-.0237449.189958-1.8520987h-7.669588z" fill="#333242"/><path d="m460.175309 68.1020907h2.39823l.166214-1.8520988h-2.374486z" fill="#333242"/><path d="m456.447366 68.1258356 2.398231-.0237449.166214-1.8520988h-2.398231z" fill="#333242"/><path d="m462.264856 46.4942718 7.550864-.0237449.166214-1.8520988h-7.550864z" fill="#333242"/><path d="m458.3707 46.4942718h2.39823l.166214-1.8758437h-2.39823z" fill="#333242"/><path d="m463.808272 42.2201977h2.659423l.189959-1.8520988h-2.683168z" fill="#333242"/><path d="m471.145432 50.744601h2.659424l.166214-1.8520988h-2.659424z" fill="url(#n)"/><path d="m474.944609 50.744601h6.387366l.166214-1.8758436-6.387366.0237448z" fill="#333242"/><path d="m482.471728 50.744601h3.799177l.166214-1.8758436h-3.799177z" fill="#333242"/><path d="m458.798107 42.2439425 3.514239-.0237448.166214-1.8520988h-3.514239z" fill="#333242"/><path d="m459.486708 38.0648479 2.659424-.0237449.166214-1.8520987h-2.659424z" fill="url(#m)"/><path d="m454.476543 38.0648479h3.514239l.166214-1.8758436-3.514239.0237448z" fill="#333242"/><path d="m467.275021 50.7683458 2.39823-.0237448.166214-1.8520988h-2.39823z" fill="#333242"/><path d="m463.547078 50.7683458h2.374486l.189959-1.8758436h-2.398231z" fill="#333242"/><path d="m474.564691 80.8530783 8.168231-.0237448.166214-1.8520988-8.168231.0237449z" fill="#333242"/><path d="m489.927613 68.1020907h3.846667l.166214-1.8758436-3.846667.0237448z" fill="#333242"/><path d="m480.002263 68.1258356 8.168231-.0237449.166214-1.8520988h-8.168231z" fill="url(#m)"/><path d="m465.422922 80.8768232 7.645843-.0237448.166214-1.8520988h-7.645843z" fill="#333242"/><path d="m461.528765 80.8768232h2.398231l.166214-1.8758436-2.398231.0237448z" fill="#333242"/><path d="m457.800823 80.8768232h2.39823l.166214-1.8520988h-2.39823z" fill="#333242"/><path d="m450.582387 80.9005681 5.176378-.0237449.166214-1.8520988h-5.176378z" fill="#333242"/><path d="m524.167695 15.8633883c-1.053096.0289038-1.924083.8289971-2.042057 1.8758629l-6.197408 69.073786c-.047036.4814593.112097.9603086.437954 1.3178458.325857.3575373.78793.56029 1.271676.558017 1.057275-.0185237 1.934073-.8239541 2.042058-1.8758628l6.197407-69.073786c.047037-.4814593-.112097-.9603086-.437954-1.3178458-.325856-.3575373-.787929-.56029-1.271676-.5580171z" fill="#333242" opacity=".5"/><path d="m523.384115 23.8179275c-1.017594.008645-1.86129.7906075-1.947078 1.8046159l-.664856 7.4321399c-.047776.4946513.11614.9864015.451152 1.3534568.338387.3783287.822132.5942863 1.329712.5936229 1.022357-.0075282 1.873481-.7868702 1.970823-1.8046106l.664856-7.408395c.05165-.5022657-.112334-1.0028477-.451152-1.3772017-.347513-.3795218-.83887-.5950292-1.353457-.5936282z" fill="#333242"/><path d="m523.479095 22.9393731c-1.022358.0075282-1.873481.7868702-1.970823 1.8046106l-.664856 7.4321399c-.051086.4993537.123.9955003.474897 1.3534568.338993.3746842.8246.5828018 1.329712.5698766 1.013639.0036995 1.860554-.7709175 1.947078-1.7808642l.664856-7.43214c.047776-.4946513-.11614-.9864015-.451152-1.3534568-.338387-.3783287-.822132-.5942862-1.329712-.5936229z" fill="url(#p)"/><path d="m182.716667 197.060403c-.232521 2.312776.540124 4.61394 2.121265 6.317756s3.818268 2.64594 6.141945 2.586565h132.520041c5.052613-.055161 9.265543-3.88046 9.806625-8.904321l16.906338-191.52600778h-150.589877z" fill="#42445d"/><path d="m197.034815 132.878058h122.570946l9.331729-105.8308233h-122.570947z" fill="#333242"/><path d="m273.801934 159.472296h41.957161l1.139753-13.10716h-41.933416z" fill="#333242"/><path d="m196.464938 159.472296h71.044609l1.163498-13.10716h-71.044609z" fill="#333242"/><path d="m193.805514 189.010897h119.270412l1.970823-21.679053h-119.270412z" fill="#333242"/><path d="m199.029383 12.3729137h150.566131l1.092264-12.37106992h-150.589877z" fill="url(#q)"/><path d="m340.335021 15.5066066c-2.0592.0344697-3.775069 1.58789-4.012881 3.6335911l-15.386667 174.4772013c-.095311.9397.216536 1.875206.85662 2.569765.640083.694559 1.547064 1.08161 2.491405 1.063826 2.059199-.034469 3.775069-1.58789 4.012881-3.633591l15.386666-174.4772013c.095311-.9396993-.216536-1.8752062-.856619-2.569765-.640084-.6945588-1.547064-1.0816094-2.491405-1.0638261z" fill="#333242" opacity=".5"/><path d="m338.387942 34.8592923c-1.978941.0047961-3.6271 1.5190424-3.799177 3.4904939l-1.305967 15.3391769c-.095095.9778782.22351 1.9509133.87856 2.6831687.678233.7180836 1.624207 1.1222725 2.611934 1.11608 1.971199-.0135133 3.617378-1.5063217 3.822922-3.4668207l1.282222-15.3629218c.094443-.9796855-.231988-1.9533375-.897874-2.678112-.665887-.7247745-1.608457-1.1323479-2.59262-1.121065z" fill="#333242"/><path d="m338.577901 32.5085248c-1.979394.0147606-3.628675 1.5206259-3.822922 3.4905206l-1.305967 15.3629218c-.093949.9747848.234575 1.943066.902305 2.6594239.663294.7280512 1.603297 1.1419978 2.588189 1.1397622 1.979394-.0147429 3.628675-1.5206082 3.822922-3.4905029l1.305967-15.3629218c.086833-.9779479-.242211-1.9472473-.906452-2.670231-.664242-.7229836-1.602254-1.1327934-2.584042-1.1289728z" fill="url(#r)"/><path d="m323.713621 32.4610619h-51.621316c-.454381.0094454-.830818.3553608-.87856.8073251-.020771.205136.04836.4092087.18953.5594861.14117.1502775.340528.2320158.54656.2240941h51.621317c.446377-.0078762.819886-.3410059.87856-.7835802.020152-.207241-.048408-.4133222-.188696-.5671865-.140289-.1538643-.339178-.2411161-.547395-.2401386z" fill="#584efe"/><path d="m267.177119 32.4610619h-8.476913c-.454381.0094454-.830818.3553608-.87856.8073251-.020771.205136.048361.4092087.18953.5594861.14117.1502775.340528.2320158.546561.2240941h8.381934c.45042.0026391.829872-.335791.878559-.7835802.026768-.1929149-.02662-.3883772-.14774-.5408983-.121119-.1525211-.299407-.2487987-.493371-.2664268z" fill="#584efe"/><path d="m249.534691 32.4610619h-36.638312c-.449561.0106834-.818481.3591076-.854815.8073251-.020771.205136.04836.4092087.18953.5594861.14117.1502775.340528.2320158.54656.2240941h36.614568c.446377-.0078762.819886-.3410059.87856-.7835802.028306-.2089675-.037429-.4197372-.179507-.5755652s-.345897-.2406975-.556584-.2317599z" fill="#584efe"/><path d="m323.238724 37.7561648h-62.401481c-.454381.0094454-.830818.3553608-.87856.8073251-.020771.205136.048361.4092087.18953.5594861.14117.1502774.340528.2320158.546561.2240941h62.425226c.441329-.0093541.807192-.3447284.854815-.7835802.028306-.2089675-.037429-.4197372-.179507-.5755652-.142079-.155828-.345897-.2406976-.556584-.2317599z" fill="#584efe"/><path d="m254.75856 36.735136h-25.383251c-.450298.0194483-.821196.3602732-.87856.8073251-.013145.203313.058565.4029807.198059.5514744s.334294.2325303.538032.2321058h25.383251c.446377-.0078763.819886-.3410059.878559-.7835802.020153-.2072411-.048408-.4133222-.188696-.5671866-.140288-.1538643-.339178-.2411161-.547394-.2401385z" fill="#584efe"/><path d="m224.673827 36.735136h-12.917201c-.454381.0094454-.830818.3553608-.87856.8073251-.020771.205136.04836.4092086.18953.5594861.14117.1502774.340528.2320158.54656.2240941h12.917202c.446377-.0078763.819886-.3410059.87856-.7835802.028306-.2089675-.037429-.4197372-.179507-.5755652-.142079-.155828-.345897-.2406976-.556584-.2317599z" fill="#584efe"/><path d="m319.985679 44.1672759h-73.799012c-.446378.0078763-.819887.3410059-.87856.7835802-.020152.2072411.048408.4133222.188696.5671865.140288.1538644.339178.2411162.547395.2401386h73.799012c.450297-.0194483.821195-.3602732.87856-.8073251.013144-.203313-.058565-.4029807-.198059-.5514744s-.334295-.2325303-.538032-.2321058z" fill="#584efe"/><path d="m237.519794 44.1672759h-19.945679c-.45042-.0026391-.829872.335791-.878559.7835802-.028307.2089675.037428.4197372.179506.5755652.142079.155828.345898.2406976.556584.2317599h19.898189c.454381-.0094454.830818-.3553608.87856-.8073251.019866-.1968639-.043044-.393121-.173657-.5417492-.130613-.1486283-.317159-.2362353-.514944-.241831z" fill="#584efe"/><path d="m267.652016 49.9610207h-56.987654c-.454381.0094455-.830818.3553608-.87856.8073251-.02077.205136.048361.4092087.189531.5594862.141169.1502774.340527.2320158.54656.2240941h56.987654c.450421.002639.829873-.335791.87856-.7835803.028306-.2089674-.037428-.4197371-.179507-.5755651-.142078-.155828-.345897-.2406976-.556584-.23176z" fill="#584efe"/><path d="m321.481605 57.8680578h-78.999136c-.446377.0078762-.819886.3410059-.87856.7835802-.029493.2070055.036668.4161985.179831.5685977s.347817.2314935.55626.2149826h78.999136c.445626.0015498.817682-.3395014.854815-.7835803.020197-.2009313-.045839-.4009927-.181681-.5504191-.135842-.1494263-.328724-.2341736-.530665-.2331611z" fill="#584efe"/><path d="m266.536008 62.8069878h-58.43609c-.441329.0093541-.807192.3447285-.854815.7835803-.028306.2089674.037428.4197371.179507.5755651.142078.155828.345897.2406976.556583.23176h58.412346c.454381-.0094455.830818-.3553608.87856-.8073251.013145-.203313-.058565-.4029808-.198059-.5514745-.139494-.1484936-.334295-.2325303-.538032-.2321058z" fill="#584efe"/><path d="m318.062346 77.4338191h-48.154568c-.450421-.0026391-.829873.335791-.87856.7835802-.013145.203313.058565.4029808.198059.5514745.139494.1484936.334295.2325303.538032.2321058h48.059588c.446377-.0078763.819886-.3410059.87856-.7835803.019867-.1891196-.036706-.3783324-.157122-.5255084-.120417-.147176-.29468-.2400965-.483989-.2580718z" fill="#584efe"/><path d="m322.170206 49.9610207h-20.966708c-.454381.0094455-.830818.3553608-.87856.8073251-.02077.205136.048361.4092087.18953.5594862.14117.1502774.340528.2320158.546561.2240941h20.966708c.446377-.0078763.819886-.3410059.878559-.7835803.020153-.207241-.048408-.4133222-.188696-.5671865s-.339178-.2411161-.547394-.2401386z" fill="#584efe"/><path d="m294.816132 150.045589h-14.0807c-.433357.007748-.796313.330375-.854815.759835-.020197.200931.045839.400993.181681.550419s.328724.234174.530665.233161h14.0807c.437277-.019287.797647-.349627.854814-.78358.020841-.198828-.045757-.396899-.182489-.542746s-.330098-.225072-.529856-.217089z" fill="#fff"/><path d="m312.529794 154.723325h-32.459218c-.433357.007748-.796313.330375-.854815.759836-.020197.200931.045839.400992.181681.550419.135842.149426.328724.234173.530665.233161h32.459218c.437277-.019288.797648-.349627.854815-.78358.02084-.198829-.045757-.396899-.182489-.542747-.136732-.145847-.330099-.225072-.529857-.217089z" fill="#fff"/><path d="m263.449177 150.045589h-5.81749c-.432549-.001592-.793997.328875-.83107.759835-.028425.202648.034752.40744.172402.558855s.335512.233765.539944.224725h5.81749c.436485-.01062.794814-.348473.83107-.78358.029668-.200692-.033918-.403947-.172671-.551951-.138754-.148003-.337488-.224556-.539675-.207884z" fill="#fff"/><path d="m252.811481 150.045589h-5.817489c-.433357.007748-.796313.330375-.854815.759835-.020197.200931.045839.400993.181681.550419s.328723.234174.530665.233161h5.817489c.437278-.019287.797648-.349627.854815-.78358.020841-.198828-.045757-.396899-.182489-.542746s-.330098-.225072-.529857-.217089z" fill="#fff"/><path d="m242.221276 150.045589h-5.81749c-.441622-.014231-.817171.31959-.854815.759835-.020197.200931.045839.400993.181681.550419s.328724.234174.530665.233161h5.81749c.437277-.019287.797647-.349627.854814-.78358.020841-.198828-.045757-.396899-.182489-.542746s-.330098-.225072-.529856-.217089z" fill="#fff"/><path d="m231.607325 150.045589h-5.81749c-.433357.007748-.796313.330375-.854814.759835-.020197.200931.045838.400993.181681.550419.135842.149426.328723.234174.530664.233161h5.81749c.445626.00155.817682-.339501.854815-.78358.02084-.198828-.045757-.396899-.182489-.542746s-.330099-.225072-.529857-.217089z" fill="#fff"/><path d="m221.017119 150.045589h-5.817489c-.437367-.002708-.806226.325167-.854815.759835-.020197.200931.045839.400993.181681.550419s.328723.234174.530664.233161h5.81749c.437278-.019287.797648-.349627.854815-.78358.020841-.198828-.045757-.396899-.182489-.542746s-.330099-.225072-.529857-.217089z" fill="#fff"/><path d="m210.403169 150.045589h-5.81749c-.433357.007748-.796313.330375-.854815.759835-.020771.205136.048361.409209.18953.559486.14117.150278.340528.232016.546561.224094h5.793745c.445626.00155.817681-.339501.854814-.78358.029668-.200692-.033918-.403947-.172671-.551951-.138753-.148003-.337488-.224556-.539674-.207884z" fill="#fff"/><path d="m263.02177 154.509622h-3.751688c-.441622-.014231-.817171.31959-.854815.759835-.020196.200931.045839.400993.181681.550419.135843.149426.328724.234174.530665.233161h3.751687c.437278-.019287.797648-.349627.854815-.78358.020841-.198828-.045757-.396899-.182489-.542746-.136732-.145848-.330098-.225072-.529856-.217089z" fill="#fff"/><path d="m254.283663 154.509622h-3.751688c-.433357.007747-.796313.330375-.854815.759835-.02077.205136.048361.409209.189531.559486.141169.150278.340527.232016.54656.224094h3.751687c.436486-.01062.794815-.348473.83107-.78358.029668-.200692-.033918-.403947-.172671-.551951-.138753-.148003-.337488-.224556-.539674-.207884z" fill="#fff"/><path d="m245.5693 154.509622h-3.751687c-.433357.007747-.796313.330375-.854815.759835-.020197.200931.045839.400993.181681.550419s.328724.234174.530665.233161h3.751687c.437278-.019287.797648-.349627.854815-.78358.020841-.198828-.045757-.396899-.182489-.542746-.136732-.145848-.330098-.225072-.529857-.217089z" fill="#fff"/><path d="m236.854938 154.509622h-3.751687c-.441622-.014231-.817171.31959-.854815.759835-.020197.200931.045839.400993.181681.550419s.328724.234174.530665.233161h3.751687c.437277-.019287.797648-.349627.854815-.78358.020841-.198828-.045757-.396899-.182489-.542746-.136732-.145848-.330099-.225072-.529857-.217089z" fill="#fff"/><path d="m228.116831 154.509622h-3.751687c-.433357.007747-.796313.330375-.854815.759835-.020197.200931.045839.400993.181681.550419s.328724.234174.530665.233161h3.751687c.445626.00155.817682-.339501.854815-.78358.020841-.198828-.045757-.396899-.182489-.542746-.136732-.145848-.330099-.225072-.529857-.217089z" fill="#fff"/><path d="m219.402469 154.509622h-3.751687c-.441622-.014231-.817171.31959-.854815.759835-.020197.200931.045839.400993.181681.550419s.328723.234174.530665.233161h3.751687c.437277-.019287.797648-.349627.854815-.78358.02084-.198828-.045757-.396899-.182489-.542746-.136732-.145848-.330099-.225072-.529857-.217089z" fill="#fff"/><path d="m210.664362 154.509622h-3.751687c-.433357.007747-.796313.330375-.854815.759835-.020771.205136.048361.409209.18953.559486.14117.150278.340528.232016.546561.224094h3.751687c.436485-.01062.794814-.348473.83107-.78358.029668-.200692-.033918-.403947-.172671-.551951-.138753-.148003-.337488-.224556-.539675-.207884z" fill="#fff"/><path d="m305.572551 172.911885c-.30162-.334405-.81722-.360982-1.151625-.059362s-.360982.81722-.059362 1.151625l3.27679 3.514239-3.822922 3.37177c-.283673.308833-.283673.78343 0 1.092263.136637.157845.337505.245179.546132.237448.213915-.000524.418878-.085925.569876-.237448l4.321564-3.917901c.147988-.143154.231546-.340236.231546-.546132 0-.205897-.083558-.402978-.231546-.546132z" fill="#fff"/><path d="m301.440947 172.911885c-.143154-.147988-.340236-.231546-.546132-.231546-.205897 0-.402978.083558-.546132.231546-.164638.126309-.270455.314457-.292878.520749-.022423.206293.040499.412782.174154.571514l3.27679 3.514239-3.704198 3.37177c-.147988.143153-.231545.340235-.231545.546131 0 .205897.083557.402979.231545.546132.127013.157007.320579.244992.522387.237448.213915-.000524.418878-.085925.569877-.237448l4.321564-3.917901c.147988-.143154.231545-.340236.231545-.546132 0-.205897-.083557-.402978-.231545-.546132z" fill="#fff"/><path d="m276.223909 87.2404446c-.315052-.3139643-.8247-.3139643-1.139753 0-.156864.1480374-.245771.3541882-.245771.5698765 0 .2156884.088907.4218392.245771.5698766l8.191976 8.8568313-9.355474 8.476914c-.313964.315052-.313964.8247 0 1.139753.146112.141447.342825.218422.546132.213703.215473-.00678.42327-.081587.593622-.213703l9.972839-9.0705353c.149369-.1472575.233463-.3482526.233463-.5580042 0-.2097515-.084094-.4107467-.233463-.5580041z" fill="#584efe"/><path d="m266.678477 87.2404446c-.315052-.3139643-.8247-.3139643-1.139753 0-.156864.1480374-.245771.3541882-.245771.5698765 0 .2156884.088907.4218392.245771.5698766l8.191976 8.8568313-9.355474 8.476914c-.313964.315052-.313964.8247 0 1.139753.146112.141447.342825.218422.546132.213703.215473-.00678.42327-.081587.593621-.213703l9.97284-9.0705353c.149368-.1472575.233463-.3482526.233463-.5580042 0-.2097515-.084095-.4107467-.233463-.5580041z" fill="#584efe"/><path d="m234.053045 87.0266801c-.217143-.0024589-.42791.0734175-.593621.2137645l-9.97284 9.070535c-.149368.1472574-.233462.3482526-.233462.5580041s.084094.4107467.233462.5580041l8.714363 9.4979422c.315052.313965.8247.313965 1.139753 0 .301544-.320083.301544-.81967 0-1.139753l-8.191976-8.8568312 9.355474-8.4769135c.301544-.320083.301544-.8196702 0-1.1397531-.112418-.1448353-.272065-.2456647-.451153-.2849991z" fill="#584efe"/><path d="m243.598477 87.0266801c-.217143-.0024589-.42791.0734175-.593621.2137645l-9.97284 9.070535c-.149368.1472574-.233462.3482526-.233462.5580041s.084094.4107467.233462.5580041l8.714363 9.4979422c.315052.313965.8247.313965 1.139753 0 .301544-.320083.301544-.81967 0-1.139753l-8.191976-8.8568312 9.355474-8.4769135c.301544-.320083.301544-.8196702 0-1.1397531-.112418-.1448353-.272064-.2456647-.451153-.2849991z" fill="#584efe"/><path d="m290.684527 172.674436h-88.093416c-.437277.019288-.797647.349627-.854815.783581-.02084.198828.045758.396899.182489.542746.136732.145847.330099.225072.529857.217089h88.093416c.433357-.007748.796313-.330375.854814-.759835.020197-.200932-.045838-.400993-.181681-.550419-.135842-.149427-.328723-.234174-.530664-.233162z" fill="#fff"/><path d="m290.328354 176.663572h-53.378436c-.437278.019288-.797648.349627-.854815.78358-.020841.198829.045757.396899.182489.542747.136732.145847.330098.225072.529857.217089h53.378436c.437367.002707.806226-.325167.854815-.759836.020197-.200931-.045839-.400992-.181681-.550419-.135843-.149426-.328724-.234173-.530665-.233161z" fill="#fff"/><path d="m289.829712 182.291103h-53.378436c-.437278.019288-.797648.349627-.854815.78358-.020841.198829.045757.396899.182489.542746.136732.145848.330098.225073.529857.21709h53.378436c.441622.01423.817171-.319591.854815-.759836.020197-.200931-.045839-.400992-.181681-.550419-.135842-.149426-.328724-.234173-.530665-.233161z" fill="#fff"/><path d="m222.655514 109.560609h-15.576625c-.454381.009446-.830818.355361-.87856.807325-.020771.205136.048361.409209.18953.559486.14117.150278.340528.232016.546561.224095h15.576625c.446377-.007877.819886-.341006.87856-.783581.028306-.208967-.037429-.419737-.179507-.575565s-.345897-.240697-.556584-.23176z" fill="#584efe"/><path d="m343.326872 3.6585516-4.748971 4.41654321c-.114523.10604024-.163776.26512303-.129204.41732341s.147716.27439548.296811.32055558c.149095.04616011.311491.0092724.426015-.09676788l4.748971-4.44028806c.084182-.08061987.131786-.19212334.131786-.30868313s-.047604-.22806326-.131786-.30868313c-.076425-.08291403-.184048-.130081-.296811-.130081s-.220386.04716697-.296811.130081z" fill="#fff"/><path d="m339.432716 3.6585516c-.081136-.09199963-.197889-.14470398-.320556-.14470398-.122666 0-.239419.05270435-.320555.14470398-.162845.17357301-.162845.44379325 0 .61736626l4.202839 4.44028806c.173573.16284519.443794.16284519.617367 0 .085555-.08472973.133689-.20014449.133689-.32055555 0-.12041107-.048134-.23582583-.133689-.32055556z" fill="#fff"/><path d="m332.641687 3.18361674c-1.662672.03331595-3.023787 1.33256171-3.134321 2.99188959-.080881.79110447.178209 1.57931287.712687 2.16814391.534477.58883103 1.293989.92281122 2.089206.91872511 1.672071-.01029406 3.046347-1.3221028 3.134321-2.99188959.080882-.79110447-.178209-1.57931287-.712686-2.16814391-.534478-.58883103-1.293989-.92281122-2.089207-.91872511zm-.261193 5.29514062c-.617953.00906439-1.210829-.2440437-1.631707-.69660144-.420879-.45255774-.630372-1.06221203-.576565-1.67788415 0-1.31139219 1.063094-2.37450131 2.374486-2.37450131.613838-.00230985 1.200331.25373286 1.615937.70547868s.621972 1.05750556.56859 1.66902263c.000127.63806787-.25655 1.24933752-.712176 1.69603061-.455627.44669309-1.071859.69121635-1.7098.67845498z" fill="#fff"/><path d="m326.278066 8.0276051h-5.366338c-.187797-.00041776-.343653.14504824-.356172.33242798-.015268.08770889.011336.177513.071916.24275201.060579.06523902.148169.09841391.236767.08967598h5.390082c.187797.00041776.343653-.14504824.356173-.33242799 0-.1835949-.148833-.33242798-.332428-.33242798z" fill="#fff"/><path d="m339.432716 197.012914c-.240188 2.15045.45968 4.2999 1.919972 5.896669 1.460293 1.596768 3.538829 2.485385 5.702127 2.437775h158.900576c4.696535-.083553 8.590738-3.661734 9.070535-8.334444l7.503374-85.908889h-175.711934z" fill="#42445d"/><path d="m411.474609 151.541515h89.066955l3.086831-35.379836h-89.066955z" fill="#333242"/><path d="m472.26144 169.112708h26.760453l.949794-10.970123h-26.760452z" fill="#333242"/><path d="m409.931193 169.112708h58.697284l.973539-10.970123h-58.697283z" fill="#333242"/><path d="m353.038519 131.477111h53.639629l1.329712-15.315432h-53.63963z" fill="#333242"/><path d="m347.838395 191.02921h149.260165l1.329712-15.315432h-149.260165z" fill="#333242"/><path d="m349.643004 170.34744h53.63963l3.039341-34.857448h-53.639629z" fill="#333242"/><path d="m346.98358 111.104025h175.59321l1.234733-10.495226h-175.616955z" fill="url(#n)"/><path d="m512.983868 113.549471c-1.704239.026769-3.120694 1.32094-3.300535 3.015871l-6.862263 78.358024c-.081477.782637.17566 1.562754.706542 2.143548.530883.580794 1.284817.906807 2.071606.896064 1.712409-.028131 3.13191-1.335297 3.300535-3.039612l6.838519-78.358024c.081531-.776326-.173076-1.550429-.699515-2.126788-.526439-.57636-1.274372-.899866-2.054889-.889083z" fill="#333242" opacity=".5"/><path d="m511.725391 126.419457c-1.63436.004488-2.999514 1.24647-3.158066 2.873128l-1.092263 12.038641c-.07417.806631.192776 1.60747.73609 2.208272.556294.604072 1.339586.948376 2.160782.949794 1.638315-.016666 3.000379-1.266078 3.158066-2.896872l1.092263-12.014897c.089128-.815931-.177924-1.630667-.732755-2.235523-.55483-.604856-1.343542-.941076-2.164117-.922543z" fill="#333242"/><path d="m511.844115 124.994766c-1.63436.004488-2.999514 1.24647-3.158066 2.873127l-1.068518 12.038642c-.086473.808005.182109 1.613751.73609 2.208272.556294.604071 1.339586.948375 2.160782.949794 1.638315-.016667 3.000379-1.266079 3.158066-2.896872l1.092264-12.038642c.066893-.812689-.21183-1.615935-.767734-2.212515s-1.337502-.931239-2.152884-.921806z" fill="url(#s)"/><path d="m499.425556 120.578222h-32.031811c-.362504-.000863-.663602.279469-.688601.641111-.029383.164677.018323.333738.129456.458762.111133.125025.273435.192223.440421.18235h32.03181c.3631-.008694.665585-.280931.712346-.641112.013283-.165491-.043345-.328982-.156143-.450803-.112797-.121822-.271456-.19084-.437478-.190308z" fill="#584efe"/><path d="m463.452099 120.578222h-6.743539c-.367199-.00184-.67563.275748-.712346.641111-.013283.165492.043345.328983.156142.450804.112798.121822.271457.19084.437479.190308h6.743539c.3631-.008694.665585-.280931.712346-.641112.013283-.165491-.043345-.328982-.156142-.450803-.112798-.121822-.271457-.19084-.437479-.190308z" fill="#584efe"/><path d="m449.252675 120.578222h-29.443622c-.363099.008694-.665584.280931-.712345.641111-.013283.165492.043345.328983.156142.450804.112798.121822.271457.19084.437479.190308h29.467366c.362505.000863.663602-.279469.688601-.641112.021286-.167274-.0326-.335387-.147165-.459116-.114564-.123729-.278041-.190369-.446456-.181995z" fill="#584efe"/><path d="m499.045638 124.828552h-40.698683c-.3631.008693-.665585.28093-.712346.641111-.020476.169366.032904.339355.146525.466611.113622.127256.276502.199478.447096.198245h40.698684c.375594.000835.687307-.290097.712345-.664856.013283-.165492-.043345-.328983-.156142-.450804-.112798-.121822-.271457-.19084-.437479-.190307z" fill="#584efe"/><path d="m453.408025 124.068716h-20.396832c-.367198-.00184-.67563.275748-.712345.641111-.013283.165492.043345.328983.156142.450804.112798.121822.271457.19084.437479.190307h20.515556c.363099-.008693.665584-.28093.712345-.641111.019179-.188408-.052691-.37466-.193458-.50135-.140766-.126689-.333533-.178611-.518887-.139761z" fill="#584efe"/><path d="m429.259506 124.068716h-10.376502c-.363099.008694-.665585.280931-.712346.641111-.013282.165492.043345.328983.156143.450804.112798.121822.271456.19084.437479.190307h10.400247c.362504.000863.663601-.279468.688601-.641111.021286-.167274-.032601-.335387-.147165-.459116s-.278042-.19037-.446457-.181995z" fill="#584efe"/><path d="m496.409959 130.09991h-49.864198c-.371144.010248-.676556.295299-.712345.664856-.013283.165491.043344.328982.156142.450804.112798.121821.271456.190839.437479.190307h49.864198c.358084-.01016.652922-.284664.6886-.641111.028209-.166783-.019132-.337477-.129213-.465906-.110082-.128429-.271529-.201319-.440663-.19895z" fill="#584efe"/><path d="m439.588519 130.09991h-16.051523c-.371221-.000221-.6758.293856-.688601.664856-.013283.165491.043345.328982.156143.450804.112797.121821.271456.190839.437478.190307h16.027778c.3631-.008694.665585-.280931.712346-.641111.020476-.169366-.032904-.339355-.146525-.466612-.113622-.127256-.276502-.199478-.447096-.198244z" fill="#584efe"/><path d="m463.832016 134.848881h-45.898806c-.362504-.000863-.663602.279469-.688601.641111-.021286.167274.032601.335387.147165.459116.114564.12373.278041.19037.446456.181995h45.875062c.3631-.008693.665585-.28093.712346-.641111.013283-.165491-.043345-.328983-.156143-.450804-.112797-.121821-.271456-.190839-.437479-.190307z" fill="#584efe"/><path d="m497.620947 141.259992h-54.043293c-.371144.010248-.676556.295299-.712345.664856-.013283.165491.043344.328982.156142.450804.112798.121821.271456.190839.437479.190307h54.043292c.3631-.008694.665585-.28093.712346-.641111.020476-.169366-.032904-.339355-.146525-.466611-.113622-.127257-.276502-.199478-.447096-.198245z" fill="#584efe"/><path d="m465.80284 143.99065h-46.99107c-.366417.011416-.664339.299066-.688601.664856-.021286.167275.0326.335388.147165.459117.114564.123729.278041.190369.446456.181994h46.967325c.362504.000863.663602-.279468.688601-.641111.028208-.166782-.019132-.337477-.129214-.465906s-.271528-.201318-.440662-.19895z" fill="#584efe"/><path d="m486.912016 147.31493h-29.158683c-.367198-.00184-.67563.275748-.712345.641111-.013283.165492.043344.328983.156142.450804.112798.121822.271456.19084.437479.190307h29.158683c.362504.000863.663602-.279468.688601-.641111.029383-.164676-.018323-.333737-.129456-.458761-.111133-.125025-.273435-.192224-.440421-.18235z" fill="#584efe"/><path d="m498.167078 134.848881h-16.835103c-.367198-.00184-.67563.275748-.712345.641111-.013283.165491.043344.328982.156142.450804.112798.121821.271456.190839.437479.190307h16.858848c.362504.000863.663601-.279469.688601-.641111.021286-.167275-.032601-.335387-.147165-.459117-.114564-.123729-.278042-.190369-.446457-.181994z" fill="#584efe"/><path d="m496.362469 165.147317h-18.995885c-.367198-.00184-.67563.275748-.712345.641111-.013283.165491.043345.328983.156142.450804.112798.121822.271457.190839.437479.190307h18.995885c.362504.000863.663601-.279469.688601-.641111.029383-.164676-.018323-.333737-.129457-.458762-.111133-.125024-.273434-.192223-.44042-.182349z" fill="#584efe"/><path d="m466.443951 160.018428h-4.748972c-.37122-.000221-.6758.293856-.6886.664856-.029384.164677.018323.333737.129456.458762s.273434.192223.44042.182349h4.748971c.3631-.008693.665585-.28093.712346-.641111.020476-.169366-.032904-.339355-.146525-.466611-.113622-.127257-.276502-.199478-.447096-.198245z" fill="#584efe"/><path d="m457.682099 160.018428h-4.748971c-.371221-.000221-.675801.293856-.688601.664856-.021286.167275.0326.335387.147165.459117.114564.123729.278041.190369.446456.181994h4.748971c.3631-.008693.665585-.28093.712346-.641111.021181-.173588-.035255-.347683-.154249-.475831-.118994-.128147-.288438-.197307-.463117-.189025z" fill="#584efe"/><path d="m448.920247 160.018428h-4.748971c-.371221-.000221-.6758.293856-.688601.664856-.013283.165491.043345.328983.156142.450804.112798.121821.271457.190839.437479.190307h4.748971c.3631-.008693.665585-.28093.712346-.641111.021181-.173588-.035255-.347683-.154249-.475831-.118994-.128147-.288438-.197307-.463117-.189025z" fill="#584efe"/><path d="m440.158395 160.018428h-4.748971c-.375594-.000835-.687307.290097-.712346.664856-.013283.165491.043345.328983.156143.450804.112797.121821.271456.190839.437479.190307h4.748971c.367198.00184.67563-.275748.712345-.641111.020477-.169366-.032903-.339355-.146525-.466611-.113622-.127257-.276501-.199478-.447096-.198245z" fill="#584efe"/><path d="m431.396543 160.018428h-4.748971c-.375594-.000835-.687307.290097-.712346.664856-.013282.165491.043345.328983.156143.450804.112797.121821.271456.190839.437479.190307h4.748971c.367199.00184.67563-.275748.712346-.641111.020476-.169366-.032904-.339355-.146526-.466611-.113622-.127257-.276501-.199478-.447096-.198245z" fill="#584efe"/><path d="m422.539712 160.018428h-4.748971c-.371144.010248-.676557.295299-.712346.664856-.013283.165491.043345.328983.156143.450804.112797.121821.271456.190839.437478.190307h4.748972c.362504.000863.663601-.279469.6886-.641111.020072-.165307-.030211-.331444-.138582-.457876-.10837-.126432-.264862-.201533-.431294-.20698z" fill="#584efe"/><path d="m466.111523 163.770115h-3.205556c-.362504-.000863-.663601.279469-.688601.641111-.021286.167275.032601.335388.147165.459117s.278041.190369.446457.181995h3.086831c.363099-.008694.665585-.280931.712346-.641112.028868-.311764-.189365-.592349-.498642-.641111z" fill="#584efe"/><path d="m458.893086 163.770115h-3.110576c-.367198-.00184-.67563.275748-.712345.641111-.013283.165492.043344.328983.156142.450804.112798.121822.271456.19084.437479.190308h3.110576c.362504.000863.663602-.279469.688601-.641112.020547-.163048-.030293-.327029-.139474-.449857-.10918-.122828-.26607-.192543-.430403-.191254z" fill="#584efe"/><path d="m451.698395 163.770115h-3.039342c-.362504-.000863-.663601.279469-.6886.641111-.029384.164677.018323.333738.129456.458762.111133.125025.273434.192223.44042.18235h3.110576c.3631-.008694.665585-.280931.712346-.641112.01573-.17867-.050168-.354873-.17928-.479375-.129113-.124501-.307595-.18395-.485576-.161736z" fill="#584efe"/><path d="m444.479959 163.770115h-3.086831c-.367199-.00184-.67563.275748-.712346.641111-.013283.165492.043345.328983.156142.450804.112798.121822.271457.19084.437479.190308h3.086832c.367198.00184.67563-.275748.712345-.641112.013283-.165491-.043345-.328982-.156142-.450803-.112798-.121822-.271457-.19084-.437479-.190308z" fill="#584efe"/><path d="m437.285267 163.770115h-3.110576c-.363099.008694-.665584.280931-.712345.641111-.013283.165492.043345.328983.156142.450804.112798.121822.271457.19084.437479.190308h3.110576c.362504.000863.663602-.279469.688601-.641112.029383-.164676-.018323-.333737-.129456-.458761-.111133-.125025-.273435-.192223-.440421-.18235z" fill="#584efe"/><path d="m430.066831 163.770115h-3.110576c-.362504-.000863-.663601.279469-.688601.641111-.021286.167275.032601.335388.147165.459117s.278041.190369.446457.181995h3.086831c.367199.00184.67563-.275748.712346-.641112.013282-.165491-.043345-.328982-.156143-.450803-.112797-.121822-.271456-.19084-.437479-.190308z" fill="#584efe"/><path d="m422.848395 163.770115h-3.086831c-.3631.008694-.665585.280931-.712346.641111-.013283.165492.043345.328983.156143.450804.112797.121822.271456.19084.437479.190308h3.110576c.362504.000863.663601-.279469.6886-.641112.021286-.167274-.0326-.335387-.147164-.459116s-.278042-.190369-.446457-.181995z" fill="#584efe"/><path d="m491.803457 179.156782c-.262594-.238554-.663456-.238554-.92605 0-.126273.12093-.197679.288185-.197679.463025 0 .174839.071406.342095.197679.463024l2.683169 2.944363-3.063086 2.825637c-.126273.12093-.19768.288185-.19768.463025s.071407.342095.19768.463025c.106774.124209.26366.193937.427407.189959.175495-.006537.343307-.073662.474897-.189959l3.561729-3.27679c.250317-.257937.250317-.668113 0-.92605z" fill="#584efe"/><path d="m488.384198 179.156782c-.262594-.238554-.663456-.238554-.92605 0-.250317.257936-.250317.668113 0 .926049l2.706914 2.944363-3.086832 2.825637c-.250317.257937-.250317.668114 0 .92605.11934.120499.281563.188803.451153.189959.168574-.005926.32911-.07352.451152-.189959l3.585473-3.27679c.250318-.257937.250318-.668113 0-.92605z" fill="#584efe"/><path d="m399.174774 120.032091c-.249165-.275393-.674402-.296655-.949795-.04749-.275392.249164-.296654.674402-.047489.949794l2.706913 2.968107-3.086831 2.801893c-.250317.257937-.250317.668113 0 .92605.11934.120499.281563.188803.451152.189958.175495-.006536.343307-.073661.474897-.189958l3.561729-3.276791c.127131-.116916.203774-.278718.213703-.451152.031244-.171977-.021719-.348518-.142469-.474897z" fill="#584efe"/><path d="m402.19037 138.814272h-26.997901c-.367198-.00184-.67563.275748-.712346.641111-.013048.167745.042933.333548.154991.459053s.270485.199838.438631.205803h27.021646c.366416-.011416.664339-.299066.688601-.664856.021286-.167275-.032601-.335387-.147165-.459117-.114564-.123729-.278041-.190369-.446457-.181994z" fill="#584efe"/><path d="m401.905432 142.233531h-10.613951c-.362504-.000863-.663601.279469-.6886.641111-.028209.166782.019132.337477.129214.465906s.271528.201319.440662.19895h10.613951c.375594.000836.687307-.290096.712345-.664856.013283-.165491-.043344-.328982-.156142-.450804-.112798-.121821-.271456-.190839-.437479-.190307z" fill="#584efe"/><path d="m401.45428 147.31493h-10.613951c-.362504-.000863-.663601.279469-.688601.641111-.029383.164677.018324.333737.129457.458762s.273434.192223.44042.182349h10.613951c.367198.001841.67563-.275748.712345-.641111.013283-.165491-.043345-.328982-.156142-.450804-.112798-.121821-.271457-.190839-.437479-.190307z" fill="#584efe"/><path d="m401.003128 152.515054h-10.613951c-.363099.008693-.665585.28093-.712346.641111-.013282.165491.043345.328982.156143.450804.112797.121821.271456.190839.437479.190307h10.61395c.367199.00184.67563-.275748.712346-.641111.013283-.165491-.043345-.328983-.156143-.450804-.112797-.121822-.271456-.19084-.437478-.190307z" fill="#584efe"/><path d="m400.551975 157.691432h-10.61395c-.3631.008694-.665585.280931-.712346.641111-.013048.167745.042932.333549.15499.459054s.270486.199838.438631.205802h10.613951c.371144-.010248.676556-.295299.712346-.664856.013282-.165491-.043345-.328982-.156143-.450804-.112797-.121821-.271456-.190839-.437479-.190307z" fill="#584efe"/><path d="m366.715556 145.296617h-7.123457c-.367199-.00184-.67563.275749-.712346.641112-.013283.165491.043345.328982.156143.450803.112797.121822.271456.19084.437478.190308h7.123457c.3631-.008694.665585-.280931.712346-.641111.013283-.165492-.043345-.328983-.156143-.450804-.112797-.121822-.271456-.19084-.437478-.190308z" fill="#584efe"/><path d="m366.454362 148.24098h-7.123457c-.367.020158-.666954.300116-.712345.664856-.013283.165491.043345.328982.156142.450803.112798.121822.271457.19084.437479.190308h7.123457c.363099-.008694.665585-.280931.712346-.641111.013048-.167745-.042933-.333549-.154991-.459054s-.270485-.199838-.438631-.205802z" fill="#584efe"/><path d="m366.193169 151.209087h-7.123457c-.363099.008693-.665585.28093-.712346.641111-.013282.165491.043345.328982.156143.450804.112797.121821.271456.190839.437479.190307h7.123456c.367199.00184.67563-.275748.712346-.641111.013283-.165492-.043345-.328983-.156142-.450804-.112798-.121822-.271457-.19084-.437479-.190307z" fill="#584efe"/><path d="m365.931975 154.105959h-7.123456c-.3631.008694-.665585.28093-.712346.641111-.013048.167745.042932.333548.15499.459054.112058.125505.270486.199838.438631.205802h7.123457c.371144-.010248.676556-.295299.712346-.664856.013282-.165491-.043345-.328982-.156143-.450804-.112797-.121821-.271456-.190839-.437479-.190307z" fill="#584efe"/><path d="m365.670782 157.097811h-7.123457c-.366416.011416-.664339.299066-.688601.664856-.021286.167274.032601.335387.147165.459116.114564.12373.278041.19037.446457.181995h7.123456c.362505.000863.663602-.279469.688601-.641111.013048-.167745-.042932-.333548-.15499-.459054-.112058-.125505-.270485-.199838-.438631-.205802z" fill="#584efe"/><path d="m365.409588 160.065918h-7.123456c-.362505-.000863-.663602.279469-.688601.641111-.021286.167274.032601.335387.147165.459117.114564.123729.278041.190369.446456.181994h7.123457c.362504.000863.663602-.279469.688601-.641111.021286-.167275-.032601-.335387-.147165-.459117-.114564-.123729-.278041-.190369-.446457-.181994z" fill="#584efe"/><path d="m365.17214 163.01028h-7.123457c-.367198-.00184-.67563.275748-.712346.641111-.013048.167745.042933.333548.154991.459054.112058.125505.270485.199838.438631.205802h7.123457c.366416-.011416.664339-.299066.6886-.664856.029384-.164676-.018323-.333737-.129456-.458762-.111133-.125024-.273434-.192223-.44042-.182349z" fill="#584efe"/><path d="m364.910947 165.978387h-7.123457c-.367199-.00184-.67563.275748-.712346.641111-.013283.165491.043345.328983.156143.450804.112797.121821.271456.190839.437478.190307h7.123457c.3631-.008693.665585-.28093.712346-.641111.013283-.165491-.043345-.328982-.156143-.450804-.112797-.121821-.271456-.190839-.437478-.190307z" fill="#584efe"/><path d="m479.527366 178.966823h-63.351275c-.366417.011416-.664339.299066-.688601.664856-.029384.164677.018323.333737.129456.458762s.273434.192223.44042.182349h63.303786c.367199.00184.67563-.275748.712346-.641111.027793-.332868-.214203-.627472-.546132-.664856z" fill="#584efe"/><path d="m479.194938 182.314848h-34.62c-.375594-.000836-.687307.290096-.712345.664856-.013283.165491.043344.328982.156142.450804.112798.121821.271456.190839.437479.190307h34.62c.367199.00184.67563-.275748.712346-.641111.020476-.169366-.032904-.339355-.146526-.466611-.113622-.127257-.276501-.199478-.447096-.198245z" fill="#584efe"/><path d="m478.791276 187.040074h-34.643745c-.362504-.000863-.663602.279469-.688601.641111-.021286.167275.032601.335388.147165.459117s.278041.190369.446456.181994h34.62c.362505.000863.663602-.279468.688601-.641111.029384-.164676-.018323-.333737-.129456-.458761-.111133-.125025-.273434-.192224-.44042-.18235z" fill="#584efe"/><path d="m518.51642 104.004313-4.748971 4.416543c-.166013.181463-.166013.459649 0 .641111.173573.162845.443793.162845.617366 0l4.748971-4.440288c.084182-.08062.131786-.192123.131786-.308683s-.047604-.228063-.131786-.308683c-.173573-.162845-.443793-.162845-.617366 0z" fill="#fff"/><path d="m514.717243 104.004313c-.181463-.166013-.459649-.166013-.641111 0-.162845.173573-.162845.443793 0 .617366l4.202839 4.440288c.173573.162845.443793.162845.617366 0 .085556-.084729.13369-.200144.13369-.320555s-.048134-.235826-.13369-.320556z" fill="#fff"/><path d="m507.831235 103.553161c-1.698501.012004-3.08328 1.36531-3.134321 3.063086-.053021.779583.221906 1.545891.758422 2.113967s1.285877.886308 2.067215.877885c1.672072-.010256 3.046347-1.322065 3.134321-2.991852.081981-.793136-.18078-1.583262-.721425-2.16934-.540646-.586078-1.307051-.911602-2.104212-.893746zm-.284939 5.295118c-.613838.00231-1.200331-.253733-1.615937-.705478-.415606-.451746-.621971-1.057506-.568589-1.669023 0-1.311392 1.063093-2.374501 2.374485-2.374501.613838-.00231 1.200331.253732 1.615937.705478s.621972 1.057506.56859 1.669023c0 1.311392-1.063094 2.374501-2.374486 2.374501z" fill="#fff"/><path d="m501.467613 108.373366h-5.318848c-.183594 0-.332428.148833-.332428.332428-.015267.087709.011337.177513.071916.242752.06058.065239.14817.098414.236768.089676h5.390082c.187797.000418.343653-.145048.356173-.332428.002376-.10202-.042237-.19948-.121011-.264353-.078774-.064872-.18298-.08997-.282652-.068075z" fill="#fff"/><path d="m573.984403 188.987152c-3.490494-2.374485-9.497942-2.659423-12.608518.712346-1.584468.303735-3.124236.806354-4.582757 1.495926 1.225876-.65892 2.139792-1.777826 2.540699-3.110576.308683-1.685885-1.068518-1.804609-2.113292-1.116008-1.044774.6886-.854815 1.377201-1.139753 2.611934-.284938 1.234732-.641111 1.828354-.712346 2.255761l-1.448436.664856-2.184527.973539.617367-.641111c1.221109-1.163905 2.127815-2.617902 2.635679-4.226584.308683-1.685885-.949795-2.944362-2.374486-2.137037s-.712346 2.49321-.759835 3.799177c-.092259 1.170904-.323415 2.326685-.688601 3.443004l-3.727943 1.543415c1.183822-.995914 2.139425-2.234958 2.801893-3.632963.759836-1.970823-1.305967-2.374485-2.564444-1.875843s-1.377202 2.160782-1.61465 3.561728c-.185187.948402-.455386 1.878205-.807325 2.778148l-1.970823.712346-1.519671.522387c.902211-.908563 1.549195-2.038738 1.875843-3.27679.166214-.688601.522387-1.947078 0-2.49321-.522386-.546132-1.685884 0-2.137037.569876-1.116008 1.543416-.73609 4.179095-1.448436 5.77-1.282222.403663-2.588189.807326-3.917901 1.163498 1.078686-.820588 1.976033-1.855367 2.635679-3.039341.517751-.768022.590029-1.752805.189959-2.58819-.289887-.374963-.744884-.584381-1.218247-.560713-.473362.023668-.9052.277428-1.156239.679438-.588561.796017-.993971 1.712244-1.187243 2.683168-.457395 1.071878-.838266 2.174819-1.139753 3.300535l-1.875843.427408h-.332428l.6886-.83107c.589903-.659148.948418-1.492903 1.021029-2.374486 0-.926049-.664856-1.923333-1.448436-1.780864s-1.116008.902305-1.234732 1.66214c-.118725.759835 0 1.590905-.213704 2.374486-.088604.474082-.232037.936253-.427408 1.377201-1.424691.261194-2.825637.451153-4.250329.617367.742817-.813478 1.359153-1.733978 1.828354-2.730659.298205-.696745.364793-1.470835.189959-2.208271-.189959-.712346-.83107-1.305968-1.472181-1.139754s-.997284 1.021029-1.068519 1.780865c-.071234.759835-.498642 3.609218-.451152 4.416543l-4.131605.498642c-.522387 0-.546131.926049 0 .973539 1.83034.102357 3.666189.038778 5.485062-.189959.358571.414722.691613.850848.997284 1.305967.166904.354047.309698.718966.427407 1.092263h2.920618c-.748942-1.102083-1.78299-1.980204-2.991852-2.540699 1.139753-.166214 2.374485-.379918 3.419259-.593621l.308683.142469c.546191.205386 1.034872.539317 1.424691.973539.279408.419447.517949.864723.712346 1.329712.120302.252914.25508.498685.403663.73609h3.751687c-.098027-.229414-.225758-.444961-.379918-.641111-.886718-1.147608-2.118655-1.979998-3.514238-2.374485-.591125-.166455-1.19457-.285556-1.804609-.356173 1.448436-.308683 2.896872-.664856 4.321563-1.044774.507798.31769.950911.728577 1.305967 1.210988l1.519671 1.994568c.31651.429999.66581.83487 1.044774 1.210987h4.535267c.085937-.126634.135239-.274538.142469-.427407.009778-.577388-.24362-1.127872-.6886-1.495926-1.096668-1.082366-2.429746-1.895218-3.894157-2.374486-.697578-.229783-1.412119-.404448-2.137037-.522387 1.282222-.403662 2.564445-.807325 3.822922-1.258477 1.479575.41279 2.844441 1.160217 3.989136 2.184527.664856.617366 1.282222 1.353457 1.947078 1.970823.633912.645827 1.474085 1.049111 2.374486 1.139753.736878.039089 1.392183-.464992 1.543415-1.187243.04739-.243075.04739-.493015 0-.73609-.537017-1.513654-1.823643-2.638327-3.395514-2.968107-1.716598-.557038-3.514539-.821913-5.318848-.783581 1.61465-.593621 3.253045-1.258477 4.867696-1.923333.885607.426255 1.689345 1.004947 2.374485 1.70963 1.192971 1.216446 2.48783 2.328595 3.870412 3.32428.830956.634815 1.900172.869521 2.920617.641111.236608-.10244.41809-.301206.498642-.546132.142291-.308915.142291-.664624 0-.973539-.253033-.793037-.721648-1.50007-1.353457-2.042058-1.433804-1.272317-3.208315-2.097671-5.105144-2.374485-.917852-.153706-1.847586-.225224-2.778148-.213704 1.58299-.664856 3.126406-1.353457 4.630247-2.065803l.308683-.142469c.78358.83107 1.638395 1.614651 2.374486 2.374486.669175.884618 1.657655 1.472594 2.754403 1.638395.344935-.008281.674683-.143562.926049-.379918.41302-.517863.504489-1.222171.237449-1.828354-.236618-.580573-.641908-1.076845-1.163498-1.424691-1.015393-.651819-2.142358-1.110655-3.32428-1.353457.87856-.427407 1.757119-.878559 2.659424-1.258477 1.305967 1.021029 2.374486 2.516955 3.680453 3.490494 1.013576.754322 2.311463 1.015641 3.537983.712345.381543-.04982.697945-.319692.807325-.6886.034046-.31601-.060039-.632475-.261193-.87856-.900731-1.313549-2.238743-2.264464-3.775432-2.683169-.916749-.286083-1.866343-.453659-2.825638-.498642 1.507993-.625457 3.117169-.971429 4.748971-1.021029.947771.105287 1.880082.320436 2.778148.641111 1.092264.427408 2.160782.997284 3.27679 1.353457 1.111995.404681 2.33101.404681 3.443004 0 .689241-.145573 1.208276-.715428 1.289023-1.41523.080746-.699803-.294873-1.372887-.93285-1.671601z" fill="#42445d"/><path d="m507.617531 201.928099c-.083039.958365.046692 1.923241.379918 2.825638h20.468065c23.744856-14.246914 5.105144-39.202757 36.875762-57.818724-18.92465-3.751688-56.845185 48.771934-57.723745 54.993086z" fill="#584efe"/><path d="m553.682551 171.036041c-1.116008.783581-1.780864 2.374486-3.039341 2.754404-1.258477.379917-1.970823-.237449-3.110576.308683-1.063264.575435-2.012744 1.339847-2.801893 2.255761-1.346842 1.762948-2.486185 3.675133-3.395515 5.698765-1.068518 1.828354-3.324279 2.065803-5.247613 3.015597-2.81495 1.465682-5.25292 3.562336-7.123457 6.126173-1.068518 1.424691-1.899588 4.012881-3.253045 4.89144-.973539.593622-2.374485.617367-3.395514 1.329712-1.156162.932765-2.082334 2.118914-2.706914 3.466749-.780407 1.195445-.70376 2.757133.189959 3.870412h8.144486c2.128467-.656564 4.056213-1.840985 5.603786-3.443004.973539-1.234733.522386-1.519671 1.804609-1.923334 2.232016-.73609 4.250329-.522386 6.054938-2.374485 1.437436-1.476604 2.546077-3.240719 3.253045-5.176379.427408-1.353457.118724-2.089547 1.187243-2.968107 1.70963-1.377202 3.680453-1.757119 5.152634-3.561728 1.005194-1.286348 1.806093-2.719958 2.374485-4.250329.244236-.893167.403247-1.807477.474897-2.730659.427408-1.638395 2.374486-2.160782 3.395515-3.537983 1.077662-1.630825 1.879857-3.427741 2.374485-5.318848-2.113869-.400898-4.295685.175101-5.936214 1.56716z" fill="#0a429f"/><path d="m509.683333 180.059087c-.366395-2.840284-1.355577-5.564589-2.896872-7.978272-.261194 1.282222-.593621 2.588189-.78358 3.870411 0 .902305 0 1.875844-.142469 2.754404-.776799-3.198506-2.008234-6.269097-3.656708-9.118025-1.234032-2.848691-2.873567-5.503938-4.867696-7.883292-.308863 3.004686-.23706 6.03635.213704 9.023045.498642 3.941646 1.044774 7.907037 1.590905 11.872428.900983 5.860043 2.290954 11.634376 4.15535 17.26251.379918 1.163498.712346 3.134321 1.329712 4.915186h6.387366c0-.617367.142469-1.234733.237449-1.804609.73508-4.060074.831219-8.210078.284938-12.299836-.569876-3.561728-1.139753-7.123457-1.852099-10.61395z" fill="#0a429f"/><path d="m547.580123 129.316329c-5.223868-2.374485-4.345308 7.550865-9.497942 13.748272-.87856.78358-1.70963 1.56716-2.516955 2.374486.593622-1.852099.92605-4.559013.189959-5.295103-1.947078-1.875844-2.160782 1.994568-2.113292 2.920617.062399 1.2311.302326 2.446728.712346 3.609218-1.116009 1.187243-2.208272 2.374486-3.229301 3.632963l.379918-1.139753c.83107-2.184527 2.089547-6.767284-.736091-7.123457-3.561728-.546132-1.400946 7.669589-1.187242 10.210288-.118725.118725-1.590906 2.018313-2.208272 2.873128.688601-2.849383.997284-7.812058-1.448436-8.3107-5.128889-.997284.403662 6.316132.569876 9.379218-1.068518 1.543416-2.588189 3.989136-3.537983 5.627531.441934-1.5434.531199-3.166414.261193-4.748971-.474897-2.065802-2.208271-4.036626-3.18181-1.353457-.569877 1.543416.379917 3.110576.902304 4.582757.406326 1.157977.708296 2.349966.902305 3.561729-.807326 1.495926-1.567161 2.991852-2.255762 4.511522.490161-2.265874.274714-4.627508-.617366-6.767284-1.923333-3.609218-5.033909-1.116008-5.081399 1.899589s3.27679 5.295103 4.559012 7.550864c-.569876 1.424692-1.092263 2.849383-1.56716 4.274074-.096009-2.552333-.919893-5.023985-2.374486-7.123457-1.66214-1.947078-5.413827-2.255761-5.318848.783581 0 3.727942 5.580042 4.630247 7.408395 7.123456-.593621 1.947079-1.139753 3.917902-1.61465 5.888725-.31704-1.82364-.917954-3.58632-1.780864-5.223869-1.424691-2.540699-4.321564-1.472181-4.748971 1.068519-.451152 3.632963 4.10786 4.748971 5.888724 6.64856-.237448 1.068518-.451152 2.160782-.641111 3.253045s-.546132 2.968107-.78358 4.226584c-.411442-2.134583-1.33188-4.138369-2.683169-5.841234-2.374486-2.137037-5.010165 0-3.704198 2.778148 1.305968 2.778148 4.582758 3.039341 5.983704 5.247613-.356173 1.733375-.73609 3.490494-1.139753 5.200123-1.021029-3.18181-3.656708-6.55358-6.316132-7.123456-2.659423-.569877-4.274074 1.56716-2.540699 3.941646 1.234732 1.685885 6.411111 3.039341 8.381934 5.057654-.332428 1.234733-.736091 2.374486-1.139753 3.680453h2.018313c.142469-.403663.308683-.78358.427407-1.187243.451152-1.875844 2.089547-1.970823 3.609218-2.374486 1.519671-.403662 9.497943 3.205556 8.025761-3.395514-1.258477-5.580041-7.835802-.308683-10.685185 2.564444.300768-1.234732.585707-2.469465.854815-3.704197.683988-1.223879 1.816103-2.134678 3.158066-2.5407 2.730658-1.068518 13.178395.474897 12.252346-4.748971-1.472181-8.21572-13.29712 2.991852-15.220453 6.363622.403663-2.137038 1.305967-7.265926 1.377202-7.669589.957957-1.134912 2.230244-1.961072 3.656707-2.374486 1.70963-.451152 7.123457-1.400946 6.363622-4.464032-.759836-3.063087-5.247613-.403663-6.197408.641111-1.334614 1.369283-2.513232 2.882375-3.514238 4.511522.451152-2.255761.926049-4.464033 1.519671-6.648559 5.295102-3.751688 14.911769-2.113293 12.917201-6.886009-2.374485-5.437572-7.859547 3.680453-12.703498 6.054939.664856-2.374486 1.424692-4.748972 2.374486-7.123457.593621-.189959 1.519671-.78358 2.683169-1.116008 2.588189-.759836 7.622098 0 8.334444-2.754404.997284-3.846666-2.611934-3.941646-4.915185-2.801893-2.267212 1.339433-4.186993 3.194137-5.603786 5.413827 1.044773-2.374485 2.184527-4.748971 3.443004-7.123456 3.514239-1.234733 12.32358.997284 10.518971-4.131605-1.400946-3.989136-7.788313 1.021029-10.186543 3.514238 1.258477-2.374485 2.635679-4.487777 4.10786-6.624814.379918.237448 1.187243-.284939 2.801893-.261194 2.232016 0 6.60107.78358 7.33716-2.184527.522387-2.065802-2.944362-2.374485-4.559012-1.828353-1.780921.826289-3.422984 1.923668-4.867695 3.253045.308683-.451152 3.466749-4.606502 4.748971-6.173663 3.585473-.807325 13.297119-.73609 12.252346-4.274074-1.187243-4.01288-8.049507.87856-11.492511 3.37177.451153-.522387 4.036626-4.464033 4.915185-5.342593 3.181047-.824948 6.177844-2.242788 8.833087-4.179095 2.160782-1.780864 5.437572-6.624814-.759836-9.379218z" fill="url(#t)"/><path d="m201.712551 197.131638c-43.951728-8.785597-35.617284-48.344527-52.096214-48.344527-20.135637 0-22.391399 48.368272-22.391399 59.005967 0 7.574609 2.944362 26.902922 19.399548 31.509424 10.922633 3.039342 38.63288 5.746255 56.275308-2.801893 20.444321-9.854115 15.054239-36.139671-1.187243-39.368971z" fill="#fff"/><path d="m201.712551 197.131638c-43.951728-8.785597-36.685802-49.033128-49.864197-46.587407-8.191975 1.495926-1.61465 6.886008-3.039342 9.165514-2.374485 3.680453-5.72251 4.748971-6.980987 7.408395-2.374486 4.748971-.569877 11.49251-3.490494 13.392099-3.846667 2.516955-1.638395 5.485062-2.588189 7.123457-1.472182 2.564444-2.683169 2.635679-2.683169 3.965391 0 3.680452 8.643127 7.123456 8.643127 9.687901 0 1.092263-5.959958 2.588189-5.959958 6.102428 0 2.564444 9.260493-2.968107 8.096995 1.923333-.474897 1.970823-3.537983 5.888724-.641111 8.073251.593622.474897 3.656708.474897 4.25033 1.092264 2.160781 2.184526 3.799177 6.054938 9.901604 3.561728 1.377202-.569877 4.345309 5.556296 6.102428 5.556296 3.537984 0 2.849383-9.118024 5.841235-10.186543 4.89144-1.70963 2.184527 5.485062 12.347325 6.64856 7.265926.83107 8.975556-3.158066 10.80391-2.801893 2.602215.337578 4.974569 1.664056 6.624814 3.704197.943743 1.138971 2.598017 1.375296 3.822922.546132 1.994568-1.044774 1.282222-3.300535.546132-4.606502-1.705719-3.563933-1.482069-7.750659.593621-11.112593 3.205556-4.202839.92605-12.014897-2.326996-12.656008z" fill="url(#u)"/></g><path d="m178.941235 163.129004c-1.187243-.332428-3.870412 3.253046-3.846667 6.054939s6.957243 13.795761 6.957243 13.795761c6.696049-.474897 8.500658-4.226584 8.500658-4.226584-2.683169-5.223869-5.77-14.03321-11.611234-15.624116z" fill="#adcded"/><path d="m179.914774 163.603901c-.314965-.143355-.640426-.262426-.973539-.356172-1.187243-.332428-3.870412 3.253045-3.846667 6.054938s6.957243 13.795761 6.957243 13.795761c2.174961-.098972 4.289974-.744091 6.149917-1.875843-4.606502-4.748972-8.500658-10.566461-8.595637-16.502675-.009725-.394343.097697-.782714.308683-1.116009z" fill="#333242"/><path d="m181.386955 164.221268c-3.181811-2.137037-18.877161-5.366338-30.298436-2.374486-.522387.142469 0 20.563045 1.282222 29.918519.582693 4.376475 1.463298 8.708097 2.635679 12.964691 0 0 27.164115 0 34.240082-4.15535 0 0-3.32428-6.173662-6.007449-11.278806-1.709629-3.229301-.047489-23.839836-1.852098-25.074568z" fill="#c3391c"/><path d="m171.342881 155.221967-9.023046-5.603786c.272514 3.643861.008505 7.30799-.78358 10.875144-.73609 2.374486 4.748971 5.200124 7.740823 4.559013 2.991852-.641112 2.611934-2.849383 2.042058-4.297819-.435184-1.819483-.427041-3.716871.023745-5.532552z" fill="#ffcab8"/><path d="m171.342881 155.221967-9.023046-5.603786c.272514 3.643861.008505 7.30799-.78358 10.875144-.308683.997284.427408 2.042058 1.590905 2.873128-.064845-.760488.145838-1.518947.593622-2.137037.464194-.799247 1.242247-1.367236 2.144929-1.565826.902681-.19859 1.847274-.009583 2.604042.521052.926513.673144 2.001666 1.112979 3.134321 1.282222-.072719-.25022-.159931-.495998-.261193-.73609-.439132-1.810015-.439132-3.698792 0-5.508807z" fill="#ffc3ab"/><path d="m164.908025 194.472214c-1.092264-1.377201 7.812057-2.825638 8.928066-3.419259 1.116008-.593622.854814-1.448436-1.068519-2.113292s-6.458601-2.374486-7.550864-4.464033c-1.970823-3.680453-8.096996-6.529836-8.168231-8.856831-.308683-8.856832-6.482345-10.780165-6.031193-6.387367.83107 6.577325.379918 18.995885 1.733374 24.670906.641112 2.778148.759836 7.123456 1.75712 9.04679 3.039341.664856 19.470782 2.374485 20.420576 0 1.970823-4.677737-8.833087-7.075967-10.020329-8.476914z" fill="#fd4b1b"/><path d="m199.338066 209.289004c-2.801893-.332428-9.854115.166214-10.352757.118725 0 0-.688601 6.078683-.854815 7.123456-.166214 1.044774.142469.593622 1.685885 1.068519 1.428653.226898 2.875982.314374 4.321563.261193 2.325207.691714 4.595252 1.556871 6.791029 2.58819 2.184527.617366 3.37177.569876 4.250329-1.685885.87856-2.255762 1.448437-5.437572-.213703-7.313416-1.66214-1.875843-2.825638-1.828354-5.627531-2.160782z" fill="#0a429f"/><path d="m199.338066 209.289004c-2.801893-.332428-9.854115.166214-10.352757.118725 0 0-.688601 6.078683-.854815 7.123456-.166214 1.044774.142469.593622 1.685885 1.068519.915694.226523 1.864003.290815 2.801893.189959.790032-1.645338 2.314732-2.817507 4.10786-3.158066 1.512555-.097202 3.029444.104512 4.464033.593621 1.558842.391032 3.190129.391032 4.748971 0 .181884-1.37046-.194578-2.756524-1.044774-3.846666-1.61465-1.685885-2.754403-1.75712-5.556296-2.089548z" fill="#333242"/><path d="m199.338066 209.289004c1.032841.325077 2.047424.705545 3.039341 1.139753 3.015597 1.733375 2.089548 7.788313-.854814 10.257778 1.804609.451152 2.873127.213704 3.656707-1.828354.783581-2.042057 1.448437-5.437572-.213703-7.313415-1.66214-1.875844-2.825638-1.923334-5.627531-2.255762z" fill="#fff"/><path d="m151.159753 209.621432c-1.61465.261194-3.086831.498642-2.516955 2.706914.569877 2.208271 3.41926 8.286955 4.962675 8.571893 2.991699-.227245 5.891546-1.137 8.476914-2.659424 1.377201-1.092263 4.748971-2.944362 4.748971-3.086831l-4.559012-6.434856c-4.131605.688601-9.497943.641111-11.112593.902304z" fill="#0a429f"/><path d="m151.159753 209.621432c-1.61465.261194-3.086831.498642-2.516955 2.706914.569877 2.208271 3.41926 8.286955 4.962675 8.571893 1.188916.03025 2.372937-.163059 3.490494-.569877-.350255-.200103-.676831-.439061-.973539-.712345-1.495926-1.448437-1.828354-4.345309 0-4.131605 1.722725.093392 3.438354-.28421 4.962675-1.092264 1.947078-.332428 3.775432.688601 5.67502.641111l-4.487777-6.316131c-4.131605.688601-9.497943.641111-11.112593.902304z" fill="#333242"/><path d="m202.78107 195.659457c-7.455885-1.567161-39.915103 10.613951-41.17358 11.041358 0 0 4.10786 9.996584 5.081399 9.759136.973539-.237449 35.35609-8.096996 37.564362-8.761852 2.157166-.646752 3.724435-2.512548 3.989136-4.748971.36714-3.484503-2.014047-6.66287-5.461317-7.289671z" fill="#ffb725"/><path d="m192.380823 205.06242c-5.054975-.221491-9.99269-1.59398-14.436872-4.012881-6.126173 2.065803-15.861564 5.485062-16.336461 5.651276 0 0 4.10786 9.996584 5.081399 9.759136.973539-.237449 35.35609-8.096996 37.564362-8.761852 2.157166-.646752 3.724435-2.512548 3.989544-4.748971.005376-.60561-.050314-1.210244-.166622-1.804609-6.149918 3.18181-8.524403 4.155349-15.69535 3.917901z" fill="url(#v)"/><path d="m181.007037 139.455383c-.687007.417057-1.324305.910964-1.899588 1.472181.246952 2.263922.822894 4.479701 1.709629 6.577325 1.067514-1.422142 1.739318-3.101652 1.947078-4.867695-.208865-1.228851-.828307-2.350543-1.757119-3.181811z" fill="#333242"/><path d="m171.414115 161.229416.284938.73609c-.296776 1.446456-1.334831 2.628936-2.730658 3.110576 1.412815 1.207022 2.498903 2.750409 3.158066 4.487778 1.150346-1.900966 1.619306-4.1369 1.329712-6.339876-.237449-2.232017-2.042058-1.994568-2.042058-1.994568z" fill="#fff"/><path d="m176.756708 139.1467c-5.485062-1.638395-8.571893-2.801893-11.63498 0-1.919656 1.914437-3.126272 4.428218-3.419259 7.123457 0 0-1.61465-1.400947-2.540699.284938-.004518.055312-.004518.110901 0 .166214-.700458 1.883662-.139393 4.004297 1.400946 5.295103 1.258477.926049 1.947078.617366 1.947078.617366 0 .427407-.261193 2.754403 3.751687 5.105144 4.012881 2.350741 7.123457 3.846667 9.260494 1.139753 2.046138-2.08552 3.660036-4.554783 4.748972-7.265926.520387-3.008496.861333-6.045288 1.021028-9.09428 0 0 .973539-1.757119-4.535267-3.371769z" fill="#ffcab8"/><path d="m166.807613 155.245712c-1.353457-1.899588-.759835-6.054938-.379918-8.310699.379918-2.255762 1.994568-3.348025 2.49321-5.390083.498642-2.042057-3.110576-3.039341-3.799177-2.374485-1.919656 1.914436-3.126272 4.428218-3.419259 7.123456 0 0-1.61465-1.400946-2.540699.284939-.004518.055312-.004518.110901 0 .166214-.700458 1.883662-.139393 4.004296 1.400946 5.295103 1.258477.926049 1.947078.617366 1.947078.617366 0 .427407-.261193 2.754403 3.751687 5.105144 4.012881 2.350741 7.123457 3.846666 9.260494 1.139753v-.142469c-3.348024 1.400946-6.743539-.78358-8.714362-3.514239z" fill="#ffc3ab"/><path d="m160.705185 139.859045c-.727988 1.902183-.860485 3.980737-.379918 5.959959.503129.041184.982584.231313 1.377202.546132.549266 1.065405.841986 2.244415.854815 3.443004.145598.337475.448025.581624.808612.652793.360588.071169.733098-.039769.995997-.29662 1.234733-1.021029-.427407-2.754403.973539-5.342593 1.685885-3.205555 9.355473 2.374486 13.700782 1.116009 3.941646-1.068519 3.253045-5.841235 2.564444-7.289671-2.944362-6.292387-16.716378-8.761852-20.895473 1.210987z" fill="#42445d"/><path d="m160.705185 139.859045c-.727988 1.902183-.860485 3.980737-.379918 5.959959.503129.041184.982584.231313 1.377202.546132.549266 1.065405.841986 2.244415.854815 3.443004.145598.337475.448025.581624.808612.652793.360588.071169.733098-.039769.995997-.29662.074794-.050699.13926-.115165.189959-.189959-.226705-1.217018-.385251-2.44575-.474897-3.680453 0-1.51967 1.068518-2.137037 3.537983-4.131605 2.469465-1.994567-.78358-6.862263 1.994568-8.833086-3.963763.318565-7.409067 2.845121-8.904321 6.529835z" fill="#333242"/><path d="m169.372058 199.482379c-7.907037-2.49321-15.030494-5.318848-18.995885-3.015597-2.239153 1.468808-3.387863 4.130452-2.920617 6.767284.340567 1.729738 1.611313 3.128473 3.300535 3.632963 12.738908 4.948432 25.796427 9.033865 39.084032 12.228601 4.748972-4.440288 2.991852-11.753704 2.991852-11.753704s-17.238765-5.888724-23.459917-7.859547z" fill="#ffb725"/><path d="m181.149506 212.043408c-1.740002-.818487-3.563018-1.447387-5.437572-1.875844-1.581122.108775-3.167849.108775-4.748971 0-2.603271-.739049-4.963339-2.156729-6.838519-4.10786-1.448436-1.187243-2.255761-2.113292-4.155349-1.757119-1.092264.189958-1.947079 1.068518-3.158066 1.234732-2.795516.437977-5.541203-1.036738-6.719794-3.609218-.790192-1.548596-.89358-3.357891-.284939-4.98642-1.875771 1.541648-2.781888 3.970043-2.374485 6.363622.340567 1.729738 1.611313 3.128472 3.300535 3.632963 12.748402 4.925278 25.813856 8.986913 39.107777 12.157366 2.158695-2.201895 3.339787-5.1803 3.276791-8.26321-3.738378 1.741869-7.955865 2.168638-11.967408 1.210988z" fill="url(#w)"/><path d="m161.346296 149.736906c0-.451153.166214-.213704.356173-.688601.173709-.384975.173709-.826014 0-1.210988-.237448-.759835-1.282222-1.377202-1.804609-.664856-.436697.924567-.436697 1.99605 0 2.920617.451152.997284 1.021029 1.472181 1.543416 1.329712s.617366-.451152.474897-.949794-.712346-.261193-.569877-.73609z" fill="#c95f39"/><path d="m150.874815 209.668922c-1.495926.237449-2.778148.593621-2.232017 2.659424.546132 2.065802 3.41926 8.286955 4.962675 8.571893.802166.047761 1.606395-.048747 2.374486-.284938-2.849383-1.234733-6.387366-9.92535-5.105144-10.946379z" fill="#fff"/><path d="m178.371358 178.586906c-.855365-.390766-1.735886-.723936-2.635679-.997284-1.116008 0-4.487778 2.374485-7.408395 2.706913-1.804609.189959-19.80321 4.416543-19.80321 4.416543s7.313416-12.774732 6.624815-17.666172c-.189959-1.353457-5.010165-6.624815-7.764568.474897-3.015597 7.764568-7.574609 18.995884-6.791029 22.557613.756328 1.39015 2.362912 2.085683 3.894157 1.685885 2.042057-.427408 22.605102-6.577326 22.771316-7.123457.819798.564054 1.810717.82438 2.801893.73609 1.373842-.084938 2.730783-.348344 4.036626-.78358.165635.269998.383617.504127.641111.688601 0 0 .379918 1.733374.973539 1.875844.593622.142469.284938-1.614651.284938-1.614651l-.664856-1.56716c-.293622-.454816-.653802-.863019-1.068518-1.210988.729286.307094 1.428753.680673 2.089547 1.116008.379918.237449.92605 1.282223 1.828354 1.970823.427408.332428.759836.641112.997284.522387.237449-.118724-.712346-1.875843-1.139753-2.374485s-2.184527-2.374486-2.184527-2.374486 1.733375.87856 1.947078 1.068519c.555918.63889 1.204188 1.19112 1.923334 1.638395.427407.189959.83107.356172 1.068518.237448.237449-.118724 0-.356173-.142469-.688601-.92808-1.157283-1.996941-2.194238-3.181811-3.086831-.498641-.332428-2.208271-1.163498-2.208271-1.163498.943247.10028 1.869274.323804 2.754403.664856.593622.284938 2.042058 1.733375 2.683169 2.137037.213704.118724 1.021029.403663 1.139753.166214.308683-.902304-3.348025-3.917901-3.466749-4.01288z" fill="#ffcab8"/><path d="m173.88358 183.787029c-.712345-.474897-1.994568.237449-2.588189.237449-1.092263 0-2.778148-1.139754-4.345309-.617367-16.621399 5.485062-20.658024 6.862264-23.246214 5.223869-1.442531-.596684-2.128226-2.249794-1.531543-3.692326.596684-1.442531 2.249794-2.128226 3.692325-1.531543.933238.490912 1.989972.697306 3.039342.593622 1.519671-2.730659 6.838518-12.750988 6.244897-16.953827-.189959-1.353457-5.010165-6.624815-7.764568.474897-3.015597 7.764568-7.574609 18.995884-6.791029 22.557613.756328 1.39015 2.362912 2.085683 3.894157 1.685885 2.042057-.427408 22.605102-6.577326 22.771316-7.123457.819798.564054 1.810717.82438 2.801893.73609 1.373842-.084938 2.730783-.348344 4.036626-.78358.165635.269998.383617.504127.641111.688601 0 0 .379918 1.733374.973539 1.875844h.189959c-.086497-.057442-.152906-.140452-.189959-.237449-.427407-1.519671-.617366-2.374486-1.828354-3.134321z" fill="#ffc3ab"/><path d="m153.273045 161.609333c-6.031193-1.210987-12.228601 18.354774-12.228601 18.354774 2.560035 1.917055 5.618793 3.054814 8.809342 3.27679 9.331728-13.819506 8.809342-20.563045 3.419259-21.631564z" fill="#c3391c"/><path d="m141.044444 179.964107c2.560035 1.917055 5.618793 3.054814 8.809342 3.27679 1.733374-2.564444-1.234733-5.318847-1.329712-7.669588-.189959-4.748971 2.849383-3.799177 2.374486-7.645844.292272-2.126955.704507-4.235694 1.234732-6.316132-5.651276 1.234733-11.088848 18.354774-11.088848 18.354774z" fill="#fd4b1b"/><path d="m161.678724 159.947194.261194-1.590906c-1.29017.632538-1.984999 2.061341-1.685885 3.466749.522387 3.727943 4.98642 7.788313 4.98642 7.788313.944115-1.754804 2.208564-3.317245 3.727942-4.606502-3.656708.403662-7.289671-5.057654-7.289671-5.057654z" fill="#fff"/><path d="m144.012551 194.472214c0 .382002.153303.748023.425643 1.015898.272339.267875.640845.41516 1.022794.408794h33.69395c.786836 0 1.424692-.637857 1.424692-1.424692z" fill="#333242" fill-rule="nonzero"/><path d="m184.212593 164.791144-7.123457 29.348642c0 .451152 0 1.804609 1.733374 1.804609l28.493827-.356173v-32.720411h-20.681769c-1.140917.042862-2.121781.821784-2.421975 1.923333z" fill="#333242" fill-rule="nonzero"/><path d="m223.082922 162.8678h-36.567078c-.378245-.0019-.710066.251846-.807325.617377l-7.52712 31.414445c-.066567.250153-.01277.517039.145508.72187.158278.20483.402962.324213.661817.322914h34.002634c1.862843.002029 3.496661-1.242785 3.989136-3.039352l6.838518-28.968725c.063747-.241116.019013-.498047-.122474-.70343-.141486-.205383-.365612-.338734-.613616-.365099z" fill="#fff" fill-rule="nonzero"/></g></svg>