<?xml version="1.0" encoding="UTF-8"?>
<svg width="40px" height="39px" viewBox="0 0 40 39" version="1.1" xmlns="http://www.w3.org/2000/svg" xmlns:xlink="http://www.w3.org/1999/xlink">
    <!-- Generator: Sketch 61 (89581) - https://sketch.com -->
    <title>noun_cart_1864278</title>
    <desc>Created with Sketch.</desc>
    <g id="New-v2" stroke="none" stroke-width="1" fill="none" fill-rule="evenodd">
        <g id="Case-Study-cheapism" transform="translate(-911.000000, -1147.000000)" fill="#584EFE" fill-rule="nonzero" stroke="#584EFE" stroke-width="0.3">
            <g id="noun_cart_1864278" transform="translate(911.000000, 1148.000000)">
                <path d="M38.9166667,7.79166667 C38.1666667,6.83333333 37,6.25 35.7916667,6.25 L10.4166667,6.25 L9.625,3.16666667 C9.16666667,1.375 7.58333333,0.125 5.75,0.125 L1.5,0.125 C0.791666667,0.125 0.208333333,0.708333333 0.208333333,1.41666667 C0.208333333,2.125 0.791666667,2.70833333 1.5,2.70833333 L5.75,2.70833333 C6.375,2.70833333 6.91666667,3.125 7.08333333,3.75 L12.1666667,24 C12.625,25.7916667 14.2083333,27.0416667 16.0416667,27.0416667 L32.6666667,27.0416667 C34.5,27.0416667 36.125,25.7916667 36.5416667,24 L39.6666667,11.1666667 C39.9583333,10 39.7083333,8.75 38.9166667,7.79166667 Z M37.125,10.5833333 L34,23.4166667 C33.8333333,24.0416667 33.2916667,24.4583333 32.6666667,24.4583333 L16.0416667,24.4583333 C15.4166667,24.4583333 14.875,24.0416667 14.7083333,23.4166667 L11.0833333,8.875 L35.7916667,8.875 C36.2083333,8.875 36.625,9.08333333 36.875,9.41666667 C37.125,9.75 37.25,10.1666667 37.125,10.5833333 Z" id="Shape"></path>
                <path d="M16.9166667,28.7083333 C14.5416667,28.7083333 12.5833333,30.6666667 12.5833333,33.0416667 C12.5833333,35.4166667 14.5416667,37.375 16.9166667,37.375 C19.2916667,37.375 21.25,35.4166667 21.25,33.0416667 C21.25,30.6666667 19.2916667,28.7083333 16.9166667,28.7083333 Z M16.9166667,34.75 C15.9583333,34.75 15.2083333,34 15.2083333,33.0416667 C15.2083333,32.0833333 15.9583333,31.3333333 16.9166667,31.3333333 C17.875,31.3333333 18.625,32.0833333 18.625,33.0416667 C18.625,33.9583333 17.8333333,34.75 16.9166667,34.75 Z" id="Shape"></path>
                <path d="M31.25,28.7083333 C28.875,28.7083333 26.9166667,30.6666667 26.9166667,33.0416667 C26.9166667,35.4166667 28.875,37.375 31.25,37.375 C33.625,37.375 35.5833333,35.4166667 35.5833333,33.0416667 C35.5416667,30.6666667 33.625,28.7083333 31.25,28.7083333 Z M31.25,34.75 C30.2916667,34.75 29.5416667,34 29.5416667,33.0416667 C29.5416667,32.0833333 30.2916667,31.3333333 31.25,31.3333333 C32.2083333,31.3333333 32.9583333,32.0833333 32.9583333,33.0416667 C32.9583333,33.9583333 32.1666667,34.75 31.25,34.75 Z" id="Shape"></path>
            </g>
        </g>
    </g>
</svg>