<?xml version="1.0" encoding="UTF-8"?>
<svg width="42px" height="31px" viewBox="0 0 42 31" version="1.1" xmlns="http://www.w3.org/2000/svg" xmlns:xlink="http://www.w3.org/1999/xlink">
    <!-- Generator: Sketch 61 (89581) - https://sketch.com -->
    <title>noun_Mortarboard_957480 (1)</title>
    <desc>Created with Sketch.</desc>
    <g id="New-v2" stroke="none" stroke-width="1" fill="none" fill-rule="evenodd">
        <g id="Case-Study-sundaygoods-Copy" transform="translate(-910.000000, -1086.000000)" fill="#1F66B8" fill-rule="nonzero" stroke="#1F66B8" stroke-width="0.8">
            <g id="noun_Mortarboard_957480-(1)" transform="translate(911.000000, 1087.000000)">
                <path d="M20.3059908,0.081581 L39.462345,9.20665264 C39.7771903,9.36403311 40,9.77761309 40,10.2047196 C40,10.6317725 39.7771903,11.0453525 39.462345,11.2027329 L37.0278704,12.3601664 L37.0278704,18.147189 C37.2870771,18.4419285 37.4535671,18.7633994 37.4535671,19.238171 C37.4535671,20.1275424 36.8817712,20.648475 36.1764768,20.648475 C35.4711825,20.648475 34.8993866,20.1275424 34.8993866,19.238171 C34.8993866,18.7633994 35.0658766,18.4419285 35.3250833,18.147189 L35.3250833,13.1653189 L32.7709028,14.3898109 L32.7709028,22.5587803 C32.7709028,23.6542708 32.2214985,24.4662939 31.5204185,25.1755258 C30.8193385,25.8847578 29.8753985,26.5118642 28.7400653,27.0709621 C26.4696116,28.1892115 23.4080857,29.0000001 20,29.0000001 C16.5919143,29.0000001 13.5303883,28.1892115 11.2599347,27.0709621 C10.1246014,26.5118642 9.18066141,25.8847578 8.47958142,25.1755258 C7.77850143,24.4662939 7.22909719,23.6542708 7.22909719,22.5587803 L7.22909719,14.3898109 L0.537655007,11.2027329 C0.222809684,11.0453525 0,10.6317725 0,10.2047196 C0,9.77761309 0.222809684,9.36403311 0.537655007,9.20665264 L19.6940091,0.081580717 C19.9307817,-0.0613016381 20.1546556,0.0131054673 20.3059908,0.081581 Z M20,2.22865931 L3.23819007,10.2130932 L20,18.1807907 L36.7618099,10.2130932 L20,2.22865931 Z M31.0681157,15.1949633 L20.3059908,20.3278639 C20.1112771,20.4223888 19.8887228,20.4223888 19.6940091,20.3278639 L8.93188423,15.1949633 L8.93188423,22.5587803 C8.93188423,22.5866923 9.04175656,22.9902347 9.54382332,23.4981249 C10.0458901,24.006015 10.8527131,24.5729497 11.8718312,25.0748818 C13.9102376,26.0787459 16.8046775,26.8529268 20,26.8529268 C23.1953224,26.8529268 26.0897624,26.0787459 28.1281688,25.0748818 C29.1472868,24.5729497 29.9541099,24.006015 30.4561766,23.4981249 C30.9582434,22.9902347 31.0681157,22.5867996 31.0681157,22.5587803 L31.0681157,15.1949633 Z" id="Shape"></path>
            </g>
        </g>
    </g>
</svg>