<?xml version="1.0" encoding="UTF-8"?>
<svg width="41px" height="33px" viewBox="0 0 41 33" version="1.1" xmlns="http://www.w3.org/2000/svg" xmlns:xlink="http://www.w3.org/1999/xlink">
    <!-- Generator: Sketch 61 (89581) - https://sketch.com -->
    <title>noun_code_969064</title>
    <desc>Created with Sketch.</desc>
    <g id="New-v2" stroke="none" stroke-width="1" fill="none" fill-rule="evenodd">
        <g id="Case-Study-sundaygoods-Copy" transform="translate(-207.000000, -1085.000000)" fill="#1F66B8" fill-rule="nonzero" stroke="#1F66B8" stroke-width="0.7">
            <g id="noun_code_969064" transform="translate(207.000000, 1085.000000)">
                <path d="M10.9090909,21.6969697 L3.51515152,15.5151515 L10.9090909,9.37373737 C11.4343434,8.92929293 11.5151515,8.16161616 11.0707071,7.63636364 C10.8282828,7.35353535 10.4646465,7.19191919 10.1010101,7.19191919 C9.81818182,7.19191919 9.53535354,7.27272727 9.29292929,7.47474747 L0.808080808,14.5858586 C0.525252525,14.8282828 0.363636364,15.1515152 0.363636364,15.5555556 C0.363636364,15.959596 0.525252525,16.2828283 0.808080808,16.5252525 L9.33333333,23.6363636 C9.57575758,23.8383838 9.81818182,23.9191919 10.1414141,23.9191919 C10.5050505,23.9191919 10.8686869,23.7575758 11.1111111,23.4747475 C11.5151515,22.9090909 11.4343434,22.1414141 10.9090909,21.6969697 Z" id="Path"></path>
                <path d="M39.9191919,16 C39.9191919,15.6363636 39.7575758,15.2727273 39.4747475,15.030303 L30.9090909,7.91919192 C30.6666667,7.71717172 30.3838384,7.63636364 30.1010101,7.63636364 C29.7373737,7.63636364 29.3737374,7.7979798 29.1313131,8.08080808 C28.6868687,8.60606061 28.7676768,9.37373737 29.2929293,9.81818182 L36.6868687,16 L29.3333333,22.1818182 C28.8080808,22.6262626 28.7272727,23.3939394 29.1717172,23.9191919 C29.4141414,24.2020202 29.7373737,24.3636364 30.1414141,24.3636364 C30.4242424,24.3636364 30.7070707,24.2424242 30.9494949,24.0808081 L39.4747475,16.969697 C39.7575758,16.7272727 39.9191919,16.3636364 39.9191919,16 Z" id="Path"></path>
                <path d="M24.4444444,0.404040404 C24.3232323,0.363636364 24.2020202,0.363636364 24.0808081,0.363636364 C23.5555556,0.363636364 23.0707071,0.686868687 22.9090909,1.25252525 L13.8989899,30.1010101 C13.6969697,30.7474747 14.0606061,31.4343434 14.7070707,31.6363636 C14.8282828,31.6767677 14.9494949,31.6767677 15.0707071,31.6767677 C15.6363636,31.6767677 16.0808081,31.3131313 16.2424242,30.7878788 L25.2121212,1.8989899 C25.4545455,1.29292929 25.0909091,0.606060606 24.4444444,0.404040404 Z" id="Path"></path>
            </g>
        </g>
    </g>
</svg>