<?xml version="1.0" encoding="UTF-8"?>
<svg width="41px" height="41px" viewBox="0 0 41 41" version="1.1" xmlns="http://www.w3.org/2000/svg" xmlns:xlink="http://www.w3.org/1999/xlink">
    <!-- Generator: Sketch 61.2 (89653) - https://sketch.com -->
    <title>noun_App_1935543</title>
    <desc>Created with Sketch.</desc>
    <g id="New-v2" stroke="none" stroke-width="1" fill="none" fill-rule="evenodd">
        <g id="Case-Study-simon-kucher" transform="translate(-514.000000, -1080.000000)" fill="#FFFFFF" fill-rule="nonzero" stroke="#FFFFFF" stroke-width="0.8">
            <g id="noun_App_1935543" transform="translate(515.000000, 1081.000000)">
                <path d="M4.40418956,2.20638736 C3.19037692,2.20638736 2.20638736,3.19037692 2.20638736,4.40418956 L2.20638736,13.1953984 C2.20638736,14.409211 3.19037692,15.3932005 4.40418956,15.3932005 L13.1953984,15.3932005 C14.409211,15.3932005 15.3932005,14.409211 15.3932005,13.1953984 L15.3932005,4.40418956 C15.3932005,3.19037692 14.409211,2.20638736 13.1953984,2.20638736 L4.40418956,2.20638736 Z M4.40418956,0.00858516484 L13.1953984,0.00858516484 C14.3611851,0.00858516484 15.4792243,0.471692155 16.30356,1.29602788 C17.1278958,2.12036361 17.5910027,3.23840279 17.5910027,4.40418956 L17.5910027,13.1953984 C17.5910027,14.3611851 17.1278958,15.4792243 16.30356,16.30356 C15.4792243,17.1278958 14.3611851,17.5910027 13.1953984,17.5910027 L4.40418956,17.5910027 C1.97656429,17.5910027 0.00858516484,15.6230236 0.00858516484,13.1953984 L0.00858516484,4.40418956 C0.00858516484,1.97656429 1.97656429,0.00858516484 4.40418956,0.00858516484 Z M4.40418956,24.1844093 C3.19037692,24.1844093 2.20638736,25.1683989 2.20638736,26.3822115 L2.20638736,35.1734203 C2.20638736,35.7563137 2.43794086,36.3153333 2.85010872,36.7275012 C3.26227659,37.139669 3.82129618,37.3712225 4.40418956,37.3712225 L13.1953984,37.3712225 C14.409211,37.3712225 15.3932005,36.387233 15.3932005,35.1734203 L15.3932005,26.3822115 C15.3932005,25.1683989 14.409211,24.1844093 13.1953984,24.1844093 L4.40418956,24.1844093 L4.40418956,24.1844093 Z M4.40418956,21.9866071 L13.1953984,21.9866071 C15.6230236,21.9866071 17.5910027,23.9545863 17.5910027,26.3822115 L17.5910027,35.1734203 C17.5910027,37.6010456 15.6230236,39.5690247 13.1953984,39.5690247 L4.40418956,39.5690247 C1.97656429,39.5690247 0.00858516484,37.6010456 0.00858516484,35.1734203 L0.00858516484,26.3822115 C0.00858516484,23.9545863 1.97656429,21.9866071 4.40418956,21.9866071 L4.40418956,21.9866071 Z M26.3822115,2.20638736 C25.1683989,2.20638736 24.1844093,3.19037692 24.1844093,4.40418956 L24.1844093,13.1953984 C24.1844093,14.409211 25.1683989,15.3932005 26.3822115,15.3932005 L35.1734203,15.3932005 C36.387233,15.3932005 37.3712225,14.409211 37.3712225,13.1953984 L37.3712225,4.40418956 C37.3712225,3.19037692 36.387233,2.20638736 35.1734203,2.20638736 L26.3822115,2.20638736 L26.3822115,2.20638736 Z M26.3822115,0.00858516484 L35.1734203,0.00858516484 C37.6010456,0.00858516484 39.5690247,1.97656429 39.5690247,4.40418956 L39.5690247,13.1953984 C39.5690247,14.3611851 39.1059177,15.4792243 38.281582,16.30356 C37.4572463,17.1278958 36.3392071,17.5910027 35.1734203,17.5910027 L26.3822115,17.5910027 C23.9545863,17.5910027 21.9866071,15.6230236 21.9866071,13.1953984 L21.9866071,4.40418956 C21.9866071,1.97656429 23.9545863,0.00858516484 26.3822115,0.00858516484 L26.3822115,0.00858516484 Z M26.3822115,24.1844093 C25.1683989,24.1844093 24.1844093,25.1683989 24.1844093,26.3822115 L24.1844093,35.1734203 C24.1844093,36.387233 25.1683989,37.3712225 26.3822115,37.3712225 L35.1734203,37.3712225 C36.387233,37.3712225 37.3712225,36.387233 37.3712225,35.1734203 L37.3712225,26.3822115 C37.3712225,25.1683989 36.387233,24.1844093 35.1734203,24.1844093 L26.3822115,24.1844093 L26.3822115,24.1844093 Z M26.3822115,21.9866071 L35.1734203,21.9866071 C37.6010456,21.9866071 39.5690247,23.9545863 39.5690247,26.3822115 L39.5690247,35.1734203 C39.5690247,37.6010456 37.6010456,39.5690247 35.1734203,39.5690247 L26.3822115,39.5690247 C23.9545863,39.5690247 21.9866071,37.6010456 21.9866071,35.1734203 L21.9866071,26.3822115 C21.9866071,23.9545863 23.9545863,21.9866071 26.3822115,21.9866071 L26.3822115,21.9866071 Z" id="Shape"></path>
            </g>
        </g>
    </g>
</svg>