<?xml version="1.0" encoding="UTF-8"?>
<svg width="37px" height="42px" viewBox="0 0 37 42" version="1.1" xmlns="http://www.w3.org/2000/svg" xmlns:xlink="http://www.w3.org/1999/xlink">
    <!-- Generator: Sketch 61.2 (89653) - https://sketch.com -->
    <title>noun_ar_2300882</title>
    <desc>Created with Sketch.</desc>
    <g id="New-v2" stroke="none" stroke-width="1" fill="none" fill-rule="evenodd">
        <g id="Case-Study-simon-kucher" transform="translate(-602.000000, -1081.000000)" fill="#FFFFFF" fill-rule="nonzero" stroke="#FFFFFF">
            <g id="noun_ar_2300882" transform="translate(603.000000, 1082.000000)">
                <path d="M34.8314363,8.43859935 C35.0303458,8.53537652 35.2001258,8.6960144 35.306695,8.9091525 C35.3117758,8.91931423 35.316675,8.92951927 35.3213938,8.93976398 C35.3317254,8.96222063 35.3412681,8.98506654 35.3499967,9.00826054 C35.3980548,9.13585896 35.4193725,9.26690629 35.4166667,9.39595565 L35.4166667,16.6666667 C35.4166667,17.2419633 34.9502967,17.7083333 34.375,17.7083333 C33.7997033,17.7083333 33.3333333,17.2419633 33.3333333,16.6666667 L33.3333333,11.0604521 L28.5908475,13.431695 C28.0762865,13.6889755 27.4505854,13.4804084 27.193305,12.9658475 C26.9360246,12.4512866 27.1445917,11.8255855 27.6591525,11.568305 L32.0457625,9.375 L27.6591525,7.181695 C27.1445917,6.92441452 26.9360246,6.29871344 27.193305,5.7841525 C27.4505854,5.26959156 28.0762865,5.06102454 28.5908475,5.318305 L34.8314363,8.43859935 Z M35.4166667,30.1873777 C35.4198733,30.3403112 35.389341,30.496051 35.3213938,30.6435694 C35.2703733,30.7544669 35.2001163,30.8558704 35.1136927,30.9428131 C35.0259844,31.0299471 34.9324679,31.0955783 34.8314363,31.144734 L28.5908475,34.2650283 C28.0762865,34.5223087 27.4505854,34.3137417 27.193305,33.7991808 C26.9360246,33.2846198 27.1445917,32.6589187 27.6591525,32.4016383 L32.0457625,30.2083333 L27.6591525,28.0150283 C27.1445917,27.7577479 26.9360246,27.1320469 27.193305,26.6174858 C27.4505854,26.102925 28.0762865,25.8943579 28.5908475,26.1516383 L33.3333333,28.5228812 L33.3333333,22.9166667 C33.3333333,22.34137 33.7997033,21.875 34.375,21.875 C34.9502967,21.875 35.4166667,22.34137 35.4166667,22.9166667 L35.4166667,30.1873777 Z M3.37090415,30.2083333 L7.75751417,32.4016383 C8.2720751,32.6589187 8.48064213,33.2846198 8.22336167,33.7991808 C7.96608119,34.3137417 7.3403801,34.5223087 6.82581917,34.2650283 L0.585230479,31.144734 C0.386320771,31.0479569 0.216540729,30.887319 0.109971667,30.6741808 C0.104890813,30.6640192 0.0999916458,30.653814 0.0952729167,30.6435694 C0.0849413125,30.6211127 0.0753985417,30.5982669 0.0666700625,30.5750727 C0.018611875,30.4474744 -0.00270585417,30.3164271 1.72298699e-15,30.1873777 L1.72298699e-15,22.9166667 C1.72298699e-15,22.34137 0.466370063,21.875 1.04166667,21.875 C1.61696327,21.875 2.08333333,22.34137 2.08333333,22.9166667 L2.08333333,28.5228812 L6.82581917,26.1516383 C7.3403801,25.8943579 7.96608119,26.102925 8.22336167,26.6174858 C8.48064213,27.1320469 8.2720751,27.7577479 7.75751417,28.0150283 L3.37090415,30.2083333 Z M2.08333333,11.0604521 L2.08333333,16.6666667 C2.08333333,17.2419633 1.61696327,17.7083333 1.04166667,17.7083333 C0.466370063,17.7083333 1.17841934e-15,17.2419633 1.17841934e-15,16.6666667 L1.17841934e-15,9.39595565 C-0.00320664583,9.24302198 0.0273257083,9.08728229 0.0952729167,8.93976398 C0.146293354,8.82886654 0.216550375,8.72746283 0.302973979,8.64052015 C0.390682396,8.55338627 0.484198854,8.4877551 0.585230479,8.43859935 L6.82581917,5.318305 C7.3403801,5.06102454 7.96608119,5.26959156 8.22336167,5.7841525 C8.48064213,6.29871344 8.2720751,6.92441452 7.75751417,7.181695 L3.37090415,9.375 L7.75751417,11.568305 C8.2720751,11.8255855 8.48064213,12.4512866 8.22336167,12.9658475 C7.96608119,13.4804084 7.3403801,13.6889755 6.82581917,13.431695 L2.08333333,11.0604521 Z M17.2237425,0.119343333 C17.3684965,0.04313225 17.5333779,0 17.7083333,0 C17.8832888,0 18.0481702,0.04313225 18.1929242,0.119343333 L24.4241808,3.23497167 C24.9387417,3.49225215 25.1473088,4.11795323 24.8900283,4.63251417 C24.6327479,5.1470751 24.0070469,5.35564213 23.4924858,5.09836167 L18.75,2.72711873 L18.75,8.33333333 C18.75,8.90862994 18.28363,9.375 17.7083333,9.375 C17.1330367,9.375 16.6666667,8.90862994 16.6666667,8.33333333 L16.6666667,2.72711873 L11.9241808,5.09836167 C11.4096199,5.35564213 10.7839188,5.1470751 10.5266383,4.63251417 C10.2693579,4.11795323 10.4779249,3.49225215 10.9924858,3.23497167 L17.2237425,0.119343333 Z M18.1929242,39.46399 C18.0481702,39.540201 17.8832888,39.5833333 17.7083333,39.5833333 C17.5333779,39.5833333 17.3684965,39.540201 17.2237425,39.46399 L10.9924858,36.3483617 C10.4779249,36.0910813 10.2693579,35.4653802 10.5266383,34.9508192 C10.7839188,34.4362583 11.4096199,34.2276913 11.9241808,34.4849717 L16.6666667,36.8562146 L16.6666667,31.25 C16.6666667,30.6747033 17.1330367,30.2083333 17.7083333,30.2083333 C18.28363,30.2083333 18.75,30.6747033 18.75,31.25 L18.75,36.8562146 L23.4924858,34.4849717 C24.0070469,34.2276913 24.6327479,34.4362583 24.8900283,34.9508192 C25.1473088,35.4653802 24.9387417,36.0910813 24.4241808,36.3483617 L18.1929242,39.46399 Z M18.75,18.3521188 L18.75,23.9583333 C18.75,24.53363 18.28363,25 17.7083333,25 C17.1330367,25 16.6666667,24.53363 16.6666667,23.9583333 L16.6666667,18.3521188 L10.9924858,15.5150283 C10.4779249,15.2577479 10.2693579,14.6320468 10.5266383,14.1174858 C10.7839188,13.6029249 11.4096199,13.3943579 11.9241808,13.6516383 L17.7083333,16.5437146 L23.4924858,13.6516383 C24.0070469,13.3943579 24.6327479,13.6029249 24.8900283,14.1174858 C25.1473088,14.6320468 24.9387417,15.2577479 24.4241808,15.5150283 L18.75,18.3521188 Z" id="Shape"></path>
            </g>
        </g>
    </g>
</svg>