<?xml version="1.0" encoding="UTF-8"?>
<svg width="64px" height="25px" viewBox="0 0 64 25" version="1.1" xmlns="http://www.w3.org/2000/svg" xmlns:xlink="http://www.w3.org/1999/xlink">
    <!-- Generator: Sketch 61.2 (89653) - https://sketch.com -->
    <title>noun_Glasses_2439303</title>
    <desc>Created with Sketch.</desc>
    <g id="New-v2" stroke="none" stroke-width="1" fill="none" fill-rule="evenodd">
        <g id="Case-Study-simon-kucher" transform="translate(-263.000000, -1089.000000)" fill="#FFFFFF" fill-rule="nonzero">
            <g id="noun_Glasses_2439303" transform="translate(263.000000, 1089.000000)">
                <path d="M16.1540741,24.2136537 C11.8992593,24.2136537 4.43259259,21.5351351 3.46074074,11.5084685 C3.18341191,8.90663979 4.04815083,6.312423 5.83111111,4.39735736 C8.67912228,1.55479746 12.5702828,0.00776117841 16.5925926,0.118838839 C19.7021617,0.022355334 22.7497588,1.00194013 25.2207407,2.89217217 C25.4222222,3.0580981 29.9614815,6.90994995 27.8992593,14.4121722 C25.5288889,23.3129129 18.477037,24.1662462 16.3792593,24.2136537 L16.1540741,24.2136537 Z M16.5925926,2.88032032 C13.3337731,2.76726617 10.1686658,3.98198302 7.82222222,6.24624625 C6.56035473,7.59679598 5.96145917,9.43688088 6.18666667,11.2714314 C7.14666667,21.226987 15.2414815,21.5114314 16.1540741,21.5114314 L16.32,21.5114314 C18.3822222,21.5114314 23.4311111,20.6106907 25.2444444,13.7247648 C26.8325926,7.86994995 23.5022222,5.06106106 23.4785185,5.06106106 C21.4989668,3.56787744 19.0712768,2.79068237 16.5925926,2.85661662 L16.5925926,2.88032032 Z" id="Shape"></path>
                <path d="M26.5837037,7.70402402 C25.9696183,7.71390131 25.4247804,7.31185034 25.2531332,6.72215913 C25.081486,6.13246793 25.3254342,5.50081727 25.8488889,5.17957958 C27.7257891,4.11906577 29.8442105,3.55986783 32,3.55587588 C32.5478782,3.44025147 33.11114,3.66845809 33.4240332,4.13282578 C33.7369265,4.59719347 33.7369265,5.20492865 33.4240332,5.66929634 C33.11114,6.13366403 32.5478782,6.36187065 32,6.24624625 C30.3459516,6.24231621 28.7168643,6.64958805 27.2592593,7.43143143 C27.0639014,7.58351738 26.8299035,7.67793757 26.5837037,7.70402402 L26.5837037,7.70402402 Z" id="Path"></path>
                <path d="M5.0962963,9.63587588 C4.95116043,9.63544785 4.80705913,9.61143097 4.66962963,9.56476476 L0.663703704,8.22550551 L1.73037037,4.95439439 L6.31703704,4.27883884 C7.0632351,4.16756369 7.75835448,4.68227041 7.86962963,5.42846847 C7.98090478,6.17466653 7.46619806,6.86978591 6.72,6.98106106 L5.84296296,7.11143143 C6.3500585,7.44398415 6.57937756,8.06950631 6.40738148,8.65101688 C6.2353854,9.23252744 5.7027012,9.63266836 5.0962963,9.63587588 L5.0962963,9.63587588 Z" id="Path"></path>
                <path d="M47.8459259,24.2255055 L47.6088889,24.2255055 C45.522963,24.2255055 38.5185185,23.3247648 36.1007407,14.424024 C34.0740741,6.9218018 38.5896296,3.06994995 38.7792593,2.90402402 C41.2486672,1.00955997 44.2964104,0.0257417636 47.4074074,0.118838839 C51.4367082,-0.0114787965 55.3418728,1.5231523 58.2044444,4.3618018 C59.9819236,6.28011677 60.8458092,8.87177343 60.5748148,11.4729129 C59.5674074,21.546987 52.1481481,24.2255055 47.8459259,24.2255055 Z M47.4074074,2.89217217 C44.9329271,2.81602255 42.5056542,3.58055085 40.5214815,5.06106106 C40.402963,5.16772773 37.1911111,8.01217217 38.7437037,13.7484685 C40.6162963,20.6343944 45.6177778,21.4877277 47.68,21.5351351 L47.8459259,21.5351351 C48.7585185,21.5351351 56.8533333,21.2506907 57.8133333,11.2951351 C58.0458214,9.45271539 57.4464185,7.60238484 56.1777778,6.24624625 C53.831505,3.97916495 50.6684917,2.75670306 47.4074074,2.85661662 L47.4074074,2.89217217 Z" id="Shape"></path>
                <path d="M37.4281481,7.71587588 C37.1736273,7.71351897 36.9242385,7.64401717 36.7051852,7.51439439 L36.7051852,7.51439439 C35.2477606,6.73208414 33.6185533,6.32478233 31.9644444,6.32920921 C31.2576165,6.26336884 30.7171404,5.67020814 30.7171404,4.96032032 C30.7171404,4.2504325 31.2576165,3.6572718 31.9644444,3.59143143 C34.1190597,3.60433502 36.2352782,4.16295144 38.1155556,5.21513514 C38.4246813,5.40593242 38.6448506,5.71223842 38.7271844,6.06605122 C38.8095182,6.41986402 38.7472033,6.79190534 38.5540741,7.09957958 C38.3021576,7.4768031 37.8816678,7.7069659 37.4281481,7.71587588 L37.4281481,7.71587588 Z" id="Path"></path>
                <path d="M58.9037037,9.63587588 C58.2972988,9.63266836 57.7646146,9.23252744 57.5926185,8.65101688 C57.4206224,8.06950631 57.6499415,7.44398415 58.157037,7.11143143 L57.28,6.98106106 C56.5338019,6.86978591 56.0190952,6.17466653 56.1303704,5.42846847 C56.2416455,4.68227041 56.9367649,4.16756369 57.682963,4.27883884 L62.2696296,4.95439439 L63.3362963,8.22550551 L59.3303704,9.56476476 C59.1929409,9.61143097 59.0488396,9.63544785 58.9037037,9.63587588 Z" id="Path"></path>
            </g>
        </g>
    </g>
</svg>