<?xml version="1.0" encoding="UTF-8"?>
<svg width="220px" height="100px" viewBox="0 0 220 100" version="1.1" xmlns="http://www.w3.org/2000/svg" xmlns:xlink="http://www.w3.org/1999/xlink">
    <!-- Generator: Sketch 56.3 (81716) - https://sketch.com -->
    <title>Automatic_Data_Processing_(logo)</title>
    <desc>Created with Sketch.</desc>
    <defs>
        <polygon id="path-1" points="0.46729907 0.432700671 220.467576 0.432700671 220.467576 100.286702 0.46729907 100.286702"></polygon>
    </defs>
    <g id="New-v2" stroke="none" stroke-width="1" fill="none" fill-rule="evenodd">
        <g id="Automatic_Data_Processing_(logo)" transform="translate(-2.000000, -3.000000)">
            <g id="g3346" transform="translate(111.838760, 52.049000) scale(-1, 1) rotate(-180.000000) translate(-111.838760, -52.049000) translate(0.338760, 0.549000)">
                <g id="g3450" transform="translate(0.872775, 0.109022)">
                    <g id="g3452-Clipped">
                        <g id="g3452" transform="translate(0.321167, 0.153278)">
                            <g id="g3458">
                                <g id="g3460-Clipped">
                                    <mask id="mask-2" fill="white">
                                        <use xlink:href="#path-1"></use>
                                    </mask>
                                    <g id="path3464"></g>
                                    <g id="g3460" mask="url(#mask-2)" fill="#0A2630" fill-rule="nonzero">
                                        <path d="M192.711492,9.13303525 L192.711492,11.4679546 L194.42593,11.4679546 C195.566484,11.4679546 195.875199,11.1159693 195.875199,10.4333562 C195.875199,9.73437824 195.566484,9.17103525 194.222893,9.13303525 L192.711492,9.13303525 L192.711492,9.13303525 Z M193.914178,7.70817413 C194.406791,7.66490407 194.881097,7.70817413 195.23863,7.33455375 C195.647754,6.90102096 195.647754,6.17513785 195.750659,5.3896197 C195.815564,4.85318182 195.959243,4.27375124 196.062148,3.75894839 L197.882265,3.75894839 C197.570776,4.58246653 197.467871,5.53579487 197.343331,6.40258307 C197.197155,7.39418877 197.055973,7.95198432 195.793929,8.20134195 L195.793929,8.24461202 C197.015477,8.49369227 197.65482,9.31721041 197.65482,10.3737212 C197.65482,12.4376479 195.915696,12.8928158 194.244251,12.8928158 L191.286353,12.8928158 L191.286353,3.75894839 L192.711492,3.75894839 L192.711492,7.70817413 L193.914178,7.70817413 L193.914178,7.70817413 Z M194.366572,0.432700671 C198.670557,0.432700671 202.118571,3.89985348 202.118571,8.22297698 C202.118571,12.5028304 198.670557,15.9752533 194.366572,15.9752533 C190.045945,15.9752533 186.573245,12.5028304 186.573245,8.22297698 C186.573245,3.89985348 190.045945,0.432700671 194.366572,0.432700671 Z M194.366572,1.79237932 C190.812324,1.79237932 187.941522,4.66900666 187.941522,8.22297698 C187.941522,11.7333999 190.812324,14.6100272 194.366572,14.6100272 C197.904177,14.6100272 200.758892,11.7333999 200.758892,8.22297698 C200.758892,4.66900666 197.904177,1.79237932 194.366572,1.79237932 L194.366572,1.79237932 Z" id="path3466"></path>
                                        <path d="M181.22634,78.8838287 L168.742094,78.8838287 L168.742094,66.4128961 L181.22634,66.4128961 C184.189508,66.4128961 186.573245,63.9994803 186.573245,61.0537873 C186.573245,58.0875687 184.189508,55.7041092 181.22634,55.7041092 L168.742094,55.7041092 L168.742094,43.2223591 L181.22634,43.2223591 C191.078047,43.2223591 199.058046,51.2101244 199.058046,61.0537873 C199.058046,70.8999465 191.078047,78.8838287 181.22634,78.8838287 Z M110.079532,12.8928158 C125.023516,12.8928158 137.903018,21.6447416 143.919499,34.3106669 L159.833175,34.3106669 L159.833175,12.8928158 L168.742094,12.8928158 L168.742094,34.3106669 L181.22634,34.3106669 C196.008061,34.3106669 207.983052,46.2856579 207.983052,61.0537873 C207.983052,75.8255225 196.008061,87.8049515 181.22634,87.8049515 L159.833175,87.8049515 L159.833175,55.7041092 L147.137016,55.7041092 C144.547747,73.8456396 128.942785,87.8049515 110.079532,87.8049515 L66.1765018,87.8049515 L22.5053545,12.8928158 L32.9231779,12.8928158 L45.404928,34.3106669 L90.2840314,34.3106669 L90.2840314,12.8928158 L110.079532,12.8928158 Z M220.467299,61.0537873 C220.467299,39.3893523 202.896045,21.8289167 181.22634,21.8289167 L181.22634,0.432700671 L147.353921,0.432700671 L147.353921,17.1238517 C138.190375,6.87938592 124.898698,0.432700671 110.079532,0.432700671 L77.7997849,0.432700671 L77.7997849,21.8289167 L52.5708394,21.8289167 L40.0890893,0.432700671 L0.46729907,0.432700671 L58.7074225,100.286702 L110.079532,100.286702 C124.898698,100.286702 138.190375,93.8222646 147.353921,83.5766893 L147.353921,100.286702 L181.22634,100.286702 C202.896045,100.286702 220.467299,82.7123975 220.467299,61.0537873 Z M77.7997849,78.8838287 L77.7997849,55.7041092 L57.8866781,55.7041092 L50.613701,43.2223591 L90.2840314,43.2223591 L90.2840314,78.8838287 L77.7997849,78.8838287 L77.7997849,78.8838287 Z M138.618361,50.3597012 C138.618361,34.6005208 125.835939,21.8289167 110.079532,21.8289167 L99.1982199,21.8289167 L99.1982199,34.3106669 L110.079532,34.3106669 C118.950451,34.3106669 126.139107,41.4860089 126.139107,50.3597012 C126.139107,59.2145321 118.950451,66.4128961 110.079532,66.4128961 L99.1982199,66.4128961 L99.1982199,78.8838287 L110.079532,78.8838287 C125.835939,78.8838287 138.618361,66.1122246 138.618361,50.3597012 L138.618361,50.3597012 Z" id="path3468"></path>
                                        <path d="M181.22634,78.8838287 L168.742094,78.8838287 L168.742094,66.4128961 L181.22634,66.4128961 C184.189508,66.4128961 186.573245,63.9994803 186.573245,61.0537873 C186.573245,58.0875687 184.189508,55.7041092 181.22634,55.7041092 L168.742094,55.7041092 L168.742094,43.2223591 L181.22634,43.2223591 C191.078047,43.2223591 199.058046,51.2101244 199.058046,61.0537873 C199.058046,70.8999465 191.078047,78.8838287 181.22634,78.8838287 Z M110.079532,12.8928158 C125.023516,12.8928158 137.903018,21.6447416 143.919499,34.3106669 L159.833175,34.3106669 L159.833175,12.8928158 L168.742094,12.8928158 L168.742094,34.3106669 L181.22634,34.3106669 C196.008061,34.3106669 207.983052,46.2856579 207.983052,61.0537873 C207.983052,75.8255225 196.008061,87.8049515 181.22634,87.8049515 L159.833175,87.8049515 L159.833175,55.7041092 L147.137016,55.7041092 C144.547747,73.8456396 128.942785,87.8049515 110.079532,87.8049515 L66.1765018,87.8049515 L22.5053545,12.8928158 L32.9231779,12.8928158 L45.404928,34.3106669 L90.2840314,34.3106669 L90.2840314,12.8928158 L110.079532,12.8928158 Z M220.467299,61.0537873 C220.467299,39.3893523 202.896045,21.8289167 181.22634,21.8289167 L181.22634,0.432700671 L147.353921,0.432700671 L147.353921,17.1238517 C138.190375,6.87938592 124.898698,0.432700671 110.079532,0.432700671 L77.7997849,0.432700671 L77.7997849,21.8289167 L52.5708394,21.8289167 L40.0890893,0.432700671 L0.46729907,0.432700671 L58.7074225,100.286702 L110.079532,100.286702 C124.898698,100.286702 138.190375,93.8222646 147.353921,83.5766893 L147.353921,100.286702 L181.22634,100.286702 C202.896045,100.286702 220.467299,82.7123975 220.467299,61.0537873 Z M77.7997849,78.8838287 L77.7997849,55.7041092 L57.8866781,55.7041092 L50.613701,43.2223591 L90.2840314,43.2223591 L90.2840314,78.8838287 L77.7997849,78.8838287 L77.7997849,78.8838287 Z M138.618361,50.3597012 C138.618361,34.6005208 125.835939,21.8289167 110.079532,21.8289167 L99.1982199,21.8289167 L99.1982199,34.3106669 L110.079532,34.3106669 C118.950451,34.3106669 126.139107,41.4860089 126.139107,50.3597012 C126.139107,59.2145321 118.950451,66.4128961 110.079532,66.4128961 L99.1982199,66.4128961 L99.1982199,78.8838287 L110.079532,78.8838287 C125.835939,78.8838287 138.618361,66.1122246 138.618361,50.3597012 L138.618361,50.3597012 Z" id="path3470"></path>
                                        <path d="M181.22634,78.8838287 L168.742094,78.8838287 L168.742094,66.4128961 L181.22634,66.4128961 C184.189508,66.4128961 186.573245,63.9994803 186.573245,61.0537873 C186.573245,58.0875687 184.189508,55.7041092 181.22634,55.7041092 L168.742094,55.7041092 L168.742094,43.2223591 L181.22634,43.2223591 C191.078047,43.2223591 199.058046,51.2101244 199.058046,61.0537873 C199.058046,70.8999465 191.078047,78.8838287 181.22634,78.8838287 Z M110.079532,12.8928158 C125.023516,12.8928158 137.903018,21.6447416 143.919499,34.3106669 L159.833175,34.3106669 L159.833175,12.8928158 L168.742094,12.8928158 L168.742094,34.3106669 L181.22634,34.3106669 C196.008061,34.3106669 207.983052,46.2856579 207.983052,61.0537873 C207.983052,75.8255225 196.008061,87.8049515 181.22634,87.8049515 L159.833175,87.8049515 L159.833175,55.7041092 L147.137016,55.7041092 C144.547747,73.8456396 128.942785,87.8049515 110.079532,87.8049515 L66.1765018,87.8049515 L22.5053545,12.8928158 L32.9231779,12.8928158 L45.404928,34.3106669 L90.2840314,34.3106669 L90.2840314,12.8928158 L110.079532,12.8928158 Z M220.467299,61.0537873 C220.467299,39.3893523 202.896045,21.8289167 181.22634,21.8289167 L181.22634,0.432700671 L147.353921,0.432700671 L147.353921,17.1238517 C138.190375,6.87938592 124.898698,0.432700671 110.079532,0.432700671 L77.7997849,0.432700671 L77.7997849,21.8289167 L52.5708394,21.8289167 L40.0890893,0.432700671 L0.46729907,0.432700671 L58.7074225,100.286702 L110.079532,100.286702 C124.898698,100.286702 138.190375,93.8222646 147.353921,83.5766893 L147.353921,100.286702 L181.22634,100.286702 C202.896045,100.286702 220.467299,82.7123975 220.467299,61.0537873 Z M77.7997849,78.8838287 L77.7997849,55.7041092 L57.8866781,55.7041092 L50.613701,43.2223591 L90.2840314,43.2223591 L90.2840314,78.8838287 L77.7997849,78.8838287 L77.7997849,78.8838287 Z M138.618361,50.3597012 C138.618361,34.6005208 125.835939,21.8289167 110.079532,21.8289167 L99.1982199,21.8289167 L99.1982199,34.3106669 L110.079532,34.3106669 C118.950451,34.3106669 126.139107,41.4860089 126.139107,50.3597012 C126.139107,59.2145321 118.950451,66.4128961 110.079532,66.4128961 L99.1982199,66.4128961 L99.1982199,78.8838287 L110.079532,78.8838287 C125.835939,78.8838287 138.618361,66.1122246 138.618361,50.3597012 L138.618361,50.3597012 Z" id="path3472"></path>
                                    </g>
                                </g>
                            </g>
                        </g>
                    </g>
                </g>
            </g>
        </g>
    </g>
</svg>