<?xml version="1.0" encoding="UTF-8"?>
<svg width="1440px" height="183px" viewBox="0 0 1440 183" version="1.1" xmlns="http://www.w3.org/2000/svg" xmlns:xlink="http://www.w3.org/1999/xlink">
    <!-- Generator: Sketch 56.3 (81716) - https://sketch.com -->
    <title>bank-of-america</title>
    <desc>Created with Sketch.</desc>
    <g id="New-v2" stroke="none" stroke-width="1" fill="none" fill-rule="evenodd">
        <g id="bank-of-america" fill="#0A2630" fill-rule="nonzero">
            <path d="M390.64986,95.6529056 C365.700924,95.6529056 353.293618,114.005821 353.293618,138.778014 C353.293618,164.561174 365.213115,182.581814 390.64986,182.581814 C416.107813,182.581814 427.991962,164.561174 427.991962,138.778014 C427.991962,114.005821 415.598796,95.6529056 390.64986,95.6529056 L390.64986,95.6529056 Z M390.64986,165.720603 C384.018491,165.720603 381.07043,159.767924 381.07043,138.770945 C381.07043,119.597946 383.035804,112.499977 390.64986,112.499977 C398.249776,112.499977 400.22222,119.597946 400.22222,138.770945 C400.22222,159.789133 397.25295,165.720603 390.64986,165.720603 L390.64986,165.720603 Z M445.242006,88.5761459 L445.242006,97.8445095 L434.326405,97.8445095 L434.326405,116.699373 L445.242006,116.699373 L445.242006,180.786112 L472.014922,180.786112 L472.014922,116.699373 L486.585553,116.699373 L486.585553,97.8445095 L472.014922,97.8445095 L472.014922,89.4315784 C472.014922,84.3908894 474.56001,81.6337103 481.608491,81.6337103 C483.093126,81.6337103 485.072639,81.958916 486.578483,82.3053309 L486.578483,61.8173693 C482.258903,61.322491 478.285737,60.8134733 473.018818,60.8134733 C455.337523,60.820543 445.242006,68.2507872 445.242006,88.5761459 L445.242006,88.5761459 Z M159.817412,121.146208 C159.817412,102.807432 143.140013,95.8862053 127.084747,95.8862053 C111.899053,95.8862053 97.010286,102.475156 94.0480859,118.834419 L117.335645,123.634739 C117.625502,118.784931 119.682782,112.740346 126.10913,112.740346 C130.732707,112.740346 133.037426,116.027752 133.037426,120.976535 L133.037426,128.109852 C115.349062,130.160062 90.9727708,136.536923 90.3859865,158.127756 C89.9759445,173.377077 100.149228,182.398002 113.496803,182.398002 C121.393647,182.398002 129.29756,178.036003 133.86458,173.221544 C134.027183,174.600134 134.203925,178.516742 134.705873,180.807321 L162.305943,180.807321 C161.294977,179.676171 159.810342,176.841225 159.810342,167.424398 L159.817412,121.146208 L159.817412,121.146208 Z M133.044496,159.661879 C130.768056,162.659427 127.501859,164.815683 124.454823,164.815683 C119.654503,164.815683 116.685233,161.803995 116.685233,156.020988 C116.685233,145.437662 123.684226,141.881608 133.037426,140.983758 L133.044496,159.661879 Z M225.473623,95.8720659 C215.031691,95.8720659 207.658004,100.707734 202.143646,106.328137 L201.797231,106.328137 L201.662907,97.8445095 L175.462636,97.8445095 L175.462636,180.793182 L202.235552,180.793182 L202.235552,121.471413 C204.681665,118.339541 207.933722,116.317609 210.94541,116.317609 C215.420524,116.317609 217.117249,118.940464 217.117249,123.670087 L217.117249,180.779043 L243.890171,180.779043 L243.890171,115.17232 C243.897235,103.797188 237.195169,95.8720659 225.473623,95.8720659 L225.473623,95.8720659 Z M333.950946,97.8374398 L307.326494,97.8374398 L287.630337,122.90656 L287.305131,122.90656 L287.305131,63.1394013 L260.518076,63.1394013 L260.518076,180.786112 L287.305131,180.786112 L287.305131,151.079275 L292.932605,144.603439 L293.25781,144.603439 L306.308458,180.786112 L334.0782,180.786112 L311.554168,123.37316 L333.950946,97.8374398 Z M61.8527177,119.597946 L61.8527177,118.678886 C70.3787638,115.349062 81.0539957,107.254267 81.0539957,91.8776911 C81.0539957,75.6315435 67.3529365,63.1323316 46.5114904,63.1323316 L0,63.1323316 L0,180.793182 L45.3237825,180.793182 C67.6640029,180.793182 83.8465233,169.453399 83.8465233,149.318922 C83.8465233,134.239274 74.5993688,123.797341 61.8527177,119.597946 L61.8527177,119.597946 Z M28.9008927,83.9596383 L39.314546,83.9596383 C46.0731697,83.9596383 53.6448076,85.7765486 53.6448076,97.0032163 C53.6448076,103.959791 49.395924,109.735728 38.6429255,109.735728 L28.9008927,109.735728 L28.9008927,83.9596383 L28.9008927,83.9596383 Z M39.8094243,158.990258 L28.9008927,158.990258 L28.9008927,129.566208 L39.8094243,129.566208 C49.395924,129.566208 54.8113065,135.356285 54.8113065,144.11563 C54.8113065,156.169452 46.2428422,158.990258 39.8094243,158.990258 L39.8094243,158.990258 Z M1055.96425,167.424398 L1055.96425,121.146208 C1055.96425,102.807432 1039.30099,95.8862053 1023.25279,95.8862053 C1008.05296,95.8862053 993.164189,102.475156 990.194919,118.834419 L1013.50369,123.634739 C1013.77941,118.784931 1015.82255,112.740346 1022.2701,112.740346 C1026.8654,112.740346 1029.20547,116.027752 1029.20547,120.976535 L1029.20547,128.109852 C1011.4959,130.160062 987.098395,136.536923 986.52575,158.127756 C986.115708,173.377077 996.281922,182.398002 1009.65071,182.398002 C1017.54755,182.398002 1025.43025,178.036003 1030.03262,173.221544 C1030.17402,174.600134 1030.35783,178.516742 1030.84564,180.807321 L1058.43157,180.807321 C1057.46302,179.662032 1055.96425,176.841225 1055.96425,167.424398 L1055.96425,167.424398 Z M1029.21961,159.661879 C1026.90782,162.659427 1023.65576,164.815683 1020.6158,164.815683 C1015.80841,164.815683 1012.83914,161.803995 1012.83914,156.020988 C1012.83914,145.437662 1019.83813,141.881608 1029.20547,140.983758 L1029.21961,159.661879 Z M764.077955,95.6529056 C739.447155,95.6529056 727.202452,115.483386 727.202452,138.954757 C727.202452,161.92418 738.775534,182.588883 764.389021,182.588883 C779.207049,183.03858 792.628509,173.893034 797.630703,159.937597 L779.581785,153.320367 C778.252683,160.001224 772.801952,164.709637 766.340255,164.709637 C755.566048,164.709637 753.607744,152.450795 753.968298,145.062969 L798.775993,145.062969 L798.775993,139.442565 C798.775993,117.802244 789.861114,95.6529056 764.077955,95.6529056 L764.077955,95.6529056 Z M773.98259,129.184445 L753.975368,129.184445 C753.565326,121.379507 756.294226,112.507046 763.901212,112.507046 C773.148367,112.507046 774.244169,121.499692 773.98259,129.184445 L773.98259,129.184445 Z M870.978737,97.8445095 L897.737514,97.8445095 L897.737514,180.793182 L870.978737,180.793182 L870.978737,97.8445095 Z M870.978737,63.1323316 L897.737514,63.1323316 L897.737514,86.9289081 L870.978737,86.9289081 L870.978737,63.1323316 Z M948.059567,112.507046 C952.372078,112.507046 954.507124,114.825905 955.822087,118.113311 C956.995655,121.259323 957.151188,125.225419 957.151188,128.541103 L979.979217,128.541103 C979.979217,120.276636 975.673776,95.6670449 947.267762,95.6670449 C921.979481,95.6670449 909.430781,118.311262 909.430781,140.94134 C909.430781,161.422232 921.965341,182.595953 946.108333,182.595953 C965.613607,182.595953 977.17962,172.026767 979.173273,151.864011 L958.345966,148.880601 C958.345966,155.165556 957.518812,164.716707 948.087846,164.716707 C941.166619,164.716707 938.19028,158.629704 938.19028,139.937444 C938.140792,123.415578 939.151758,112.507046 948.059567,112.507046 L948.059567,112.507046 Z M533.118252,63.1394013 L505.525252,180.793182 L531.301342,180.793182 L536.433937,157.010745 L563.701731,157.010745 L568.332378,180.793182 L597.25448,180.793182 L572.114662,63.1394013 L533.118252,63.1394013 L533.118252,63.1394013 Z M540.569706,136.183438 L550.50969,88.2509401 L551.103544,88.2509401 L559.565963,136.183438 L540.569706,136.183438 L540.569706,136.183438 Z M836.422092,109.071177 L835.976702,109.071177 L835.708054,97.8374398 L809.79764,97.8374398 L809.79764,180.786112 L836.598835,180.786112 L836.598835,127.070608 C839.737777,123.330742 844.44619,120.651329 851.282581,120.651329 C855.892019,120.651329 859.151146,121.76834 862.198182,122.941909 L862.198182,95.8649963 C851.869365,95.8720659 841.879893,100.311831 836.422092,109.071177 L836.422092,109.071177 Z M696.894691,95.8720659 C685.682162,95.8720659 677.686343,101.909581 673.006208,106.96441 L672.659793,106.96441 C670.128844,100.56634 664.699323,95.8720659 656.562109,95.8720659 C646.586777,95.8720659 638.195055,101.02587 632.59586,106.299859 L632.256515,106.299859 L632.115121,97.8515791 L605.985547,97.8515791 L605.985547,180.800252 L632.256515,180.800252 L632.256515,121.641086 C634.511746,118.58698 638.5344,116.5297 641.341067,116.5297 C646.311059,116.5297 647.626021,119.49897 647.626021,123.967014 L647.626021,180.800252 L673.911129,180.800252 L673.911129,121.641086 C675.650272,119.350506 679.474975,116.5297 683.066377,116.5297 C687.937393,116.5297 689.294774,119.49897 689.294774,123.967014 L689.294774,180.800252 L715.558672,180.800252 L715.558672,114.670372 C715.558672,103.217474 708.022383,95.8720659 696.894691,95.8720659 L696.894691,95.8720659 Z M1220.5537,44.5036985 C1231.17331,48.7004657 1241.67134,53.1986094 1252.03503,57.992667 C1219.10915,71.3552755 1187.25232,87.2139669 1156.74268,105.430287 C1146.44887,100.034742 1136.00016,94.9400499 1125.40981,90.1526867 C1155.85403,72.4190895 1187.67051,57.1538937 1220.5537,44.5036985 L1220.5537,44.5036985 Z M1181.26743,30.625897 C1147.11974,41.4448939 1114.12152,55.6032251 1082.7513,72.8955735 C1092.71956,76.5011154 1102.60299,80.339957 1112.33795,84.4474469 C1142.72916,66.5687303 1174.73577,51.5903361 1207.9343,39.7104487 C1199.11758,36.4742327 1190.22618,33.4452162 1181.26743,30.625897 L1181.26743,30.625897 Z" id="Shape"></path>
            <path d="M1292.09896,43.1675271 C1265.11674,30.1134099 1237.16454,19.1674703 1208.49281,10.4277927 C1198.38315,13.340505 1188.35833,16.5147958 1178.43248,19.9718742 C1207.95324,28.7154498 1236.7326,39.7907997 1264.49889,53.0933718 C1273.6257,49.5846106 1282.82791,46.2752096 1292.09896,43.1675271 M1336.02294,30.0744612 C1308.39637,18.0320723 1279.94365,7.98159639 1250.88267,0 C1241.61931,1.91689504 1232.40258,4.05253817 1223.24018,6.40513913 C1252.06633,14.830828 1280.19412,25.4839306 1307.36949,38.2682319 C1316.86024,35.3300199 1326.41364,32.5981199 1336.02294,30.0744612 M1406.5431,53.7649924 C1337.9719,76.8896702 1273.14654,109.907302 1214.12028,151.772105 C1228.75112,160.770327 1243.04402,170.306792 1256.96967,180.361931 C1312.5888,136.228182 1373.97703,99.900446 1439.4313,72.3865558 C1428.65172,65.8613249 1417.68433,59.6515033 1406.5431,53.7649924 M1359.02065,31.1844025 C1287.78344,50.0556868 1220.12055,80.4743704 1158.72219,121.231044 C1172.43072,127.971623 1185.90183,135.184668 1199.11133,142.857226 C1259.2651,101.188491 1325.59384,69.2324607 1395.66992,48.1587282 C1383.63488,42.116951 1371.41239,36.4560316 1359.02065,31.1844025 M1279.51491,172.959966 C1279.51491,168.824197 1282.9932,165.459025 1287.27036,165.459025 C1291.54752,165.459025 1295.02581,168.824197 1295.02581,172.959966 C1295.02581,177.173501 1291.54752,180.538673 1287.27036,180.538673 C1282.9932,180.538673 1279.51491,177.173501 1279.51491,172.959966 M1280.97834,172.959966 C1280.97834,176.402905 1283.77794,179.054038 1287.27036,179.054038 C1290.72744,179.054038 1293.53411,176.402905 1293.53411,172.959966 C1293.53411,169.630142 1290.73451,166.950729 1287.27036,166.950729 C1283.78501,166.950729 1280.97834,169.630142 1280.97834,172.959966" id="Shape"></path>
            <path d="M1291.13041,177.19471 L1289.68113,177.19471 L1287.1926,173.31345 L1285.65847,173.31345 L1285.65847,177.19471 L1284.38593,177.19471 L1284.38593,168.774709 L1288.16114,168.774709 C1288.89698,168.725787 1289.63287,168.869552 1290.29619,169.191821 C1290.90784,169.594309 1291.26864,170.283823 1291.2506,171.015801 C1291.2506,172.655969 1290.04875,173.278102 1288.51463,173.32052 L1291.13041,177.19471 L1291.13041,177.19471 Z M1287.10069,172.281275 C1288.30254,172.281275 1289.96391,172.486296 1289.96391,170.980452 C1289.96391,169.88465 1289.00244,169.736187 1287.9137,169.736187 L1285.67968,169.736187 L1285.67968,172.267136 L1287.10069,172.281275 Z" id="Shape"></path>
        </g>
    </g>
</svg>