<?xml version="1.0" encoding="UTF-8"?>
<svg width="207px" height="26px" viewBox="0 0 207 26" version="1.1" xmlns="http://www.w3.org/2000/svg" xmlns:xlink="http://www.w3.org/1999/xlink">
    <!-- Generator: Sketch 56.3 (81716) - https://sketch.com -->
    <title>Bose_logo</title>
    <desc>Created with Sketch.</desc>
    <g id="New-v2" stroke="none" stroke-width="1" fill="none" fill-rule="evenodd">
        <g id="Bose_logo" fill="#0A2630" fill-rule="nonzero">
            <path d="M141.242,10.473 L126.695,10.473 L129.054,6.443 C130.036,4.773 130.921,4.183 132.396,4.183 C133.87,4.183 134.362,5.362 133.576,6.836 L148.418,6.836 L149.893,4.183 C150.974,2.217 150.974,0.054 148.32,0.054 L122.174,0.054 C119.815,0.054 117.947,0.349 116.571,2.61 L111.951,10.473 C110.674,12.734 110.772,14.602 113.917,14.602 L128.956,14.602 L126.499,18.926 C125.811,20.106 124.926,20.892 122.862,20.892 C121.092,20.892 121.191,19.713 121.977,18.534 L107.233,18.534 L105.463,21.483 C104.382,23.351 105.267,25.022 107.822,25.022 L133.771,25.022 C136.13,25.022 138.194,23.941 139.374,21.975 L143.797,14.603 C144.781,12.734 144.289,10.473 141.242,10.473 Z" id="path5"></path>
            <path d="M204.391,4.91 C203.191,4.91 202.218,5.853 202.218,7.005 C202.218,8.181 203.191,9.124 204.391,9.124 C205.585,9.124 206.552,8.181 206.552,7.005 C206.552,5.853 205.585,4.91 204.391,4.91 Z M204.391,8.712 C203.412,8.712 202.63,7.966 202.63,7.004 C202.63,6.073 203.411,5.321 204.391,5.321 C205.358,5.321 206.14,6.073 206.14,7.004 C206.14,7.966 205.358,8.712 204.391,8.712 Z" id="path7"></path>
            <path d="M107.725,0.054 L85.51,0.054 C82.463,0.054 78.531,0.054 76.172,4.183 L66.342,20.892 C64.966,23.153 66.146,25.021 68.701,25.021 L94.553,25.021 C97.207,25.021 98.878,24.234 100.942,20.892 L110.772,4.183 C112.049,2.021 110.083,0.054 107.725,0.054 Z M95.241,6.443 L87.87,18.926 C86.887,20.696 86.002,20.892 83.741,20.892 C81.48,20.892 80.89,20.106 81.579,18.926 L89.049,6.443 C90.131,4.575 91.408,4.183 93.276,4.183 C95.144,4.183 96.224,4.773 95.241,6.443 Z" id="path9"></path>
            <path d="M68.8,0.054 L40.295,0.054 L28.009,20.892 L0.88,20.892 L0.8935314,25.021 L55.629,25.021 C59.266,25.021 60.445,23.251 61.232,21.875 L64.18,16.764 C64.967,15.388 64.967,13.815 63.394,12.931 C64.97,12.931 67.129,11.85 68.407,9.589 L71.356,4.576 C72.831,2.119 71.061,0.054 68.8,0.054 Z M54.155,16.863 L52.68,19.221 C52.287,20.008 51.599,20.892 49.928,20.892 L42.654,20.892 L46.392,14.602 L53.466,14.602 C54.744,14.602 54.744,15.781 54.155,16.863 Z M60.347,6.443 L58.872,8.802 C58.479,9.589 57.791,10.473 56.12,10.473 L48.846,10.473 L52.581,4.183 L59.658,4.183 C60.937,4.183 60.937,5.362 60.347,6.443 Z" id="path11"></path>
            <path d="M205.501,6.456 C205.501,6.259 205.412,6.05 205.233,5.949 C205.047,5.847 204.844,5.836 204.642,5.836 L203.585,5.836 L203.585,8.193 L203.943,8.193 L203.943,7.106 L204.366,7.106 L205.058,8.192 L205.47,8.192 L204.736,7.106 C205.167,7.095 205.501,6.921 205.501,6.456 Z M204.337,6.814 L203.943,6.814 L203.943,6.104 L204.569,6.104 C204.874,6.104 205.142002,6.145 205.142002,6.45 C205.143,6.874 204.677,6.814 204.337,6.814 Z" id="path13"></path>
            <polygon id="polygon1317" points="169.21241 4.1800172 206.07241 4.1800172 206.06086 0.0510173 156.92641 0.0510173 142.28041 25.018017 176.48641 25.018017 178.94341 20.889017 159.38341 20.889017 163.11841 14.599017 182.67841 14.599017 185.03741 10.470017 165.57641 10.470017"></polygon>
        </g>
    </g>
</svg>