<?xml version="1.0" encoding="UTF-8"?>
<svg width="680px" height="174px" viewBox="0 0 680 174" version="1.1" xmlns="http://www.w3.org/2000/svg" xmlns:xlink="http://www.w3.org/1999/xlink">
    <!-- Generator: Sketch 56.3 (81716) - https://sketch.com -->
    <title>Consumer_Reports_logo_2016</title>
    <desc>Created with Sketch.</desc>
    <g id="New-v2" stroke="none" stroke-width="1" fill="none" fill-rule="evenodd">
        <g id="Consumer_Reports_logo_2016" fill="#0A2630" fill-rule="nonzero">
            <g id="Group">
                <path d="M132.8,153.8 L171.7,153.8 L171.7,105.6 L183.2,105.6 L211.3,153.8 L256.3,153.8 L222.1,98.2 C238.3,89.8 249.6,72.9 249.6,53.2 C249.6,25.1 226.7,2.4 198.8,2.4 L132.8,2.4 L132.8,22.1 C118.5,8.7 99.7,0.3 78.7,0.3 C35.9,0.3 0.9,34.9 0.9,78.1 C0.9,121.3 35.9,156 78.8,156 C99.8,156 118.6,147.6 132.9,134.2 L132.9,153.8 L132.8,153.8 Z M106.4,105.6 C99.3,112.7 89.5,117.1 78.7,117.1 C57.3,117.1 39.8,99.6 39.8,78.2 C39.8,56.8 57.3,39.3 78.7,39.3 C89.5,39.3 99.2,43.6 106.4,50.8 L132.8,24.4 L132.8,132 L106.4,105.6 Z M171.7,71.6 L171.7,36.4 L192.9,36.4 C202.6,36.4 210.6,44.4 210.6,54.1 C210.6,63.8 202.6,71.6 192.9,71.6 L171.7,71.6 Z" id="Shape"></path>
                <g transform="translate(276.000000, 2.000000)">
                    <path d="M268,141.8 L265.1,145.8 C269.5,149.7 275.4,152.3 283,152.3 C291.9,152.3 299,147.5 299,139 C299,132.3 295.7,129.4 285.2,125.8 L281.2,124.4 C275.3,122.4 272.1,120.5 272.1,116.1 C272.1,110.7 277.1,108.6 281.8,108.6 C286.2,108.6 291,111 294.4,114 L297.5,109.8 C293.1,106.2 288.2,104.1 281.8,104.1 C273.7,104.1 267.1,108.4 267.1,116.4 C267.1,122.5 270.8,126.4 279.7,129.5 L284.2,131.1 C290.9,133.5 294,134.8 294,139 C294,145.1 288.7,147.8 283,147.8 C277.1,147.8 271.8,145.3 268,141.8" id="Path"></path>
                    <path d="M262,149.2 L260.6,145.1 C257.8,146.8 255.1,147.6 251.8,147.6 C247.2,147.6 245,144.8 245,139.8 L245,109.3 L261.6,109.3 L261.6,104.5 L245,104.5 L245,88.1 L239.8,88.1 L239.8,139.8 C239.8,147.6 243.7,152.3 251.5,152.3 C255.4,152.3 258.8,151.2 262,149.2" id="Path"></path>
                    <path d="M215.7,151.8 L215.7,123.9 C216.8,113.4 225.6,108.3 234.5,109.5 L234.5,104.2 C226.6,103 219.3,107 215.7,113.9 L215.6,104.5 L210.6,104.5 L210.6,151.9 L215.7,151.9 L215.7,151.8 Z" id="Path"></path>
                    <path d="M180.5,104 C167.2,104 156.4,114.9 156.4,128.2 C156.4,141.5 167.2,152.4 180.5,152.4 C193.8,152.4 204.7,141.5 204.7,128.2 C204.7,114.8 193.9,104 180.5,104 Z M180.5,147.2 C170,147.2 161.5,138.6 161.5,128.1 C161.5,117.6 170,109 180.5,109 C191.1,109 199.6,117.6 199.6,128.1 C199.6,138.6 191.1,147.2 180.5,147.2 Z" id="Shape"></path>
                    <path d="M127.8,104 C119.9,104 113,108.3 109,115 L109,104.5 L103.9,104.5 L103.9,171.1 L109,171.1 L109,141.3 C113,148 120.1,152.4 128.1,152.4 C141,152.4 151.7,141.5 151.7,128.2 C151.7,114.8 140.9,104 127.8,104 Z M127.8,147.2 C117.4,147.2 109,138.6 109,128.1 C109,117.6 117.4,109 127.8,109 C138.2,109 146.6,117.6 146.6,128.1 C146.6,138.6 138.2,147.2 127.8,147.2 Z" id="Shape"></path>
                    <path d="M98.1,126.1 C98.1,112.9 88.4,104 76.4,104 C64.1,104 53.7,113.8 53.7,128 C53.7,142 64.6,152.4 77.3,152.4 C84.9,152.4 91.4,149.2 96,143.4 L92.3,140.3 C88.8,145 83.6,147.5 77.3,147.5 C67.5,147.5 59.6,139.9 58.9,129.4 L98.1,129.4 L98.1,126.1 L98.1,126.1 Z M59,124.7 C60.4,115.1 67.6,108.7 76.3,108.7 C85,108.7 92.2,115.1 92.8,124.7 L59,124.7 Z" id="Shape"></path>
                    <path d="M34.3,123.1 C45.9,121.3 52.8,112.9 52.8,103.1 C52.8,91.4 44.8,82.8 30.2,82.8 L7.1,82.8 L7.1,151.9 L12.5,151.9 L12.5,123.5 L27.9,123.5 L47.4,151.9 L54,151.9 L34.3,123.1 Z M12.5,118.3 L12.5,87.9 L30.1,87.9 C41,87.9 47.3,94 47.3,103.1 C47.3,111.2 41.8,118.3 29.9,118.3 L12.5,118.3 L12.5,118.3 Z" id="Shape"></path>
                    <path d="M384.4,69.6 L384.4,41.7 C385.5,31.2 394.3,26.1 403.2,27.3 L403.2,22 C395.3,20.8 388,24.8 384.4,31.7 L384.3,22.3 L379.3,22.3 L379.3,69.7 L384.4,69.7 L384.4,69.6 Z" id="Path"></path>
                    <path d="M373.4,43.9 C373.4,30.7 363.7,21.8 351.7,21.8 C339.4,21.8 329,31.6 329,45.8 C329,59.8 339.9,70.2 352.6,70.2 C360.2,70.2 366.7,67 371.3,61.2 L367.6,58.1 C364.1,62.8 358.9,65.3 352.6,65.3 C342.8,65.3 334.9,57.7 334.2,47.2 L373.4,47.2 L373.4,43.9 Z M334.3,42.5 C335.7,32.9 342.9,26.5 351.6,26.5 C360.3,26.5 367.5,32.9 368.1,42.5 L334.3,42.5 Z" id="Shape"></path>
                    <path d="M257.8,45.6 C258,33.1 264.3,26.5 273.1,26.5 C280.5,26.5 285.4,31.2 285.3,39.7 L285.3,69.6 L290.4,69.6 L290.4,45.6 C290.6,33.1 296.9,26.5 305.7,26.5 C313.1,26.5 318,31.2 317.9,39.7 L317.9,69.6 L323,69.6 L323,39.5 C323.1,28.4 316.9,21.7 306.2,21.7 C298.6,21.7 292.2,26.2 289.4,33 C287.3,26 281.6,21.7 273.5,21.7 C266.5,21.7 260.4,25.7 257.6,31.7 L257.6,22.2 L252.5,22.2 L252.5,69.6 L257.6,69.6 L257.6,45.6 L257.8,45.6 Z" id="Path"></path>
                    <path d="M239.9,69.6 L245,69.6 L245,22.3 L239.9,22.3 L239.9,46.4 C239.7,58.9 232.8,65.5 223.2,65.5 C215.6,65.5 210.6,60.8 210.6,52.3 L210.6,22.3 L205.5,22.3 L205.5,52.4 C205.5,63.5 211.8,70.2 222.7,70.2 C230.5,70.2 237.1,66 240,59.7 L240,69.6 L239.9,69.6 Z" id="Path"></path>
                    <path d="M168.6,59.6 L165.7,63.6 C170.1,67.5 176,70.1 183.6,70.1 C192.5,70.1 199.6,65.3 199.6,56.8 C199.6,50.1 196.3,47.2 185.8,43.6 L181.8,42.2 C175.9,40.2 172.7,38.3 172.7,33.9 C172.7,28.5 177.7,26.4 182.4,26.4 C186.8,26.4 191.6,28.8 195,31.8 L198.1,27.6 C193.7,24 188.8,21.9 182.4,21.9 C174.3,21.9 167.7,26.2 167.7,34.2 C167.7,40.3 171.4,44.2 180.3,47.3 L184.8,48.9 C191.5,51.3 194.6,52.6 194.6,56.8 C194.6,62.9 189.3,65.6 183.6,65.6 C177.7,65.6 172.4,63.1 168.6,59.6" id="Path"></path>
                    <path d="M126,45.6 C126.2,33.1 133.1,26.5 142.7,26.5 C150.3,26.5 155.3,31.2 155.3,39.7 L155.3,69.6 L160.4,69.6 L160.4,39.5 C160.4,28.4 154.1,21.7 143.2,21.7 C135.4,21.7 128.8,25.9 125.9,32.2 L125.9,22.2 L120.8,22.2 L120.8,69.6 L125.9,69.6 L125.9,45.6 L126,45.6 Z" id="Path"></path>
                    <path d="M90.9,21.8 C77.6,21.8 66.8,32.7 66.8,46 C66.8,59.3 77.6,70.2 90.9,70.2 C104.2,70.2 115.1,59.3 115.1,46 C115.1,32.7 104.2,21.8 90.9,21.8 Z M90.9,65 C80.4,65 71.9,56.4 71.9,45.9 C71.9,35.4 80.4,26.8 90.9,26.8 C101.5,26.8 110,35.4 110,45.9 C110,56.4 101.5,65 90.9,65 Z" id="Shape"></path>
                    <path d="M59,53.2 C53.6,60.2 45.1,64.6 35.6,64.6 C19.4,64.6 6.1,51.4 6.1,35.1 C6.1,18.9 19.4,5.7 35.6,5.7 C45.2,5.7 53.6,10 59,17.2 L63.1,13.2 C56.6,5.3 46.6,0.2 35.6,0.2 C16.3,0.2 0.5,16 0.5,35.2 C0.5,54.5 16.3,70.3 35.6,70.3 C46.7,70.3 56.5,65.2 62.9,57.2 L59,53.2 Z" id="Path"></path>
                </g>
            </g>
            <g id="Group" transform="translate(570.000000, 92.000000)">
                <polygon id="Path" points="3.2 1.5 0.3 1.5 0.3 0.8 6.8 0.8 6.8 1.5 3.9 1.5 3.9 10 3.2 10"></polygon>
                <polygon id="Path" points="17.3 0.8 17.3 10 16.6 10 16.6 2.2 16.6 2.2 13.2 8 12.7 8 9.3 2.2 9.3 2.2 9.3 10 8.6 10 8.6 0.8 9.3 0.8 13 7.2 13 7.2 16.7 0.8"></polygon>
            </g>
        </g>
    </g>
</svg>