<?xml version="1.0" encoding="UTF-8"?>
<svg width="390px" height="114px" viewBox="0 0 390 114" version="1.1" xmlns="http://www.w3.org/2000/svg" xmlns:xlink="http://www.w3.org/1999/xlink">
    <!-- Generator: Sketch 56.3 (81716) - https://sketch.com -->
    <title>DBS_Bank_Logo</title>
    <desc>Created with Sketch.</desc>
    <g id="New-v2" stroke="none" stroke-width="1" fill="none" fill-rule="evenodd">
        <g id="DBS_Bank_Logo">
            <rect id="Rectangle" x="19.352967" y="19.1851281" width="75.645487" height="75.645487"></rect>
            <path d="M105.362605,56.9971943 L105.362605,56.9865169 C105.362605,49.5337245 105.668689,42.8852927 111.195999,31.1473226 C112.808279,27.7483652 116.331805,22.7584823 111.131934,16.9784752 C106.917939,12.7644798 102.095335,13.4727443 98.8636558,15.3199263 C100.717956,12.0882475 101.422661,7.26564303 97.2015478,3.04808859 C91.4108634,-2.15534145 86.4352169,1.37174416 83.022023,2.969788 C71.3089668,8.51845245 64.6498576,8.82809569 57.1757105,8.82809569 L57.1685923,8.82809569 C49.7015634,8.82809569 43.0495724,8.52201157 31.329398,2.969788 C27.9304406,1.37530328 22.9369985,-2.15178233 17.1605505,3.04808859 C12.9465552,7.26920215 13.6441422,12.0882475 15.4913243,15.3199263 C12.2525272,13.4620669 7.44060013,12.7644798 3.22304569,16.9784752 C-1.97682524,22.7584823 1.5538195,27.7483652 3.15898157,31.1473226 C8.68629131,42.8852927 8.9852572,49.5230472 8.9852572,56.9971943 L8.9852572,56.9971943 C8.9852572,64.4677823 8.68629131,71.1340097 3.15898157,82.8506251 C1.5538195,86.2531416 -1.97682524,91.2430245 3.22304569,97.0408272 C7.44415925,101.240586 12.2525272,100.528763 15.4913243,98.6958169 C13.637024,101.923937 12.9323187,106.739423 17.1605505,110.964096 C22.9369985,116.167526 27.9268815,112.64044 31.329398,111.017482 C43.0495724,105.493732 49.6944451,105.184088 57.1757105,105.184088 L57.1757105,105.184088 C64.6498576,105.184088 71.3089668,105.493732 83.0149048,111.017482 C86.4352169,112.64044 91.4108634,116.167526 97.2015478,110.964096 C101.415543,106.735864 100.717956,101.923937 98.8565376,98.6958169 C102.095335,100.542999 106.921498,101.251263 111.131934,97.0408272 C116.331805,91.2430245 112.808279,86.2531416 111.195999,82.8541842 C105.668689,71.1268914 105.362605,64.4713414 105.362605,56.9971943 Z M92.5426628,92.4531245 L65.08407,69.4113967 C65.08407,69.4113967 61.3790285,65.791774 57.1721514,65.791774 C52.9795108,65.791774 49.2531146,69.4113967 49.2531146,69.4113967 L21.8087582,92.4531245 L21.7055438,92.3677057 L44.7650672,64.9162311 C44.7650672,64.9162311 48.3811307,61.2005123 48.3811307,56.9971943 C48.3811307,52.8009945 44.7650672,49.095953 44.7650672,49.095953 L21.7055438,21.6231237 L21.8087582,21.5305867 L49.2602328,44.5829918 C49.2602328,44.5829918 52.9795108,48.2097327 57.1721514,48.2097327 C61.3790285,48.2097327 65.08407,44.5829918 65.08407,44.5829918 L92.5284263,21.541264 L92.6174043,21.630242 L69.5934721,49.095953 C69.5934721,49.095953 65.9667311,52.8009945 65.9667311,56.9971943 C65.9667311,61.2005123 69.5934721,64.9162311 69.5934721,64.9162311 L92.6174043,92.3677057 L92.5426628,92.4531245 Z" id="Shape" fill="#0A2630" fill-rule="nonzero"></path>
            <path d="M381.792156,6.85990362 L382.770913,6.84922626 L383.126825,24.8298887 L382.034176,24.8156523 C380.261736,17.519461 373.22536,10.5969772 359.127695,9.86379893 C342.449669,8.99893334 335.22822,18.9324308 335.153478,28.314265 C335.057382,40.8245636 344.78801,43.4013648 359.213114,46.9106548 C366.025265,48.5692036 391.223818,51.8649466 389.209357,80.188405 C387.807065,99.9699811 370.733978,109.383847 346.556891,108.622196 C346.556891,108.622196 336.520179,108.276962 322.475901,104.393964 C319.849272,103.667904 319.194394,104.543447 318.115982,106.461812 L316.991301,106.522317 L317.026892,87.1180071 L318.144455,87.1891895 C318.713914,89.1538225 318.852719,92.8019181 322.3976,95.9232643 C325.024229,98.2010996 331.085407,103.849419 344.453453,103.984666 C357.579479,104.148385 368.441906,98.5997208 369.91538,83.9254786 C370.310443,79.9535033 369.858435,70.902667 361.024704,66.7598541 C354.109339,63.5174979 334.915017,61.3784681 325.58657,53.2280887 C325.58657,53.2280887 314.546187,45.5475127 316.300832,31.1793547 C318.760182,10.8995022 335.680228,5.82775949 350.884778,5.50305449 C350.884778,5.50305449 364.509081,5.37931066 375.339476,8.19101363 C375.339476,8.19101363 378.015932,8.90639628 380.247499,8.06644451 C381.105246,7.76391951 381.543018,7.20157891 381.792156,6.85990362 Z M286.681855,53.5590866 C311.407045,59.6950055 312.901874,77.5404215 312.542404,82.5516592 C311.442636,104.885123 292.472539,107.447687 284.856027,107.447687 L226.539884,107.447687 L226.603948,106.312329 C230.835739,105.749988 234.014031,103.415207 234.014031,95.9837693 L234.369943,19.0534408 C234.458921,10.6930734 232.248709,8.15898157 227.625415,7.61799568 L227.543555,6.5538195 L271.651701,6.5538195 C279.734457,6.5538195 304.100176,4.93798007 306.171583,27.3461849 C307.823014,45.2699015 288.133975,52.7796398 286.681855,53.5590866 Z M293.173685,82.6940239 C293.625693,61.0261155 277.727114,55.2745813 261.251959,54.3705654 C260.917402,54.3492107 261.049089,53.5234954 261.294668,53.4843451 C266.654699,53.2779163 287.931105,50.8114478 287.041325,30.492445 C286.180019,10.7108689 271.164101,10.2730975 265.672383,10.2019151 C261.195013,10.1556466 260.216256,10.1556466 258.340601,10.2339472 C255.162308,10.3585163 254.365066,10.5862998 254.379303,14.0635578 C254.379303,14.5120066 253.671038,49.7152395 253.25818,74.4582256 C253.048193,87.9116904 253.01616,98.3007549 253.01616,98.3007549 C253.073106,100.73875 252.759904,103.247928 258.835318,103.539776 C265.113601,103.849419 273.196358,104.091439 278.848237,102.899135 C284.019635,101.781572 292.864042,98.0160255 293.173685,82.6940239 Z M176.968493,6.55026038 C197.967287,6.44704597 225.621632,20.8614725 225.525785,56.8512705 C225.436558,88.1572695 202.857515,107.43701 181.940581,107.43701 L128.963114,107.447687 L129.027178,106.323006 C132.023955,105.817611 135.330375,103.945516 135.896275,101.959528 C137.647361,94.4070801 137.273654,25.4029067 136.181005,14.0493213 C135.846448,10.500881 133.059658,8.21236833 129.610873,7.65002774 L129.546809,6.54670126 C129.546809,6.55026038 172.256221,6.5751742 176.968493,6.55026038 Z M186.574552,100.90247 C195.959945,97.5319855 207.623174,81.487483 205.697691,56.1928337 C203.839832,31.7203406 194.497148,12.5224598 169.675861,10.7215463 C169.675861,10.7215463 164.977826,10.3834301 161.034323,10.3549572 C156.816769,10.3336025 155.88428,10.198356 155.592432,14.6864034 C155.030092,23.1250714 154.862813,88.9224798 155.418036,98.4324422 C155.499895,99.7244019 155.638701,102.863544 161.069914,103.390293 C170.964262,104.361932 179.157351,103.589604 186.574552,100.90247 Z" id="Shape" fill="#0A2630" fill-rule="nonzero"></path>
        </g>
    </g>
</svg>