<?xml version="1.0" encoding="UTF-8"?>
<svg width="36px" height="25px" viewBox="0 0 36 25" version="1.1" xmlns="http://www.w3.org/2000/svg" xmlns:xlink="http://www.w3.org/1999/xlink">
    <!-- Generator: Sketch 58 (84663) - https://sketch.com -->
    <title>Gamedevelopment</title>
    <desc>Created with Sketch.</desc>
    <g id="New-v2" stroke="none" stroke-width="1" fill="none" fill-rule="evenodd">
        <g id="Service" transform="translate(-561.000000, -1104.000000)">
            <g transform="translate(559.000000, 1072.000000)" id="Service-game">
                <g transform="translate(0.000000, 24.000000)">
                    <path d="M12,15 L28,15 C28.6400782,15 29.1400782,15 29.5,15 C34.1944204,15 38,18.8055796 38,23.5 C38,28.1944204 36.1944204,33 31.5,33 C27.6756345,33 22.4411696,29.4743356 21.3735982,26 L18.6264018,26 C17.5588304,29.4743356 12.3243655,33 8.5,33 C3.80557963,33 2,28.1944204 2,23.5 C2,18.8055796 5.80557963,15 10.5,15 C10.8599218,15 11.3599218,15 12,15 Z M10.5,18 C7.46243388,18 5,20.4624339 5,23.5 C5,26.5375661 5.46243388,30 8.5,30 C10.9322205,30 15.0558356,27.4063514 15.7587274,25.1188396 L16.4097907,23 L23.5902093,23 L24.2412726,25.1188396 C24.9441644,27.4063514 29.0677795,30 31.5,30 C34.5375661,30 35,26.5375661 35,23.5 C35,20.4624339 32.5375661,18 29.5,18 C29.2677796,18 27.0832374,18 22.9463734,18 L17.0536266,18 C12.9167626,18 10.7322204,18 10.5,18 Z" id="Combined-Shape" fill="#3570C6" fill-rule="nonzero"></path>
                    <path d="M7.5,23.5 L13.5,23.5" id="Path-5" stroke="#3570C6" stroke-width="2" stroke-linecap="round"></path>
                    <path d="M7.5,23.5 L13.5,23.5" id="Path-5" stroke="#3570C6" stroke-width="2" stroke-linecap="round" transform="translate(10.500000, 23.500000) rotate(90.000000) translate(-10.500000, -23.500000) "></path>
                    <circle id="Oval" fill="#3570C6" fill-rule="evenodd" cx="29.5" cy="20.5" r="1.5"></circle>
                    <circle id="Oval" fill="#3570C6" fill-rule="evenodd" cx="29.5" cy="26.5" r="1.5"></circle>
                    <circle id="Oval" fill="#3570C6" fill-rule="evenodd" cx="32.5" cy="23.5" r="1.5"></circle>
                    <circle id="Oval" fill="#3570C6" fill-rule="evenodd" cx="26.5" cy="23.5" r="1.5"></circle>
                    <rect id="Rectangle" fill="#3570C6" fill-rule="evenodd" x="19" y="8" width="2" height="8" rx="1"></rect>
                </g>
            </g>
        </g>
    </g>
</svg>