<?xml version="1.0" encoding="UTF-8"?>
<svg width="611px" height="339px" viewBox="0 0 611 339" version="1.1" xmlns="http://www.w3.org/2000/svg" xmlns:xlink="http://www.w3.org/1999/xlink">
    <!-- Generator: Sketch 56.3 (81716) - https://sketch.com -->
    <title>logo-greenchef-standard.22341886</title>
    <desc>Created with Sketch.</desc>
    <g id="New-v2" stroke="none" stroke-width="1" fill="none" fill-rule="evenodd">
        <g id="logo-greenchef-standard.22341886" fill="#0A2630" fill-rule="nonzero">
            <path d="M549.4,15.6 C584,21.4 610.3,41.5 610.4,83.6 L610.4,255 C610.4,297.1 584.1,317.2 549.5,323 C501.9,331.2 388.3,338.5 305.3,338.6 L305.1,338.6 C222.1,338.5 109.3,331 60.9,323 C26.3,317.2 -1.70530257e-13,297.1 -1.70530257e-13,255 L-1.70530257e-13,83.6 C-1.70530257e-13,41.5 26.3,21.4 60.8,15.6 C96.8,8.4 222,0.1 305,2.89901436e-12 L305.2,2.89901436e-12 C388.2,0.1 507.7,8.4 549.4,15.6 Z M86.8,220.4 L86.8,118.2 C86.8,110.026186 80.1738142,103.4 72,103.4 C63.8261858,103.4 57.2,110.026186 57.2,118.2 L57.2,220.4 C57.2,228.573814 63.8261857,235.2 72,235.2 C80.1738143,235.2 86.8,228.573814 86.8,220.4 Z M477.3,155.7 L477.3,95.1 C477.311294,94.7784106 477.188497,94.4665796 476.960959,94.2390414 C476.73342,94.0115032 476.421589,93.8887056 476.1,93.9 L466.8,93.9 C466.478411,93.8887056 466.16658,94.0115032 465.939041,94.2390414 C465.711503,94.4665796 465.588706,94.7784106 465.6,95.1 L465.6,133.9 L442,94.5 C441.808836,94.1252221 441.420646,93.8923084 441,93.9 L432,93.9 C431.678411,93.8887056 431.36658,94.0115032 431.139041,94.2390414 C430.911503,94.4665796 430.788706,94.7784106 430.8,95.1 L430.8,155.7 C430.788706,156.021589 430.911503,156.33342 431.139041,156.560959 C431.36658,156.788497 431.678411,156.911294 432,156.9 L441.3,156.9 C441.621589,156.911294 441.93342,156.788497 442.160959,156.560959 C442.388497,156.33342 442.511294,156.021589 442.5,155.7 L442.5,116.6 L466.4,156.3 C466.591164,156.674778 466.979354,156.907692 467.4,156.9 L476.1,156.9 C476.421589,156.911294 476.73342,156.788497 476.960959,156.560959 C477.188497,156.33342 477.311294,156.021589 477.3,155.7 Z M443,191.3 L443,182.6 C443.011294,182.278411 442.888497,181.96658 442.660959,181.739041 C442.43342,181.511503 442.121589,181.388706 441.8,181.4 L405.3,181.4 C404.978411,181.388706 404.66658,181.511503 404.439041,181.739041 C404.211503,181.96658 404.088706,182.278411 404.1,182.6 L404.1,243.3 C404.088706,243.621589 404.211503,243.93342 404.439041,244.160959 C404.66658,244.388497 404.978411,244.511294 405.3,244.5 L415.1,244.5 C415.421589,244.511294 415.73342,244.388497 415.960959,244.160959 C416.188497,243.93342 416.311294,243.621589 416.3,243.3 L416.3,219 L436.2,219 C436.521589,219.011294 436.83342,218.888497 437.060959,218.660959 C437.288497,218.43342 437.411294,218.121589 437.4,217.8 L437.4,209.3 C437.411294,208.978411 437.288497,208.66658 437.060959,208.439041 C436.83342,208.211503 436.521589,208.088706 436.2,208.1 L416.3,208.1 L416.3,192.5 L441.8,192.5 C442.121589,192.511294 442.43342,192.388497 442.660959,192.160959 C442.888497,191.93342 443.011294,191.621589 443,191.3 Z M387,243.3 L387,234.7 C387.011294,234.378411 386.888497,234.06658 386.660959,233.839041 C386.43342,233.611503 386.121589,233.488706 385.8,233.5 L358.9,233.5 L358.9,218.9 L381.5,218.9 C381.821589,218.911294 382.13342,218.788497 382.360959,218.560959 C382.588497,218.33342 382.711294,218.021589 382.7,217.7 L382.7,209.2 C382.711294,208.878411 382.588497,208.56658 382.360959,208.339041 C382.13342,208.111503 381.821589,207.988706 381.5,208 L358.9,208 L358.9,192.4 L384.9,192.4 C385.221589,192.411294 385.53342,192.288497 385.760959,192.060959 C385.988497,191.83342 386.111294,191.521589 386.1,191.2 L386.1,182.6 C386.111294,182.278411 385.988497,181.96658 385.760959,181.739041 C385.53342,181.511503 385.221589,181.388706 384.9,181.4 L348.4,181.4 C348.078411,181.388706 347.76658,181.511503 347.539041,181.739041 C347.311503,181.96658 347.188706,182.278411 347.2,182.6 L347.2,243.3 C347.188706,243.621589 347.311503,243.93342 347.539041,244.160959 C347.76658,244.388497 348.078411,244.511294 348.4,244.5 L385.8,244.5 C386.121589,244.511294 386.43342,244.388497 386.660959,244.160959 C386.888497,243.93342 387.011294,243.621589 387,243.3 Z M327.8,243.3 L327.8,182.6 C327.811294,182.278411 327.688497,181.96658 327.460959,181.739041 C327.23342,181.511503 326.921589,181.388706 326.6,181.4 L317.1,181.4 C316.778411,181.388706 316.46658,181.511503 316.239041,181.739041 C316.011503,181.96658 315.888706,182.278411 315.9,182.6 L315.9,207.7 L290.9,207.7 L290.9,182.6 C290.911294,182.278411 290.788497,181.96658 290.560959,181.739041 C290.33342,181.511503 290.021589,181.388706 289.7,181.4 L280.4,181.4 C280.078411,181.388706 279.76658,181.511503 279.539041,181.739041 C279.311503,181.96658 279.188706,182.278411 279.2,182.6 L279.2,243.3 C279.188706,243.621589 279.311503,243.93342 279.539041,244.160959 C279.76658,244.388497 280.078411,244.511294 280.4,244.5 L289.7,244.5 C290.021589,244.511294 290.33342,244.388497 290.560959,244.160959 C290.788497,243.93342 290.911294,243.621589 290.9,243.3 L290.9,218.6 L315.9,218.6 L315.9,243.3 C315.888706,243.621589 316.011503,243.93342 316.239041,244.160959 C316.46658,244.388497 316.778411,244.511294 317.1,244.5 L326.6,244.5 C326.921589,244.511294 327.23342,244.388497 327.460959,244.160959 C327.688497,243.93342 327.811294,243.621589 327.8,243.3 Z M264,134.7 L264,134.6 L268.6,134.6 L283.4,156.4 C283.63395,156.717285 284.005802,156.903212 284.4,156.9 L295.8,156.9 C296.252997,156.93485 296.684048,156.699731 296.9,156.3 C297.119158,155.918059 297.079353,155.440399 296.8,155.1 L282,134 C292.9,131.9 296.8,122.7 296.8,114.4 C296.8,104.9 291.6,93.9 277.1,93.9 L253.4,93.9 C253.078411,93.8887056 252.76658,94.0115032 252.539041,94.2390414 C252.311503,94.4665796 252.188706,94.7784106 252.2,95.1 L252.2,155.8 C252.188706,156.121589 252.311503,156.43342 252.539041,156.660959 C252.76658,156.888497 253.078411,157.011294 253.4,157 L262.8,157 C263.121589,157.011294 263.43342,156.888497 263.660959,156.660959 C263.888497,156.43342 264.011294,156.121589 264,155.8 L264,134.7 Z M276.7,104.9 C282.6,104.9 284.7,110 284.7,114.3 C284.7,118.9 282.5,123.7 276.4,123.7 L264,123.7 L264,104.9 L276.7,104.9 Z M265.1,233.7 C265.465974,233.107738 265.426123,232.350572 265,231.8 L257.8,226.1 C257.512484,225.986094 257.208698,225.918587 256.9,225.9 C256.592586,225.928217 256.307022,226.070999 256.1,226.3 C252.425045,231.074469 246.724807,233.850559 240.7,233.8 C229.4,233.8 220.6,224.7 220.6,212.9 C220.6,201.1 229.4,191.9 240.7,191.9 C246.60079,191.976436 252.179976,194.601935 256,199.1 C256.183997,199.341036 256.457151,199.498006 256.758048,199.535618 C257.058944,199.57323 257.362332,199.488328 257.6,199.3 L264.8,193.7 C265.029001,193.492978 265.171783,193.207414 265.2,192.9 C265.20779,192.574228 265.101695,192.255943 264.9,192 C258.987729,184.660694 250.023343,180.45518 240.6,180.6 C222.8,180.6 208.8,194.9 208.8,213 C208.8,231.1 222.8,245.3 240.6,245.3 C250.5,245.3 259.4,241.1 265.1,233.7 Z M174.8,125.5 C174.8,143.6 188.8,157.8 206.6,157.9 C225.8,157.9 236.8,145.9 236.8,125 C236.789295,124.341744 236.258256,123.810705 235.6,123.8 L204.7,123.8 C204.378411,123.788706 204.06658,123.911503 203.839041,124.139041 C203.611503,124.36658 203.488706,124.678411 203.5,125 L203.5,128.3 C203.505505,131.556197 206.143803,134.194495 209.4,134.2 L223.6,134.2 C222.6,141.6 215.8,146.7 206.7,146.7 C195.4,146.7 186.5,137.4 186.5,125.6 C186.5,113.8 195.4,104.5 206.7,104.5 C211.696518,104.501465 216.49858,106.436625 220.1,109.9 C220.557229,110.302934 221.242771,110.302934 221.7,109.9 L228.6,103.8 C228.81441,103.54302 228.952929,103.231353 229,102.9 C229.074312,102.567596 228.958892,102.221336 228.7,102 C222.827108,96.2484711 214.920001,93.049687 206.7,93.0994153 C188.8,93.0994153 174.8,107.4 174.8,125.5 Z M314.8,95.1 L314.8,155.7 C314.788706,156.021589 314.911503,156.33342 315.139041,156.560959 C315.36658,156.788497 315.678411,156.911294 316,156.9 L353.4,156.9 C353.721589,156.911294 354.03342,156.788497 354.260959,156.560959 C354.488497,156.33342 354.611294,156.021589 354.6,155.7 L354.6,147.2 C354.611294,146.878411 354.488497,146.56658 354.260959,146.339041 C354.03342,146.111503 353.721589,145.988706 353.4,146 L326.5,146 L326.5,131.4 L349.1,131.4 C349.421589,131.411294 349.73342,131.288497 349.960959,131.060959 C350.188497,130.83342 350.311294,130.521589 350.3,130.2 L350.3,121.7 C350.311294,121.378411 350.188497,121.06658 349.960959,120.839041 C349.73342,120.611503 349.421589,120.488706 349.1,120.5 L326.5,120.5 L326.5,104.9 L352.5,104.9 C352.821589,104.911294 353.13342,104.788497 353.360959,104.560959 C353.588497,104.33342 353.711294,104.021589 353.7,103.7 L353.7,95.1 C353.711294,94.7784106 353.588497,94.4665796 353.360959,94.2390414 C353.13342,94.0115032 352.821589,93.8887056 352.5,93.9 L316,93.9 C315.678411,93.8887056 315.36658,94.0115032 315.139041,94.2390414 C314.911503,94.4665796 314.788706,94.7784106 314.8,95.1 Z M372.8,95.1 L372.8,155.7 C372.788706,156.021589 372.911503,156.33342 373.139041,156.560959 C373.36658,156.788497 373.678411,156.911294 374,156.9 L411.4,156.9 C411.721589,156.911294 412.03342,156.788497 412.260959,156.560959 C412.488497,156.33342 412.611294,156.021589 412.6,155.7 L412.6,147.2 C412.611294,146.878411 412.488497,146.56658 412.260959,146.339041 C412.03342,146.111503 411.721589,145.988706 411.4,146 L384.5,146 L384.5,131.4 L407.1,131.4 C407.421589,131.411294 407.73342,131.288497 407.960959,131.060959 C408.188497,130.83342 408.311294,130.521589 408.3,130.2 L408.3,121.7 C408.311294,121.378411 408.188497,121.06658 407.960959,120.839041 C407.73342,120.611503 407.421589,120.488706 407.1,120.5 L384.5,120.5 L384.5,104.9 L410.5,104.9 C410.821589,104.911294 411.13342,104.788497 411.360959,104.560959 C411.588497,104.33342 411.711294,104.021589 411.7,103.7 L411.7,95.1 C411.711294,94.7784106 411.588497,94.4665796 411.360959,94.2390414 C411.13342,94.0115032 410.821589,93.8887056 410.5,93.9 L374,93.9 C373.678411,93.8887056 373.36658,94.0115032 373.139041,94.2390414 C372.911503,94.4665796 372.788706,94.7784106 372.8,95.1 Z" id="Combined-Shape"></path>
        </g>
    </g>
</svg>