<?xml version="1.0" encoding="UTF-8"?>
<svg width="37px" height="37px" viewBox="0 0 37 37" version="1.1" xmlns="http://www.w3.org/2000/svg" xmlns:xlink="http://www.w3.org/1999/xlink">
    <!-- Generator: Sketch 59.1 (86144) - https://sketch.com -->
    <title>icon@1x</title>
    <desc>Created with Sketch.</desc>
    <g id="New-v2" stroke="none" stroke-width="1" fill="none" fill-rule="evenodd">
        <g id="Case-Study-paga" transform="translate(-210.000000, -986.000000)" stroke="#F2931E" stroke-width="3">
            <g id="icon" transform="translate(207.000000, 986.000000)">
                <path d="M5.6805025,15.6176471 C5.45428843,15.6176471 5.23733951,15.7075102 5.07738201,15.8674677 C4.74428776,16.200562 4.74428776,16.7406145 5.07738201,17.0737087 L22.9262913,34.922618 C23.0862488,35.0825755 23.3031977,35.1724387 23.5294118,35.1724387 C24.0004782,35.1724387 24.3823529,34.7905639 24.3823529,34.3194975 L24.3823529,16.4705882 C24.3823529,15.9995218 24.0004782,15.6176471 23.5294118,15.6176471 L5.6805025,15.6176471 Z" id="Rectangle"></path>
                <path d="M19.7981496,1.5 C19.5719355,1.5 19.3549866,1.58986319 19.1950291,1.74982069 C18.8619348,2.08291494 18.8619348,2.62296742 19.1950291,2.95606167 L37.0439383,20.8049709 C37.2038958,20.9649284 37.4208448,21.0547916 37.6470588,21.0547916 C38.1181252,21.0547916 38.5,20.6729168 38.5,20.2018504 L38.5,2.35294118 C38.5,1.88187477 38.1181252,1.5 37.6470588,1.5 L19.7981496,1.5 Z" id="Rectangle"></path>
            </g>
        </g>
    </g>
</svg>