<?xml version="1.0" encoding="UTF-8"?>
<svg width="36px" height="36px" viewBox="0 0 36 36" version="1.1" xmlns="http://www.w3.org/2000/svg" xmlns:xlink="http://www.w3.org/1999/xlink">
    <!-- Generator: Sketch 58 (84663) - https://sketch.com -->
    <title>LeanUX</title>
    <desc>Created with Sketch.</desc>
    <g id="New-v2" stroke="none" stroke-width="1" fill="none" fill-rule="evenodd">
        <g id="Service" transform="translate(-209.000000, -826.000000)" fill="#3570C6" fill-rule="nonzero">
            <g transform="translate(207.000000, 800.000000)" id="Service-ux">
                <g transform="translate(0.000000, 24.000000)">
                    <path d="M22,2 L22,9 L19,9 L19,5 L5,5 L5,19 L10,19 L10,22 L2,22 L2,2 L22,2 Z" id="Combined-Shape"></path>
                    <path d="M26,9 C28.209139,9 30,10.790861 30,13 L30.0011345,16.4143859 C29.0471345,16.1444488 28.0404362,16 27,16 L27,16 L27,13 C27,12.4477153 26.5522847,12 26,12 L14,12 C13.4477153,12 13,12.4477153 13,13 L13,25 C13,25.5522847 13.4477153,26 14,26 L16.0448183,26.000274 C16.0151542,26.329547 16,26.6630038 16,27 C16,27.6831389 16.0622732,28.3517331 16.1814526,29.0004156 L14,29 C11.790861,29 10,27.209139 10,25 L10,13 C10,10.790861 11.790861,9 14,9 L26,9 Z" id="Combined-Shape"></path>
                    <path d="M27,16 C33.0751322,16 38,20.9248678 38,27 C38,33.0751322 33.0751322,38 27,38 C20.9248678,38 16,33.0751322 16,27 C16,20.9248678 20.9248678,16 27,16 Z M27,19 C22.581722,19 19,22.581722 19,27 C19,31.418278 22.581722,35 27,35 C31.418278,35 35,31.418278 35,27 C35,22.581722 31.418278,19 27,19 Z" id="Rectangle"></path>
                </g>
            </g>
        </g>
    </g>
</svg>