<?xml version="1.0" encoding="UTF-8"?>
<svg width="734px" height="191px" viewBox="0 0 734 191" version="1.1" xmlns="http://www.w3.org/2000/svg" xmlns:xlink="http://www.w3.org/1999/xlink">
    <!-- Generator: Sketch 56.3 (81716) - https://sketch.com -->
    <title>legalzoom</title>
    <desc>Created with Sketch.</desc>
    <g id="New-v2" stroke="none" stroke-width="1" fill="none" fill-rule="evenodd">
        <g id="legalzoom" transform="translate(0.000000, -1.000000)" fill="#0A2630" fill-rule="nonzero">
            <g id="g10" transform="translate(367.000000, 95.953330) scale(-1, 1) rotate(-180.000000) translate(-367.000000, -95.953330) translate(0.000000, 0.453330)">
                <g id="g12">
                    <path d="M334.466658,156.303996 C336.795992,163.057329 338.479992,168.625329 338.738658,173.390662 C339.050658,179.331996 335.743992,180.742662 326.221325,180.742662 L324.223992,180.742662 L325.985325,187.474662 C341.295991,187.873329 355.235991,188.867995 367.821324,190.449329 L330.798658,75.3333315 C329.133325,70.3754649 328.561325,67.1879983 328.469325,65.4193317 C328.337325,63.0119984 329.829325,61.0635985 332.218658,61.0635985 C336.578658,61.0635985 344.207991,67.8021316 351.245325,80.675998 L356.082658,78.3182647 C346.419991,57.0682652 332.254658,46.5625322 319.957325,46.5625322 C310.005326,46.5625322 304.754659,52.110932 305.290659,62.2306651 C305.601326,68.1983983 308.958659,79.1114647 314.163992,95.172931 L334.466658,156.303996" id="path14"></path>
                    <path d="M57.6573319,92.0030644 C55.5005319,88.7437311 53.974532,84.1619979 50.7729321,78.3182647 C41.1166656,57.0682652 26.9645327,46.5625322 14.667733,46.5625322 C4.75989321,46.5625322 -0.492707988,52.110932 0.0364583991,62.2302651 C0.332291992,68.1983983 3.70103991,79.1114647 8.90989311,95.172931 L29.2150659,156.303996 C31.5499992,163.057329 33.2395992,168.625329 33.4811992,173.390662 C33.8067992,179.330662 30.4973326,180.742662 20.9729328,180.742662 L18.9937329,180.742662 L20.7395995,187.474662 C36.0317324,187.873329 49.9901321,188.866662 62.5702651,190.449329 L25.528666,75.3327981 C23.8786661,70.3754649 23.3135994,67.1879983 23.2177328,65.4187984 C23.0859994,63.0119984 24.5901327,61.0625322 26.954666,61.0625322 C31.3202659,61.0625322 37.9453324,67.801065 44.9953322,80.675998 C48.2005321,87.7291978 51.8223987,93.598931 55.1895986,98.2921309 L57.6573319,92.0030644" id="path16"></path>
                    <path d="M77.8729314,90.4041311 C85.2906645,117.802664 94.7426643,131.71093 105.060397,131.71093 C109.825464,131.71093 113.007331,128.111463 112.731731,122.97653 C112.104664,111.063997 100.163597,99.1551975 77.8729314,90.4041311 M117.429197,76.9223981 C107.615064,64.0103984 95.8073309,57.6453319 87.0718645,57.6453319 C78.3421314,57.6453319 74.2879981,63.4333317 74.8890648,74.9478648 C74.9969315,77.1259981 75.5379981,80.085998 76.3510648,84.0693312 C111.099997,91.797331 129.497863,105.505197 130.280663,120.40733 C130.870263,131.29373 122.313997,138.843997 107.431197,138.843997 C94.7311976,138.843997 81.693198,132.70573 70.5811982,121.173997 C58.1983985,108.483864 51.0286654,93.2015977 50.2098654,77.9207981 C49.1750654,58.0671985 59.8901318,46.3478655 78.1265314,46.3478655 C94.019731,46.3478655 110.105197,54.8906653 122.373997,72.5666649 L117.429197,76.9223981" id="path18"></path>
                    <path d="M235.451994,70.9775982 C235.957327,80.8806646 239.633327,94.184931 247.093327,107.291731 C254.541327,120.57653 261.831993,127.325997 268.79466,127.325997 C274.73866,127.325997 278.269326,122.77453 277.847993,114.830664 C277.383993,106.109331 272.92666,89.4327978 265.063993,75.7302648 C258.50666,64.2270651 252.23866,58.4885319 244.710661,58.4885319 C239.146661,58.4885319 235.023994,63.0119984 235.451994,70.9775982 M267.05066,65.4187984 C266.529327,63.0119984 266.227993,61.0625318 266.099993,59.0535985 C265.65066,50.1265321 269.789327,46.1666655 278.729326,46.1666655 C290.835993,46.1666655 302.962659,55.6838653 312.911992,75.1406648 L314.885325,79.8245313 L308.641326,77.5354647 C306.169326,69.6973316 295.538659,60.0401318 291.189326,60.0401318 C288.585326,60.0401318 287.086659,61.8447985 287.278659,65.0333317 C287.391993,67.6093316 288.955993,74.3478648 292.471993,84.6526646 L310.110659,136.46133 L288.662659,136.46133 L284.421326,124.145864 C282.54266,133.474663 275.301326,139.051997 264.79066,139.051997 C252.679994,139.051997 239.797327,131.71093 228.301328,117.20933 C218.525328,105.114531 212.755995,89.4327978 211.978661,75.1406648 C211.075995,58.0671985 220.401328,46.5625322 233.698661,46.5625322 C246.601327,46.5625322 257.053327,52.519732 267.05066,65.4187984" id="path20"></path>
                    <path d="M188.569329,119.78493 C187.425329,97.9765309 176.542662,79.9062647 167.023996,79.9062647 C160.075996,79.9062647 157.914663,84.0693312 158.395996,93.396931 C159.522663,114.653064 169.767996,131.71093 179.490662,131.71093 C185.825329,131.71093 188.990662,127.53693 188.569329,119.78493 L188.569329,119.78493 Z M216.945328,140.290663 C212.327995,140.290663 207.191995,137.466663 202.283995,131.775997 C202.167995,131.875997 202.038662,131.989597 201.930662,132.084397 C195.843995,137.051997 188.593329,139.051997 179.266662,139.051997 C154.673329,139.051997 136.875997,121.577597 135.787997,100.736931 C135.25333,90.8166644 138.254663,83.6786646 145.318663,78.522398 C132.882263,76.3442648 122.97453,66.8275983 122.408797,56.7093319 C121.74173,45.1478655 132.081197,40.3854657 150.16133,37.4374657 L165.893329,34.8759991 C177.878662,33.0521325 183.262662,29.7359993 182.877329,22.9359994 C182.347995,13.5983997 168.159996,6.97759983 150.503996,6.97759983 C132.63493,6.97759983 123.47133,13.233333 123.892664,20.7426661 C124.337997,28.4453326 131.95573,29.7359993 132.02133,30.8385326 C132.123463,32.8521325 127.95933,36.1573324 122.594797,36.1573324 C115.825997,36.1573324 109.778664,30.6598659 109.357331,23.1254661 C108.624531,10.4838531 122.906264,0 148.311996,0 C179.483996,0 200.277328,11.3958397 201.371995,30.6598659 C202.411995,48.6442655 191.155995,53.228132 166.554663,57.0999986 L153.602663,59.1265319 C145.522663,60.3947985 140.33733,61.2973318 140.55333,65.3469317 C141.046663,73.7947982 154.673329,71.3739982 172.395996,72.9390648 C194.946662,74.9478648 209.710661,91.4207977 210.774661,111.448397 C211.075995,117.40213 209.578661,122.77453 206.262662,127.72293 C206.230662,127.76773 206.190662,127.807863 206.157328,127.852663 C207.465328,129.09173 208.725328,129.615063 210.141328,129.615063 C213.338661,129.615063 214.399995,125.528664 219.175995,125.528664 C223.273328,125.528664 226.250661,128.181197 226.491994,132.64693 C226.719994,137.095997 223.329328,140.290663 216.945328,140.290663 L216.945328,140.290663 Z" id="path22"></path>
                    <polyline id="path24" points="433.937322 120.501064 383.98399 65.204665 419.793323 65.204665 415.589323 49.4187988 355.398658 49.4187988 360.039991 66.9639983 409.47199 122.22973 375.953324 122.22973 380.14799 138.038663 438.579989 138.038663 433.937322 120.501064"></polyline>
                    <path d="M459.265322,63.4551984 C450.126655,63.4551984 449.378655,69.2431983 456.571989,96.2723976 C461.466655,114.695864 464.794655,123.997864 475.326655,123.997864 C485.867988,123.997864 484.263988,114.695864 479.386655,96.2723976 C472.198655,69.2431983 468.383988,63.4551984 459.265322,63.4551984 M455.069322,47.6598655 C487.006654,47.6598655 496.381321,67.132265 503.755987,94.8739976 C510.175987,119.08693 512.166654,139.787997 479.517321,139.787997 C446.874655,139.787997 437.879989,119.08693 431.427989,94.8739976 C424.077323,67.132265 423.131989,47.6598655 455.069322,47.6598655" id="path26"></path>
                    <path d="M538.150653,63.4551984 C529.023987,63.4551984 528.299987,69.2431983 535.44532,96.2723976 C540.358653,114.695864 543.69732,123.997864 554.223986,123.997864 C564.757319,123.997864 563.167986,114.695864 558.290653,96.2723976 C551.09732,69.2431983 547.291986,63.4551984 538.150653,63.4551984 M533.954653,47.6598655 C565.903986,47.6598655 575.286652,67.132265 582.630652,94.8739976 C589.079985,119.08693 591.062652,139.787997 558.415986,139.787997 C525.766654,139.787997 516.758654,119.08693 510.331987,94.8739976 C502.970654,67.132265 502.023987,47.6598655 533.954653,47.6598655" id="path28"></path>
                    <path d="M623.206651,129.08693 L623.579984,129.08693 C630.597318,136.97333 637.993317,139.787997 647.297317,139.787997 C656.063984,139.787997 661.955983,135.583997 664.139983,128.57133 C671.98265,136.291997 679.947983,139.787997 690.131983,139.787997 C701.869316,139.787997 710.370649,132.773463 707.109316,120.501064 L688.254649,49.4187988 L663.487983,49.4187988 L679.693316,110.494797 C681.809316,118.39373 682.03065,124.532264 674.129316,124.532264 C666.24265,124.532264 663.209317,118.39373 661.101317,110.494797 L644.886651,49.4187988 L620.678651,49.4187988 L636.878651,110.494797 C638.994651,118.39373 639.219984,124.532264 631.321319,124.532264 C623.417318,124.532264 620.383984,118.39373 618.283985,110.494797 L602.061318,49.4187988 L577.321319,49.4187988 L600.841318,138.038663 L625.585318,138.038663 L623.206651,129.08693" id="path30"></path>
                    <path d="M722.678649,139.787997 C728.401315,139.787997 733.202648,135.270663 733.202648,129.35413 C733.202648,123.32293 728.401315,118.810397 722.678649,118.810397 C716.934649,118.810397 712.109316,123.32293 712.109316,129.35413 C712.109316,135.270663 716.934649,139.787997 722.678649,139.787997 L722.678649,139.787997 Z M722.678649,120.353064 C727.527982,120.353064 731.289315,124.221864 731.289315,129.35413 C731.289315,134.37733 727.527982,138.24533 722.678649,138.24533 C717.769315,138.24533 714.015982,134.37733 714.015982,129.35413 C714.015982,124.221864 717.769315,120.353064 722.678649,120.353064 L722.678649,120.353064 Z M718.589315,135.44133 L723.322649,135.44133 C726.241315,135.44133 727.618648,134.290663 727.618648,131.93493 C727.618648,129.71773 726.210649,128.794263 724.387982,128.599463 L727.895982,123.184397 L725.850649,123.184397 L722.511982,128.457863 L720.490649,128.457863 L720.490649,123.184397 L718.589315,123.184397 L718.589315,135.44133 Z M720.490649,129.99733 L722.487982,129.99733 C724.165315,129.99733 725.705315,130.085463 725.705315,132.018797 C725.705315,133.642663 724.303982,133.898663 723.015982,133.898663 L720.490649,133.898663 L720.490649,129.99733 L720.490649,129.99733 Z" id="path32"></path>
                </g>
            </g>
        </g>
    </g>
</svg>