<?xml version="1.0" encoding="UTF-8"?>
<svg width="32px" height="31px" viewBox="0 0 32 31" version="1.1" xmlns="http://www.w3.org/2000/svg" xmlns:xlink="http://www.w3.org/1999/xlink">
    <!-- Generator: Sketch 56.3 (81716) - https://sketch.com -->
    <title>Shape</title>
    <desc>Created with Sketch.</desc>
    <g id="New-v2" stroke="none" stroke-width="1" fill="none" fill-rule="evenodd">
        <g id="Home-v2-white-updated-title-bold" transform="translate(-1282.000000, -3120.000000)" fill="#FFFFFF">
            <g id="Footer" transform="translate(0.000000, 3095.000000)">
                <g id="LinkedIN" transform="translate(1268.000000, 10.000000)">
                    <path d="M21.2006775,24.8473104 L21.2006775,45.2744497 L14.4020214,45.2744497 L14.4020214,24.8473104 L21.2006775,24.8473104 Z M21.6484541,18.5283721 C21.6484541,20.4897539 20.1720674,22.0591846 17.8014852,22.0591846 L17.7580381,22.0591846 C15.475572,22.0591846 14,20.4897539 14,18.5283721 C14,16.5255041 15.5205126,15 17.84629,15 C20.1720674,15 21.6043281,16.5255041 21.6484541,18.5283721 Z M45.719232,33.5621523 L45.7189605,45.2744497 L38.920576,45.2744497 L38.920576,34.3459186 C38.920576,31.6009061 37.9367708,29.7277845 35.4756285,29.7277845 C33.5973562,29.7277845 32.4785934,30.9905418 31.9872339,32.2101858 C31.8074716,32.6472837 31.7633456,33.2562922 31.7633456,33.8667921 L31.7633456,45.274992 L24.9638749,45.274992 C24.9638749,45.274992 25.0534846,26.7646298 24.9638749,24.8478527 L31.7633456,24.8478527 L31.7633456,27.7411856 C32.6656875,26.3503088 34.2817837,24.3676416 37.8914228,24.3676416 C42.3652519,24.3676416 45.719232,27.2878186 45.719232,33.5621523 Z" id="Shape"></path>
                </g>
            </g>
        </g>
    </g>
</svg>