<?xml version="1.0" encoding="utf-8"?>
<!-- Generator: Adobe Illustrator 19.0.1, SVG Export Plug-In . SVG Version: 6.00 Build 0)  -->
<svg version="1.1" id="Layer_1" xmlns="http://www.w3.org/2000/svg" xmlns:xlink="http://www.w3.org/1999/xlink" x="0px" y="0px"
	 viewBox="15 287 384 219.9" style="enable-background:new 15 287 384 219.9;" xml:space="preserve">
<style type="text/css">
	.st0{fill:#1C9DD8;}
</style>
<path id="Symbol_1_" class="st0" d="M353.5,441c1.1-0.8,2.7-0.1,2.9,1.2c0.1,0.8,0.2,1.7,0.2,2.5c0,23.3-49.8,55-149.6,55
	S57.4,468,57.4,444.9c0-0.8,0.1-1.7,0.2-2.4c0.2-1.4,1.8-2.1,2.9-1.2c24.8,17.5,73.6,32.4,146.5,32.4
	C280,473.7,328.8,458.7,353.5,441z M207,428.8c-80.9,0-134.4-18-160.6-38.9c-0.9-0.7-2.2-0.5-2.8,0.6c-1.4,2.6-2.1,5.4-2.1,8.2
	c0,25.7,55.2,60,165.5,60s165.5-34.2,165.5-60c0-2.9-0.7-5.6-2.1-8.2c-0.6-1-1.9-1.3-2.8-0.6C341.4,410.7,287.9,428.8,207,428.8z
	 M386.5,344.6c0,29.6-59.8,69.2-179.5,69.2S27.5,374.3,27.5,344.6s59.8-50.5,179.5-50.5S386.5,315,386.5,344.6z M334.1,340
	c0-14.9-42.4-23.4-127.1-23.4S79.9,325.1,79.9,340s42.4,36.5,127.1,36.5S334.1,354.8,334.1,340z"/>
</svg>
