<?xml version="1.0" encoding="UTF-8"?>
<svg width="1440px" height="515px" viewBox="0 0 1440 515" version="1.1" xmlns="http://www.w3.org/2000/svg" xmlns:xlink="http://www.w3.org/1999/xlink">
    <!-- Generator: Sketch 56.3 (81716) - https://sketch.com -->
    <title>logo--script</title>
    <desc>Created with Sketch.</desc>
    <g id="New-v2" stroke="none" stroke-width="1" fill="none" fill-rule="evenodd">
        <g id="logo--script" fill="#0A2630" fill-rule="nonzero">
            <path d="M848.437152,277.051867 C846.457571,280.043968 845.193729,282.095871 843.815462,284.072352 C830.940958,302.5121 816.493948,319.34809 796.800172,330.998529 C770.402583,346.604513 741.790881,353.041765 711.968545,346.57765 C696.666576,343.257772 682.430077,334.693711 668.018454,327.86075 C664.696768,326.293152 662.881205,326.253374 659.928624,327.996097 C647.567354,335.287017 635.544452,343.459501 622.456079,349.127806 C599.225457,359.184818 574.76457,364.819803 549.482045,358.131229 C533.635071,353.938569 519.926529,345.01031 507.541496,334.270622 C498.7584,326.656316 498.194282,326.663031 489.285912,333.990113 C473.267946,347.171214 454.775763,355.670185 435.425521,362.690927 C411.422335,371.4079 386.667767,376.749202 361.349338,379.256739 C330.458174,382.315222 301.813668,377.068972 280.909001,351.675379 C264.152309,331.328373 259.671132,307.725288 269.922124,283.188463 C281.149991,256.322066 294.132721,230.17864 306.324291,203.721385 C312.681213,189.936904 319.079462,176.165596 325.245245,162.298978 C326.372965,159.751663 326.828857,156.779709 326.957489,153.9679 C327.198737,148.798106 328.250777,143.136 322.273033,140.025342 C316.165625,136.857858 308.959684,137.428951 304.482899,143.093639 C298.870644,150.180764 293.905421,157.943591 289.728258,165.967555 C275.890827,192.527354 262.503089,219.331243 249.005575,246.065134 C238.880115,266.111483 228.948893,286.246945 218.731222,306.241378 C209.050547,325.205984 190.854888,332.431555 171.135024,325.056947 C164.492943,322.5631 160.32663,317.663483 159.207433,310.210353 C157.624079,299.636233 161.091444,290.166845 164.842676,280.701073 C173.034791,259.995035 181.333065,239.328 189.521822,218.615247 C193.906913,207.509812 198.294845,196.395078 202.411824,185.187358 C205.295957,177.350917 206.16254,169.039986 202.798235,161.342508 C200.194612,155.407641 195.070536,151.118637 187.88216,151.755595 C180.032029,152.451702 173.856172,156.552667 170.896875,163.841263 C160.484448,189.548685 150.496918,215.425033 140.252384,241.198838 C127.99934,272.048416 115.949833,302.981683 103.185622,333.622558 C98.4608717,344.945736 91.3342278,355.256136 79.3436126,360.102543 C73.2736574,362.563587 66.401435,364.085467 59.8652556,364.177162 C39.4722726,364.44424 21.860104,357.631426 9.83151928,340.323272 C0.257640214,326.55868 -2.07256682,311.239663 2.55015605,295.033916 C6.82521256,280.03157 11.1010439,265.029998 15.5855785,250.086802 C19.8348054,235.9265 24.3518852,221.84188 28.7628054,207.724197 C32.8738439,194.579774 36.7172879,181.335907 41.1749596,168.310558 C49.9477238,142.668743 57.0219336,116.25798 70.9244556,92.7370332 C80.4362045,76.6431283 95.8445919,67.9421704 113.515652,62.5445596 C131.991046,56.9095749 147.729535,64.0034152 163.503153,71.8522547 C169.484771,74.8208502 175.387351,77.9955659 181.526787,80.5818834 C190.09214,84.1781381 197.901718,81.9015175 204.820176,76.2665327 C210.482282,71.6572413 216.196047,67.0515659 221.415175,61.9546117 C234.453955,49.2255283 262.620872,46.8667695 276.385464,61.6803013 C279.555788,65.0916161 283.296947,67.9692915 286.797891,71.0605776 C294.003315,77.4249901 296.982759,78.0743462 305.319519,73.3697435 C325.145284,62.1754547 345.68343,63.7254888 365.872359,70.9014673 C377.584789,75.0688143 384.595717,85.0191498 389.072502,96.8041614 C395.6575,114.155193 392.896832,130.909302 386.298145,147.218109 C374.159785,177.221252 360.938906,206.780384 349.094744,236.895885 C342.07426,254.761442 336.145335,273.131709 331.100298,291.647914 C329.045553,299.193772 329.032122,308.141144 330.948936,315.722648 C333.849083,327.198479 344.360179,330.958493 354.991125,332.305248 C371.180341,334.35741 387.066576,331.34852 402.576732,327.058999 C415.823182,323.410052 428.86532,318.906404 441.802074,314.231247 C448.044054,311.974773 453.861137,308.510766 459.81925,305.485087 C464.916204,302.90781 465.309848,299.134364 462.623828,294.389467 C457.136847,284.70621 451.365998,275.14461 446.532506,265.128151 C436.311735,243.956405 427.901618,222.1087 430.145177,197.964743 C432.105126,176.832517 439.736481,158.47878 459.234985,147.356298 C488.021037,130.94908 511.380549,135.479333 532.538863,159.992653 C550.837065,181.197977 556.871376,206.723817 549.015821,234.072194 C544.620915,249.36409 538.332958,264.145076 532.334551,278.933295 C530.674741,283.027803 531.638185,285.65054 534.228635,288.061991 C546.346848,299.381553 560.164133,308.174723 575.50278,314.396556 C581.286285,316.752732 587.400409,318.507595 593.53003,319.738891 C606.713715,322.381001 618.944545,319.24348 629.927548,311.793708 C635.157525,308.249887 635.27195,304.938274 631.643408,299.992682 C606.380513,265.537291 596.380585,227.186798 603.971903,185.044778 C606.816258,169.267286 614.114411,154.364642 631.049844,149.821474 C641.518321,147.010181 653.349568,147.128997 664.234676,148.515013 C681.92485,150.764771 697.945916,157.825291 708.813977,173.055455 C721.852757,191.330152 725.182192,211.330267 719.570712,233.177973 C715.541553,248.86997 707.310178,262.218963 698.246572,275.184904 C694.657291,280.325252 694.518845,285.063175 699.412004,288.500836 C706.947272,293.79642 714.604972,299.602655 723.120215,302.668886 C741.622988,309.326723 760.821869,308.746074 779.462572,302.754382 C799.859171,296.184883 814.190723,282.65534 822.363982,262.579028 C832.12602,238.57016 832.245094,213.422206 831.750457,188.183333 C831.357589,168.462694 830.668456,148.743864 830.083932,129.016768 C829.876262,121.972778 828.741826,121.563896 822.026648,122.930023 C804.336474,126.503806 786.556929,129.667415 768.803214,132.913679 C763.203874,133.930074 757.5552,134.619465 751.959476,135.628886 C739.762483,137.823369 729.69953,132.81191 729.010138,118.544933 C728.307057,104.166888 726.225708,89.8575498 724.74748,75.5117919 C724.661209,74.7043587 724.595085,73.8922762 724.552466,73.0770942 C723.727211,56.1951283 727.81242,47.0127067 748.080129,47.7483336 C769.010626,48.517539 789.941123,49.2069309 810.84579,50.3052054 C821.129069,50.839878 824.745471,48.2496861 825.422206,38.0454457 C825.943964,30.1235085 826.164807,22.1953722 826.659186,14.2767928 C827.401787,2.3998278 830.109761,-0.421539013 842.175283,0.050367713 C849.388197,0.334234978 856.63624,1.59136143 863.69082,3.17807354 C873.624624,5.41181704 878.831096,12.4064717 879.52023,22.2873256 C880.078149,30.3838709 879.844133,38.5434404 879.71576,46.6660735 C879.609858,52.413417 881.394683,55.4982457 887.837876,56.148635 C906.436477,58.0419444 924.96198,60.6290368 943.521062,62.8325596 C952.284269,63.8755587 957.201966,67.4227372 958.387028,73.9382529 C960.442805,85.2547157 957.997001,93.0046278 949.45567,96.0964305 C937.508448,100.418239 925.156735,103.710996 912.804506,106.756047 C904.160373,108.891121 895.205769,109.804972 886.42009,111.418805 C880.524484,112.497708 877.320581,115.595193 877.373532,122.2272 C877.594117,154.975512 876.852032,187.753787 877.80282,220.470845 C878.297198,237.640036 880.874475,254.832732 888.188642,270.870328 C894.097162,283.859774 904.186978,288.977134 918.219422,286.624057 C938.810002,283.169865 957.684979,275.938095 974.126034,262.909388 C983.248789,255.680717 989.249779,246.834856 989.704639,234.617973 C990.526795,212.261941 991.631268,189.912883 992.943928,167.589654 C993.323882,161.149302 994.053826,154.471318 996.200782,148.463613 C997.397984,145.13082 1001.77016,140.723516 1004.81521,140.634145 C1021.63441,140.125819 1038.56829,139.957926 1055.3082,141.409808 C1065.83918,142.320043 1073.07328,152.172226 1072.51613,163.320538 C1071.76139,178.928847 1069.74281,194.48188 1068.25761,210.05816 C1066.42293,229.276154 1064.73161,248.50758 1062.68875,267.699745 C1060.6198,287.126443 1076.15836,296.759849 1091.53317,296.947889 C1104.43118,297.102866 1112.04549,292.289521 1117.52575,278.640387 C1123.20052,264.512631 1126.57309,249.19723 1129.02044,234.092341 C1132.48212,212.647577 1134.12075,190.908355 1136.67504,169.314038 C1137.71468,160.49478 1143.22026,153.71477 1150.06691,152.243516 C1157.98265,150.544445 1168.36796,153.755322 1170.95892,160.99045 C1173.133,167.037417 1172.63785,174.425198 1171.88104,181.05643 C1169.08421,205.649822 1165.05015,230.120265 1162.7464,254.762475 C1161.32733,269.899652 1169.81364,280.675501 1184.5205,285.149187 C1191.84913,287.372857 1199.45026,289.131336 1207.04003,290.009026 C1220.36913,291.53323 1229.80804,281.803222 1232.59247,266.65313 C1234.94917,253.914748 1235.26222,240.799254 1236.4075,227.843645 C1237.74703,212.458762 1237.94127,196.876025 1240.57046,181.713019 C1244.43741,159.264517 1258.93789,138.901238 1285.80454,132.3679 C1301.93099,128.442059 1318.18943,127.973769 1334.29057,129.834274 C1358.84031,132.658224 1384.51958,149.34621 1392.36893,177.545672 C1398.32963,198.984237 1395.9608,219.693891 1388.94754,240.31779 C1380.82388,264.217657 1365.97444,282.842604 1345.23793,297.026411 C1343.32344,298.33313 1342.20502,300.813804 1340.73376,302.753865 C1343.33661,303.905349 1345.96632,306.092341 1348.55755,306.046364 C1373.34156,305.667186 1396.71528,299.998622 1418.11665,287.016409 C1422.94549,284.093015 1428.20543,281.878902 1433.30574,279.453761 C1437.99175,277.233449 1440.75293,279.863161 1439.44931,283.904717 C1437.27446,290.678271 1434.65818,297.825062 1430.32656,303.29732 C1411.98548,326.482224 1386.96771,337.597474 1358.0321,339.544251 C1345.75839,340.368474 1333.3013,338.729069 1320.93486,338.045876 C1311.60082,337.524118 1302.28408,336.712811 1292.95056,336.079986 C1288.21341,335.769772 1285.47806,337.758909 1284.29274,342.655168 C1276.86234,373.322389 1272.9303,404.506719 1269.07704,435.774996 C1266.64492,455.461797 1262.97221,475.082475 1258.26193,494.34748 C1255.711,504.799426 1247.54884,512.005367 1236.24839,513.826612 C1229.49421,514.914813 1224.49593,511.991677 1222.22938,505.696488 C1220.31928,500.388248 1218.53497,494.816029 1218.08011,489.253625 C1215.8518,461.799864 1216.76255,434.412484 1220.40865,407.090712 C1222.25676,393.190773 1223.49322,379.211537 1225.08071,365.281636 C1226.20223,355.591921 1227.6616,345.934752 1228.57261,336.225148 C1229.28758,328.383024 1227.50275,326.531817 1219.99383,325.037833 C1204.46327,321.939573 1188.9247,318.894005 1173.46104,315.469776 C1162.95562,313.133747 1154.76661,316.854759 1147.64642,324.09402 C1138.1853,333.718127 1127.7318,342.082009 1115.32662,347.489435 C1100.34494,354.025098 1084.46516,352.652255 1069.05471,350.210841 C1046.82343,346.670895 1029.06688,334.98197 1016.44344,316.225033 C1012.52276,310.405625 1009.6859,303.839742 1006.61398,297.494443 C1004.89528,293.941582 1003.34809,292.55944 999.182034,294.683925 C984.40673,302.206536 969.686443,309.929844 954.433808,316.373553 C937.445424,323.553406 919.417657,326.076441 901.364319,321.042253 C883.765582,316.125848 870.268068,304.79647 859.060606,290.635652 C856.052233,286.840768 853.096552,283.020054 848.437152,277.051867 Z M1355.3218,206.62489 C1355.12756,204.190192 1355.12756,201.738705 1354.7241,199.343526 C1352.47125,185.472775 1338.54419,179.264373 1327.32407,187.628255 C1322.25036,191.408674 1317.64055,196.373898 1314.17861,201.686529 C1302.61883,219.406665 1297.39945,239.707437 1292.18006,259.895591 C1290.86637,264.966716 1289.95226,270.328423 1290.05764,275.53412 C1290.25369,285.231067 1295.95506,288.081622 1304.07666,282.842346 C1320.93305,271.96757 1333.41856,256.883602 1343.95884,240.116061 C1350.36381,229.930418 1355.60928,219.185048 1355.3218,206.62489 Z M693.885245,216.407074 C694.033248,206.769535 691.783491,197.851867 684.686034,190.920237 C680.751153,187.079376 675.83139,185.406909 670.189431,187.165647 C663.346655,189.286515 659.647857,194.364355 659.133331,202.790744 C658.1376,219.115049 665.148269,233.141037 672.364025,246.948248 C676.079354,254.058619 679.609485,253.833643 684.409399,247.262335 C691.123544,238.073457 693.743182,227.627968 693.885245,216.407074 Z M527.467996,213.289184 C525.683688,207.386088 524.503017,201.203774 521.954669,195.64447 C518.701431,188.57026 510.315336,185.386762 502.898626,187.326823 C495.04927,189.385959 491.945327,193.127117 492.759735,202.797202 C493.475731,211.213776 495.409593,219.607361 497.649277,227.782687 C499.292039,233.791168 501.823082,239.680057 504.815182,245.153607 C508.840983,252.527182 513.047333,252.600022 517.006235,245.460463 C522.462996,235.631785 526.679935,225.308987 527.467996,213.289184 Z" id="Shape"></path>
        </g>
    </g>
</svg>