<?xml version="1.0" encoding="UTF-8"?>
<svg width="1103px" height="180px" viewBox="0 0 1103 180" version="1.1" xmlns="http://www.w3.org/2000/svg" xmlns:xlink="http://www.w3.org/1999/xlink">
    <!-- Generator: Sketch 56.3 (81716) - https://sketch.com -->
    <title>nerdwallet</title>
    <desc>Created with Sketch.</desc>
    <g id="New-v2" stroke="none" stroke-width="1" fill="none" fill-rule="evenodd">
        <g id="nerdwallet" transform="translate(0.000000, -1.000000)" fill-rule="nonzero">
            <g id="g3707" transform="translate(551.500000, 90.173330) scale(-1, 1) rotate(-180.000000) translate(-551.500000, -90.173330) translate(0.000000, 0.173330)">
                <g id="g3709">
                    <path d="M1100.23064,116.806797 L1082.22531,116.806797 L1079.97331,136.719997 C1079.77731,138.459997 1078.30531,139.774663 1076.55464,139.774663 L1056.50664,139.779997 C1055.11731,139.779997 1053.99197,138.654663 1053.99197,137.26533 L1053.99197,116.806797 L1054.16931,95.4130643 L1054.16931,58.4911985 C1054.16931,53.804132 1054.69197,49.5535988 1055.74664,45.7453322 C1056.79997,41.935999 1058.52264,38.6546657 1060.92131,35.9015991 C1063.31464,33.1426658 1066.50264,31.0333326 1070.47597,29.5718659 C1074.44797,28.107866 1079.35864,27.373466 1085.20664,27.373466 C1088.24664,27.373466 1091.28531,27.637466 1094.32664,28.1625326 C1096.49731,28.537466 1098.40131,28.9587993 1100.03597,29.4239993 C1101.12531,29.7349326 1101.85597,30.7494659 1101.83731,31.8827992 L1101.57331,47.7535988 C1101.54664,49.3311988 1100.09464,50.4587987 1098.54531,50.1598654 C1098.23197,50.0999987 1097.90664,50.0447987 1097.56931,49.9953321 C1095.99197,49.7593321 1094.50264,49.6437321 1093.09864,49.6437321 C1089.00664,49.6437321 1086.17197,50.6687987 1084.59464,52.724532 C1083.01597,54.7786653 1082.22531,57.8578652 1082.22531,61.9655985 L1082.22531,95.4130643 L1100.23064,95.4130643 C1101.61864,95.4130643 1102.74397,96.5385309 1102.74397,97.9265309 L1102.74397,114.293197 C1102.74397,115.681197 1101.61864,116.806797 1100.23064,116.806797" id="path3711" fill="#0A2630"></path>
                    <path d="M319.305325,108.794264 C316.790659,112.125464 313.489325,114.84373 309.397326,116.948397 C305.419992,118.991197 300.617326,120.033864 294.990659,120.093197 L295.007993,120.10413 C294.918659,120.10413 294.833326,120.09893 294.743993,120.098397 C294.658659,120.09893 294.577326,120.10413 294.490659,120.10413 C294.179993,120.10413 293.875993,120.08173 293.567993,120.07293 C287.074659,119.915597 281.52266,118.708397 276.935993,116.421864 C272.745327,114.332264 269.361327,112.070797 266.765327,109.643197 L265.071993,115.20933 C264.63066,116.658397 263.293327,117.648397 261.77866,117.648397 L242.642661,117.649464 C241.253327,117.649464 240.127994,116.523997 240.127994,115.135464 L240.127994,32.8333325 C240.127994,31.4453325 241.253327,30.3197326 242.642661,30.3197326 L266.549327,30.3197326 C267.937327,30.3197326 269.063993,31.4453325 269.063993,32.8349325 L269.063993,77.6677314 C269.063993,80.1229313 269.383993,82.4906646 270.027993,84.7693312 C270.669327,87.0489312 271.63466,89.0666644 272.92266,90.8193311 C274.205326,92.572931 275.81466,93.9463977 277.743993,94.9406643 C279.673326,95.9322643 281.923993,96.4306643 284.495993,96.4306643 C287.066659,96.4306643 289.198659,95.9322643 290.895993,94.9406643 C292.589326,93.9463977 293.903993,92.5999977 294.842659,90.9073311 C295.777326,89.2103978 296.447993,87.2515978 296.857326,85.0333312 C297.267993,82.8098646 297.471993,80.4734647 297.471993,78.0177314 L297.471993,32.8333325 C297.471993,31.4453325 298.597326,30.3197326 299.986659,30.3197326 L323.893325,30.3197326 C325.282659,30.3197326 326.407992,31.4453325 326.407992,32.8333325 L326.407992,84.3311979 C326.407992,88.6541311 325.851992,92.9811977 324.741325,97.3083976 C323.629325,101.631197 321.817325,105.462531 319.305325,108.794264" id="path3713" fill="#0A2630"></path>
                    <path d="M535.103987,53.6431987 C532.52932,54.928132 530.367987,56.6245319 528.615987,58.7291985 C526.86132,60.8327985 525.546654,63.2583984 524.667987,66.006265 C523.794654,68.7510649 523.355987,71.5297315 523.355987,74.3354648 C523.355987,77.1421314 523.794654,79.8869313 524.667987,82.5781313 C525.546654,85.2650645 526.86132,87.6327978 528.615987,89.6797311 C530.367987,91.7239977 532.52932,93.3895977 535.103987,94.6775976 C537.671987,95.9619976 540.655986,96.6062643 544.047986,96.6062643 C547.32132,96.6062643 550.24132,95.9619976 552.815986,94.6775976 C555.385319,93.3895977 557.575986,91.696931 559.391986,89.5921311 C561.202653,87.4874645 562.605319,85.0901312 563.601319,82.4026646 C564.593319,79.711998 565.091986,76.9655981 565.091986,74.1598648 C565.091986,71.3541315 564.593319,68.6067983 563.601319,65.918265 C562.605319,63.2275984 561.202653,60.8327985 559.391986,58.7291985 C557.575986,56.6245319 555.385319,54.928132 552.815986,53.6431987 C550.24132,52.3551987 547.32132,51.7139987 544.047986,51.7139987 C540.655986,51.7139987 537.671987,52.3551987 535.103987,53.6431987 L535.103987,53.6431987 Z M590.109319,151.798663 L566.377319,151.798663 C564.989319,151.798663 563.863986,150.67333 563.863986,149.28533 L563.863986,108.355197 L563.513319,108.355197 C561.057319,111.276531 557.607986,113.96613 553.166653,116.421864 C548.722653,118.87653 543.286653,120.10413 536.858653,120.10413 C530.546653,120.10413 524.846654,118.87653 519.758654,116.421864 C514.674654,113.96613 510.346654,110.635464 506.782654,106.426531 C503.214654,102.218264 500.470654,97.3354642 498.541321,91.7843977 C496.611988,86.2302645 495.646654,80.4130647 495.646654,74.3354648 C495.646654,68.2551983 496.582654,62.4109318 498.453321,56.7994652 C500.322654,51.1885321 503.039987,46.2483988 506.607987,41.981199 C510.173321,37.7135991 514.526654,34.2931991 519.671987,31.7229325 C524.815987,29.1530659 530.659987,27.865066 537.207987,27.865066 C537.998653,27.865066 538.78132,27.890666 539.559987,27.9349326 C546.38932,28.0827993 552.223986,29.3401326 557.037319,31.7401325 C561.182653,33.8078658 564.565319,36.0385324 567.211986,38.423999 L569.069319,32.6999992 C569.529319,31.2811992 570.850652,30.3197326 572.342652,30.3197326 L590.109319,30.3197326 C591.497319,30.3197326 592.622652,31.4453325 592.622652,32.8333325 L592.622652,149.28533 C592.622652,150.67333 591.497319,151.798663 590.109319,151.798663 L590.109319,151.798663 Z" id="path3715" fill="#0A2630"></path>
                    <path d="M747.562648,117.649464 L723.198649,117.649464 C722.067982,117.649464 721.077315,116.894797 720.775982,115.804664 L706.027982,62.4109318 L705.678649,62.4109318 L690.073316,115.840664 C689.759983,116.91253 688.777316,117.649464 687.659983,117.649464 L662.511983,117.649464 C661.38665,117.649464 660.39865,116.90213 660.093317,115.81933 L645.002651,62.4109318 L644.477317,62.4109318 L629.899984,115.797864 C629.602651,116.890664 628.609318,117.649464 627.474651,117.649464 L601.885318,117.649464 C600.158652,117.649464 598.945318,115.94733 599.509318,114.315064 L627.934651,32.0135992 C628.283984,30.9999992 629.238651,30.3197326 630.310651,30.3197326 L655.599984,30.3197326 C656.70265,30.3197326 657.675984,31.0385326 658.00265,32.0906659 L674.289316,84.6817312 L674.641316,84.6817312 L691.269316,32.0759992 C691.599983,31.0306659 692.570649,30.3197326 693.666649,30.3197326 L718.971982,30.3197326 C720.042649,30.3197326 720.994649,30.9973326 721.346649,32.0093325 L749.935981,114.31093 C750.503981,115.944264 749.290648,117.649464 747.562648,117.649464" id="path3717" fill="#0A2630"></path>
                    <path d="M892.345311,151.798663 L868.086645,151.798663 C866.698645,151.798663 865.573312,150.67333 865.573312,149.28533 L865.573312,32.8333325 C865.573312,31.4453325 866.698645,30.3197326 868.086645,30.3197326 L892.345311,30.3197326 C893.733311,30.3197326 894.858644,31.4453325 894.858644,32.8333325 L894.858644,149.28533 C894.858644,150.67333 893.733311,151.798663 892.345311,151.798663" id="path3719" fill="#0A2630"></path>
                    <path d="M940.38131,151.798663 L916.123977,151.798663 C914.735977,151.798663 913.60931,150.67333 913.60931,149.28533 L913.60931,32.8333325 C913.60931,31.4453325 914.735977,30.3197326 916.123977,30.3197326 L940.38131,30.3197326 C941.770643,30.3197326 942.894643,31.4453325 942.894643,32.8333325 L942.894643,149.28533 C942.894643,150.67333 941.770643,151.798663 940.38131,151.798663" id="path3721" fill="#0A2630"></path>
                    <path d="M783.10798,58.7291985 C781.354647,60.8327985 780.038647,63.2583984 779.159981,66.006265 C778.287981,68.7510649 777.847981,71.5297315 777.847981,74.3354648 C777.847981,77.1421314 778.287981,79.8869313 779.159981,82.5781313 C780.038647,85.2650645 781.354647,87.6327978 783.10798,89.6797311 C784.861314,91.7239977 787.022647,93.3895977 789.59598,94.6775976 C792.165314,95.9619976 795.14798,96.6062643 798.541313,96.6062643 C801.813313,96.6062643 804.734647,95.9619976 807.30798,94.6775976 C809.877313,93.3895977 812.06798,91.696931 813.885313,89.5921311 C815.69598,87.4874645 817.097313,85.0901312 818.093313,82.4026646 C819.086646,79.711998 819.585313,76.9655981 819.585313,74.1598648 C819.585313,71.3541315 819.086646,68.6067983 818.093313,65.918265 C817.097313,63.2275984 815.69598,60.8327985 813.885313,58.7291985 C812.06798,56.6245319 809.877313,54.928132 807.30798,53.6431987 C804.734647,52.3551987 801.813313,51.7139987 798.541313,51.7139987 C795.14798,51.7139987 792.165314,52.3551987 789.59598,53.6431987 C787.022647,54.928132 784.861314,56.6245319 783.10798,58.7291985 L783.10798,58.7291985 Z M844.602646,120.63493 L824.561313,120.639064 C823.035979,120.639064 821.693313,119.635997 821.259979,118.173464 L818.918646,110.258397 C816.41998,112.453597 813.262646,114.509864 809.429313,116.421864 C804.505313,118.87653 798.481313,120.10413 791.357314,120.10413 L791.350647,120.10413 C785.038647,120.10413 779.338647,118.87653 774.250647,116.421864 C769.166647,113.96613 764.838648,110.635464 761.275981,106.426531 C757.707981,102.218264 754.963981,97.3354642 753.034648,91.7843977 C751.103981,86.2302645 750.139981,80.4130647 750.139981,74.3354648 C750.139981,68.2551983 751.074648,62.4109318 752.945315,56.7994652 C754.815981,51.1885321 757.531981,46.2483988 761.101314,41.981199 C764.666648,37.7135991 769.018647,34.2931991 774.163981,31.7229325 C779.309314,29.1530659 785.15198,27.865066 791.701314,27.865066 C793.209314,27.865066 794.694647,27.947866 796.15998,28.107866 C801.514647,28.553066 806.189313,29.7573326 810.166646,31.7401325 C814.878646,34.0895991 818.610646,36.6494658 821.385313,39.4109323 L823.561313,32.7015992 C824.022646,31.2827992 825.343979,30.3229326 826.834646,30.3229326 L844.601312,30.3197326 C845.990646,30.3197326 847.115979,31.4453325 847.115979,32.8333325 L847.115979,118.12133 C847.115979,119.50933 845.990646,120.63493 844.602646,120.63493 L844.602646,120.63493 Z" id="path3723" fill="#0A2630"></path>
                    <path d="M492.566654,119.858397 L492.355988,119.899464 L492.682654,120.10413 C491.955988,120.10413 491.249321,120.082797 490.546654,120.05733 C489.966654,120.087997 489.379988,120.10413 488.785321,120.10413 C484.998655,120.10413 481.538655,119.38853 478.390655,117.98853 C477.066655,117.537464 475.803988,117.017197 474.609321,116.421864 C469.971988,114.108397 466.322655,111.584397 463.638655,108.856797 L461.875988,115.044797 C461.454655,116.523464 460.103988,117.543197 458.566655,117.543197 L439.566656,117.545864 C438.178656,117.545864 437.051989,116.420264 437.051989,115.032264 L437.051989,32.8333325 C437.051989,31.4453325 438.178656,30.3197326 439.566656,30.3197326 L463.298655,30.3197326 C464.686655,30.3197326 465.811988,31.4453325 465.811988,32.8333325 L465.811988,75.0911981 C465.811988,76.8395981 466.165322,78.879198 466.865322,81.2098646 C467.566655,83.5417312 468.706655,85.6983979 470.285322,87.6817311 C471.862655,89.6635978 473.967988,91.354131 476.597321,92.754131 C479.227988,94.1510643 482.470655,94.8526643 486.329321,94.8526643 C487.497321,94.8526643 488.698654,94.7926643 489.925321,94.6775976 L491.081321,94.533331 C492.462654,94.3978643 493.693321,95.4083976 493.827988,96.7901309 L494.791988,117.085464 C494.942654,118.465064 493.946654,119.706797 492.566654,119.858397" id="path3725" fill="#0A2630"></path>
                    <path d="M363.526658,83.9806646 C363.642658,86.2005312 364.230658,88.3349311 365.281324,90.3817311 C366.334658,92.424531 367.737324,94.2087976 369.491991,95.7302643 C371.246657,97.2473309 373.289324,98.4478642 375.627991,99.3239975 C377.967991,100.201064 380.538657,100.639597 383.34399,100.639597 C389.07199,100.639597 393.36799,99.0005309 396.23199,95.7302643 C399.097323,92.455731 400.530657,88.5395978 400.530657,83.9806646 L363.526658,83.9806646 Z M414.734656,107.829731 C410.874656,111.919331 406.25599,115.045864 400.881323,117.21093 C395.501323,119.37293 389.597324,120.454664 383.169324,120.454664 C376.506657,120.454664 370.307991,119.342664 364.579991,117.123464 C358.850658,114.901597 353.883991,111.775064 349.673325,107.741731 C345.465325,103.708797 342.133325,98.7983975 339.679992,93.0119977 C337.222658,87.2245312 335.995992,80.7630646 335.995992,73.6343982 C335.995992,66.2687983 337.251992,59.7197318 339.766658,53.9942653 C342.281325,48.2639988 345.730658,43.4426656 350.113325,39.5265323 C354.495992,35.6078658 359.607991,32.6281325 365.457324,30.5827992 C371.302657,28.5385326 377.498657,27.5145326 384.046657,27.5145326 C392.930657,27.5145326 400.733323,29.1229326 407.454656,32.3374659 C411.566656,34.3041325 415.186656,36.7827991 418.313323,39.777599 C419.50399,40.9161323 419.518656,42.8197323 418.35599,43.9863989 L405.933323,56.4707986 C404.797323,57.6125319 402.922657,57.6619986 401.79999,56.5057319 C400.149323,54.804132 398.20799,53.3530653 395.970657,52.1530654 C392.81199,50.4567987 388.95599,49.6103988 384.398657,49.6103988 C381.82399,49.6103988 379.338657,50.0187987 376.943991,50.8374654 C374.547991,51.6535987 372.385324,52.793732 370.455991,54.2567986 C368.526657,55.7177319 366.946657,57.4411986 365.721324,59.4302652 C364.494658,61.4161318 363.761324,63.6385317 363.526658,66.0937317 L426.835989,66.0937317 C426.949323,67.145865 427.007989,68.2551983 427.007989,69.4259983 C427.007989,70.5931982 427.007989,71.7625315 427.007989,72.9322648 C427.007989,80.4130647 425.926656,87.0759978 423.765323,92.922931 C421.598656,98.7687975 418.593323,103.735997 414.734656,107.829731 L414.734656,107.829731 Z" id="path3727" fill="#0A2630"></path>
                    <path d="M981.322642,83.9806646 C981.438642,86.2005312 982.025309,88.3349311 983.077309,90.3817311 C984.130642,92.424531 985.531975,94.2087976 987.286642,95.7302643 C989.041309,97.2473309 991.083975,98.4478642 993.422642,99.3239975 C995.762642,100.201064 998.334642,100.639597 1001.13997,100.639597 C1006.86664,100.639597 1011.16264,99.0005309 1014.02797,95.7302643 C1016.89197,92.455731 1018.32664,88.5395978 1018.32664,83.9806646 L981.322642,83.9806646 Z M1032.52931,107.829731 C1028.67064,111.919331 1024.05064,115.045864 1018.67597,117.21093 C1013.29731,119.37293 1007.39197,120.454664 1000.96397,120.454664 C994.302642,120.454664 988.103975,119.342664 982.375975,117.123464 C976.646642,114.901597 971.678642,111.775064 967.469309,107.741731 C963.259976,103.708797 959.929309,98.7983975 957.475976,93.0119977 C955.017309,87.2245312 953.791976,80.7630646 953.791976,73.6343982 C953.791976,66.2687983 955.047976,59.7197318 957.562643,53.9942653 C960.075976,48.2639988 963.526643,43.4426656 967.909309,39.5265323 C972.290642,35.6078658 977.403976,32.6281325 983.251975,30.5827992 C989.097309,28.5385326 995.293308,27.5145326 1001.84264,27.5145326 C1010.72664,27.5145326 1018.52931,29.1229326 1025.25064,32.3374659 C1029.36131,34.3041325 1032.98131,36.7827991 1036.10931,39.777599 C1037.29997,40.9161323 1037.31331,42.8197323 1036.15197,43.9863989 L1023.72931,56.4707986 C1022.59331,57.6125319 1020.71731,57.6619986 1019.59597,56.5057319 C1017.94531,54.804132 1016.00397,53.3530653 1013.76664,52.1530654 C1010.60797,50.4567987 1006.75064,49.6103988 1002.19331,49.6103988 C999.619975,49.6103988 997.134642,50.0187987 994.738642,50.8374654 C992.342642,51.6535987 990.181309,52.793732 988.250642,54.2567986 C986.322642,55.7177319 984.742642,57.4411986 983.515975,59.4302652 C982.289309,61.4161318 981.557309,63.6385317 981.322642,66.0937317 L1044.63064,66.0937317 C1044.74397,67.145865 1044.80397,68.2551983 1044.80397,69.4259983 C1044.80397,70.5931982 1044.80397,71.7625315 1044.80397,72.9322648 C1044.80397,80.4130647 1043.72264,87.0759978 1041.55997,92.922931 C1039.39464,98.7687975 1036.38931,103.735997 1032.52931,107.829731 L1032.52931,107.829731 Z" id="path3729" fill="#0A2630"></path>
                    <path d="M59.3682652,178.817329 C58.7567985,179.045329 58.1057319,179.171996 57.4401319,179.171996 L3.93177324,179.171996 C1.76041329,179.171996 0,177.411996 0,175.239996 L0,119.44693 L59.3682652,178.817329" id="path3731" fill-opacity="0.9" fill="#0A2630"></path>
                    <path d="M1.15156264,1.15208397 C1.86302662,0.440103989 2.84635993,0 3.93177324,0 L55.7917319,0 C57.9635986,0 59.7239985,1.76145329 59.7239985,3.93177324 L59.7239985,59.7223985 L1.15156264,1.15208397" id="path3733" fill-opacity="0.9" fill="#0A2630"></path>
                    <path d="M119.44733,119.44693 L119.44733,0.501562654 C119.563997,0.447917322 119.682264,0.39999999 119.802664,0.354687991 L179.170662,59.7229318 L119.44733,119.44693" id="path3735" fill="#0A2630"></path>
                    <path d="M59.7239985,59.7223985 L59.7239985,178.662662 C59.6062652,178.717329 59.4895985,178.771996 59.3682652,178.817329 L0,119.44733 L0,3.93177324 C0,2.8453066 0.440103989,1.86250662 1.15156264,1.15208397 L59.7239985,59.7223985" id="path3737" fill-opacity="0.8" fill="#0A2630"></path>
                    <path d="M179.170662,59.7229318 L179.170662,175.239996 C179.170662,177.411996 177.410662,179.171996 175.238662,179.171996 L123.379197,179.171996 C121.20933,179.171996 119.451064,177.414662 119.44733,175.245329 L119.44733,119.44693 L179.170662,59.7229318" id="path3739" fill-opacity="0.8" fill="#0A2630"></path>
                    <path d="M179.170662,59.7229318 L119.802664,0.354687991 C120.413997,0.125520797 121.065064,0 121.731197,0 L175.238662,0 C177.410662,0 179.170662,1.76145329 179.170662,3.93177324 L179.170662,59.7229318" id="path3741" fill-opacity="0.8" fill="#0A2630"></path>
                    <polyline id="path3743" fill="#D2D2D2" points="59.7311985 59.7239985 59.7239985 59.7239985 59.7239985 59.7234652 59.7311985 59.7239985"></polyline>
                    <polyline id="path3745" fill="#D2D2D2" points="119.44733 119.44893 119.44693 119.44893 119.44693 119.447864 119.44733 119.44893"></polyline>
                    <path d="M61.3385318,177.557329 C60.8682651,178.026662 60.3177318,178.393329 59.7239985,178.662662 L59.7239985,59.7223985 L117.832264,1.61458663 C118.303064,1.14427064 118.853064,0.771874647 119.44733,0.501562654 L119.44733,119.44693 L61.3385318,177.557329" id="path3747" fill-opacity="0.9" fill="#0A2630"></path>
                </g>
            </g>
        </g>
    </g>
</svg>