<?xml version="1.0" encoding="UTF-8"?>
<svg width="40px" height="40px" viewBox="0 0 40 40" version="1.1" xmlns="http://www.w3.org/2000/svg" xmlns:xlink="http://www.w3.org/1999/xlink">
    <!-- Generator: Sketch 61 (89581) - https://sketch.com -->
    <title>noun_itinerary_2127446</title>
    <desc>Created with Sketch.</desc>
    <g id="New-v2" stroke="none" stroke-width="1" fill="none" fill-rule="evenodd">
        <g id="Case-Study-worldroamer" transform="translate(-695.000000, -1148.000000)" fill="#C035A5" fill-rule="nonzero">
            <g id="noun_itinerary_2127446" transform="translate(695.000000, 1148.000000)">
                <path d="M36.7333985,22.9282924 C36.2023345,22.3972284 35.4824684,22.1530878 34.8249163,22.2842262 L29.920073,23.2217843 L25.1610166,17.5308663 L36.4255488,10.4273623 C36.9212705,10.1153273 37.243071,9.60007438 37.3081752,9.01320676 C37.3769996,8.39704229 37.1593657,7.78692324 36.712007,7.34049467 L34.9421038,5.57012638 C34.4240607,5.05208324 33.6725726,4.84421495 32.9861887,5.02697162 L18.0204265,8.992106 L13.726516,3.85742171 C12.1858724,2.21214638 9.09388952,0.939824952 6.53436571,0.897972286 C4.81143048,0.863560095 3.37541857,1.37462781 2.39234562,2.35677067 C1.40927267,3.33937857 0.904715429,4.77213524 0.93308219,6.49972086 C0.974934857,9.05877962 2.24725629,12.1507626 3.95252048,13.7448846 L9.02663457,17.987758 L5.06254648,32.9506137 C4.88025476,33.6379277 5.08719305,34.3866256 5.60523619,34.907459 L7.37653457,36.6782923 C7.76948476,37.0707774 8.28706286,37.2856211 8.82370724,37.2856211 C8.8990421,37.2856211 8.97437686,37.2809709 9.04971171,37.2726003 C9.63611429,37.2065661 10.1509022,36.8847654 10.4615421,36.3909038 L17.5653368,25.1276505 L23.2564291,29.8864163 L22.3202661,34.7884112 C22.1919179,35.4534038 22.4328033,36.1676895 22.9638673,36.6987535 L24.6203033,38.3551895 C25.053711,38.7885972 25.6219774,39.0322729 26.1800131,39.0322729 C26.2609283,39.0322729 26.3418435,39.0276226 26.4208986,39.0173919 C26.9724239,38.9448472 27.4467542,38.6332773 27.7220518,38.159877 L29.5245071,35.059233 C30.053246,35.3641762 30.6490072,35.5166478 31.2599982,35.5166478 C32.3091053,35.5166478 33.398205,35.0748695 34.2547899,34.2192148 C35.6090147,32.8633042 35.9152368,30.9280829 35.0867863,29.4933498 L38.1954521,27.6860116 C38.6679224,27.4116441 38.9804224,26.9377788 39.052037,26.3867185 C39.1338822,25.755673 38.8874164,25.08231 38.3907647,24.5847282 L36.7333985,22.9282924 Z M33.2456752,7.91387648 L33.94508,8.61374629 L23.3117094,15.3194173 L20.0439453,11.4118304 L33.2456752,7.91387648 Z M8.64839095,33.9104352 L7.94898619,33.2110305 L11.4463588,20.0111026 L15.3534807,23.2781691 L8.64839095,33.9104352 Z M25.9056454,35.5994233 L25.2071708,34.9018787 L25.7646251,31.9837588 L27.2738211,33.2456751 L25.9056454,35.5994233 Z M32.2337705,32.1991257 C31.7622303,32.671596 31.1465309,32.7553013 30.8842541,32.5404575 L5.84565667,11.6062128 C4.88304505,10.7045201 3.82324219,8.47795752 3.7897601,6.45275295 C3.77906438,5.80031619 3.87858076,4.91071429 4.41243495,4.3768601 C4.92210762,3.86765248 5.75544095,3.75418524 6.397182,3.75418524 C6.427874,3.75418524 6.45810086,3.75418524 6.48739781,3.75465029 C8.51260238,3.78813248 10.73963,4.84747019 11.5878443,5.750558 L32.5751025,30.8505394 C32.7918062,31.109096 32.7053107,31.7275855 32.2337705,32.1991257 Z M33.2797968,27.2393509 L32.017241,25.7295155 L34.9365234,25.1715961 L35.6349981,25.8700708 L33.2797968,27.2393509 Z" id="Shape"></path>
            </g>
        </g>
    </g>
</svg>