<?xml version="1.0" encoding="UTF-8"?>
<svg width="986px" height="269px" viewBox="0 0 986 269" version="1.1" xmlns="http://www.w3.org/2000/svg" xmlns:xlink="http://www.w3.org/1999/xlink">
    <!-- Generator: Sketch 61.2 (89653) - https://sketch.com -->
    <title>Paga Logo</title>
    <desc>Created with Sketch.</desc>
    <g id="New-v2" stroke="none" stroke-width="1" fill="none" fill-rule="evenodd">
        <g id="Paga-Logo" fill="#0A2630" fill-rule="nonzero">
            <path d="M973.22,70.1 C975.421625,70.115592 977.584212,70.6828842 979.51,71.75 C981.527344,72.8310759 983.187772,74.4741355 984.29,76.48 C985.403897,78.4368112 985.992958,80.6483724 986,82.9 C985.995063,85.1303331 985.412844,87.3214062 984.31,89.26 C983.218638,91.2595024 981.577193,92.9044178 979.58,94 C975.632152,96.2395024 970.797848,96.2395024 966.85,94 C964.851814,92.9023441 963.207656,91.2581863 962.11,89.26 C959.837336,85.3031103 959.837336,80.4368897 962.11,76.48 C963.213052,74.4713242 964.87758,72.8276462 966.9,71.75 C968.833718,70.6755979 971.007865,70.1079806 973.22,70.1 L973.22,70.1 Z M973.22,72.2199426 C971.391802,72.2349446 969.596731,72.7095037 968,73.6 C966.313339,74.5029583 964.924102,75.8748303 964,77.55 C962.099621,80.8456732 962.099621,84.9043268 964,88.2 C964.9282,89.8720635 966.316394,91.2429047 968,92.15 C971.283297,94.0432337 975.326703,94.0432337 978.61,92.15 C980.297691,91.2484397 981.687283,89.8762175 982.61,88.2 C983.529901,86.5847796 984.015681,84.7587999 984.02,82.9 C984.012305,81.0232376 983.519712,79.1803168 982.59,77.55 C981.665898,75.8748303 980.276661,74.5029583 978.59,73.6 C976.947195,72.6890263 975.098469,72.2139346 973.22,72.2199426 Z M967.61,90 L967.61,76.2 L972.33,76.2 C973.513209,76.1452359 974.697671,76.2768429 975.84,76.59 C976.550052,76.8257414 977.159664,77.2944026 977.57,77.92 C977.985981,78.5045664 978.212832,79.2025695 978.22,79.92 C978.230264,80.9066046 977.84067,81.855338 977.14,82.55 C976.381296,83.3179967 975.358762,83.7684839 974.28,83.81 C974.714554,83.9733317 975.112273,84.2214811 975.45,84.54 C976.216923,85.3721286 976.887807,86.287886 977.45,87.27 L979.13,89.96 L976.41,89.96 L975.19,87.79 C974.616219,86.5920059 973.830199,85.5078409 972.87,84.59 C972.346552,84.2365126 971.720202,84.0676092 971.09,84.11 L969.79,84.11 L969.79,90 L967.61,90 Z M969.83,82.25 L972.52,82.25 C973.437995,82.3414602 974.361516,82.1420636 975.16,81.68 C975.619992,81.307711 975.87906,80.7414632 975.86,80.15 C975.867237,79.7594997 975.747967,79.377134 975.52,79.06 C975.286521,78.7306238 974.958823,78.4796212 974.58,78.34 C973.854765,78.1387375 973.101452,78.0576636 972.35,78.1 L969.83,78.1 L969.83,82.25 Z" id="Shape"></path>
            <circle id="Oval" cx="156.79" cy="38.82" r="38.4"></circle>
            <circle id="Oval" cx="211.18" cy="207.76" r="38.4"></circle>
            <circle id="Oval" cx="38.4" cy="171.93" r="38.4"></circle>
            <circle id="Oval" cx="43.52" cy="94.49" r="24.96"></circle>
            <circle id="Oval" cx="222.06" cy="84.26" r="24.96"></circle>
            <circle id="Oval" cx="140.15" cy="240.4" r="24.96"></circle>
            <circle id="Oval" cx="81.27" cy="226.32" r="17.28"></circle>
            <circle id="Oval" cx="238.7" cy="140.57" r="17.28"></circle>
            <circle id="Oval" cx="85.11" cy="50.98" r="17.28"></circle>
            <path d="M375.47,269 L375.47,74.88 L396.22,74.88 L396.22,99.41 C401.14,89.9966667 407.64,82.77 415.72,77.73 C423.814771,72.6864704 433.18317,70.0633189 442.72,70.17 C461.1,70.17 475.863333,76.59 487.01,89.43 C498.156667,102.27 503.726667,119.293333 503.720006,140.5 C503.720006,162.086667 498.266667,179.23 487.36,191.93 C476.453333,204.63 461.86,210.986667 443.58,211 C433.08,211 423.933333,208.55 416.14,203.65 C408.346667,198.75 401.986667,191.45 397.06,181.75 L397.06,269 L375.47,269 Z M396.47,140.46 C396.47,155.126667 400.416667,166.873333 408.31,175.7 C416.203333,184.526667 426.66,188.96 439.68,189 C452.386667,189 462.386667,184.956667 469.68,176.87 C476.973333,168.783333 480.616667,157.56 480.610009,143.2 C480.610009,127.126667 476.966667,114.526667 469.68,105.4 C462.393333,96.2733333 452.25,91.7066667 439.25,91.7 C425.97,91.7 415.523333,96.0333333 407.91,104.7 C400.296667,113.366667 396.493333,125.3 396.5,140.5 L396.47,140.46 Z" id="Shape"></path>
            <path d="M644.38,74.88 L644.38,205.41 L623.21,205.41 L623.21,181.73 C618.103333,191.236667 611.58,198.49 603.64,203.49 C595.664149,208.496732 586.416518,211.103703 577,211 C558.706667,211 543.966667,204.556667 532.78,191.67 C521.593333,178.783333 516,161.726667 516,140.5 C516,119.006667 521.433333,101.91 532.3,89.21 C543.166667,76.51 557.696667,70.1766667 575.89,70.2098691 C586.556667,70.2098691 595.816667,72.66 603.67,77.56 C611.523333,82.46 617.856667,89.7566667 622.67,99.45 L622.67,74.88 L644.38,74.88 Z M623.21,141.36 C623.21,126.62 619.286667,114.753333 611.44,105.76 C603.593333,96.7666667 593.356667,92.2733333 580.73,92.2799926 C567.643333,92.2799926 557.43,96.4166667 550.089991,104.69 C542.75,112.963333 539.083333,124.52 539.089991,139.36 C539.089991,155.146667 542.78,167.32 550.16,175.88 C557.54,184.44 568.01,188.72 581.57,188.72 C594.57,188.72 604.76,184.56 612.14,176.24 C619.52,167.92 623.21,156.293333 623.21,141.36 Z" id="Shape"></path>
            <path d="M793.79,74.88 L793.79,203.13 C793.79,217.296667 792.863333,227.38 791.01,233.38 C789.155031,239.354574 786.018754,244.852445 781.82,249.49 C775.846834,256.078304 768.366986,261.122055 760.02,264.19 C751.433333,267.396667 741.57,269 730.43,269 C711.096667,269 696.03,264.483333 685.23,255.45 C674.43,246.416667 668.79,233.623333 668.31,217.07 L692.82,217.07 L692.82,218.78 C692.82,228.58 696.116667,236.143333 702.71,241.47 C709.303333,246.796667 718.636667,249.463333 730.71,249.47 C739.436667,249.47 746.89,248.02 753.07,245.12 C759.023807,242.414779 763.96961,237.896002 767.2,232.21 C769.232612,228.744877 770.643851,224.951113 771.37,221 C772.21,216.72 772.626667,210.586667 772.62,202.6 L772.62,180.6 C767.7,189.933333 761.25,197.09 753.27,202.07 C745.208874,207.081825 735.881339,209.680903 726.39,209.56 C708.09,209.56 693.35,203.186667 682.17,190.44 C670.99,177.693333 665.396667,160.763333 665.39,139.65 C665.39,118.316667 670.82,101.413333 681.68,88.94 C692.54,76.4666667 707.07,70.2133333 725.27,70.18 C735.856667,70.18 745.143333,72.63 753.13,77.53 C761.116667,82.43 767.43,89.6333333 772.07,99.14 L772.07,74.88 L793.79,74.88 Z M772.620036,140.5 C772.620036,125.833333 768.723333,114.04 760.93,105.12 C753.136667,96.2 742.876667,91.73 730.15,91.71 C717.056667,91.71 706.843333,95.8466667 699.51,104.12 C692.176667,112.393333 688.51,123.95 688.51,138.79 C688.51,154.583333 692.2,166.756667 699.58,175.31 C706.96,183.863333 717.433333,188.143333 731,188.15 C744,188.15 754.19,183.943333 761.57,175.53 C768.95,167.116667 772.633333,155.44 772.620036,140.5 Z" id="Shape"></path>
            <path d="M943.76,74.88 L943.76,205.41 L922.59,205.41 L922.59,181.73 C917.49,191.243333 910.96,198.496667 903,203.49 C895.024149,208.496732 885.776518,211.103703 876.36,211 C858.06,211 843.32,204.556667 832.14,191.67 C820.96,178.783333 815.366667,161.726667 815.36,140.5 C815.36,119.006667 820.79,101.91 831.65,89.21 C842.51,76.51 857.04,70.1766667 875.24,70.2098691 C885.906667,70.2098691 895.17,72.66 903.03,77.56 C910.89,82.46 917.223333,89.7566667 922.03,99.45 L922.03,74.88 L943.76,74.88 Z M922.590225,141.36 C922.590225,126.62 918.67,114.753333 910.83,105.76 C902.99,96.7666667 892.753333,92.2733333 880.12,92.2799926 C867.026667,92.2799926 856.813333,96.4166667 849.48,104.69 C842.146667,112.963333 838.48,124.52 838.48,139.36 C838.48,155.146667 842.17,167.32 849.55,175.88 C856.93,184.44 867.413333,188.72 881,188.72 C894,188.72 904.19,184.56 911.57,176.24 C918.95,167.92 922.623333,156.293333 922.590225,141.36 Z" id="Shape"></path>
        </g>
    </g>
</svg>