<?xml version="1.0" encoding="UTF-8"?>
<svg width="481px" height="134px" viewBox="0 0 481 134" version="1.1" xmlns="http://www.w3.org/2000/svg" xmlns:xlink="http://www.w3.org/1999/xlink">
    <!-- Generator: Sketch 56.3 (81716) - https://sketch.com -->
    <title>client-previse</title>
    <desc>Created with Sketch.</desc>
    <g id="New-v2" stroke="none" stroke-width="1" fill="none" fill-rule="evenodd">
        <g id="client-previse" fill="#0A2630" fill-rule="nonzero">
            <path d="M289.52,1.64 C293.5,0.7 297.92,1.03 302,0.99 C330.67,1 359.34,1.02 388.01,0.98 C392.3,0.99 396.35,1.51 399.84,4.21 C404.26,7.49 406.05,12.6 406,17.98 C406.01,46.65 405.99,75.33 406.01,104 C405.96,108.19 406.29,112.61 405.53,116.74 C404.46,122.34 400.02,127.01 394.48,128.36 C390.5,129.3 386.08,128.97 382,129.01 C355.67,128.99 329.33,129 303,129.01 C298.81,128.96 294.39,129.29 290.26,128.53 C284.66,127.46 279.99,123.02 278.64,117.48 C277.58,112.85 278.05,107.73 278,103 C278,77.33 278,51.67 277.99,26 C278.04,21.81 277.71,17.39 278.47,13.26 C279.54,7.66 283.98,2.99 289.52,1.64 Z M305.39,12.36 C300.3,14.38 299.81,21.36 302.54,25.44 C305.03,28.97 310.97,28.97 313.46,25.44 C315.35,22.82 315.54,18.63 314.24,15.74 C312.57,12.4 308.86,11.16 305.39,12.36 Z M302,39 C302,62.33 302,85.67 302,109 C306,109 310,109 314,109 C314,85.67 314,62.33 314,39 C310,39 306,39 302,39 Z M359.99,38.94 C352.34,38.86 344.02,40.79 338.98,46.99 C335.44,51.34 335.14,56.64 335.72,62.02 C336.41,66.61 339.25,70.44 343.1,72.93 C350.26,77.67 360.26,78.72 367.55,82.48 C371.33,84.43 373.74,88.23 372.45,92.54 C371.24,96.71 366.95,98.36 363.02,98.85 C353.6,99.88 343.67,96.44 336.44,90.41 C334.93,93.46 333.06,96.5 332.02,99.74 C339.1,106.18 349.59,109.08 359,109.06 C366.2,109.13 374.04,107.56 379.51,102.56 C385.26,97.34 386.43,88.44 383.6,81.45 C381.76,77.04 378.07,74.19 373.92,72.09 C367.7,69.01 360.31,67.71 353.94,65.02 C352.02,64.18 349.93,63.03 348.63,61.34 C346.59,58.64 346.77,54.63 349.29,52.29 C352,49.5 356.38,49.12 360.05,49.21 C366.92,49.34 372.78,51.89 378.81,54.89 C380.32,51.71 381.85,48.54 383.31,45.33 C376.25,41.1 368.25,38.72 359.99,38.94 Z" id="Combined-Shape"></path>
            <path d="M3.12638804e-13,39 C4,39 8,39 12,39 C12,43.85 12.03,48.7 11.96,53.54 C14.82,49.18 18.21,45.35 22.86,42.83 C30.38,38.51 39.63,37.97 47.91,40.1 C57.26,42.52 65.04,49.52 68.64,58.46 C71.5,65.32 72.02,72.71 71.22,80.04 C70.14,88.71 65.85,97.5 58.67,102.71 C49.85,109.45 37.1,110.54 26.75,107.18 C20.35,105.14 15.53,101.09 11.95,95.47 C12.06,108.31 11.97,121.16 12,134 C8,134 4,134 3.12638804e-13,134 C3.12638804e-13,102.33 3.12638804e-13,70.67 3.12638804e-13,39 Z M28.48,50.6 C23.88,52.15 19.8,55.06 17.12,59.14 C11.22,67.74 11.4,80.19 17.23,88.77 C22.53,96.41 32.34,99.67 41.29,97.57 C48.68,95.98 54.8,90.34 57.3,83.26 C60.29,74.69 59.23,64.68 53.43,57.52 C47.54,50.23 37.28,47.77 28.48,50.6 Z" id="Combined-Shape"></path>
            <path d="M88,39 C92,39 96,39 100,39 C100,43.76 100.02,48.51 99.97,53.27 C102.05,49.89 104.11,46.7 107.37,44.32 C112.53,40.33 118.6,39.07 124.99,38.85 C125,42.86 124.99,46.87 125.03,50.88 C120.88,51.29 117.05,51.43 113.17,53.16 C108.21,55.26 104.29,59.16 102.14,64.1 C100.27,68.24 99.95,72.52 99.97,77 C100.02,87.67 99.99,98.33 100,109 C96,109 92,109 88,109 C88,85.67 88,62.33 88,39 Z" id="Path"></path>
            <path d="M172.02,39.24 C179.37,40.04 186.55,42.78 191.03,48.93 C197.26,57.39 198.08,68.86 198.04,79 C179.68,79.03 161.32,78.95 142.96,79.04 C144.13,83.29 145.34,87.3 148.26,90.72 C153.9,97.63 163.21,100.02 171.79,98.5 C177.84,97.57 182.87,94.51 187.37,90.5 C189.69,92.8 192.01,95.1 194.28,97.44 C184.61,108.12 169.68,110.94 156,108 C147.82,106.07 140.55,101.11 136.15,93.9 C131.1,85.92 130.15,76.23 131.43,67.05 C133.03,56.49 139.66,46.93 149.43,42.4 C156.59,38.88 164.21,38.51 172.02,39.24 Z M180.68,54.28 C174.42,48.44 163.72,47.9 156.11,51.1 C148.6,54.27 144.31,61.08 143.03,68.94 C157.67,69.03 172.32,69.04 186.96,68.94 C186.3,63.36 184.96,58.22 180.68,54.28 Z" id="Combined-Shape"></path>
            <path d="M203.84,39 C208.24,39 212.63,39 217.02,39 C223.78,58.13 230.65,77.22 237.39,96.36 C244.18,77.24 250.88,58.1 257.69,38.99 C261.84,39 265.99,39 270.14,39 C261.32,62.35 252.4,85.66 243.53,108.99 C239.22,109 234.91,109.01 230.59,108.99 C221.76,85.63 212.78,62.33 203.84,39 Z" id="Path"></path>
            <path d="M454.02,39.24 C461.37,40.04 468.55,42.78 473.03,48.93 C479.26,57.39 480.08,68.86 480.04,79 C461.68,79.03 443.32,78.95 424.96,79.04 C426.13,83.29 427.34,87.3 430.26,90.72 C435.9,97.63 445.21,100.02 453.79,98.5 C459.84,97.57 464.87,94.51 469.37,90.5 C471.69,92.8 474.01,95.1 476.28,97.43 C466.61,108.12 451.68,110.94 438,108 C429.82,106.07 422.55,101.11 418.15,93.89 C413.1,85.92 412.15,76.23 413.43,67.05 C415.03,56.49 421.66,46.93 431.43,42.4 C438.59,38.88 446.21,38.51 454.02,39.24 Z M462.16,53.81 C455.43,48.12 444.38,47.88 436.72,51.75 C429.94,55.2 426.26,61.61 425.03,68.94 C439.66,69.03 454.32,69.04 468.96,68.94 C468.29,63.11 466.79,57.75 462.16,53.81 Z" id="Combined-Shape"></path>
        </g>
    </g>
</svg>