<?xml version="1.0" encoding="UTF-8"?>
<svg width="601px" height="186px" viewBox="0 0 601 186" version="1.1" xmlns="http://www.w3.org/2000/svg" xmlns:xlink="http://www.w3.org/1999/xlink">
    <!-- Generator: Sketch 61.2 (89653) - https://sketch.com -->
    <title>shift-technologies-inc-vector-logo</title>
    <desc>Created with Sketch.</desc>
    <g id="New-v2" stroke="none" stroke-width="1" fill="none" fill-rule="evenodd">
        <g id="shift-technologies-inc-vector-logo" fill="#0A2630" fill-rule="nonzero">
            <path d="M100.5,71.9 L69.9,71.9 C68.5,71.9 67.4,70.6 67.7,69.1 L71.8,44.9 C72,43.8 72.9,42.9 74,42.9 L121.1,42.9 C131.4,42.9 140.2,35.1 142,24.5 L145.5,3.5 C145.7,2.1 144.7,0.7 143.3,0.7 L56.1,0.7 C41.7,0.7 29.3,11.6 26.8,26.5 L17.9,79.4 C14.9,97.5 28.1,114.1 45.6,114.1 L76.3,114.1 C77.7,114.1 78.8,115.4 78.5,116.9 L74.4,141.1 C74.2,142.2 73.3,143.1 72.2,143.1 L25,143.1 C14.7,143.1 5.9,150.9 4.1,161.5 L0.6,182.5 C0.4,183.9 1.4,185.3 2.8,185.3 L90,185.3 C104.4,185.3 116.8,174.4 119.3,159.5 L128.2,106.6 C131.2,88.5 118,71.9 100.5,71.9" id="Fill-1"></path>
            <path d="M408.5,116.1 C408.7,115 409.6,114.1 410.7,114.1 L453.5,114.1 C454.6,114.1 455.5,113.3 455.7,112.1 L461.9,74.6 C462.1,73.2 461.1,71.8 459.7,71.8 L418.5,71.8 C417.1,71.8 416.1,70.5 416.3,69 L420.3,44.8 C420.5,43.7 421.4,42.8 422.5,42.8 L499.2,42.8 C500.6,42.8 501.6,44.1 501.4,45.6 L478.7,182.4 C478.5,183.8 479.5,185.2 480.9,185.2 L523.8,185.2 C524.9,185.2 525.8,184.4 526,183.2 L549,44.7 C549.2,43.6 550.1,42.7 551.2,42.7 L576.4,42.7 C586.6,42.7 595.3,34.9 597.1,24.3 L600.6,3.3 C600.8,1.9 599.8,0.5 598.4,0.5 L382.1,0.5 C381,0.5 380.1,1.3 379.9,2.5 L350,182.5 C349.8,183.9 350.8,185.3 352.2,185.3 L395.1,185.3 C396.1,185.3 397.1,184.5 397.3,183.4 L408.5,116.1 Z" id="Fill-3"></path>
            <path d="M308.1,2.6 L277.5,182.5 C277.3,183.9 278.3,185.3 279.7,185.3 L323.6,185.3 C324.7,185.3 325.7,184.5 325.8,183.3 L356.4,3.4 C356.6,2 355.6,0.6 354.2,0.6 L310.3,0.6 C309.2,0.7 308.3,1.5 308.1,2.6" id="Fill-6"></path>
            <path d="M242.7,2.6 L231.4,69.9 C231.2,71 230.3,71.9 229.2,71.9 L201.9,71.9 C200.5,71.9 199.4,70.6 199.7,69.1 L210.7,3.5 C210.9,2.1 209.9,0.7 208.5,0.7 L165,0.7 C163.9,0.7 163,1.5 162.8,2.7 L132.5,182.6 C132.3,184 133.3,185.4 134.7,185.4 L178.2,185.4 C179.3,185.4 180.2,184.6 180.4,183.4 L191.7,116.1 C191.9,115 192.8,114.1 193.9,114.1 L221.2,114.1 C222.6,114.1 223.7,115.4 223.4,116.9 L212.3,182.5 C212.1,183.9 213.1,185.3 214.5,185.3 L258,185.3 C259.1,185.3 260,184.5 260.2,183.3 L290.5,3.4 C290.7,2 289.7,0.6 288.3,0.6 L244.8,0.6 C243.8,0.7 242.9,1.5 242.7,2.6" id="Fill-9"></path>
        </g>
    </g>
</svg>