<?xml version="1.0" encoding="UTF-8"?>
<svg width="515px" height="660px" viewBox="0 0 515 660" version="1.1" xmlns="http://www.w3.org/2000/svg" xmlns:xlink="http://www.w3.org/1999/xlink">
    <!-- Generator: Sketch 61.2 (89653) - https://sketch.com -->
    <title>storybook-1</title>
    <desc>Created with Sketch.</desc>
    <g id="New-v2" stroke="none" stroke-width="1" fill="none" fill-rule="evenodd">
        <g id="storybook-1" fill-rule="nonzero">
            <g id="Group" transform="translate(0.254902, 0.607843)">
                <g id="b-link" transform="translate(0.000000, 34.313725)" fill="#B57EE5">
                    <polygon id="b" points="51.4705882 602.941176 22.0588235 0 0 0 22.0588235 602.941176"></polygon>
                </g>
                <g id="c-link" transform="translate(34.313725, 0.000000)" fill="#F1618C">
                    <polygon id="c" points="29.4117647 637.254902 0 34.3137255 480.392157 0 480.392157 659.313725"></polygon>
                </g>
                <g id="d-link" transform="translate(392.156863, 1.225490)" fill="#FFFFFF">
                    <polygon id="d" points="0 87.0098039 6.12745098 4.90196078 63.7254902 0 63.7254902 87.0098039 34.7598039 60.8088235"></polygon>
                </g>
                <g id="k-link" transform="translate(148.058824, 117.647059)" fill="#FFFFFF">
                    <path d="M167.235294,140.392157 L261.941176,138.039216 C264.294118,46.2745098 216.647059,0.980392157 133.705882,0.980392157 C50.7647059,0.980392157 4.29411765,48.0392157 4.29411765,118.627451 C4.29411765,241.568627 163.117647,243.921569 163.117647,310.980392 C163.117647,329.803922 154.294118,340.980392 134.882353,340.980392 C109.588235,340.980392 99.5882353,324.509804 100.764706,278.627451 L1.35294118,278.627451 C-6.29411765,392.156863 60.1764706,418.039216 136.058824,418.039216 C209.588235,418.039216 267.235294,383.921569 267.235294,309.803922 C267.235294,178.039216 106.058824,181.568627 106.058824,116.27451 C106.058824,89.8039216 124.882353,86.2745098 136.058824,86.2745098 C147.823529,86.2745098 169,90.9803922 167.235294,140.392157 Z" id="k"></path>
                </g>
            </g>
        </g>
    </g>
</svg>