<?xml version="1.0" encoding="UTF-8"?>
<svg width="72px" height="38px" viewBox="0 0 72 38" version="1.1" xmlns="http://www.w3.org/2000/svg" xmlns:xlink="http://www.w3.org/1999/xlink">
    <!-- Generator: Sketch 61 (89581) - https://sketch.com -->
    <title>Cisco_logo</title>
    <desc>Created with Sketch.</desc>
    <g id="New-v2" stroke="none" stroke-width="1" fill="none" fill-rule="evenodd">
        <g id="Cisco_logo" fill-rule="nonzero">
            <polygon id="path268" fill="#0A2630" points="23.521 25.2449 20.364 25.2449 20.364 37.7559 23.521 37.7559"></polygon>
            <g id="use360" transform="translate(38.953200, 25.000000)" fill="#0A2630">
                <path d="M10.0236,3.8299 C9.8966,3.7639 8.8816,3.1619 7.3716,3.1619 C5.3266,3.1619 3.9116,4.5829 3.9116,6.4989 C3.9116,8.3579 5.2676,9.8389 7.3716,9.8389 C8.8556,9.8389 9.8876,9.2499 10.0236,9.1749 L10.0236,12.5329 C9.6316,12.6439 8.5546,12.9779 7.1446,12.9779 C3.5956,12.9779 0.4826,10.5299 0.4826,6.4989 C0.4826,2.7629 3.3026,0.0229 7.1446,0.0229 C8.6306,0.0229 9.7266,0.3839 10.0236,0.4719 L10.0236,3.8299 Z" id="path284"></path>
            </g>
            <path d="M16.0236,28.8299 C15.8966,28.7639 14.8816,28.1619 13.3716,28.1619 C11.3266,28.1619 9.9116,29.5829 9.9116,31.4989 C9.9116,33.3579 11.2676,34.8389 13.3716,34.8389 C14.8556,34.8389 15.8876,34.2499 16.0236,34.1749 L16.0236,37.5329 C15.6316,37.6439 14.5546,37.9779 13.1446,37.9779 C9.5956,37.9779 6.4826,35.5299 6.4826,31.4989 C6.4826,27.7629 9.3026,25.0229 13.1446,25.0229 C14.6306,25.0229 15.7266,25.3839 16.0236,25.4719 L16.0236,28.8299 Z" id="path284" fill="#0A2630"></path>
            <path d="M58.9084,28.2088 C57.0354,28.2088 55.6444,29.6828 55.6444,31.4988 C55.6444,33.3188 57.0354,34.7918 58.9084,34.7918 C60.7794,34.7918 62.1744,33.3188 62.1744,31.4988 C62.1744,29.6828 60.7794,28.2088 58.9084,28.2088 M65.5194,31.4988 C65.5194,35.0778 62.7564,37.9778 58.9084,37.9778 C55.0604,37.9778 52.3014,35.0778 52.3014,31.4988 C52.3014,27.9258 55.0604,25.0228 58.9084,25.0228 C62.7564,25.0228 65.5194,27.9258 65.5194,31.4988" id="path288" fill="#0A2630"></path>
            <path d="M35.4934,28.0887 C35.4464,28.0737 34.1174,27.7067 33.0254,27.7067 C31.7604,27.7067 31.0724,28.1307 31.0724,28.7317 C31.0724,29.4937 32.0004,29.7597 32.5194,29.9237 L33.3904,30.2007 C35.4394,30.8527 36.3734,32.2557 36.3734,33.7797 C36.3734,36.9227 33.6094,37.9787 31.1934,37.9787 C29.5144,37.9787 27.9414,37.6697 27.7864,37.6367 L27.7864,34.7577 C28.0644,34.8277 29.3884,35.2227 30.7674,35.2227 C32.3384,35.2227 33.0604,34.7637 33.0604,34.0547 C33.0604,33.4207 32.4354,33.0547 31.6524,32.8087 C31.4614,32.7447 31.1744,32.6547 30.9784,32.5907 C29.2204,32.0347 27.7544,31.0017 27.7544,28.9307 C27.7544,26.5907 29.5064,25.0197 32.4164,25.0197 C33.9534,25.0197 35.3994,25.3927 35.4934,25.4177 L35.4934,28.0887 Z" id="path292" fill="#0A2630"></path>
            <g id="g383">
                <path d="M3.135,11.7996 C3.135,10.9376 2.431,10.2386 1.568,10.2386 C0.705,10.2386 -2.22044605e-16,10.9376 -2.22044605e-16,11.7996 L-2.22044605e-16,15.0836 C-2.22044605e-16,15.9506 0.705,16.6506 1.568,16.6506 C2.431,16.6506 3.135,15.9506 3.135,15.0836 L3.135,11.7996 Z" id="path296" fill="#0A2630"></path>
                <path d="M11.7443,7.4891 C11.7443,6.6271 11.0403,5.9261 10.1773,5.9261 C9.3133,5.9261 8.6093,6.6271 8.6093,7.4891 L8.6093,15.0841 C8.6093,15.9511 9.3133,16.6501 10.1773,16.6501 C11.0403,16.6501 11.7443,15.9511 11.7443,15.0841 L11.7443,7.4891 Z" id="path300" fill="#0A2630"></path>
                <path d="M20.3537,1.5916 C20.3537,0.7296 19.6497,0.0296 18.7867,0.0296 C17.9227,0.0296 17.2187,0.7296 17.2187,1.5916 L17.2187,18.2046 C17.2187,19.0716 17.9227,19.7716 18.7867,19.7716 C19.6497,19.7716 20.3537,19.0716 20.3537,18.2046 L20.3537,1.5916 Z" id="path304" fill="#0A2630"></path>
                <path d="M28.9631,7.4891 C28.9631,6.6271 28.2591,5.9261 27.3961,5.9261 C26.5321,5.9261 25.8281,6.6271 25.8281,7.4891 L25.8281,15.0841 C25.8281,15.9511 26.5321,16.6501 27.3961,16.6501 C28.2591,16.6501 28.9631,15.9511 28.9631,15.0841 L28.9631,7.4891 Z" id="path308" fill="#0A2630"></path>
                <path d="M37.5627,11.7996 C37.5627,10.9376 36.8637,10.2386 36.0047,10.2386 C35.1417,10.2386 34.4377,10.9376 34.4377,11.7996 L34.4377,15.0836 C34.4377,15.9506 35.1417,16.6506 36.0047,16.6506 C36.8637,16.6506 37.5627,15.9506 37.5627,15.0836 L37.5627,11.7996 Z" id="path312" fill="#15495D"></path>
            </g>
            <g id="use385" transform="translate(34.431700, 0.000000)" fill="#0A2630">
                <g id="g383">
                    <path d="M3.135,11.7996 C3.135,10.9376 2.431,10.2386 1.568,10.2386 C0.705,10.2386 -2.22044605e-16,10.9376 -2.22044605e-16,11.7996 L-2.22044605e-16,15.0836 C-2.22044605e-16,15.9506 0.705,16.6506 1.568,16.6506 C2.431,16.6506 3.135,15.9506 3.135,15.0836 L3.135,11.7996 Z" id="path296"></path>
                    <path d="M11.7443,7.4891 C11.7443,6.6271 11.0403,5.9261 10.1773,5.9261 C9.3133,5.9261 8.6093,6.6271 8.6093,7.4891 L8.6093,15.0841 C8.6093,15.9511 9.3133,16.6501 10.1773,16.6501 C11.0403,16.6501 11.7443,15.9511 11.7443,15.0841 L11.7443,7.4891 Z" id="path300"></path>
                    <path d="M20.3537,1.5916 C20.3537,0.7296 19.6497,0.0296 18.7867,0.0296 C17.9227,0.0296 17.2187,0.7296 17.2187,1.5916 L17.2187,18.2046 C17.2187,19.0716 17.9227,19.7716 18.7867,19.7716 C19.6497,19.7716 20.3537,19.0716 20.3537,18.2046 L20.3537,1.5916 Z" id="path304"></path>
                    <path d="M28.9631,7.4891 C28.9631,6.6271 28.2591,5.9261 27.3961,5.9261 C26.5321,5.9261 25.8281,6.6271 25.8281,7.4891 L25.8281,15.0841 C25.8281,15.9511 26.5321,16.6501 27.3961,16.6501 C28.2591,16.6501 28.9631,15.9511 28.9631,15.0841 L28.9631,7.4891 Z" id="path308"></path>
                    <path d="M37.5627,11.7996 C37.5627,10.9376 36.8637,10.2386 36.0047,10.2386 C35.1417,10.2386 34.4377,10.9376 34.4377,11.7996 L34.4377,15.0836 C34.4377,15.9506 35.1417,16.6506 36.0047,16.6506 C36.8637,16.6506 37.5627,15.9506 37.5627,15.0836 L37.5627,11.7996 Z" id="path312"></path>
                </g>
            </g>
            <polygon id="path332" fill="#0A2630" points="70.1936 36.1082 70.1936 36.3042 69.6356 36.3042 69.6356 37.7552 69.4066 37.7552 69.4066 36.3042 68.8456 36.3042 68.8456 36.1082"></polygon>
            <polygon id="path336" fill="#0A2630" points="70.3107 36.1082 70.6697 36.1082 71.1627 37.4592 71.1707 37.4592 71.6477 36.1082 71.9997 36.1082 71.9997 37.7552 71.7647 37.7552 71.7647 36.4052 71.7567 36.4052 71.2567 37.7552 71.0397 37.7552 70.5517 36.4052 70.5407 36.4052 70.5407 37.7552 70.3107 37.7552"></polygon>
        </g>
    </g>
</svg>