<?xml version="1.0" encoding="UTF-8"?>
<svg width="701px" height="561px" viewBox="0 0 701 561" version="1.1" xmlns="http://www.w3.org/2000/svg" xmlns:xlink="http://www.w3.org/1999/xlink">
    <!-- Generator: Sketch 58 (84663) - https://sketch.com -->
    <title>CNBC_logo</title>
    <desc>Created with Sketch.</desc>
    <g id="New-v2" stroke="none" stroke-width="1" fill="none" fill-rule="evenodd">
        <g id="CNBC_logo" fill-rule="nonzero">
            <path d="M350.57,53.699 C339.645,26.421 313.03,-3.039 263.182,1.008 C199.683,7.911 179.895,68.764 189.493,105.067 C164.202,87.942 121.199,80.412 83.664,112.564 C35.2,161.145 61.123,226.845 87.765,242.604 C58.403,239.886 11.997,259.726 1.731,311.626 C-9.19,376.064 39.932,413.629 87.765,413.629 L618.178,413.629 C673.49,413.629 704.178,365.778 700.736,320.65 C695.31,261.754 641.415,239.157 612.016,243.999 C636.578,230.295 669.381,165.923 619.501,115.317 C579.906,77.655 529.431,91.359 511.683,107.785 C521.25,76.323 505.561,11.287 441.342,1.001 C436.902,0.504 432.628,0.238 428.555,0.238 C379.532,0.245 357.488,36.081 350.57,53.699" id="path3113" fill="#FFFFFF"></path>
            <path d="M92.497,122.818 C64.494,148.168 54.302,205.608 104.783,239.186 L306.174,377.355 L208.526,153.642 C188.064,100.851 132.086,89.339 92.497,122.818" id="path3115" fill="#0A2630"></path>
            <path d="M265.857,14.049 C233.121,14.716 183.964,53.699 205.84,113.227 L306.835,351.413 L342.324,100.887 C350.536,38.637 303.427,9.901 265.857,14.049" id="path3117" fill="#0A2630"></path>
            <path d="M358.084,91.332 L377.181,91.332 C377.181,91.332 387.379,91.332 388.767,96.143 C381.252,102.28 360.797,103.049 363.513,135.83 L395.616,351.379 L495.921,112.568 C516.438,59.246 473.373,14.714 435.172,13.353 C433.388,13.225 431.597,13.121 429.743,13.121 C395.456,13.121 356.164,38.039 358.084,91.332" id="path3119" fill="#0A2630"></path>
            <path d="M491.883,155.671 L397.011,376.7 L598.343,237.802 C644.753,204.884 637.268,152.256 611.289,126.242 C600.398,113.998 580.401,104.539999 559.218,104.539999 C534.192,104.535 507.409,117.809 491.883,155.671" id="path3121" fill="#0A2630"></path>
            <path d="M575.801,269.251 L386.726,401.318 L619.532,401.318 C667.295,401.318 697.989,352.072 684.344,306.88 C675.205,278.474 648.167,256.176 616.784,256.144 C603.574,256.149 589.565,260.128 575.801,269.251" id="path3123" fill="#0A2630"></path>
            <path d="M87.072,401.318 L316.443,401.318 L127.32,269.251 C83.628,241.179 34.5,257.605 16.764,304.19 C1.73,357.517 39.267,401.318 87.072,401.318" id="path3125" fill="#0A2630"></path>
            <path d="M0.931,496.898 C0.931,519.39 19.318,560.331 89.526,560.331 C154.256,560.331 174.7,530.629 174.7,517.01 L124.587,517.01 C124.587,517.01 122.207,535.003 93.938,535.003 C65.651,535.003 58.001,511.392 58.001,497.739 C58.001,484.138 65.651,461.802 93.938,461.802 C122.207,461.802 124.587,477.467 124.587,477.467 L174.7,477.467 C174.7,463.832 159.7,434.549 89.526,434.549 C19.318,434.549 0.931,478.151 0.931,496.898" id="Path" fill="#0A2630"></path>
            <path d="M526.487,496.898 C526.487,519.39 544.893,560.331 615.082,560.331 C679.806,560.331 700.258,530.629 700.258,517.01 L650.18,517.01 C650.18,517.01 647.789,535.003 619.513,535.003 C591.223,535.003 583.565,511.392 583.565,497.739 C583.565,484.138 591.223,461.802 619.513,461.802 C647.789,461.802 650.18,477.467 650.18,477.467 L700.258,477.467 C700.258,463.832 685.274,434.549 615.082,434.549 C544.894,434.549 526.487,478.151 526.487,496.898" id="Path" fill="#0A2630"></path>
            <polyline id="Path" fill="#0A2630" points="311.659 436.649 311.659 512.79 253.338 436.649 187.732 436.649 187.732 557.25 232.709 557.25 232.709 480.234 290.009 557.25 356.639 557.25 356.639 436.649 311.659 436.649"></polyline>
            <path d="M455.786,528.438 L455.786,528.597 L418.31,528.597 L418.31,506.453 L455.786,506.453 L455.786,506.525 C463.788,506.525 470.255,511.443 470.255,517.499 C470.255,523.54 463.788,528.438 455.786,528.438 M418.654,460.105 L454.764,460.105 L454.764,460.156 C460.882,460.156 465.843,464.181 465.843,469.135 C465.843,474.108 460.882,478.098 454.764,478.098 L454.764,478.152 L418.654,478.152 L418.654,460.105 Z M492.593,493.134 C500.781,493.134 517.901,483.629 517.901,465.215 C517.901,438.994 469.074,436.649 461.584,436.649 L371.622,436.649 L371.622,557.25 L461.584,557.25 C504.852,557.25 522.233,543.581 522.233,520.755 C522.233,497.929 492.593,493.134 492.593,493.134 Z" id="Shape" fill="#0A2630"></path>
        </g>
    </g>
</svg>