<?xml version="1.0" encoding="UTF-8"?>
<svg width="900px" height="420px" viewBox="0 0 900 420" version="1.1" xmlns="http://www.w3.org/2000/svg" xmlns:xlink="http://www.w3.org/1999/xlink">
    <!-- Generator: Sketch 58 (84663) - https://sketch.com -->
    <title>CNN</title>
    <desc>Created with Sketch.</desc>
    <g id="New-v2" stroke="none" stroke-width="1" fill="none" fill-rule="evenodd">
        <g id="CNN">
            <path d="M280,120 L210,120 C160.294373,120 120,160.294373 120,210 C120,259.705627 160.294373,300 210,300 L288.3,300 C294.761732,300 300,294.761732 300,288.3 L300,81.7 C300.043698,44.685704 324.966532,12.3250908 360.742322,2.83020546 C396.518112,-6.6646799 434.207709,9.07861047 452.6,41.2 L540,194.1 L540,81.7 C540.043698,44.685704 564.966532,12.3250908 600.742322,2.83020546 C636.518112,-6.6646799 674.207709,9.07861047 692.6,41.2 L780,194.1 L780,0 L830,0 L840,10 L850,0 L900,0 L900,338.3 C899.956302,375.314296 875.033468,407.674909 839.257678,417.169795 C803.481888,426.66468 765.792291,410.92139 747.4,378.8 L660,225.9 L660,338.3 C659.956302,375.314296 635.033468,407.674909 599.257678,417.169795 C563.481888,426.66468 525.792291,410.92139 507.4,378.8 L420,225.9 L420,338.3 C420,383.421664 383.421664,420 338.3,420 L210,420 C94.0202025,420 0,325.979797 0,210 C0,94.0202025 94.0202025,0 210,0 L280,0 L280,50 L270,60 L280,70 L280,120 Z" id="Path" fill="#0A2630" fill-rule="nonzero"></path>
            <path d="M280,60 L210,60 C127.157288,60 60,127.157288 60,210 C60,292.842712 127.157288,360 210,360 L338.3,360 C350.284579,360 360,350.284579 360,338.3 L360,81.7 C360.016911,71.8827107 366.622866,63.2996336 376.108688,60.7700811 C385.59451,58.2405285 395.597058,62.3946715 400.5,70.9 L559.5,349.1 C564.402942,357.605329 574.40549,361.759471 583.891312,359.229919 C593.377134,356.700366 599.983089,348.117289 600,338.3 L600,81.7 C600.016911,71.8827107 606.622866,63.2996336 616.108688,60.7700811 C625.59451,58.2405285 635.597058,62.3946715 640.5,70.9 L799.5,349.1 C804.402942,357.605329 814.40549,361.759471 823.891312,359.229919 C833.377134,356.700366 839.983089,348.117289 840,338.3 L840,0" id="Path" stroke="#FFFFFF" stroke-width="20"></path>
        </g>
    </g>
</svg>