<?xml version="1.0" encoding="UTF-8"?>
<svg width="185px" height="25px" viewBox="0 0 185 25" version="1.1" xmlns="http://www.w3.org/2000/svg" xmlns:xlink="http://www.w3.org/1999/xlink">
    <!-- Generator: Sketch 58 (84663) - https://sketch.com -->
    <title>NewYorkTimes</title>
    <desc>Created with Sketch.</desc>
    <g id="New-v2" stroke="none" stroke-width="1" fill="none" fill-rule="evenodd">
        <g id="NewYorkTimes" fill="#0A2630" fill-rule="nonzero">
            <path d="M13.8,2.5 C13.8,0.5 11.9,-1.45483625e-12 10.4,-1.45483625e-12 L10.4,0.3 C11.3,0.3 12,0.6 12,1.3 C12,1.7 11.7,2.3 10.8,2.3 C10.1,2.3 8.6,1.9 7.5,1.5 C6.2,1 5,0.6 4,0.6 C2,0.6 0.6,2.1 0.6,3.8 C0.6,5.3 1.7,5.8 2.1,6 L2.2,5.8 C2,5.6 1.7,5.4 1.7,4.8 C1.7,4.4 2.1,3.7 3.1,3.7 C4,3.7 5.2,4.1 6.8,4.6 C8.2,5 9.7,5.3 10.5,5.4 L10.5,8.5 L9,9.8 L9,9.9 L10.5,11.2 L10.5,15.5 C9.7,16 8.8,16.1 8,16.1 C6.5,16.1 5.2,15.7 4.1,14.5 L8.2,12.5 L8.2,5.6 L3.2,7.8 C3.6,6.5 4.7,5.6 5.8,5 L5.7,4.7 C2.7,5.5 1.84741111e-13,8.3 1.84741111e-13,11.7 C1.84741111e-13,15.7 3.3,18.7 7,18.7 C11,18.7 13.6,15.5 13.6,12.2 L13.4,12.2 C12.8,13.5 11.9,14.7 10.8,15.3 L10.8,11.2 L12.4,9.9 L12.4,9.8 L10.8,8.5 L10.8,5.4 C12.3,5.4 13.8,4.4 13.8,2.5 Z M5.1,13.5 L3.9,14.1 C3.2,13.2 2.8,12 2.8,10.3 C2.8,9.6 2.8,8.8 3,8.2 L5.1,7.3 L5.1,13.5 L5.1,13.5 Z M15.7,15.8 L14.4,16.8 L14.6,17 L15.2,16.5 L17.4,18.5 L20.4,16.5 L20.3,16.3 L19.5,16.8 L18.5,15.8 L18.5,9 L19.3,8.4 L21,9.8 L21,15.9 C21,19.7 20.2,20.3 18.5,20.9 L18.5,21.2 C21.3,21.3 23.9,20.4 23.9,15.5 L23.9,8.9 L24.8,8.2 L24.6,8 L23.8,8.6 L21.3,6.5 L18.5,8.6 L18.5,0.4 L18.3,0.4 L14.8,2.8 L14.8,3 C15.2,3.2 15.8,3.4 15.8,4.5 L15.7,15.8 L15.7,15.8 Z M34,14.7 L31.5,16.6 L29,14.6 L29,13.4 L33.7,10.2 L33.7,10.1 L31.3,6.5 L26.1,9.3 L26.1,15.9 L25.1,16.7 L25.3,16.9 L26.2,16.2 L29.6,18.7 L34.1,15.1 L34,14.7 L34,14.7 Z M29,13 L29,8.1 L29.2,8 L31.4,11.5 L29,13 Z M53.1,1.6 C53.1,1.3 53,1 52.9,0.7 L52.7,0.7 C52.4,1.5 52,1.9 51,1.9 C50.1,1.9 49.5,1.4 49.1,1 L46.2,4.3 L46.4,4.5 L47.4,3.6 C48,4.1 48.5,4.5 49.9,4.6 L49.9,12.9 L44,2.8 C43.5,2 42.8,0.9 41.4,0.9 C39.8,0.9 38.4,2.3 38.6,4.5 L38.9,4.5 C39,3.9 39.3,3.2 40,3.2 C40.5,3.2 41,3.7 41.3,4.2 L41.3,7.5 C39.5,7.5 38.3,8.3 38.3,9.8 C38.3,10.6 38.7,11.8 39.9,12.1 L39.9,11.9 C39.7,11.7 39.6,11.5 39.6,11.2 C39.6,10.7 40,10.3 40.7,10.3 L41.2,10.3 L41.2,14.5 C39.1,14.5 37.4,15.7 37.4,17.7 C37.4,19.6 39,20.5 40.8,20.4 L40.8,20.2 C39.7,20.1 39.2,19.6 39.2,18.9 C39.2,18 39.8,17.6 40.6,17.6 C41.4,17.6 42.1,18.1 42.6,18.7 L45.5,15.5 L45.3,15.3 L44.6,16.1 C43.5,15.1 42.9,14.8 41.6,14.6 L41.6,4.6 L49.6,18.6 L50.2,18.6 L50.2,4.6 C51.7,4.5 53.1,3.3 53.1,1.6 L53.1,1.6 Z M60.4,14.7 L57.9,16.6 L55.4,14.6 L55.4,13.4 L60.1,10.2 L60.1,10.1 L57.7,6.5 L52.5,9.3 L52.5,15.9 L51.5,16.7 L51.7,16.9 L52.6,16.2 L56,18.7 L60.5,15.1 L60.4,14.7 L60.4,14.7 Z M55.4,13 L55.4,8.1 L55.6,8 L57.8,11.5 L55.4,13 L55.4,13 Z M76.7,7.6 L76,8.1 L74.1,6.5 L71.9,8.5 L72.8,9.4 L72.8,16.9 L70.4,15.4 L70.4,9.2 L71.2,8.7 L68.9,6.5 L66.7,8.5 L67.6,9.4 L67.6,16.6 L67.3,16.8 L65.2,15.3 L65.2,9.3 C65.2,7.9 64.5,7.5 63.7,7 C63,6.5 62.6,6.2 62.6,5.5 C62.6,4.9 63.2,4.6 63.5,4.4 L63.5,4.2 C62.7,4.2 60.6,5 60.6,6.9 C60.6,7.9 61.1,8.3 61.6,8.8 C62.1,9.3 62.6,9.7 62.6,10.6 L62.6,16.4 L61.5,17.2 L61.7,17.4 L62.7,16.6 L65,18.6 L67.5,16.9 L70.3,18.6 L75.6,15.5 L75.6,8.8 L76.9,7.8 L76.7,7.6 L76.7,7.6 Z M95.3,2.1 L94.3,3 L92.1,1 L88.8,3.4 L88.8,1.2 L88.5,1.2 L88.6,17.4 C88.3,17.4 87.4,17.2 86.7,17 L86.5,3.5 C86.5,2.5 85.8,1.1 84,1.1 C82.2,1.1 81,2.5 81,3.9 L81.3,3.9 C81.4,3.3 81.7,2.8 82.3,2.8 C82.9,2.8 83.4,3.2 83.4,4.5 L83.4,8.4 C81.6,8.5 80.5,9.5 80.5,10.8 C80.5,11.6 80.9,12.8 82.1,12.8 L82.1,12.6 C81.7,12.4 81.6,12.1 81.6,11.9 C81.6,11.3 82.1,11.1 82.9,11.1 L83.3,11.1 L83.3,17.3 C81.8,17.8 81.2,18.9 81.2,20.1 C81.2,21.8 82.5,23 84.5,23 C85.9,23 87.1,22.8 88.3,22.5 C89.3,22.3 90.6,22 91.2,22 C92,22 92.3,22.4 92.3,22.9 C92.3,23.6 92,23.9 91.6,24 L91.6,24.2 C93.2,23.9 94.2,22.9 94.2,21.4 C94.2,19.9 92.7,19 91.1,19 C90.3,19 88.6,19.3 87.4,19.5 C86,19.8 84.6,20 84.2,20 C83.5,20 82.7,19.7 82.7,18.7 C82.7,17.9 83.4,17.2 85.1,17.2 C86,17.2 87.1,17.3 88.2,17.6 C89.4,17.9 90.5,18.2 91.5,18.2 C93,18.2 94.3,17.7 94.3,15.6 L94.3,3.3 L95.5,2.3 L95.3,2.1 L95.3,2.1 Z M91.2,8.2 C90.9,8.5 90.5,8.8 90,8.8 C89.5,8.8 89,8.5 88.8,8.2 L88.8,3.8 L89.8,3.1 L91.2,4.4 L91.2,8.2 Z M91.2,11.2 C91,11 90.5,10.7 90,10.7 C89.5,10.7 89,11 88.8,11.2 L88.8,8.6 C89,8.8 89.5,9.1 90,9.1 C90.5,9.1 91,8.8 91.2,8.6 L91.2,11.2 Z M91.2,15.9 C91.2,16.7 90.7,17.5 89.6,17.5 L88.8,17.5 L88.8,11.6 C89,11.4 89.5,11.1 90,11.1 C90.5,11.1 90.9,11.4 91.2,11.6 L91.2,15.9 L91.2,15.9 Z M104.9,8.8 L101.7,6.5 L96.8,9.3 L96.8,15.8 L95.8,16.6 L95.9,16.8 L96.7,16.2 L99.9,18.6 L104.9,15.6 L104.9,8.8 L104.9,8.8 Z M99.5,15.1 L99.5,7.9 L102,9.7 L102,16.8 L99.5,15.1 L99.5,15.1 Z M114.4,6.7 L114.2,6.7 C113.9,6.9 113.6,7.1 113.3,7.1 C112.9,7.1 112.4,6.9 112.2,6.6 L112,6.6 L110.3,8.5 L108.6,6.6 L105.6,8.6 L105.7,8.8 L106.5,8.3 L107.5,9.4 L107.5,15.7 L106.2,16.7 L106.4,16.9 L107,16.4 L109.4,18.4 L112.5,16.3 L112.4,16.1 L111.5,16.6 L110.3,15.6 L110.3,8.6 C110.8,9.1 111.4,9.6 112.1,9.6 C113.5,9.7 114.3,8.3 114.4,6.7 L114.4,6.7 Z M126.4,16.3 L123,18.6 L118.4,11.6 L121.7,6.5 L121.9,6.5 C122.3,6.9 122.9,7.3 123.6,7.3 C124.3,7.3 124.8,6.9 125.1,6.5 L125.3,6.5 C125.2,8.5 123.8,9.7 122.8,9.7 C121.8,9.7 121.3,9.2 120.7,8.9 L120.4,9.4 L125.4,16.8 L126.4,16.2 L126.4,16.3 L126.4,16.3 Z M115.4,15.8 L114.1,16.8 L114.3,17 L114.9,16.5 L117.1,18.5 L120.1,16.5 L119.9,16.3 L119.1,16.8 L118.1,15.8 L118.1,0.4 L118,0.4 L114.4,2.8 L114.4,3 C114.8,3.2 115.4,3.3 115.4,4.5 L115.4,15.8 L115.4,15.8 Z M143,2.5 C143,0.5 141.1,-1.45483625e-12 139.6,-1.45483625e-12 L139.6,0.3 C140.5,0.3 141.2,0.6 141.2,1.3 C141.2,1.7 140.9,2.3 140,2.3 C139.3,2.3 137.8,1.9 136.7,1.5 C135.4,1.1 134.2,0.7 133.2,0.7 C131.2,0.7 129.8,2.2 129.8,3.9 C129.8,5.4 130.9,5.9 131.3,6.1 L131.4,5.9 C131.1,5.7 130.8,5.5 130.8,4.9 C130.8,4.5 131.2,3.8 132.2,3.8 C133.1,3.8 134.3,4.2 135.9,4.7 C137.3,5.1 138.8,5.4 139.6,5.5 L139.6,8.6 L138.1,9.9 L138.1,10 L139.6,11.3 L139.6,15.6 C138.8,16.1 137.9,16.2 137.1,16.2 C135.6,16.2 134.3,15.8 133.2,14.6 L137.3,12.6 L137.3,5.6 L132.3,7.8 C132.8,6.5 133.9,5.6 134.9,4.9 L134.8,4.7 C131.8,5.5 129.1,8.2 129.1,11.6 C129.1,15.6 132.4,18.6 136.1,18.6 C140.1,18.6 142.7,15.4 142.7,12.1 L142.5,12.1 C141.9,13.4 141,14.6 139.9,15.2 L139.9,11.1 L141.5,9.8 L141.5,9.7 L140,8.4 L140,5.4 C141.5,5.4 143,4.4 143,2.5 Z M134.3,13.5 L133.1,14.1 C132.4,13.2 132,12 132,10.3 C132,9.6 132.1,8.8 132.3,8.2 L134.4,7.3 L134.3,13.5 L134.3,13.5 Z M146.5,1.5 L146.4,1.5 L144.4,3.2 L144.4,3.3 L146.1,5.2 L146.3,5.2 L148.3,3.5 L148.3,3.4 L146.5,1.5 L146.5,1.5 Z M149.5,16.3 L148.7,16.8 L147.7,15.8 L147.7,8.9 L148.7,8.2 L148.5,8 L147.8,8.6 L146,6.5 L143.1,8.5 L143.3,8.8 L144,8.3 L144.9,9.4 L144.9,15.9 L143.6,16.9 L143.7,17.1 L144.4,16.6 L146.6,18.6 L149.6,16.6 L149.5,16.3 L149.5,16.3 Z M166.2,16.2 L165.5,16.7 L164.4,15.7 L164.4,8.9 L165.4,8.1 L165.2,7.9 L164.4,8.6 L162.1,6.5 L159.1,8.6 L156.8,6.5 L154,8.6 L152.2,6.5 L149.3,8.5 L149.4,8.8 L150.1,8.3 L151.1,9.4 L151.1,15.9 L150.3,16.7 L152.6,18.6 L154.8,16.6 L153.9,15.7 L153.9,8.9 L154.8,8.3 L156.3,9.7 L156.3,15.7 L155.5,16.5 L157.8,18.4 L160,16.4 L159.1,15.5 L159.1,8.9 L159.9,8.4 L161.5,9.8 L161.5,15.8 L160.8,16.5 L163.1,18.6 L166.2,16.5 L166.2,16.2 L166.2,16.2 Z M174.9,14.7 L172.4,16.6 L169.9,14.6 L169.9,13.4 L174.6,10.2 L174.6,10.1 L172.2,6.5 L167,9.3 L167,16.1 L170.5,18.6 L175,15 L174.9,14.7 L174.9,14.7 Z M169.9,13 L169.9,8.1 L170.1,8 L172.3,11.5 L169.9,13 L169.9,13 Z M184,12.1 L182.1,10.6 C183.4,9.5 183.9,8 183.9,7 L183.9,6.4 L183.7,6.4 C183.5,6.9 183.1,7.4 182.3,7.4 C181.5,7.4 181,7 180.5,6.4 L176,8.9 L176,12.5 L177.7,13.8 C176,15.3 175.7,16.3 175.7,17.1 C175.7,18.1 176.2,18.8 177,19.1 L177.1,18.9 C176.9,18.7 176.7,18.6 176.7,18.1 C176.7,17.8 177.1,17.3 177.9,17.3 C178.9,17.3 179.5,18 179.8,18.3 L184.1,15.7 L184.1,12.1 L184,12.1 L184,12.1 Z M182.9,9.1 C182.2,10.3 180.7,11.5 179.8,12.1 L178.7,11.2 L178.7,7.7 C179.1,8.7 180.2,9.5 181.3,9.5 C182,9.5 182.4,9.4 182.9,9.1 L182.9,9.1 Z M181.2,17.1 C180.7,16 179.5,15.2 178.3,15.2 C178,15.2 177.2,15.2 176.4,15.7 C176.9,14.9 178.2,13.5 179.9,12.5 L181.1,13.5 L181.2,17.1 L181.2,17.1 Z" id="Shape"></path>
        </g>
    </g>
</svg>