<?xml version="1.0" encoding="UTF-8"?>
<svg width="65px" height="23px" viewBox="0 0 65 23" version="1.1" xmlns="http://www.w3.org/2000/svg" xmlns:xlink="http://www.w3.org/1999/xlink">
    <!-- Generator: Sketch 58 (84663) - https://sketch.com -->
    <title>ABC_News_solid_black_logo (1)</title>
    <desc>Created with Sketch.</desc>
    <g id="New-v2" stroke="none" stroke-width="1" fill="none" fill-rule="evenodd">
        <g id="ABC_News_solid_black_logo-(1)" fill="#0A2630" fill-rule="nonzero">
            <path d="M25.089,6.709 C24.619,6.213 24.115,5.911 23.767,5.911 L23.454,5.911 L23.454,5.636 L23.715,5.636 C23.836,5.636 25.263,5.694 25.402,5.694 C25.629,5.694 26.288,5.636 26.428,5.636 L26.706,5.636 L33.324,12.981 L33.324,7.187 C33.324,6.266 32.924,5.911 31.917,5.911 L31.621,5.911 L31.621,5.636 L31.934,5.636 C31.969,5.636 33.463,5.694 33.584,5.694 C33.757,5.694 34.748,5.636 34.939,5.636 L35.131,5.636 L35.148,5.911 C34.226,5.982 33.983,6.231 33.983,7.046 L33.983,16.206 L33.671,16.206 L25.767,7.436 L25.767,14.036 C25.767,15.42 26.081,15.792 27.227,15.792 L27.522,15.792 L27.522,16.088 L27.191,16.088 C26.948,16.088 25.75,16.028 25.471,16.028 C25.315,16.028 24.202,16.088 23.959,16.088 L23.68,16.088 L23.68,15.792 C24.846,15.685 25.09,15.49 25.09,14.639 L25.09,6.709 L25.089,6.709 L25.089,6.709 Z M37.069,6.815 C37.069,6.124 36.808,5.911 35.99,5.911 L35.73,5.911 L35.73,5.636 L36.408,5.636 C36.878,5.636 39.416,5.694 39.434,5.694 C39.798,5.694 42.211,5.636 42.73,5.636 L43.425,5.636 L43.46,7.913 L43.19,7.913 C43.137,6.725 42.61,6.246 41.395,6.246 L38.965,6.246 L38.965,10.272 L41.065,10.272 C41.881,10.272 42.333,9.882 42.454,9.047 L42.764,9.065 L42.764,12.243 L42.471,12.243 C42.333,11.25 41.829,10.86 40.614,10.86 L38.948,10.86 L38.948,14.532 C38.948,15.135 39.244,15.437 39.833,15.437 L41.569,15.437 C42.695,15.437 43.513,14.922 43.999,13.857 L44.313,13.857 L43.582,16.087 C43.077,16.087 40.684,16.029 39.886,16.029 C39.347,16.029 36.756,16.069 36.164,16.087 L35.712,16.087 L35.712,15.792 L35.99,15.792 C36.808,15.775 37.07,15.562 37.07,14.869 L37.07,6.815 L37.069,6.815 Z M53.77,16.225 L53.283,16.225 L51.299,10.714 L49.264,16.226 L48.794,16.226 L45.4,6.975 C45.14,6.265 44.895,5.982 44.443,5.895 L44.443,5.635 L44.739,5.635 C44.93,5.635 45.888,5.694 46.114,5.694 C46.305,5.694 47.296,5.636 47.505,5.636 L47.819,5.636 L47.819,5.911 C47.314,5.93 47.105,6.071 47.105,6.354 C47.105,6.514 47.157,6.744 47.245,6.993 L49.628,13.55 L50.985,9.81 L50.098,7.294 C49.715,6.213 49.384,5.93 48.548,5.911 L48.548,5.636 L48.828,5.636 C49.071,5.636 50.324,5.694 50.621,5.694 C50.863,5.694 52.116,5.636 52.394,5.636 L52.811,5.636 L52.811,5.911 L52.394,5.911 C51.82,5.911 51.542,6.053 51.542,6.354 C51.542,6.514 51.612,6.798 51.716,7.081 L54.03,13.603 L55.857,8.073 C56.083,7.364 56.187,6.903 56.187,6.62 C56.187,6.124 55.944,5.91 55.405,5.91 L55.092,5.91 L55.092,5.636 L55.179,5.636 C55.422,5.636 56.03,5.694 56.396,5.694 C56.569,5.694 57.247,5.636 57.576,5.636 L57.699,5.636 L57.699,5.911 C57.263,6.036 57.039,6.354 56.692,7.436 L53.769,16.226 L53.77,16.225 Z M57.78,13.662 C58.058,14.35 58.3,14.67 58.768,15.023 C59.358,15.483 60.138,15.713 61.005,15.713 C62.496,15.713 63.502,14.917 63.502,13.767 C63.502,12.917 63.016,12.457 61.22,11.592 C59.48,10.742 59.046,10.318 58.682,9.964 C58.145,9.38 57.92,8.85 57.92,8.142 C57.92,6.515 59.22,5.438 61.185,5.438 C61.777,5.438 62.421,5.526 63.118,5.702 C63.396,5.772 63.675,5.808 63.832,5.808 C63.97,5.808 64.041,5.773 64.092,5.655 L64.392,5.655 L64.426,7.884 L64.179,7.884 C64.023,7.353 63.919,7.124 63.692,6.834 C63.204,6.249 62.438,5.931 61.455,5.931 C60.207,5.931 59.391,6.532 59.391,7.435 C59.391,8.213 59.861,8.655 61.525,9.433 C63.659,10.441 64.951,11.344 64.951,13.006 C64.951,14.916 63.414,16.206 61.144,16.206 C60.5245572,16.2007286 59.9077989,16.1238855 59.306,15.977 C59.1009318,15.9295225 58.8921645,15.8997464 58.682,15.888 C58.473,15.888 58.405,15.924 58.267,16.088 L57.972,16.088 L57.937,15.84 C57.819,15.14 57.679,14.442 57.519,13.75 L57.78,13.661 L57.78,13.662 Z M3.97,9.732 C3.708,9.732 3.46,9.792 3.24,9.9 C2.653,10.191 2.283,10.79 2.28499193,11.446 C2.28499193,12.392 3.04,13.16 3.969,13.16 C4.9,13.16 5.653,12.392 5.653,11.446 C5.653,10.499 4.9,9.731 3.969,9.731 L3.97,9.732 Z M11.229,9.732 C10.299,9.732 9.544,10.499 9.544,11.446 C9.544,12.392 10.298,13.16 11.229,13.16 C12.159,13.16 12.913,12.392 12.913,11.446 C12.913,10.499 12.158,9.731 11.229,9.731 L11.229,9.732 Z" id="Shape"></path>
            <path d="M18.47,14.875 C16.608,14.875 15.1,13.34 15.1,11.445 C15.1,9.552 16.608,8.017 18.47,8.017 C20.066,8.017 21.402,9.149 21.75,10.667 L19.97,10.667 C19.6878941,10.0958476 19.107019,9.73338151 18.47,9.731 C17.538,9.731 16.784,10.499 16.784,11.446 C16.784,12.392 17.538,13.16 18.469,13.16 C19.1076368,13.1576242 19.6896982,12.7933514 19.971,12.22 L21.754,12.203 C21.415,13.733 20.074,14.875 18.469,14.875 L18.47,14.875 Z M11.229,14.875 C9.376,14.875 7.873,13.353 7.86,11.47 L7.82,5.454 L9.524,5.454 L9.534,8.682 C10.033,8.286 10.611,8.017 11.229,8.017 C13.089,8.017 14.597,9.552 14.597,11.446 C14.597,13.34 13.088,14.875 11.229,14.875 Z M5.683,14.875 L5.676,14.016 C5.294,14.405 4.633,14.875 3.852,14.875 C1.992,14.875 0.601,13.34 0.601,11.445 C0.601,9.552 2.109,8.017 3.969,8.017 C4.259,8.017 4.542,8.054 4.812,8.125 C6.265,8.505 7.338,9.848 7.338,11.445 L7.338,11.455 L7.358,14.875 L5.682,14.875 L5.683,14.875 Z M11.229,0.017 C5.027,0.017 0,5.134 0,11.446 C0,17.758 5.027,22.876 11.229,22.876 C17.429,22.876 22.457,17.758 22.457,11.446 C22.457,5.134 17.429,0.017 11.229,0.017 Z" id="Shape"></path>
        </g>
    </g>
</svg>