<?xml version="1.0" standalone="no"?>
<!DOCTYPE svg PUBLIC "-//W3C//DTD SVG 20010904//EN"
 "http://www.w3.org/TR/2001/REC-SVG-20010904/DTD/svg10.dtd">
<svg version="1.0" xmlns="http://www.w3.org/2000/svg"
 width="448.000000pt" height="84.000000pt" viewBox="0 0 448.000000 84.000000"
 preserveAspectRatio="xMidYMid meet">

<g transform="translate(0.000000,84.000000) scale(0.100000,-0.100000)"
fill="#000000" stroke="none">
<path d="M766 772 c-21 -37 -60 -103 -86 -147 -27 -44 -57 -96 -68 -115 -87
-156 -155 -270 -162 -270 -12 0 -20 57 -20 151 l0 88 -50 42 c-27 23 -47 46
-43 52 3 5 35 7 77 4 52 -3 83 -12 118 -31 l47 -27 25 38 c14 21 26 45 26 53
0 8 -27 30 -59 48 l-59 32 -257 -2 -257 -3 129 -106 c202 -169 180 -138 185
-259 l4 -105 65 -107 c35 -59 66 -107 69 -108 3 0 34 51 70 112 36 62 95 163
133 226 37 63 67 116 67 118 0 13 86 144 95 144 10 0 68 -101 61 -108 -2 -2
-18 4 -35 12 -16 9 -34 16 -40 16 -11 0 -51 -66 -51 -85 0 -14 107 -80 344
-213 61 -34 112 -60 114 -57 2 2 -25 52 -60 112 -36 59 -109 185 -163 278
-139 241 -166 285 -173 285 -4 0 -25 -31 -46 -68z"/>
<path d="M1332 642 c-20 -3 -23 -8 -20 -45 l3 -42 50 -1 50 -1 5 -149 5 -149
50 0 50 0 0 148 c0 90 4 147 10 148 6 1 30 2 55 3 l45 1 3 43 c3 35 0 42 -15
43 -45 3 -270 4 -291 1z"/>
<path d="M1793 642 l-133 -3 0 -194 0 -195 150 0 150 0 0 45 0 44 -97 3 -98 3
-3 33 -3 32 90 0 91 0 0 45 0 45 -90 0 c-89 0 -90 0 -90 25 0 24 1 24 98 27
l97 3 0 44 c0 32 -4 44 -15 45 -8 1 -75 0 -147 -2z"/>
<path d="M2095 636 c-81 -36 -124 -131 -106 -232 19 -103 86 -158 192 -158 41
1 67 7 93 23 40 25 76 85 76 126 0 23 -3 25 -45 25 -42 0 -46 -2 -59 -35 -14
-33 -47 -55 -82 -55 -9 0 -29 13 -45 29 -24 25 -29 37 -29 81 0 55 19 104 45
114 46 17 115 -9 115 -44 0 -5 23 -10 50 -10 56 0 60 8 34 63 -25 53 -86 87
-154 87 -30 -1 -68 -7 -85 -14z"/>
<path d="M3410 642 l-45 -3 -71 -189 c-39 -104 -69 -192 -66 -195 3 -3 25 -5
49 -5 43 0 45 2 60 40 l16 41 65 -3 c65 -3 65 -3 77 -38 11 -33 14 -35 63 -38
29 -2 52 1 52 5 0 17 -134 369 -144 378 -6 6 -31 9 -56 7z m26 -190 c6 -30 4
-32 -20 -32 -29 0 -31 4 -15 49 13 37 26 31 35 -17z"/>
<path d="M3683 635 c-37 -16 -73 -68 -73 -105 0 -55 31 -83 126 -115 80 -27
89 -33 89 -55 0 -22 -5 -25 -43 -28 -47 -3 -69 9 -83 45 -7 19 -16 23 -54 23
-42 0 -45 -2 -45 -25 0 -40 26 -81 67 -106 53 -33 154 -33 207 0 42 26 56 54
56 113 0 57 -39 91 -129 113 -81 20 -106 39 -76 61 36 26 95 10 95 -26 0 -17
7 -20 50 -20 48 0 50 1 50 29 0 34 -31 76 -70 96 -36 19 -125 19 -167 0z"/>
<path d="M3965 642 c-3 -3 -5 -92 -5 -199 l0 -193 55 0 55 0 0 195 0 195 -27
1 c-16 0 -38 2 -51 3 -12 2 -24 0 -27 -2z"/>
<path d="M4268 642 c-47 -3 -47 -3 -66 -55 -11 -29 -43 -112 -71 -185 -28 -74
-51 -138 -51 -143 0 -6 23 -9 51 -7 49 3 52 5 63 38 11 35 11 35 77 38 l66 3
13 -41 c13 -39 14 -40 60 -40 26 0 49 2 52 5 5 5 -134 382 -143 387 -2 2 -25
2 -51 0z m16 -166 c3 -13 9 -31 12 -40 5 -13 -1 -16 -26 -16 -25 0 -31 3 -26
16 3 9 9 27 12 40 8 31 20 31 28 0z"/>
<path d="M2390 445 l0 -195 50 0 50 0 0 80 0 80 65 0 64 0 3 -77 3 -78 50 0
50 0 3 193 2 192 -55 0 -55 0 0 -70 0 -70 -65 0 -65 0 0 70 0 70 -50 0 -50 0
0 -195z"/>
<path d="M2792 448 c3 -155 5 -183 18 -183 13 0 15 28 18 183 2 178 2 182 -18
182 -20 0 -20 -4 -18 -182z"/>
<path d="M2907 623 c-2 -5 -4 -87 -3 -183 1 -157 3 -175 18 -178 16 -3 18 11
20 154 l3 158 108 -157 c147 -214 147 -214 147 29 0 165 -2 185 -16 182 -14
-3 -16 -22 -15 -150 1 -82 -2 -148 -7 -148 -4 0 -55 67 -111 150 -70 101 -109
150 -122 150 -10 0 -20 -3 -22 -7z"/>
</g>
</svg>
