<?xml version="1.0" encoding="UTF-8"?>
<svg width="576px" height="558px" viewBox="0 0 576 558" version="1.1" xmlns="http://www.w3.org/2000/svg" xmlns:xlink="http://www.w3.org/1999/xlink">
    <!-- Generator: Sketch 61 (89581) - https://sketch.com -->
    <title>ill</title>
    <desc>Created with Sketch.</desc>
    <defs>
        <path d="M0,4.40800557 L0,14.4111056 C0.89203125,16.6777071 1.97806641,18.3779806 3.25810547,19.5119259 C4.53814453,20.6458712 6.03044922,21.2968477 7.73501953,21.4648556 C9.90880859,26.4861837 12.5653516,29.9541915 15.7046484,31.868879 C20.4135938,34.7409102 27.8598633,37.5355977 33.4324805,37.5355977 C39.0050977,37.5355977 39.1236914,34.9980782 39.1236914,32.9033517 C39.1236914,30.8086251 39.6657422,27.4306368 38.2245703,25.7045821 C36.7833984,23.9785274 43.4285156,28.1821602 49.0758984,28.1821602 C52.8408203,28.1821602 55.1676952,25.9430587 56.0565231,21.4648556 C54.3573046,16.7623556 50.675625,12.1655587 45.0114844,7.67446494 C36.5152734,0.937824311 34.3071094,1.52370322 33.4324805,0.243664154 C32.8493945,-0.609695221 21.7052344,0.778418585 0,4.40800557 Z" id="path-1"></path>
        <linearGradient x1="37.711634%" y1="45.5052107%" x2="50%" y2="38.3902198%" id="linearGradient-3">
            <stop stop-color="#E9F3FC" offset="0%"></stop>
            <stop stop-color="#FFFFFF" offset="100%"></stop>
        </linearGradient>
        <path d="M9.02575505,6.88715608 C3.16202458,10.0377322 0.230159342,15.250325 0.230159342,22.5249344 C0.230159342,33.4368485 0.813055024,42.4776883 2.43155583,53.0293094 C4.05005663,63.5809305 5.93828922,77.1154422 4.62795719,87.6696414 C3.31762516,98.2238406 -1.04246761,101.829993 0.230159342,115.495345 C1.5027863,129.160696 6.5146613,153.09343 7.77020817,155.384095 C8.39276553,156.51991 11.314377,159.55236 15.1030076,160.839407 C18.955124,162.148022 23.6898942,161.694983 26.143216,160.839407 C31.0094269,159.142356 30.0471418,157.525227 30.0471418,155.384095 C35.6365168,156.464973 40.5997297,153.801448 41.7992023,152.690598 C42.998675,151.579749 41.4946613,152.776321 40.9284406,145.809261 C40.3622199,138.8422 42.7427961,122.87845 42.7427961,120.728938 C42.7427961,118.579427 43.0744074,101.025296 45.4727082,97.1767996 C47.871009,93.3283035 62.8988996,56.7644307 62.8988996,34.0942703 C62.8988996,11.4241099 60.9962433,9.34056472 59.7039582,2.56766877 C58.8424347,-1.94759519 41.9497004,-0.507766091 9.02575505,6.88715608 Z" id="path-4"></path>
        <path d="M30.0152574,11.2335352 C22.8254155,17.2663477 17.3435218,21.1391211 13.5695765,22.8518555 C7.90865856,25.420957 1.64961559,31.3364648 0.398580438,36.7408594 C-0.852454718,42.1452539 0.809146844,55.6030664 5.84164684,68.3873437 C10.8741468,81.1716211 14.5473304,87.8148047 18.2037562,89.9308008 C17.7579554,92.6487891 17.7579554,95.1450586 18.2037562,97.4196094 C20.199225,101.855059 22.2340101,104.570684 24.3081117,105.566484 C27.419264,107.060186 36.3566566,111.194209 46.8979652,109.918359 C57.4392738,108.64251 64.146266,104.692178 67.5526136,100.460508 C70.9589613,96.2288379 72.0727113,95.1763184 72.0727113,93.3980566 C72.0727113,91.6575 71.9106117,84.9866016 71.4710414,81.9157324 C71.0314711,78.8448633 71.4710414,71.8810254 72.4428334,65.9602808 C80.2788832,73.7956055 93.2162367,88.1029102 95.0608851,89.9308008 C96.9055336,91.7586914 104.926403,84.1242187 105.406256,83.3185547 C105.88611,82.5128906 100.954479,78.7082227 98.3702308,74.2035937 C95.7859828,69.6989648 90.7747523,63.0113086 87.3870961,59.6794043 C83.9994398,56.3475 82.5840492,49.4916211 81.374264,44.8045898 C80.1644789,40.1175586 77.7510316,30.2330273 76.9173304,28.735459 C76.0836293,27.2378906 77.2009242,20.3040234 74.0030824,11.2335352 C70.8052406,2.16304687 64.369323,-8.81072992e-13 63.1577162,-8.81072992e-13 C61.9461094,-8.81072992e-13 57.14776,0.095390625 52.7194397,1.57523437 C49.7672262,2.56179687 42.1991655,5.78123047 30.0152574,11.2335352 Z" id="path-6"></path>
        <path d="M30.2598014,7.10542736e-14 C28.1010514,27.4957576 25.5957584,45.0548473 22.7439225,52.677269 C19.8920865,60.2996908 12.4344224,61.7408626 0.370930034,57.0007847 C2.79653176,44.1451221 3.62884435,35.438726 2.86786779,30.8815963 C1.72640294,24.0459018 -0.984542873,14.6751665 0.370930034,9.52525731 C1.27457864,6.09198454 11.2375358,2.91689877 30.2598014,7.10542736e-14 Z" id="path-8"></path>
        <path d="M7.80011719,0.289287109 C4.48304921,5.57508789 2.25920155,10.4402246 1.12857422,14.8846973 C-0.567366783,21.5514063 0.184174805,36.5586719 1.12857422,40.4529297 C1.75817383,43.0491016 9.13257813,65.5221875 23.2517871,107.872188 C32.5317514,108.282289 39.0411948,107.900477 42.7801172,106.726751 C50.4154361,104.329865 48.3798047,105.412282 60.245625,97.6080273 C60.245625,85.6141602 60.245625,63.7632617 60.245625,32.055332 C60.8433203,25.4669336 59.3671289,19.1131445 55.8170508,12.9939648 C52.2669727,6.87478516 45.7539844,2.98632813 36.2780859,1.32859375 L7.80011719,0.289287109 Z" id="path-10"></path>
        <path d="M0.346623404,0 C0.379279654,2.37853516 0.581984732,4.0312207 0.954738638,4.95805664 C1.5138695,6.34831055 2.24766833,6.63867187 2.24766833,7.82203125 C2.24766833,9.00539062 2.74247981,10.9634766 1.29937434,11.503916 C-0.143731132,12.0443555 -0.261491831,13.596709 0.346623404,14.2631543 C0.954738638,14.9295996 8.23101305,20.1570703 11.6684593,20.7039551 C15.1059056,21.2508398 19.9938695,21.5299219 20.8649535,21.5299219 C21.7360375,21.5299219 23.2893578,20.9276074 24.0421703,19.7661621 C24.7949828,18.6047168 24.3873168,15.9463477 23.4881957,14.2631543 C22.5890746,12.5799609 22.9342211,10.8374707 23.4881957,9.78591797 C23.8575121,9.08488281 16.1436547,5.82291016 0.346623404,0 Z" id="path-12"></path>
        <path d="M37.29,0.5053125 C37.5120738,8.38621094 37.1224173,13.8031738 36.1210306,16.7562012 C34.6189505,21.1857422 33.8799955,25.2517676 32.9544486,26.7996094 C32.0289017,28.3474512 28.5413431,30.8569336 24.5359037,29.9529785 C20.5304642,29.0490234 15.8165214,26.372998 15.6919681,26.3091211 C11.1895951,24.0000879 9.74487827,20.6923535 8.94275913,18.9221484 C8.14063999,17.1519434 5.62698135,17.8187109 3.94297571,16.7562012 C2.25897006,15.6936914 1.83320026e-12,14.0040527 1.83320026e-12,11.7594727 C1.83320026e-12,9.51489258 0.377261079,7.0606439 0.977319673,6.40019531 C1.37735874,5.95989626 3.54792514,3.82649782 7.48901889,-1.54187774e-12 L37.29,0.5053125 Z" id="path-14"></path>
        <path d="M0.281176758,17.5083478 C1.40953613,10.7343244 3.17512207,6.22045716 5.57793457,3.96674623 C9.18215332,0.586179819 16.992583,-0.790538931 20.9719189,0.448894663 C24.9512549,1.68832826 39.3545947,6.84908998 41.0658252,11.6073419 C42.7770557,16.3655939 40.9401416,19.8131915 38.8508936,21.4718927 C36.7616455,23.1305939 33.3697998,26.257215 26.5387354,24.6939044 C19.7076709,23.1305939 17.3386963,22.6123908 14.3187451,22.8714923 C11.2987939,23.1305939 12.692915,22.1957013 11.6903467,23.848924 C13.418335,25.9185138 12.9832764,28.4379865 12.9832764,29.2707208 C12.9832764,30.1034552 12.2672021,33.8185333 10.3007373,33.2426447 C8.33427246,32.666756 6.96270996,31.2033478 6.06165527,29.2707208 C5.16060059,27.3380939 3.13580566,28.443465 2.61437988,27.8907794 C2.0929541,27.3380939 0.843530273,25.7435236 0.281176758,23.3555353 C-0.0937255859,21.7635431 -0.0937255859,19.8144806 0.281176758,17.5083478 Z" id="path-16"></path>
        <path d="M7.10542736e-15,25.9238534 C4.42137695,18.1674569 6.88364746,14.6199032 7.38681152,15.2811923 C8.14155762,16.2731259 12.148125,19.6701278 14.9500635,20.6427255 C17.752002,21.6153231 23.8645752,24.2366317 27.8265088,25.9238534 C31.7884424,27.6110751 32.4745459,29.5507919 32.4745459,30.9107528 C32.4745459,32.2707138 30.4845557,34.0331845 27.8265088,36.3966806 C25.1684619,38.7601767 20.9757861,39.3624911 18.9087744,39.3624911 C16.8417627,39.3624911 14.1816211,36.8338339 12.148125,33.7239706 C10.1146289,30.6141073 9.55936523,30.7349569 8.6924707,29.5507919 C8.29661936,29.0100648 7.79940461,29.5154227 4.888125,28.4421981 C3.99539766,28.1130999 2.36602266,27.2736517 7.10542736e-15,25.9238534 Z M46.9155908,7.13528408 C52.9204654,1.17122158 56.3203885,-1.05402256 57.11536,0.459551661 C57.9103315,1.97312588 58.8918782,3.38443447 60.06,4.69347744 C55.0612305,7.61062588 51.9501855,9.43550869 50.7268652,10.1681259 C50.3902051,9.68064541 49.1197803,8.66969815 46.9155908,7.13528408 Z" id="path-18"></path>
        <path d="M0.598769531,6.67541016 C-0.199589844,16.3485352 -0.199589844,23.1354492 0.598769531,27.0361523 C1.79630859,32.887207 7.23679688,51.9047461 7.23679688,55.0126758 C7.23679688,58.1206055 9.61517773,60.7087207 10.7904199,64.68 C13.0463197,62.4830078 15.5515052,59.2605664 18.3059766,55.0126758 L24.1895801,4.26325641e-14 L0.598769531,6.67541016 Z" id="path-20"></path>
        <path d="M4.66511719,7.05500122 C1.55503906,9.92617309 -7.10542736e-15,14.5184582 -7.10542736e-15,20.8318567 C-7.10542736e-15,30.3019543 1.84400391,45.0149915 1.84400391,49.4996399 C1.84400391,53.9842883 2.32160156,57.9768372 3.56941406,61.3367786 C4.81722656,64.69672 9.95994141,73.0472668 13.5132422,73.9431653 C17.066543,74.8390637 18.8689746,73.9541223 19.9401855,72.4046692 C20.3440232,71.8205382 18.6228082,72.5513049 17.5499414,70.3640832 C15.7769454,66.7495288 14.0678613,59.0039612 14.0678613,52.4715735 C14.0678613,41.9863391 17.8602832,37.1455872 18.8125781,27.5768762 C19.764873,18.0081653 21.7948242,5.80718872 21.7948242,1.35670044 C21.7948242,-1.61029175 16.0849219,0.289141843 4.66511719,7.05500122 Z" id="path-22"></path>
        <path d="M12.6475683,2.84217094e-14 C6.62392348,5.32855469 2.88281397,10.9314648 1.42423975,16.8087305 C-0.763621577,25.6246289 0.220899907,39.3345609 0.220899907,42.6931594 C0.220899907,46.0517578 0.220899907,79.437832 0.220899907,91.8830859 C5.39455225,96.2994141 19.290646,102.07377 27.8603335,102.07377 C36.430021,102.07377 51.1066421,100.130508 60.2692983,91.8830859 C59.1845523,81.6401953 57.6731265,68.9848242 57.6731265,60.4415625 C57.6731265,51.8983008 57.5938491,31.4905078 58.4517202,26.6823047 C59.3095913,21.8741016 55.4450416,16.7339648 54.1449624,13.4848828 C53.2782429,11.3188281 52.8448832,8.13677734 52.8448832,3.93873047 L12.6475683,2.84217094e-14 Z" id="path-24"></path>
        <path d="M0.0145049998,1.95035156 C-0.0744403128,6.88230469 0.245676875,10.2192578 0.974856562,11.9612109 C2.06862609,14.5741406 3.0154425,16.304707 4.78661437,16.3936523 C6.55778625,16.4825977 15.142298,17.6044505 15.142298,13.3888477 C15.142298,9.17324481 10.1497589,-1.68398628e-12 6.1091925,-1.68398628e-12 C3.41548156,-1.68398628e-12 1.38391906,0.650117187 0.0145049998,1.95035156 Z" id="path-26"></path>
        <path d="M20.8509082,6.71666016 C19.8979198,5.86244141 18.2524607,5.43533203 15.914531,5.43533203 C12.0382324,1.10982296 11.7597949,0.0812109375 8.33088867,0.0812109375 C6.20406413,0.0812109375 3.45385749,1.94344672 1.7953418,5.43533203 C0.779967511,7.57312944 0.340264299,10.8617007 0.214951172,13.1239453 C-0.115048828,19.0813477 3.36541992,35.733457 5.07922852,39.1398047 C6.79303711,42.5461523 12.4045379,51.9356836 9.59878751,65.3367773 C9.08332547,67.7987765 7.65107326,68.9553157 8.33088867,70.8913477 C15.914531,79.6369922 25.7291657,84.1016602 29.9202201,84.1016602 C35.054531,84.1016602 45.5209863,81.8000391 50.2416527,78.5567578 C50.2416527,75.2876953 49.066875,73.370376 49.066875,70.0458838 C52.0120605,75.2876953 57.6156152,89.6375391 61.4331738,92.0951367 C65.2507324,94.5527344 83.3401465,108.308965 87.8015918,109.639922 C92.2630371,110.970879 94.7406152,110.653125 96.9790723,109.639922 C99.2175293,108.626719 100.015964,107.768259 98.8965527,106.254844 C77.4716895,84.1016602 82.5544629,87.4525781 74.1510645,81.190957 C65.747666,74.9293359 58.1180273,52.9830469 58.1180273,51.0958594 C58.1180273,49.2086719 59.8295801,48.96375 59.8295801,45.4923047 C59.8295801,42.0208594 54.6230566,28.9226953 46.2860449,24.3980859 C37.9490332,19.8734766 36.0782813,12.5090625 33.9664746,11.6273438 C32.5586035,11.0395313 28.186748,9.40263672 20.8509082,6.71666016 Z" id="path-28"></path>
        <path d="M2.36405297,1.32 C2.21548852,3.19494141 2.21548852,5.03008301 2.36405297,6.8254248 C1.49594994,5.99961914 0.860361563,6.8254248 0.360527579,7.29706055 C-0.139306406,7.76869629 -0.242592539,8.98089844 0.860361563,10.3321582 C1.96331566,11.683418 6.40204125,13.6405371 10.1683596,13.6405371 C13.934678,13.6405371 17.1283303,11.4459082 18.2069534,11.4459082 C18.2069534,10.3321582 17.7064748,9.18312012 18.2069534,7.48026855 C18.7074319,5.77741699 19.0790041,1.67449219 18.8344045,0.470185547 C18.6713381,-0.332685547 13.1812209,-0.0494140625 2.36405297,1.32 Z" id="path-30"></path>
        <path d="M-1.41398004e-12,63.6373659 C5.68648437,83.2758034 8.52972656,98.5060768 8.52972656,109.328186 C8.52972656,125.56135 8.14429687,129.40759 7.52361328,130.89678 C6.90292969,132.385969 10.6563574,146.35554 14.5177441,150.064173 C18.3791309,153.772805 26.3800195,154.762805 29.2156348,153.768616 C32.05125,152.774426 32.566875,152.270403 32.8704492,151.167288 C33.1740234,150.064173 36.0931055,122.359319 34.4817773,107.251507 C32.8704492,92.143694 30.8775586,74.6627174 27.7161328,67.0643385 C26.6404102,57.8069362 28.0042383,45.5672878 29.2156348,39.9572878 C30.4270313,34.3472878 32.8704492,17.1892213 32.8704492,12.3191432 C32.8704492,7.4490651 33.5053125,6.98629166 32.555918,0.996662753 C31.9229883,-2.99642318 21.5140234,5.00908463 1.32902344,25.0131862 L-1.41398004e-12,63.6373659 Z" id="path-32"></path>
        <path d="M8.56324219,22.573418 C2.85441406,37.7804883 -7.38964445e-13,50.0616016 -7.38964445e-13,59.4167578 C-7.38964445e-13,73.4494922 3.65707031,101.384766 5.32769531,112.642148 C6.99832031,123.899531 8.56324219,156.201182 8.56324219,158.778662 C6.99832031,162.373213 5.3325293,160.093506 4.28162109,164.310029 C3.23071289,168.526553 13.0775391,177.19002 17.2940625,178.733027 C21.5105859,180.276035 35.9803125,188.69168 35.9803125,172.829121 C35.9803125,156.966563 30.6751758,99.5646094 29.5775391,93.2726953 C28.4799023,86.9807813 43.8642188,57.967207 49.3833398,32.2972709 C53.0627539,15.1839802 54.3997266,4.41822322 53.3942578,3.12638804e-12 L8.56324219,22.573418 Z" id="path-34"></path>
        <path d="M24.1035352,1.44999837 C16.2922461,0.164934353 10.9200781,-0.0983984375 7.98703125,0.66 C5.05398438,1.41839844 4.19933594,2.90397732 5.42308594,5.11673665 C1.80769531,5.70326009 0,6.46402181 0,7.39902181 C0,8.80152181 2.24876953,12.5791195 7.98703125,13.5942562 C13.725293,14.6093929 20.9981836,15.8726742 26.4625195,12.6036117 C30.1054102,10.4242367 29.319082,6.70636556 24.1035352,1.44999837 Z" id="path-36"></path>
        <path d="M79.4078323,6.72992448 C76.2150245,7.36407534 74.2906691,8.70345747 73.6347659,10.7480709 C72.6509111,13.814991 63.0660647,16.0825338 59.3967483,20.2687642 C55.7274319,24.4549947 50.4580666,28.2751314 49.3088674,40.1905806 C48.8775789,44.6623872 42.2907063,51.4701835 36.8056057,56.4517818 C27.6752625,64.7440094 17.2443823,71.6263017 13.1003909,73.5006002 C6.46687524,76.5008931 0.657715084,77.7664302 0.051211178,84.237524 C-0.555292728,90.7086177 4.36699243,93.3602193 7.32281274,93.3602193 C10.2786331,93.3602193 15.417803,90.8110982 18.6965334,89.2236177 C21.9752639,87.6361373 42.752051,76.8470064 45.5789651,75.1738033 C45.5789651,81.437358 42.5303323,93.3934127 41.5938284,95.1678072 C45.5789651,97.2902486 55.3326565,104.889985 64.9761331,104.889985 C70.3258883,104.889985 76.293955,104.188415 81.1313088,102.141958 C85.013776,100.499468 86.1431838,99.8419478 90.3519729,96.4994088 C94.560762,93.1568697 98.8333596,86.1537154 98.8333596,85.1956197 C98.8333596,84.237524 95.5533401,64.5385193 102.255821,55.8099549 C108.958301,47.0813904 115.90377,36.7977681 117.339785,26.8120455 C118.775801,16.8263228 119.071641,8.45147377 116.202832,4.22573688 C113.334024,2.84217094e-14 100.569727,2.84217094e-14 98.8333596,2.84217094e-14 C97.6757815,2.84217094e-14 91.2006057,2.24330816 79.4078323,6.72992448 Z" id="path-38"></path>
        <path d="M14.5303125,0.500422893 C7.69286054,1.47403387 0.161132812,6.11235649 0.161132812,10.185794 C0.161132812,14.2592315 14.9919161,32.8780913 16.5212695,34.5419854 C17.5408385,35.6512481 17.5408385,33.4656426 16.5212695,27.985169 C19.6932227,28.2193487 21.6558203,29.705208 22.4090625,32.4427471 C23.5389258,36.5490557 24.6185156,38.4401104 27.4989258,38.4401104 C30.3793359,38.4401104 40.6235156,34.3138213 42.095625,25.9168682 C43.5677344,17.5199151 41.7250195,10.7155987 35.9332617,5.09206352 C30.1415039,-0.531471639 21.3677645,-0.473188084 14.5303125,0.500422893 Z" id="path-40"></path>
        <path d="M16.7827881,0 C13.4497021,4.24960937 10.9942529,6.77359375 9.41644043,7.57195312 C7.04972168,8.76949219 4.83488278,6.89195822 2.42304684,9.13929199 C0.0112109005,11.3866258 0,13.5333838 0,14.6023389 C0,15.6712939 2.371875,13.6838818 2.82933105,13.0198535 C3.28678711,12.3558252 4.26196289,11.3645361 4.26196289,11.8601807 C4.26196289,12.3558252 3.22813477,14.5214502 1.48483887,15.8332324 C-0.258457031,17.1450146 1.64145996,19.3472741 2.23539551,19.6638428 C2.82933105,19.9804115 3.84849609,21.0175195 4.26196289,21.0175195 C4.67542969,21.0175195 6.27032227,21.0203053 6.83009766,21.3004115 C7.38987305,21.5805176 8.25805664,22.4736768 9.41644043,22.2049072 C10.5748242,21.9361377 14.4706934,20.5320264 15.0245068,19.3884668 C15.5783203,18.2449072 16.224624,15.0609694 16.224624,14.0404115 C16.224624,13.0198535 18.7913086,8.33942871 20.6831689,6.45304687 C21.9444092,5.19545898 23.3942822,3.78844727 25.0327881,2.23201172 L16.7827881,0 Z" id="path-42"></path>
        <path d="M43.9733238,0.00166861575 C37.1458302,-0.0677965967 32.965031,2.03163886 31.4309262,6.29997498 C29.1297691,12.7024792 21.361234,35.2778307 18.4975816,40.6106823 C15.6339293,45.9435339 15.9626402,48.1181823 13.030023,50.443651 C10.0974058,52.7691198 1.57928085,62.8992174 0.190960533,64.9301354 C-0.734586342,66.2840807 1.70431991,68.5474596 7.50767928,71.7202721 C13.1683824,67.7142956 16.8316832,64.984276 18.4975816,63.5302135 C20.9964293,61.3491198 26.7263121,55.6579089 28.0398668,50.443651 C28.9155699,46.9674792 35.5386656,31.031444 47.9091539,2.63554557 L43.9733238,0.00166861575 Z" id="path-44"></path>
        <path d="M19.485648,-1.87583282e-12 C13.0371388,10.1410547 8.98889817,16.555 7.34092624,19.2418359 C4.86896835,23.2720898 -1.12265752e-12,29.3680664 -1.12265752e-12,35.3357812 C-1.12265752e-12,41.3034961 6.54699243,44.0037598 9.22342147,49.0233691 C11.8998505,54.0429785 8.36748397,60.7232227 8.36748397,62.9091504 C11.137357,70.5162305 20.7022008,74.3328223 24.8059312,74.9096777 C28.9096617,75.4865332 36.2034996,75.7984863 38.0607164,75.354082 C36.2492613,80.1864551 32.665023,87.5702051 28.6698961,92.2172754 C25.8098606,95.5440247 31.1222472,98.6852891 35.7481383,97.8827051 C37.584063,97.5641753 38.725107,95.7184926 40.0974351,94.395791 C44.9275523,89.7403418 56.0647301,71.3035254 57.1423863,68.4779004 C58.2200426,65.6522754 59.9564098,35.5510547 58.7479137,23.9765625 C55.7447203,15.0597949 52.5550886,10.1992667 45.6400816,6.19286044 C41.030077,3.52192294 32.3119324,1.45763613 19.485648,-1.87583282e-12 Z" id="path-46"></path>
        <path d="M0,11.3235003 C0.00794921875,13.8771331 0.283486328,15.5676311 0.826611328,16.3949944 C1.64129883,17.6360393 4.28740885,18.0192132 7.05858398,17.2071038 C9.82975912,16.3949944 15.0675309,13.5944202 16.5383512,12.4589602 C18.0091715,11.3235003 18.0555793,8.79145926 16.0050031,7.98966239 C16.0050031,4.97583426 15.95215,2.7952454 16.989523,0.629115511 C17.6811051,-0.814971082 12.0179307,2.74982384 0,11.3235003 Z" id="path-48"></path>
        <path d="M21.5805046,6.4162009e-12 C28.003903,6.4162009e-12 35.8845866,6.24164063 36.8133561,9.41080078 C37.3135,11.1173986 38.5182925,14.5532124 38.3086686,18.1570898 C38.1290199,21.2456298 36.2652573,26.0440388 35.4163346,28.2552832 L34.9978874,28.2554725 C32.7723269,28.2606424 30.6657223,28.3827866 29.658737,31.0415918 C28.9718872,32.8551236 27.9217998,34.9778389 26.2481774,36.2653838 C26.1064979,36.3743802 25.9603499,36.4773914 25.8095755,36.5737232 C26.2952601,35.7759361 24.2771917,31.3996636 23.3471647,29.858877 C22.3220378,28.1605371 18.07361,23.2814355 17.1712663,23.2814355 C16.2689225,23.2814355 17.1800548,24.3652579 18.4092497,26.9101465 C18.8443083,27.8108789 20.0650943,29.6785184 20.8402604,30.8176172 C22.7536756,33.6293614 24.7666305,36.7005762 25.5785319,36.7005762 L25.6061311,36.6979464 C24.8091868,37.1623319 23.8879451,37.4417871 22.8209049,37.4417871 C19.0043131,37.4417871 13.437819,33.8279004 12.4036686,31.0415918 C11.3695182,28.2552832 9.88161783,25.871001 9.36341471,22.2959473 C8.84521158,18.7208936 7.24677408,18.7107422 6.7056901,21.7493848 C6.16460612,24.7880273 6.44094889,26.6968066 6.7056901,27.8108789 C6.97043131,28.9249512 2.76373698,27.0815918 0.703170569,24.8347559 C-1.35739584,22.5879199 1.76664713,24.4873535 1.76664713,23.3916504 C1.76664713,22.2959473 1.40023112,22.9153418 0.703170569,19.7307129 C0.401143994,18.3508578 -0.000603446,16.0600169 0.703170569,14.0046973 C0.955886251,13.2666599 1.70730227,11.9763083 2.95741862,10.1336426 C5.11015299,7.43112305 6.7081608,5.62976563 7.75144205,4.72957031 C9.31636393,3.37927734 15.1571061,6.4162009e-12 21.5805046,6.4162009e-12 Z" id="path-50"></path>
    </defs>
    <g id="New-v2" stroke="none" stroke-width="1" fill="none" fill-rule="evenodd">
        <g id="Case-Study-upperroom" transform="translate(-40.000000, -2540.000000)">
            <g id="ill" transform="translate(40.000000, 2540.000000)">
                <g id="shade" transform="translate(0.000000, 230.089922)">
                    <path d="M282.120996,-7.95807864e-13 L388.380996,61.71 L358.837093,78.7320487 C357.123784,81.6753261 356.669959,87.0565512 360.99293,88.1364258 C365.807578,89.3391211 369.110801,87.9740039 373.86873,89.1766992 C378.62666,90.3793945 378.733652,92.0203711 378.733652,96.2394727 L378.733071,96.3955795 C378.716256,98.6398489 378.313092,103.323111 374.731758,106.729219 C371.29118,110.001458 364.632293,111.986783 360.99293,112.696934 C353.475117,114.163887 346.897031,109.074668 345.747832,104.854922 C344.598633,100.635176 341.653125,96.2394727 336.24293,96.2394727 C332.602113,96.2394727 328.109275,97.2943548 324.426978,98.5602678 L283.14,122.350078 L236.364047,95.1862431 C234.049029,93.4279425 235.070751,90.7777068 236.617412,88.6894336 C238.169287,86.5941211 243.035102,86.5072934 244.575076,86.5039552 L244.806986,86.5031653 C246.615747,86.4804293 259.529251,85.8113249 256.733555,75.2789941 C253.880215,64.529502 237.244541,62.4815039 233.584248,61.9678125 C229.923955,61.4541211 222.257256,63.9020508 222.257256,69.4037695 C222.257256,74.9054883 219.133535,78.339873 217.274707,79.6295801 C216.49044,80.1737267 214.268951,80.373498 210.610242,80.2288938 L176.88,60.6400781 L282.120996,-7.95807864e-13 Z" id="Combined-Shape" fill="#D9ECFF"></path>
                    <path d="M151.110996,85.7200781 L185.014973,105.410053 C187.13219,105.38106 188.478072,105.167246 189.052617,104.76861 C190.911445,103.478903 194.035166,100.044519 194.035166,94.5427998 C194.035166,89.041081 201.701865,86.5931513 205.362158,87.1068427 C209.022451,87.6205341 225.658125,89.6685322 228.511465,100.418024 C231.307161,110.950355 218.393657,111.61946 216.584896,111.642196 L216.487412,111.642858 C215.120361,111.642858 209.995693,111.667673 208.395322,113.828464 C207.425563,115.137815 206.662173,116.668092 206.798247,118.060916 L257.370996,147.430078 L219.31907,169.354082 C218.272217,172.343077 218.513995,176.327689 222.167344,177.240293 C226.981992,178.442988 230.285215,177.077871 235.043145,178.280566 C239.801074,179.483262 240.148477,184.277285 240.148477,188.496387 C240.148477,192.715488 239.179612,195.35004 235.513008,198.837246 C232.07243,202.109485 226.579805,208.070156 220.639805,209.716934 C214.699805,211.363711 207.090469,212.83002 203.234238,208.070156 C199.378008,203.310293 203.091182,197.01709 204.750498,194.393848 C207.237133,190.462681 202.827539,185.34334 197.417344,185.34334 C195.028859,185.34334 192.273686,185.797335 189.621231,186.467073 L152.13,208.070156 L45.87,146.360156 L151.110996,85.7200781 Z" id="Combined-Shape" fill="#D9ECFF"></path>
                    <path d="M410.160996,104.860078 L516.420996,166.570078 L411.18,227.210156 L372.482801,204.737479 C372.80345,203.628543 373.348142,202.764591 374.116875,202.145625 C377.428477,199.479199 377.428477,200.389277 384.230215,198.648398 C391.031953,196.90752 389.651367,191.038418 388.74,186.378457 C387.828633,181.718496 377.976973,174.453984 368.622891,173.06502 C359.268809,171.676055 358.09125,174.453984 356.305898,176.391445 C354.520547,178.328906 356.465742,185.641113 353.816074,189.188613 C352.985209,190.301015 351.711253,191.130413 349.994205,191.676806 L304.92,165.500156 L339.908379,145.341282 C340.606926,145.156795 341.20677,144.937182 341.70791,144.682441 C345.425566,142.792676 352.717148,140.46334 358.127344,140.46334 C363.537539,140.46334 366.483047,144.859043 367.632246,149.078789 C368.781445,153.298535 375.359531,158.387754 382.877344,156.920801 C386.516707,156.210651 393.175594,154.225325 396.616172,150.953086 C400.282776,147.46588 400.618066,142.63998 400.618066,140.46334 C400.618066,136.244238 400.511074,134.603262 395.753145,133.400566 C390.995215,132.197871 387.691992,133.562988 382.877344,132.360293 C378.062695,131.157598 379.173223,124.619473 381.349805,122.056172 C381.617061,121.741431 381.875623,121.394696 382.125491,121.015966 L410.160996,104.860078 Z" id="Combined-Shape" fill="#D9ECFF"></path>
                    <path d="M270.900996,185.710078 L314.695323,211.143263 C316.406752,210.596829 317.677003,209.768613 318.506074,208.658613 C321.155742,205.111113 319.210547,197.798906 320.995898,195.861445 C322.78125,193.923984 323.958809,191.146055 333.312891,192.53502 C342.666973,193.923984 352.518633,201.188496 353.43,205.848457 C354.341367,210.508418 355.721953,216.37752 348.920215,218.118398 C342.118477,219.859277 342.118477,218.949199 338.806875,221.615625 C338.040017,222.233081 337.49611,223.094328 337.175152,224.199367 L377.160996,247.420078 L271.92,308.060156 L165.66,246.350156 L197.304749,228.116073 C201.197743,226.309925 207.880972,224.28334 212.927344,224.28334 C218.337539,224.28334 222.747133,229.402681 220.260498,233.333848 C218.601182,235.95709 214.888008,242.250293 218.744238,247.010156 C222.600469,251.77002 230.209805,250.303711 236.149805,248.656934 C242.089805,247.010156 247.58243,241.049485 251.023008,237.777246 C254.689612,234.29004 255.658477,231.655488 255.658477,227.436387 C255.658477,223.217285 255.311074,218.423262 250.553145,217.220566 C245.795215,216.017871 242.491992,217.382988 237.677344,216.180293 C232.862695,214.977598 233.973223,208.439473 236.149805,205.876172 C236.223189,205.789749 236.295918,205.700914 236.367991,205.609667 L270.900996,185.710078 Z" id="Combined-Shape" fill="#D9ECFF"></path>
                    <path d="M90.0423047,133.72219 C79.3362109,121.132345 66.2412695,119.101641 50.7574805,127.630078 C27.5317969,140.422734 2.70832031,155.866588 0.290039063,158.980078 C-2.12824219,162.093569 13.5390234,173.572266 22.7074805,177.646992 C31.8759375,181.721719 38.0052375,195.802148 69.9604523,173.247744 C91.2639289,158.211475 97.9578797,145.03629 90.0423047,133.72219 Z" id="Path-62" fill="#D8ECFF"></path>
                    <path d="M181.83,327.678398 C204.794,327.678398 218.744238,317.346586 218.744238,305.500078 C218.744238,293.65357 199.196891,284.19832 176.232891,284.19832 C153.268891,284.19832 137.94,293.65357 137.94,305.500078 C137.94,317.346586 158.866,327.678398 181.83,327.678398 Z" id="Oval" fill="#D8ECFF"></path>
                    <path d="M486.716484,231.22043 C470.025273,239.733778 460.102285,246.255828 456.94752,250.786582 C452.215371,257.582711 486.67459,271.108535 494.569453,275.432695 C502.464316,279.756855 519.46273,268.348626 524.655718,265.125326 C527.318967,263.472241 541.063359,256.059201 554.25106,248.006924 C567.438761,239.954647 573.164503,236.431391 564.21041,232.068633 C545.829668,223.112871 534.342832,206.442367 519.959473,213.408957 C510.370566,218.05335 499.28957,223.990508 486.716484,231.22043 Z" id="Path-103" fill="#D9ECFF"></path>
                </g>
                <g id="1-lower-body" transform="translate(14.296608, 215.392175)">
                    <g id="1-shoes" transform="translate(8.410872, 152.212325)">
                        <mask id="mask-2" fill="white">
                            <use xlink:href="#path-1"></use>
                        </mask>
                        <use id="Path-46" fill="#FFFFFF" xlink:href="#path-1"></use>
                        <path d="M24.0909668,9.44735858 C28.4336035,13.8247055 31.2651367,16.9315189 32.5855664,18.7677989 C33.9059961,20.6040789 35.7856641,22.9163399 38.2245703,25.7045821 L44.2364355,35.7331661 C54.9105455,26.7139123 59.472108,21.2612301 57.921123,19.3751194 C49.669381,9.34040005 30.4346801,-2.63409925 27.0342187,-3.55584756 C22.6750391,-4.73747152 19.8923828,-1.49204183 18.68625,6.1804415 L24.0909668,9.44735858 Z" id="Path-47" fill="url(#linearGradient-3)" opacity="0.747767857" mask="url(#mask-2)"></path>
                        <path d="M37.774043,25.1232149 C36.4907786,23.9485164 36.2460715,23.4284871 37.0399219,23.563127 C38.939418,23.8852887 45.1863662,26.3827013 46.6276465,26.6011251 C50.1448535,27.1341524 54.2022394,26.0236251 55.2356836,22.820627 C56.2691278,19.617629 55.2356836,20.1419708 55.2356836,19.4548849 C55.2356836,18.9968275 56.1308301,20.5115834 57.921123,23.9991524 L50.8857422,30.9936056 L37.774043,25.1232149 Z" id="Path-48" fill="#1A0806" mask="url(#mask-2)"></path>
                        <path d="M-0.621328125,13.1787618 C0.150820312,13.760129 0.760869141,14.3337618 1.20881836,14.8996602 C1.88074219,15.7485079 4.33962891,18.8601703 5.71022461,19.3751194 C7.08082031,19.8900685 7.91258789,19.3641608 8.5068457,19.9389278 C8.90589925,20.324893 11.0052114,24.3238051 13.4152734,27.3426583 C14.5941989,28.819385 15.8819653,29.7521779 17.0146582,30.5121407 C18.6473779,31.6075888 20.3027344,32.6439278 23.1625195,33.585588 C26.0223047,34.5272481 28.2363855,35.7331661 30.8169727,35.7331661 C35.7183105,35.7331661 37.7089453,35.1920821 39.0663281,33.585588 C39.97125,32.5145919 40.2533398,31.6505977 39.9125977,30.9936056 L42.2503125,36.4121798 L14.7494531,44.2071407 L-3.03316406,22.0494454 L-0.621328125,13.1787618 Z" id="Path-49" fill="#1A0806" mask="url(#mask-2)"></path>
                    </g>
                    <mask id="mask-5" fill="white">
                        <use xlink:href="#path-4"></use>
                    </mask>
                    <use id="Path-43" fill="#3B1D3D" xlink:href="#path-4"></use>
                    <path d="M39.2278449,153.761165 C39.3643162,139.543235 39.8042315,128.457942 40.5475909,120.505286 C41.66263,108.576302 43.2883918,87.8932938 48.4936261,83.7953641 C53.6988605,79.6974344 59.8350586,25.2791717 59.7039582,16.1162557 C59.5728577,6.95333968 56.5090168,-1.51532884 59.7039582,-3.46914424 C61.8339191,-4.77168783 67.1811652,29.2456906 75.7456965,98.5829909 C69.4638478,126.676714 64.1166017,144.05731 59.7039582,150.724778 C55.2913146,157.392246 48.4659436,158.404375 39.2278449,153.761165 Z" id="Path-44" fill="#684467" mask="url(#mask-5)"></path>
                    <path d="M24.1300226,161.592864 C23.4835578,142.456731 23.1603254,132.103626 23.1603254,130.533548 C23.1603254,128.17843 23.8106574,113.860169 25.2995246,107.138997 C26.7883918,100.417825 29.4915558,86.3193485 29.4915558,78.9736258 C29.4915558,71.6279031 26.9353449,48.0999344 28.2134504,36.1677274 C29.0655207,28.2129227 30.1855011,21.0562625 31.5733918,14.6977469 L41.8433527,13.5885086 C39.9975232,35.7625321 38.6078396,48.1338797 37.6743021,50.7025516 C36.2739958,54.5555594 34.5343683,55.72345 34.5343683,65.6608328 C34.5343683,75.5982156 34.0559266,86.9522781 32.501839,92.6080399 C30.9477515,98.2638016 29.340091,101.074602 28.2134504,112.957825 C27.0868097,124.841048 26.5183332,132.915091 27.7964386,143.088372 C29.0745441,153.261653 29.2769269,156.733098 28.7451886,159.162981 C28.3906965,160.782903 26.8523078,161.592864 24.1300226,161.592864 Z" id="Path-45" fill="#684467" mask="url(#mask-5)"></path>
                </g>
                <g id="1-body" transform="translate(2.124759, 122.503477)">
                    <mask id="mask-7" fill="white">
                        <use xlink:href="#path-6"></use>
                    </mask>
                    <use id="Path-30" fill="#6EF3B3" xlink:href="#path-6"></use>
                    <path d="M26.7118494,12.2494786 C25.2471937,14.7185645 24.7589752,17.1004281 25.2471937,19.3950694 C25.9795216,22.8370313 31.9174476,31.8897949 36.0901429,33.8229053 C40.2628383,35.7560156 46.4002284,39.9145313 52.7168751,37.3853906 C59.0335218,34.85625 61.1750889,32.9039648 61.1750889,23.7084375 C61.1750889,14.5129102 53.9315736,10.3447266 48.9678773,7.14205078 C45.6587465,5.00693359 38.2400705,6.70940954 26.7118494,12.2494786 Z" id="Path-33" fill="#3FCA89" mask="url(#mask-7)"></path>
                    <path d="M55.1866612,2.92166016 C61.2632858,2.95809695 64.8746937,3.69726687 66.0208851,5.13916992 C67.7401722,7.3020245 70.2383754,12.6366797 71.0076234,14.8351758 C71.7768715,17.0336719 70.8577699,8.82588867 67.8645668,3.42632812 C64.8713636,-1.97323242 63.7420466,-1.24620117 61.1750889,-1.24620117 C59.4637838,-1.24620117 57.4676412,0.143085937 55.1866612,2.92166016 Z" id="Path-34" fill="#3FCA89" mask="url(#mask-7)"></path>
                    <path d="M74.3759437,53.7974121 C74.3759437,56.6188477 74.4012416,61.7484302 73.4220375,63.8543555 C72.7692347,65.2583057 72.2538246,66.5065479 71.875807,67.599082 L88.3828968,82.8622266 C90.3353968,81.6219336 91.7870961,80.6844629 92.7379945,80.0498145 C90.2307679,76.3195898 81.4783558,61.7484302 74.3759437,53.7974121 Z" id="Path-35" fill="#3FCA89" mask="url(#mask-7)"></path>
                    <path d="M-1.09093128,33.8743066 C3.39715466,36.7817871 7.28733044,43.5634375 10.5795961,54.2192578 C15.5179945,70.2029883 18.6587251,83.1780469 25.0641118,88.0558594 C31.4694984,92.9336719 44.6566078,99.8797852 45.7510218,100.889121 C44.8310609,103.073223 43.9539204,104.935918 43.1196003,106.477207 C32.4675142,100.801895 24.1622328,95.2864258 18.2037562,89.9308008 C12.2452797,84.5751758 5.05875622,70.0704297 -3.35581409,46.4165625 L-1.09093128,33.8743066 Z" id="Path-36" fill="#3FCA89" mask="url(#mask-7)"></path>
                    <polygon id="Path-37" fill="#3FCA89" mask="url(#mask-7)" points="36.3018715 98.9358691 36.3018715 111.441064 13.3004847 101.750215 12.4020082 89.2620996 20.1170472 88.1106445"></polygon>
                    <path d="M13.9047328,27.4090137 C15.9150258,27.8160352 21.3935414,29.8131152 21.9165785,36.6000293 C22.4396156,43.3869434 22.9823109,56.8399219 23.6796937,60.0719238 C24.3770765,63.3039258 26.0019398,68.2819629 26.0019398,70.1757568 C26.0019398,72.0695508 30.7353773,75.0901465 31.817223,75.8761523 C31.817223,73.9216113 30.7930629,69.8330273 30.0254261,67.4302148 C29.2577894,65.0274023 27.6719203,61.4363965 26.83693,56.7616113 C26.0019398,52.0868262 25.0641118,42.3856171 25.0641118,40.0946777 C25.0641118,37.8037384 24.7695961,33.7795605 21.9165785,30.0512695 C19.0635609,26.3229785 18.4461,22.9930078 12.9530824,22.9930078 C9.29107067,22.9930078 7.9132777,24.2225586 8.81970348,26.6816602 C10.8695277,26.8952148 12.5645375,27.137666 13.9047328,27.4090137 Z" id="Path-38" fill="#3FCA89" mask="url(#mask-7)"></path>
                    <path d="M87.9175453,83.2847168 C93.2095765,79.7393652 97.2881703,77.5632129 100.153327,76.7562598 C103.018483,75.9493066 105.367155,77.9846289 107.199342,82.8622266 C100.572487,88.0696094 96.9187465,90.9680664 96.2381215,91.5575977 C95.5574965,92.1471289 92.7839711,89.389502 87.9175453,83.2847168 Z" id="Path-39" fill="#FFFFFF" mask="url(#mask-7)"></path>
                    <path d="M43.1196003,106.477207 C46.0679829,99.7083398 48.2013148,95.7814258 49.5195961,94.6964648 C50.8378773,93.6115039 52.3084828,93.0058594 53.9314125,92.8795312 L56.5727015,98.2033594 L51.1206117,111.441064 L43.1196003,106.477207 Z" id="Path-40" fill="#FFFFFF" mask="url(#mask-7)"></path>
                </g>
                <g id="4-lower-bidy" transform="translate(345.419021, 107.577100)">
                    <g id="Path-132" transform="translate(20.218053, 102.392116)">
                        <mask id="mask-9" fill="white">
                            <use xlink:href="#path-8"></use>
                        </mask>
                        <use id="Path-131" fill="#FEAD7F" xlink:href="#path-8"></use>
                        <path d="M12.6117725,-0.0892153456 C12.774559,26.9510735 11.9265785,44.396296 10.0678308,52.2464521 C8.20908311,60.0966082 1.88411497,58.3777212 -8.90707362,47.0897912 L-6.10423674,4.53115915 L12.6117725,-0.0892153456 Z" id="Path-133" fill="#ED996D" mask="url(#mask-9)"></path>
                    </g>
                    <g id="Group-28" transform="translate(0.210862, 0.040713)">
                        <mask id="mask-11" fill="white">
                            <use xlink:href="#path-10"></use>
                        </mask>
                        <use id="Path-127" fill="#BE3D74" xlink:href="#path-10"></use>
                        <path d="M4.51594785,1.90029297 C9.15474709,9.92449219 14.0691772,14.540625 19.2592383,15.7486914 C27.0443299,17.560791 40.0409596,18.0061621 48.7652344,14.8846973 C54.5814176,12.8037207 56.4513101,9.21550781 54.3749121,4.12005859 L7.80011719,-3.89662109 L4.51594785,1.90029297 Z" id="Path-129" fill="#323454" mask="url(#mask-11)"></path>
                        <path d="M56.6755664,10.8618555 C51.0464211,18.7720346 47.2681789,23.7445932 45.3408398,25.7795313 C40.5557804,30.8317298 36.6128026,33.8838672 34.5897719,33.8838672 C31.3444785,33.8838672 28.9738788,38.5842188 27.4779728,47.9849219 L-0.702789837,38.9614375 L-5.61,18.0335547 L7.80011719,-4.95 L56.6755664,10.8618555 Z" id="Path-130" fill="#89254F" mask="url(#mask-11)"></path>
                    </g>
                </g>
                <g id="jigsaws" transform="translate(45.870000, 101.389922)">
                    <g id="b" transform="translate(131.010000, 0.000000)">
                        <path d="M211.500996,61.71 L211.500996,78.54 L181.74605,95.871042 C180.020799,98.8087697 179.552167,104.217369 183.887344,105.300293 C188.701992,106.502988 201.40248,87.7187695 201.628066,93.7419141 C201.822321,98.9285107 201.849301,106.300594 201.853048,110.942345 L201.853652,112.954642 C201.853652,115.131281 201.292776,120.40588 197.626172,123.893086 C194.185594,127.165325 187.526707,129.150651 183.887344,129.860801 C176.369531,131.327754 169.791445,126.238535 168.642246,122.018789 C167.493047,117.799043 164.547539,113.40334 159.137344,113.40334 C155.756213,113.40334 151.640271,114.313107 148.121095,115.456783 L106.26,139.840078 L106.26,122.020078 L211.500996,61.71 Z" id="Combined-Shape" fill="#4C78FF"></path>
                        <path d="M56.8621582,62.0268427 C60.5224512,62.5405341 77.158125,64.5885322 80.0114648,75.3380244 C81.4628441,80.8058588 78.6803697,83.6154132 75.4157868,85.0562889 C69.3364315,80.1212888 59.5641066,78.9060385 56.8621582,78.5268427 C53.2018652,78.0131513 45.535166,80.461081 45.535166,85.9627998 C45.535166,88.4765918 44.8830361,90.5587927 43.9973965,92.2020247 C41.1513066,96.0649848 38.1235937,97.9964648 34.9142578,97.9964648 C31.769375,96.3941602 28.8212891,90.291542 26.07,79.6886103 C34.4858594,80.548415 38.489043,80.548415 39.7282617,79.6886103 C41.5870898,78.3989033 45.3772559,74.9054883 45.3772559,69.4037695 C45.3772559,63.9020508 53.2018652,61.5131513 56.8621582,62.0268427 Z" id="Shape" fill="#4C78FF"></path>
                        <polygon id="Rectangle" fill="#103EC3" points="58.6330078 94.616543 106.26 122.020078 106.26 139.510078 58.6330078 112.106543"></polygon>
                        <polygon id="Rectangle" fill="#103EC3" points="-2.84217094e-14 60.3100781 34.9142578 80.5064648 34.9142578 97.9964648 -2.84217094e-14 77.8000781"></polygon>
                        <path d="M105.240996,-1.59161573e-12 L211.500996,61.71 L181.957093,78.7320487 C180.243784,81.6753261 179.789959,87.0565512 184.11293,88.1364258 C188.927578,89.3391211 192.230801,87.9740039 196.98873,89.1766992 C201.74666,90.3793945 201.853652,92.0203711 201.853652,96.2394727 L201.853071,96.3955795 C201.836256,98.6398489 201.433092,103.323111 197.851758,106.729219 C194.41118,110.001458 187.752293,111.986783 184.11293,112.696934 C176.595117,114.163887 170.017031,109.074668 168.867832,104.854922 C167.718633,100.635176 164.773125,96.2394727 159.36293,96.2394727 C155.722113,96.2394727 151.229275,97.2943548 147.546978,98.5602678 L106.26,122.350078 L59.4840474,95.1862431 C57.1690292,93.4279425 58.1907507,90.7777068 59.7374121,88.6894336 C61.2892871,86.5941211 66.1551015,86.5072934 67.6950757,86.5039552 L67.9269863,86.5031653 C69.7357468,86.4804293 82.6492513,85.8113249 79.8535547,75.2789941 C77.0002148,64.529502 60.364541,62.4815039 56.704248,61.9678125 C53.0439551,61.4541211 45.3772559,63.9020508 45.3772559,69.4037695 C45.3772559,74.9054883 42.2535352,78.339873 40.394707,79.6295801 C39.6104397,80.1737267 37.3889514,80.373498 33.7302421,80.2288938 L1.42108547e-12,60.6400781 L105.240996,-1.59161573e-12 Z" id="Combined-Shape" fill="#8CC1FF"></path>
                    </g>
                    <g id="y" transform="translate(0.000000, 85.720078)">
                        <path d="M211.500996,61.05 L211.500996,77.88 L169.737764,102.20586 C179.52293,99.0280851 187.703167,98.2628243 194.278477,99.9100781 L194.278077,103.653405 C194.268496,132.123993 194.028966,125.822447 188.040703,131.726719 C181.80293,137.877002 170.303203,140.922246 164.510801,140.922246 C160.766217,140.922246 157.818301,139.269317 155.667051,135.963458 L155.467705,135.648691 L155.467705,118.173677 C151.993529,118.173677 150.552046,115.065173 141.972455,118.378446 L106.26,139.180078 L106.26,121.360078 L211.500996,61.05 Z M183.036061,17.2637695 L183.036061,34.1685352 C183.036061,39.7849805 179.867068,41.9658594 173.529082,40.7111719 C167.191096,39.4564844 160.013596,37.2756055 151.996582,34.1685352 L165.924258,19.1651367 L183.036061,17.2637695 Z" id="Combined-Shape" fill="#FF940E"></path>
                        <polygon id="Rectangle" fill="#EE7200" points="106.26 121.360078 0 60.6400781 0 77.4700781 106.26 139.180078"></polygon>
                        <path d="M105.240996,-1.22213351e-12 L139.144973,19.6899747 C141.26219,19.6609819 142.608072,19.4471678 143.182617,19.0485322 C145.041445,17.7588251 148.165166,14.3244404 148.165166,8.82272163 C148.165166,3.32100288 155.831865,0.873073197 159.492158,1.3867646 C163.152451,1.90045601 179.788125,3.94845406 182.641465,14.6979462 C185.437161,25.230277 172.523657,25.8993814 170.714896,25.9221174 L170.617412,25.9227802 C169.250361,25.9227802 164.125693,25.9475947 162.525322,28.1083857 C161.555563,29.4177371 160.792173,30.9480137 160.928247,32.3408381 L211.500996,61.71 L173.44907,83.6340043 C172.402217,86.6229986 172.643995,90.6076113 176.297344,91.5202148 C181.111992,92.7229102 184.415215,91.357793 189.173145,92.5604883 C193.931074,93.7631836 194.278477,98.557207 194.278477,102.776309 C194.278477,106.99541 193.309612,109.629962 189.643008,113.117168 C186.20243,116.389407 180.709805,122.350078 174.769805,123.996855 C168.829805,125.643633 161.220469,127.109941 157.364238,122.350078 C153.508008,117.590215 157.221182,111.297012 158.880498,108.67377 C161.367133,104.742603 156.957539,99.6232617 151.547344,99.6232617 C149.158859,99.6232617 146.403686,100.077257 143.751231,100.746995 L106.26,122.350078 L1.47792889e-12,60.6400781 L105.240996,-1.22213351e-12 Z" id="Combined-Shape" fill="#FFD300"></path>
                    </g>
                    <g id="g" transform="translate(259.050000, 104.860078)">
                        <path d="M106.26,122.1 C80.5221484,102.906719 67.6532227,95.5371484 67.6532227,99.9912891 C67.6532227,106.6725 66.7399219,115.115859 67.6532227,116.821289 C68.2620898,117.958242 81.1310156,125.657812 106.26,139.92 L106.26,122.1 Z" id="Rectangle" fill="#279563"></path>
                        <polygon id="Rectangle" fill="#279563" points="44.1375 86.3633203 -5.1159077e-13 60.72 -5.1159077e-13 77.55 44.1375 104.18332"></polygon>
                        <polygon id="Rectangle" fill="#47CB8C" points="106.26 122.1 211.500996 61.6326563 211.500996 78.4626563 106.26 139.92"></polygon>
                        <path d="M44.1375,104.18332 C48.3948437,102.122753 50.5235156,98.863144 50.5235156,94.4044922 C50.5235156,87.7165145 51.9102246,83.2863281 55.4071289,83.2863281 C58.9040332,83.2863281 69.6035742,83.4203906 76.5322852,89.986875 C81.1514258,94.3645313 82.5504883,97.9610156 80.7294727,100.776328 L96.740918,77.8381055 L55.4071289,63.7447852 L44.1375,77.8381055 L44.1375,104.18332 Z" id="Path-17" fill="#47CB8C"></path>
                        <path d="M74.6444531,23.5089551 L74.6444531,40.2374414 C75.1351878,42.3124023 76.8266527,43.7518555 79.7188477,44.5558008 C84.0571401,45.7617188 86.7042773,44.4024023 94.8453516,45.6083203 C100.272734,46.4122656 104.427383,41.4692306 107.309297,30.7792153 L74.6444531,23.5089551 Z" id="Path-18" fill="#279563"></path>
                        <path d="M105.240996,-1.5063506e-12 L211.500996,61.71 L106.26,122.350078 L67.5628011,99.8774007 C67.8834505,98.7684646 68.4281417,97.9045133 69.196875,97.2855469 C72.5084766,94.6191211 72.5084766,95.5291992 79.3102148,93.7883203 C86.1119531,92.0474414 84.7313672,86.1783398 83.82,81.5183789 C82.9086328,76.858418 73.0569727,69.5939062 63.7028906,68.2049414 C54.3488086,66.8159766 53.17125,69.5939062 51.3858984,71.5313672 C49.6005469,73.4688281 51.5457422,80.7810352 48.8960742,84.3285352 C48.0652088,85.4409368 46.7912525,86.2703345 45.0742054,86.8167282 L1.53477231e-12,60.6400781 L34.9883785,40.4812044 C35.6869264,40.2967173 36.2867703,40.0771036 36.7879102,39.8223633 C40.5055664,37.9325977 47.7971484,35.6032617 53.2073438,35.6032617 C58.6175391,35.6032617 61.5630469,39.9989648 62.7122461,44.2187109 C63.8614453,48.438457 70.4395313,53.5276758 77.9573438,52.0607227 C81.5967074,51.3505725 88.255594,49.3652466 91.6961719,46.0930078 C95.3627759,42.6058018 95.6980664,37.7799015 95.6980664,35.6032617 C95.6980664,31.3841602 95.5910742,29.7431836 90.8331445,28.5404883 C86.0752148,27.337793 82.7719922,28.7029102 77.9573438,27.5002148 C73.1426953,26.2975195 74.2532227,19.7593945 76.4298047,17.1960937 C76.6970614,16.8813529 76.9556234,16.5346175 77.2054907,16.1558875 L105.240996,-1.5063506e-12 Z" id="Combined-Shape" fill="#6CF0B0"></path>
                    </g>
                    <g id="r" transform="translate(119.790000, 185.710078)">
                        <path d="M0,60.72 L106.26,121.77 L106.26,139.59 L0,77.55 L0,60.72 Z M55.2466406,44.3914453 L55.2466406,64.5264358 L48.9908203,66.9249023 L44.6273438,49.2067383 L55.2466406,44.3914453 Z M68.5072266,25.5864358 L97.9809961,30.4843945 L97.9809961,51.6501563 L85.6897852,54.9920508 C88.0663867,50.8803711 88.0663867,48.2062109 85.6897852,46.9695703 C82.1248828,45.1146094 78.4723242,46.9695703 74.4884766,46.9695703 C70.5046289,46.9695703 68.5072266,44.8645313 68.5072266,42.4037109 L68.5072266,42.4037109 L68.5072266,25.5864358 Z" id="Combined-Shape" fill="#8C0038"></path>
                        <path d="M211.500996,61.1028516 L211.500996,77.9328516 L106.26,139.59 L106.26,121.77 L211.500996,61.1028516 Z M188.537589,22.3568555 L188.537589,42.8935547 C188.537589,44.9753906 188.388105,47.3002148 185.147402,47.3002148 L170.310938,47.3002148 L170.310938,47.3002148 L166.908457,34.8285352 L188.537589,22.3568555 Z" id="Combined-Shape" fill="#BE0858"></path>
                        <path d="M105.240996,-2.35900188e-12 L149.035323,25.4331846 C150.746752,24.8867512 152.017003,24.0585347 152.846074,22.9485352 C155.495742,19.4010352 153.550547,12.0888281 155.335898,10.1513672 C157.12125,8.21390625 158.298809,5.43597656 167.652891,6.82494141 C177.006973,8.21390625 186.858633,15.478418 187.77,20.1383789 C188.681367,24.7983398 190.061953,30.6674414 183.260215,32.4083203 C176.458477,34.1491992 176.458477,33.2391211 173.146875,35.9055469 C172.380017,36.5230032 171.83611,37.3842503 171.515152,38.4892884 L211.500996,61.71 L106.26,122.350078 L2.21689334e-12,60.6400781 L31.6447495,42.4059945 C35.5377428,40.5998464 42.2209717,38.5732617 47.2673438,38.5732617 C52.6775391,38.5732617 57.0871334,43.6926025 54.600498,47.6237695 C52.9411824,50.2470117 49.2280078,56.5402148 53.0842383,61.3000781 C56.9404688,66.0599414 64.5498047,64.5936328 70.4898047,62.9468555 C76.4298047,61.3000781 81.9224299,55.3394068 85.3630078,52.067168 C89.0296119,48.5799619 89.9984766,45.9454102 89.9984766,41.7263086 C89.9984766,37.507207 89.6510742,32.7131836 84.8931445,31.5104883 C80.1352148,30.307793 76.8319922,31.6729102 72.0173438,30.4702148 C67.2026953,29.2675195 68.3132227,22.7293945 70.4898047,20.1660938 C70.5631889,20.0796711 70.6359176,19.9908363 70.7079908,19.8995891 L105.240996,-2.35900188e-12 Z" id="Combined-Shape" fill="#F44D95"></path>
                    </g>
                </g>
                <g id="1-head" transform="translate(23.372476, 84.418469)">
                    <g id="1-face" transform="translate(2.307373, 20.190242)">
                        <g id="Path-24" transform="translate(6.114046, 17.119072)">
                            <mask id="mask-13" fill="white">
                                <use xlink:href="#path-12"></use>
                            </mask>
                            <use id="Path-23" fill="#FFA97F" xlink:href="#path-12"></use>
                            <path d="M0.346623404,0 C0.33609606,2.82970703 0.491535513,4.70980469 0.812941763,5.64029297 C1.29505114,7.03602539 2.41202379,9.61876476 2.41202379,11.3360156 C2.41202379,13.0532665 3.37398668,15.6808008 5.96564684,17.886709 C8.557307,20.0926172 15.3764476,20.696543 18.2275316,19.7165332 C21.0786156,18.7365234 21.7605297,15.6825148 22.3783129,14.3678906 C22.7901683,13.4914745 24.1767699,12.4808495 26.5381175,11.3360156 L0.346623404,0 Z" id="Path-25" fill="#B67859" mask="url(#mask-13)"></path>
                        </g>
                        <g id="Path-26">
                            <mask id="mask-15" fill="white">
                                <use xlink:href="#path-14"></use>
                            </mask>
                            <use id="Path-20" fill="#FFA97F" xlink:href="#path-14"></use>
                            <path d="M-0.954985014,9.40113281 C-1.52073416,10.1465287 -1.20240582,11.3837322 8.8817842e-16,13.1127432 C1.80360874,15.7062598 4.94307631,18.0752344 6.46016847,18.0752344 C7.97726062,18.0752344 7.82059539,14.5731738 6.46016847,13.0706104 C5.09974155,11.5680469 4.3098685,8.94254883 1.97634311,8.94254883 C0.420659517,8.94254883 -0.556449858,9.09541016 -0.954985014,9.40113281 Z" id="Path-27" fill="#F09365" mask="url(#mask-15)"></path>
                            <path d="M0.307007173,7.70053711 C-0.717797514,8.39727539 -0.717797514,8.98949219 0.307007173,9.4771875 C1.8442142,10.2087305 4.56753729,11.3749884 5.51385288,12.257373 C6.46016847,13.1397577 7.94147983,14.0221423 8.87443881,13.1397577 C9.8073978,12.257373 10.4789994,9.51360352 9.38426303,8.26095703 C8.65443881,7.42585938 5.62868686,7.23905273 0.307007173,7.70053711 Z" id="Path-28" fill="#EE996D" mask="url(#mask-15)"></path>
                            <path d="M8.83125522,1.98128906 C10.641099,3.38078125 11.8756986,4.08052734 12.535054,4.08052734 C13.5240873,4.08052734 19.1933841,4.02670898 21.7692533,4.51848633 C24.3451224,5.01026367 29.0759283,5.56069336 30.8640459,5.03958984 C32.6521634,4.51848633 36.6969193,1.16402344 36.6969193,5.91471316e-13 C36.6969193,-0.776015625 27.4083646,-0.115585937 8.83125522,1.98128906 Z" id="Path-29" fill="#EE996D" mask="url(#mask-15)"></path>
                        </g>
                    </g>
                    <g id="1-hair">
                        <mask id="mask-17" fill="white">
                            <use xlink:href="#path-16"></use>
                        </mask>
                        <use id="Path-19" fill="#723E20" xlink:href="#path-16"></use>
                        <path d="M0.496772461,16.665 C1.39997559,19.623599 3.31783424,22.040047 6.25034842,23.9143439 C10.6491197,26.7257892 14.8424268,28.6081427 14.8424268,29.7705548 C14.8424268,30.9329669 11.1735937,35.64159 7.96592285,34.802088 C4.75825195,33.9625861 0.883974609,27.7237195 -1.27407715,25.7833582 C-3.43212891,23.8429969 -1.72589355,20.3268829 -1.27407715,19.0149396 C-0.972866211,18.1403107 -0.382583008,17.3569975 0.496772461,16.665 Z" id="Path-21" fill="#44230F" mask="url(#mask-17)"></path>
                        <path d="M1.90894043,9.09302552 C3.85671387,13.4919798 5.16253418,16.0159713 5.82640137,16.665 C6.82220215,17.6385431 12.0751318,23.8653595 13.0396729,23.8653595 C14.0042139,23.8653595 18.6084229,23.793172 22.8023877,24.6217169 C25.5983643,25.1740802 31.3559619,25.561294 40.0751807,25.7833582 L45.7022607,16.6514928 L41.91,8.51649232 C41.4071582,8.67676576 40.7955518,9.34364076 40.0751807,10.5171173 C38.994624,12.2773322 37.9350146,16.0461023 37.9350146,17.1499253 C37.9350146,18.2537482 36.6375732,20.3407404 35.6221143,20.3407404 C34.6066553,20.3407404 35.3127393,17.1634325 33.9801709,16.665 C32.6476025,16.1665675 30.9012451,17.0594318 30.4465283,18.1180744 C29.9918115,19.1767169 29.5399951,21.1315802 28.4178662,21.1315802 C27.2957373,21.1315802 19.3573682,21.2637091 17.5156201,20.3407404 C15.6738721,19.4177716 9.2488623,14.5989337 7.53763184,11.2950665 C5.82640137,7.99119935 4.32174316,4.86522279 2.85285645,4.86522279 C1.38396973,4.86522279 1.3523877,6.78334779 1.3523877,7.29349427 C1.3523877,7.63359193 1.53790527,8.23343568 1.90894043,9.09302552 Z" id="Path-22" fill="#44230F" mask="url(#mask-17)"></path>
                    </g>
                    <g id="1-collar" transform="translate(6.442060, 48.199315)" fill="#FFFFFF">
                        <path d="M3.40534962,2.62190269e-12 C2.1040716,0.21159254 -0.376053818,2.7421582 0.0482088776,5.87458008 C0.472471573,9.00700195 6.84172939,14.3327637 7.52138759,14.8388818 C7.85409316,15.0866363 11.0035588,18.2951263 13.9112704,20.4058594 C16.9434956,22.6069779 19.7577259,23.7085986 21.0765243,23.7085986 C21.0765243,20.4058594 21.2188046,20.4559717 21.9173153,17.7967969 C22.6158261,15.1376221 23.3331893,11.5027881 23.3331893,10.6399219 C23.3331893,9.77705566 19.7579745,11.849377 12.9836288,9.28076272 C6.2092831,6.71214844 3.40534962,2.75794922 3.40534962,2.62190269e-12 Z" id="Path-31"></path>
                        <path d="M25.1102241,8.85875977 C25.9020968,12.3050684 26.8370761,15.0085547 27.915162,16.9692188 C28.9932479,18.9298828 29.436578,19.7592871 29.2451522,19.4574316 C30.0297616,16.987373 30.1744589,14.0482031 29.679244,10.6399219 C29.1840292,7.23164063 27.6610226,4.46864258 25.1102241,2.35092773 C24.999391,2.56535803 24.999391,2.83273108 25.1102241,3.15304688 C25.5729942,4.49048548 26.2761028,6.28483027 25.8955233,7.02700195 C25.378221,8.03579819 25.1164546,8.64638413 25.1102241,8.85875977 Z" id="Path-32"></path>
                    </g>
                </g>
                <g id="1-hands" transform="translate(50.609399, 205.723739)">
                    <mask id="mask-19" fill="white">
                        <use xlink:href="#path-18"></use>
                    </mask>
                    <use id="Combined-Shape" fill="#FFAB7D" xlink:href="#path-18"></use>
                    <path d="M8.08806152,13.1442489 C8.08806152,14.4002255 8.08806152,17.7711239 8.08806152,23.2569442 C8.08806152,31.4856747 10.3822102,34.6148739 9.23513585,36.4936825 C8.47041963,37.7462216 1.61675293,34.5815731 -11.3258643,26.9997372 L8.08806152,13.1442489 Z" id="Path-50" fill="#EE986D" mask="url(#mask-19)"></path>
                    <path d="M58.7147021,2.9445419 C50.6090771,7.08178799 45.7886279,9.32003018 44.2533545,9.65926846 C42.7180811,9.99850674 45.1283057,6.23637783 51.4840283,-1.62711826 L58.7147021,-1.62711826 L58.7147021,2.9445419 Z" id="Path-51" fill="#EE986D" mask="url(#mask-19)"></path>
                </g>
                <g id="2-lower-body" transform="translate(146.248182, 367.127578)">
                    <path d="M17.0799038,146.561895 C18.950978,149.164727 20.5902896,152.844785 21.9978384,157.60207 C24.1091616,164.737998 39.5585757,158.778984 40.9817007,158.778984 C42.4048257,158.778984 45.4595815,160.14249 43.6049429,164.737998 C42.3685171,167.80167 34.9559579,167.80167 21.3672652,164.737998 L21.3672652,178.831641 C19.9175399,179.535039 18.4884194,179.535039 17.0799038,178.831641 C17.0799038,175.028906 17.0799038,170.331025 17.0799038,164.737998 C15.4415054,163.17501 13.8357632,161.594941 12.2626773,159.997793 C9.90304834,157.60207 9.93978663,154.19959 12.2626773,152.385879 C13.811271,151.176738 15.4170132,149.23541 17.0799038,146.561895 Z" id="Path-72" fill="#353355"></path>
                    <path d="M25.7662515,148.775215 C21.4027749,153.949512 18.3904507,157.095469 16.7292788,158.213086 C14.237521,159.889512 17.723146,163.317773 18.7331265,166.468887 C19.4064468,168.569629 19.7177554,172.911191 19.6670523,179.493574 C19.6133413,180.298379 20.4286733,180.700781 22.1130483,180.700781 C23.7974233,180.700781 24.6430483,180.298379 24.6499233,179.493574 L24.6499233,167.852051 C29.2630483,169.302246 32.0285171,171.088457 32.9463296,173.210684 C34.3230483,176.394023 35.1757632,179.493574 37.6475405,179.493574 C40.1193179,179.493574 47.2420327,176.085937 49.1994741,173.210684 C51.1569155,170.33543 53.5971108,166.468887 50.5214077,164.737998 C48.470939,163.584072 44.7214758,163.584072 39.2730181,164.737998 L25.7662515,148.775215 Z" id="Path-71" fill="#49466D"></path>
                    <g id="Path-69" transform="translate(9.903048, 89.988164)">
                        <mask id="mask-21" fill="white">
                            <use xlink:href="#path-20"></use>
                        </mask>
                        <use id="Path-68" fill="#EF986C" xlink:href="#path-20"></use>
                        <path d="M-3.67576172,8.97058594 C5.32447266,14.9183203 10.9804492,19.7308203 13.292168,23.4080859 C15.6038867,27.0853516 22.9738867,25.6841989 35.402168,19.204628 L15.8632031,-10.2196875 L-3.67576172,8.97058594 Z" id="Path-70" fill="#D27E54" mask="url(#mask-21)"></path>
                    </g>
                    <g id="Path-66" transform="translate(23.195216, 95.018768)">
                        <mask id="mask-23" fill="white">
                            <use xlink:href="#path-22"></use>
                        </mask>
                        <use id="Path-65" fill="#FFAA7F" xlink:href="#path-22"></use>
                        <path d="M2.44249065e-15,12.3208215 C6.93943286,14.8725207 14.9234766,21.0896692 18.5167383,35.0121887 C20.9122461,44.2938684 26.0678516,35.347345 33.9835547,8.17261841 L12.4652344,-10.2087683 C-0.471210448,3.10982544 -4.62628857,10.6196887 2.44249065e-15,12.3208215 Z" id="Path-67" fill="#F0996C" mask="url(#mask-23)"></path>
                    </g>
                    <g id="Group-18" transform="translate(0.000000, 0.000000)">
                        <mask id="mask-25" fill="white">
                            <use xlink:href="#path-24"></use>
                        </mask>
                        <use id="Path-63" fill="#52507C" xlink:href="#path-24"></use>
                        <path d="M9.84181788,1.32 C8.75384913,2.84496094 9.5040835,5.26990234 12.092521,8.59482422 C15.9751773,13.582207 26.7994351,20.5560352 34.1896304,20.5560352 C41.5798257,20.5560352 52.8326378,15.7392643 56.4136534,12.725625 C58.8009972,10.7165321 43.277052,6.91465715 9.84181788,1.32 Z" id="Path-64" fill="#680100" mask="url(#mask-25)"></path>
                    </g>
                </g>
                <g id="2-body" transform="translate(149.157422, 299.048965)">
                    <g id="Path-89" transform="translate(90.811550, 107.267402)">
                        <mask id="mask-27" fill="white">
                            <use xlink:href="#path-26"></use>
                        </mask>
                        <use id="Path-88" fill="#FFAB7F" xlink:href="#path-26"></use>
                        <path d="M8.98799133,0 C7.52533305,3.38851562 4.16485453,5.08277344 -1.09344422,5.08277344 C-6.35174297,5.08277344 -2.99126445,3.38851562 8.98799133,0 Z" id="Path-90" fill="#FF9C69" mask="url(#mask-27)"></path>
                        <path d="M2.06862609,2.54138672 C1.69972404,5.57541016 1.92493017,8.71535156 2.74424448,11.9612109 C3.56355878,15.2070703 3.33835266,18.0430078 2.06862609,20.4690234 L-3.7933082,6.86296875 L2.06862609,2.54138672 Z" id="Path-91" fill="#FF9C69" mask="url(#mask-27)"></path>
                    </g>
                    <g id="Group-24" transform="translate(0.139541, 0.248789)">
                        <mask id="mask-29" fill="white">
                            <use xlink:href="#path-28"></use>
                        </mask>
                        <use id="Path-57" fill="#D0E7F5" xlink:href="#path-28"></use>
                        <path d="M0.190458984,19.0816699 C0.855615234,12.0994629 2.06045898,7.80785156 3.80499023,6.20683594 C6.42178711,3.8053125 8.79322932,2.46533203 9.59878751,2.46533203 C10.4043457,2.46533203 12.3076465,3.96161133 13.5851074,3.96161133 C14.436748,3.96161133 15.5366406,3.23855469 16.8847852,1.79244141 L3.80499023,-3.96 L-2.64,11.0762695 L0.190458984,19.0816699 Z" id="Path-58" fill="#A2C2E9" mask="url(#mask-29)"></path>
                        <path d="M33.7241309,85.9308398 C32.989482,84.9197852 32.989482,82.8209766 33.7241309,79.6344141 C34.8261042,74.8545703 36.4782129,63.6900269 33.7241309,55.3562109 C30.9700488,47.0223949 28.3049121,44.7910547 28.3049121,39.8623242 C28.3049121,34.9335938 31.7031752,26.988457 34.8261042,26.0210156 C37.9490332,25.0535742 46.6630957,26.008125 50.3053418,29.8585547 C53.9475879,33.7089844 60.961377,41.4962109 60.961377,46.2348047 C60.961377,49.3938672 60.0135937,51.0142188 58.1180273,51.0958594 C56.2087507,43.4255078 54.2939558,38.4722852 52.3736426,36.2361914 C49.4931727,32.8820508 45.0316995,28.9297852 40.0431152,30.905918 C35.054531,32.8820508 34.1973921,38.0415234 35.054531,43.2892969 C35.9116699,48.5370703 44.019873,61.5018164 45.9309082,64.813418 C47.8419434,68.1250195 53.063291,79.7536523 54.1912207,82.8422461 C54.9431738,84.9013086 48.1208105,85.9308398 33.7241309,85.9308398 Z" id="Path-59" fill="#A6C3E5" mask="url(#mask-29)"></path>
                        <path d="M75.1977832,105.028301 C75.4169238,105.66209 76.9633691,105.226387 79.8371191,103.721191 C84.1477441,101.463398 90.5195801,98.5391756 84.2566699,97.4202694 C77.9937598,96.3013631 71.5722949,92.9994141 67.0283496,90.1705664 C62.4844043,87.3417188 57.0162012,82.5077344 54.4477441,80.6566406 C52.7354395,79.4225781 53.0538379,84.0410742 55.4029395,94.5121289 L75.1977832,105.028301 Z" id="Path-60" fill="#A6C5E4" mask="url(#mask-29)"></path>
                        <path d="M83.629541,109.405957 C86.6287598,108.362717 89.3259082,106.997395 91.7209863,105.309992 C95.3136035,102.778887 98.3600562,100.155645 99.3991638,100.155645 C100.091902,100.155645 100.909424,103.6475 101.851729,110.631211 L85.2556934,113.881582 L83.629541,109.405957 Z" id="Path-61" fill="#FFFFFF" mask="url(#mask-29)"></path>
                    </g>
                </g>
                <g id="2-head" transform="translate(151.092305, 260.366061)">
                    <path d="M25.430625,43.3157949 C28.6558594,44.0166152 31.2299023,44.3670254 33.1527539,44.3670254 C36.0370313,44.3670254 41.981543,41.224291 44.3308594,35.6903457 C46.6801758,30.1564004 46.8767578,22.7790957 46.8767578,19.2141934 C46.8767578,16.8375918 45.0772266,14.3922282 41.4781641,11.8781025 L25.430625,43.3157949 Z" id="Path-53" fill="#FFAC7F"></path>
                    <g id="Path-55" transform="translate(14.119189, 40.016439)">
                        <mask id="mask-31" fill="white">
                            <use xlink:href="#path-30"></use>
                        </mask>
                        <use id="Path-54" fill="#FFAC7F" xlink:href="#path-30"></use>
                        <path d="M2.36405297,4.5154248 C2.94895862,6.14286621 5.33044465,7.32499023 9.50851106,8.06179687 C15.7756107,9.16700684 16.7197852,6.65285156 19.6142873,5.83913086 C21.5439555,5.29665039 21.3448671,1.97376953 19.0170221,-4.12951172 L0,-2.03800781 L2.36405297,4.5154248 Z" id="Path-56" fill="#B6795A" mask="url(#mask-31)"></path>
                    </g>
                    <path d="M45.4310742,16.474291 C41.3632227,25.9577179 37.9013232,32.1235187 35.0453759,34.9716934 C32.1894286,37.8198681 32.1894286,31.6540673 35.0453759,16.474291 L45.4310742,16.474291 Z" id="Path-77" fill="#EE996D"></path>
                    <path d="M8.12109375,22.557377 C7.205,28.7818301 8.27041016,33.5208535 11.3173242,36.7744473 C15.8876953,41.6548379 17.1000586,44.3670254 25.2366211,44.3670254 C33.3731836,44.3670254 34.700918,41.8063027 35.7811523,37.8218105 C36.8613867,33.8373184 35.9790234,31.0606777 38.3148047,29.7342324 C39.8719922,28.8499355 40.6385547,30.5076699 40.6144922,34.7074355 C42.6103906,29.7776309 43.6083398,25.4147988 43.6083398,21.6189395 C43.6083398,15.9251504 44.4249609,14.8268691 45.4310742,16.474291 C46.1018164,17.5725723 46.5858594,19.999877 46.8832031,23.7562051 C48.4635938,19.578735 48.8455859,15.6193675 48.0291797,11.8781025 C46.8045703,6.26620508 38.6634961,3.81827539 35.7811523,1.82860742 C32.8988086,-0.161060546 24.0055664,0.850853517 21.151582,2.75802149 C19.2489258,4.0294668 14.9054297,10.629252 8.12109375,22.557377 Z" id="Path-52" fill="#713E1F"></path>
                    <path d="M11.2676953,23.7562051 C17.2820762,23.7562051 22.6346484,16.9083204 22.6346484,10.8939395 C22.6346484,4.87955853 18.0442969,-0.161060546 11.2676953,0.00393945422 C4.49109375,0.168939454 0,1.24143945 0,9.20140039 C0,17.1613613 5.25331439,23.7562051 11.2676953,23.7562051 Z" id="Oval" fill="#46240F"></path>
                </g>
                <g id="3-lower-body" transform="translate(474.907383, 308.392734)">
                    <g id="Path-99" transform="translate(0.143677, 134.865264)">
                        <path d="M0,33.825 C0.366988594,37.0362695 1.19168406,39.4354297 2.47408641,41.0224805 C4.39768992,43.4030566 9.8401118,46.680498 13.2503266,46.680498 C14.6731028,46.8184873 18.3864883,46.8184873 21.1846675,46.8873926 C25.2710982,46.988021 28.86748,46.680498 29.9607661,47.2293164 C29.9607661,48.932168 29.9607661,49.965835 30.2648237,50.3441748 C35.4748921,51.2693994 36.9790669,51.7297559 38.8267768,51.9348779 C40.6744868,52.14 44.3304292,50.8810693 45.9029243,50.3441748 C47.4754194,49.8072803 49.6046583,46.9840723 49.6046583,45.7842773 C49.6046583,44.9844141 33.0697722,40.9979883 0,33.825 Z" id="Path-100" fill="#462412"></path>
                        <path d="M48.5222993,10.6102734 C56.6743399,17.8064648 61.5290567,22.342998 63.0864497,24.219873 C64.6438426,26.096748 64.388286,26.4104199 62.3197798,25.1608887 C61.8086665,25.9360449 61.8086665,26.995332 62.3197798,28.33875 C63.0864497,30.353877 67.6958149,34.8388477 69.8163227,34.8388477 C71.9368305,34.8388477 76.404668,33.891709 77.22,33.0792773 C78.035332,32.2668457 80.3805122,32.6690332 78.4343501,27.39 C77.2506678,24.1792202 65.2263138,15.5502089 49.6046583,8.88711914 C48.6037667,8.46020984 48.2429804,9.0345946 48.5222993,10.6102734 Z" id="Path-102" fill="#462412"></path>
                        <path d="M27.2495454,28.870166 C20.9275532,27.8833887 16.1144087,27.39 12.8101118,27.39 C7.85366648,27.39 1.23465281,29.7538184 0.137982891,32.4002637 C-0.958687031,35.046709 4.77345164,40.4797852 7.02189891,41.8655273 C9.27034617,43.2512695 14.2596626,45.7011328 20.754604,45.2531836 C27.2495454,44.8052344 30.4863813,45.2235352 32.304604,45.7697754 C34.1228266,46.3160156 39.3038911,47.6247363 40.9139302,47.6247363 C42.5239692,47.6247363 47.5353608,48.6266602 49.4771723,46.3761182 C50.7755805,43.014082 41.8984516,27.4592871 34.5739985,28.870166 C29.6910298,29.810752 27.2495454,29.810752 27.2495454,28.870166 Z" id="Path-98" fill="#FFFFFF"></path>
                        <path d="M59.7339204,18.9005566 C54.498393,13.0280176 50.761186,9.8175 48.5222993,9.26900391 C46.2834126,8.72050781 44.5801313,6.37033203 43.4124555,2.21847656 C46.4185493,0.494570312 49.1387934,-0.102265625 51.573188,0.42796875 C55.2247798,1.22332031 64.80477,6.85749023 67.0483833,9.26900391 C68.5441255,10.8766797 66.1059712,14.0871973 59.7339204,18.9005566 Z" id="Path-101" fill="#FFFFFF"></path>
                    </g>
                    <g id="Path-97" transform="translate(48.665977, 11.556228)">
                        <mask id="mask-33" fill="white">
                            <use xlink:href="#path-32"></use>
                        </mask>
                        <use id="Path-96" fill="#CEAB89" xlink:href="#path-32"></use>
                    </g>
                    <g id="Path-94" transform="translate(16.170000, 0.000000)">
                        <mask id="mask-35" fill="white">
                            <use xlink:href="#path-34"></use>
                        </mask>
                        <use id="Path-93" fill="#CFAB89" xlink:href="#path-34"></use>
                        <path d="M37.7527734,27.6349219 C24.2042969,60.8866066 17.4300586,79.9892237 17.4300586,84.9427734 C17.4300586,92.373098 18.7365234,110.287031 19.789043,119.231836 C20.8415625,128.176641 28.0029492,169.119199 26.895,183.479355 C26.1563672,193.052793 31.4711719,193.596133 42.8394141,185.109375 L55.9105078,18.0894141 L37.7527734,27.6349219 Z" id="Path-95" fill="#A78162" mask="url(#mask-35)"></path>
                    </g>
                </g>
                <g id="3-body" transform="translate(436.835918, 235.750005)">
                    <g id="Path-86" transform="translate(0.319336, 78.912281)">
                        <mask id="mask-37" fill="white">
                            <use xlink:href="#path-36"></use>
                        </mask>
                        <use id="Path-85" fill="#FFAA81" xlink:href="#path-36"></use>
                        <path d="M1.69350586,1.88731283 C6.08589141,1.67794759 9.40759063,1.79466146 11.6586035,2.23745443 C15.0351228,2.90164388 12.6254004,6.10415853 8.99378906,6.68294759 C6.57271484,7.06880697 2.86558594,7.40234384 -2.12759766,7.68355822 L1.69350586,1.88731283 Z" id="Path-87" fill="#EF986D" mask="url(#mask-37)"></path>
                        <path d="M24.1035352,11.9352327 C19.8375977,13.7831552 15.2470312,14.7071164 10.3318359,14.7071164 C5.41664062,14.7071164 10.007207,15.2393661 24.1035352,16.3038656 L24.1035352,11.9352327 Z" id="Path-92" fill="#EF986D" mask="url(#mask-37)"></path>
                    </g>
                    <g id="Group-21" transform="translate(20.460000, 0.000000)">
                        <mask id="mask-39" fill="white">
                            <use xlink:href="#path-38"></use>
                        </mask>
                        <use id="Path-81" fill="#666490" xlink:href="#path-38"></use>
                        <path d="M4.90968774,75.6688033 C3.64726587,79.9734127 3.64726587,83.6897799 4.90968774,86.8179049 C6.17210962,89.9460299 9.81843774,91.8422408 15.8486721,92.5065377 L19.609512,90.5774556 C16.3198245,88.6472994 14.1935159,86.4840377 13.2305862,84.0876705 C12.2676565,81.6913033 12.7600784,77.1598189 14.7078518,70.4932174 L4.90968774,75.6688033 Z" id="Path-84" fill="#FFFFFF" mask="url(#mask-39)"></path>
                        <path d="M48.2679495,35.615859 C49.6360748,34.6732557 51.8002203,33.91916 54.7603861,33.353572 C59.2006348,32.50519 64.5083645,35.3063228 67.7257034,38.2872799 C70.9430422,41.2682369 71.7217971,42.5160494 71.7217971,45.0632369 C71.7217971,47.6104244 73.8029885,29.6305806 65.7959768,24.4549947 C60.457969,21.0046041 54.6152932,20.4752291 48.2679495,22.8668697 L48.2679495,35.615859 Z" id="Path-82" fill="#51527D" mask="url(#mask-39)"></path>
                        <path d="M69.6296487,57.8935982 C70.3643765,52.4796351 68.6979009,60.9805806 60.984551,66.2109517 C53.2712011,71.4413228 44.6424612,75.8640963 42.812637,76.9295064 C41.5927541,77.6397799 40.5664456,84.6572213 39.7337112,97.9818306 L51.7155471,108.24019 L55.2807717,108.24019 C56.9981956,108.101526 58.3048166,106.532845 59.2006348,103.534145 C65.4043218,82.767661 69.2270365,60.8603125 69.6296487,57.8935982 Z" id="Path-83" fill="#51527D" mask="url(#mask-39)"></path>
                    </g>
                </g>
                <g id="3-head" transform="translate(515.084883, 196.304616)">
                    <path d="M18.4374609,39.4455329 C19.6667969,42.262595 20.2814648,45.064084 20.2814648,47.85 C24.2005371,47.85 28.7834766,46.2434502 33.1659668,43.671126 C37.548457,41.0988018 40.3360547,38.4401104 40.3360547,38.4401104 C40.3360547,38.4401104 38.533623,34.2135967 38.533623,31.5713409 C38.533623,29.809837 31.8349023,32.4345676 18.4374609,39.4455329 Z" id="Path-79" fill="#D17C52"></path>
                    <path d="M4.31126953,17.0919463 C5.53330078,24.9689776 6.85265625,30.1243682 8.26933594,32.5581182 C10.3943555,36.2087432 12.3633984,40.3923955 13.457168,40.3923955 C14.5509375,40.3923955 21.5080078,40.9680732 26.8047656,38.61 C30.3359375,37.0379512 31.6533594,30.6029512 30.7570313,19.305 L4.31126953,17.0919463 Z" id="Path-76" fill="#FFAA7F"></path>
                    <path d="M20.7848437,47.85 C17.7774609,48.424333 15.9982324,49.831878 15.13875,50.997835 C14.2792676,52.163792 20.5650586,54.9484893 24.9759082,54.1331573 C29.3867578,53.3178252 37.4588672,48.0603838 38.8974609,45.8657549 C40.3360547,43.671126 41.8342676,41.4572724 41.8342676,38.61 C41.8342676,35.7627276 30.6078223,45.0403508 26.6713477,46.4451754 C22.734873,47.85 23.7922266,47.275667 20.7848437,47.85 Z" id="Path-80" fill="#FFFFFF"></path>
                    <g id="Group-20" transform="translate(0.168867, 0.000000)">
                        <path d="M16.5212695,34.5419854 C11.1007617,31.3003858 7.78013672,28.4660596 6.55939453,26.0390069 C5.33865234,23.6119541 4.65211914,21.0272764 4.49979492,18.2849737 L12.1442578,24.1808233 L16.5212695,34.5419854 Z" id="Path-78" fill="#EE996D"></path>
                        <mask id="mask-41" fill="white">
                            <use xlink:href="#path-40"></use>
                        </mask>
                        <use id="Path-73" fill="#723F20" xlink:href="#path-40"></use>
                        <path d="M21.4461328,32.9441924 C22.0081641,32.0057549 22.9680859,31.5365362 24.3258984,31.5365362 C26.3626172,31.5365362 34.4405273,29.7614971 39.0083203,22.7154815 C42.0535156,18.0181377 44.0348047,13.6587432 44.9521875,9.63729789 L46.9682813,36.0572784 L30.5411133,43.671126 L21.370174,36.0572784 L21.4461328,32.9441924 Z" id="Path-74" fill="#462311" mask="url(#mask-41)"></path>
                        <path d="M-0.874628906,6.29669242 C-0.0741210938,9.36852836 1.13996094,11.3416534 2.76761719,12.2160674 C5.20910156,13.5276885 9.41466797,16.782838 10.4716992,18.043919 C11.5287305,19.305 13.303125,22.4009502 20.1970313,22.4009502 C27.0909375,22.4009502 34.9567969,19.7854424 41.1623437,10.5319073 C45.299375,4.36288383 46.4361133,5.63518852 44.5725586,14.3488213 C36.0149023,24.2509698 27.8897266,29.202044 20.1970312,29.202044 C17.6777016,29.202044 19.8626837,37.9050544 17.3133984,37.1072198 C13.8234793,36.0150006 6.95234647,29.660567 -3.3,18.043919 L-0.874628906,6.29669242 Z" id="Path-75" fill="#462311" mask="url(#mask-41)"></path>
                    </g>
                </g>
                <g id="4-body" transform="translate(309.752516, 42.638908)">
                    <g id="Group-27" transform="translate(47.122665, 96.509589)">
                        <mask id="mask-43" fill="white">
                            <use xlink:href="#path-42"></use>
                        </mask>
                        <use id="Path-125" fill="#FFAA7F" xlink:href="#path-42"></use>
                        <path d="M16.232675,0.524648438 C16.5134795,3.27421875 17.8347705,5.33274414 20.1965479,6.70022461 C22.5583252,8.06770508 24.6805518,7.5153418 26.5632275,5.04313477 L16.232675,0.524648438 Z" id="Path-126" fill="#E79878" mask="url(#mask-43)"></path>
                        <path d="M0.232335365,11.894502 C2.57124395,9.72962891 4.12833008,8.64719238 4.90359375,8.64719238 C6.06648926,8.64719238 3.74698242,14.4178418 3.2371582,14.6561572 C2.89727539,14.8150342 1.89566778,15.4143945 0.232335365,16.4542383 L-0.379790039,14.6561572 L0.232335365,11.894502 Z" id="Path-128" fill="#E79878" mask="url(#mask-43)"></path>
                    </g>
                    <g id="Path-118" transform="translate(11.220000, 0.000000)">
                        <mask id="mask-45" fill="white">
                            <use xlink:href="#path-44"></use>
                        </mask>
                        <use id="Path-115" fill="#D0E7F5" xlink:href="#path-44"></use>
                        <path d="M5.55152694,69.2446276 C6.98754256,66.0241198 8.63689803,63.8576354 10.4995933,62.7451745 C13.2936363,61.0764831 22.021234,49.7810156 22.021234,47.8197643 C22.021234,45.858513 20.8742725,40.7173522 23.5146129,32.7612585 C26.1549533,24.8051647 24.8785203,28.8091109 29.1733146,18.6805065 C33.468109,8.55190211 37.0747155,1.48409049 38.4364489,0.742879553 C39.3442711,0.248738928 41.5815563,-0.455588425 45.1483043,-1.37010251 L47.9091539,29.3558776 L25.4295152,69.2446276 L10.4995933,74.0380065 L5.55152694,69.2446276 Z" id="Path-124" fill="#A6C4E6" mask="url(#mask-45)"></path>
                    </g>
                    <path d="M3.23572616,72.9339245 C1.23522068,74.1581042 0.195806618,74.9871862 0.117483971,75.4211706 C0.0391613236,75.8551549 2.7055871,77.4529479 8.11676131,80.2145495 C10.6012144,77.8428893 12.1045836,76.2450964 12.6268687,75.4211706 C13.0324504,74.7813492 12.870962,72.3663123 8.87118514,71.7202721 C8.10391208,71.5963429 6.22542575,72.0008937 3.23572616,72.9339245 Z" id="Path-117" fill="#FFAA7F"></path>
                    <path d="M11.22,65.2681921 C12.8679234,65.2681921 14.9716734,65.9272253 16.922025,67.4257604 C18.2222594,68.4247839 19.3515855,69.5449792 20.3100035,70.7863464 C15.9181676,74.6215221 13.127025,76.7823131 11.9365758,77.2687194 C10.7741637,75.2245885 9.36231796,73.2568346 7.18863631,72.4885534 C5.01495467,71.7202721 1.98129867,73.8149381 2.48291366,72.9165221 C3.99698051,70.2047574 9.57207658,65.2681921 11.22,65.2681921 Z" id="Path-116" fill="#FFFFFF"></path>
                    <g id="Path-120" transform="translate(35.310000, 2.359042)">
                        <mask id="mask-47" fill="white">
                            <use xlink:href="#path-46"></use>
                        </mask>
                        <use id="Path-119" fill="#D0E7F5" xlink:href="#path-46"></use>
                        <path d="M38.0607164,75.354082 C41.0143883,68.6709375 42.8592515,64.921377 43.5953062,64.1054004 C44.6993883,62.8814355 44.2504723,51.2666602 44.2504723,47.0836523 C44.2504723,42.9006445 43.818314,30.1021875 44.2504723,27.6851953 C44.6826305,25.2682031 45.196066,22.8489551 48.2833707,21.8911816 C51.3706753,20.9334082 57.1365492,20.7284473 59.4,21.3098145 C61.6634508,21.8911816 52.9058702,18.2160645 47.272512,20.1077637 C45.0673003,20.8482806 42.409323,22.9571851 41.3039976,25.3365234 C39.5856968,29.0353612 40.0913121,33.4568378 40.0913121,34.9400391 C40.0913121,37.377334 41.0445738,48.4113867 35.577982,49.9595508 C30.1113902,51.5077148 26.9869887,50.629541 24.09,49.6749902 C20.6928551,48.9695508 21.1580455,49.4532715 18.7134996,48.9695508 C16.0690684,48.015 15.722516,45.4510547 12.045,44.7771973 C8.36748397,44.1033398 8.28949569,47.0836523 6.05200546,47.0836523 C4.5603453,47.0836523 4.79140975,48.8777051 6.74519881,52.4658105 C12.8074449,51.4508887 16.9885191,51.3130664 19.2884215,52.0523437 C22.738275,53.1612598 30.6779332,55.7213379 33.761693,60.7461035 C35.8175328,64.0959473 35.6286851,69.6820996 33.19515,77.5045605 L38.0607164,75.354082 Z" id="Path-123" fill="#A6C4E6" mask="url(#mask-47)"></path>
                        <path d="M59.1589766,22.3562109 C58.6612424,25.2316797 57.6779956,27.6158008 56.2092362,29.5085742 C54.0060973,32.3477344 52.8839683,37.3260937 52.8839683,45.4098047 C52.8839683,53.4935156 49.6722676,70.5961523 45.1695738,76.0611328 C42.167778,79.7044531 39.3930709,84.4219922 36.8454527,90.21375 C39.1218996,92.9835156 41.0783648,93.675957 42.7148484,92.2910742 C44.351332,90.9061914 54.4594176,78.7030664 73.0391051,55.6816992 L59.1589766,22.3562109 Z" id="Path-121" fill="#A6C4E6" mask="url(#mask-47)"></path>
                        <path d="M31.1017125,86.2630957 C32.2053648,89.1927051 34.647064,90.6575098 38.4268101,90.6575098 C44.0964293,90.6575098 44.2846324,91.4497461 43.6952086,92.2166309 C43.3022594,92.7278874 41.2410401,94.7526632 37.5115509,98.2909583 C35.2151026,100.933928 32.2489781,100.933928 28.6131773,98.2909583 C24.9773765,95.6479887 25.8068883,91.6387012 31.1017125,86.2630957 Z" id="Path-122" fill="#FFFFFF" mask="url(#mask-47)"></path>
                    </g>
                </g>
                <g id="4-head" transform="translate(356.106429, 0.000000)">
                    <path d="M29.313592,4.34542969 C30.810479,1.53527344 32.1137923,0.130195312 33.2235319,0.130195312 C34.8881413,0.130195312 41.3012272,4.68380859 43.0968913,9.84070312 C44.8925553,14.9975977 45.9134928,25.7712598 44.5051921,34.205918 C43.0968913,42.6405762 40.271343,50.9843555 38.3329124,53.119043 C36.3944817,55.2537305 34.5121647,52.4899805 33.8678483,50.5170703 C33.2235319,48.5441602 33.001276,44.3150684 33.2235319,41.2688051 C33.3717025,39.2379628 33.3717025,34.2679445 33.2235319,26.35875 L29.313592,4.34542969 Z" id="Path-111" fill="#452310"></path>
                    <path d="M23.5005631,7.09306641 C24.82486,4.27087891 26.0955534,2.8231543 27.3126432,2.74989258 C29.138278,2.64 32.3828483,2.74989258 32.96486,4.92147949 C33.5468717,7.09306641 32.96486,12.0288867 32.96486,12.8429297 C32.96486,13.385625 29.8100944,11.4690039 23.5005631,7.09306641 Z" id="Path-109" fill="#C03D74"></path>
                    <path d="M23.6615348,6.99248966 C26.6034977,4.24302677 28.428112,2.86829532 29.1353776,2.86829532 C30.196276,2.86829532 26.2375651,1.99398868 24.7238835,3.66735294 C23.7147624,4.78292911 23.1613249,5.89130802 23.063571,6.99248966 L23.6615348,6.99248966 Z" id="Path-110" fill="#A62B6A"></path>
                    <g id="Group-25" transform="translate(12.775241, 40.193883)">
                        <mask id="mask-49" fill="white">
                            <use xlink:href="#path-48"></use>
                        </mask>
                        <use id="Path-113" fill="#EF9A6F" xlink:href="#path-48"></use>
                        <path d="M2.619375,10.8797405 C4.61591693,11.2479827 7.54488178,10.7483636 11.4062695,9.38088309 C17.1983512,7.32966239 18.252031,4.57622489 18.7918895,4.57622489 C19.1517952,4.57622489 18.5758203,3.4091241 17.0639648,1.07492251 L2.619375,10.8797405 Z" id="Path-114" fill="#AA6D50" mask="url(#mask-49)"></path>
                    </g>
                    <path d="M2.63547526,30.3734488 C2.33018229,32.6154009 2.33018229,35.0316699 2.63547526,37.6222559 C3.09341471,41.5081348 6.43530924,50.2447559 8.37244791,51.6827051 C10.3095866,53.1206543 14.5254655,53.2047656 19.8908659,50.2447559 C25.2562663,47.2847461 28.6229753,44.5886719 30.1324674,42.6405762 C31.6419596,40.6924805 32.690612,41.4655957 33.6728776,40.6338281 C34.6551432,39.8020605 37.8964909,33.736377 35.1459538,33.736377 C32.3954167,33.736377 30.2651366,34.2397559 29.313592,35.9310059 C28.679229,37.0585059 24.4496698,33.3315039 16.6249143,24.75 L5.67927408,24.6608936 L2.63547526,30.3734488 Z" id="Path-112" fill="#FFAA7F"></path>
                    <g id="Combined-Shape-2" transform="translate(0.000000, 5.940000)">
                        <mask id="mask-51" fill="white">
                            <use xlink:href="#path-50"></use>
                        </mask>
                        <use id="Combined-Shape" fill="#713D20" xlink:href="#path-50"></use>
                        <path d="M29.5649577,32.3551465 C25.4762663,23.5126074 21.8101725,17.9798437 18.5666764,15.7568555 C13.7014323,12.422373 19.343344,13.5435352 20.7342387,14.6501953 C22.1251335,15.7568555 27.859528,19.4293945 34.1043913,29.4666797 C38.2676335,36.1582031 36.7544889,37.1210254 29.5649577,32.3551465 Z" id="Path-106" fill="#45240D" mask="url(#mask-51)"></path>
                        <path d="M-0.532395837,14.225127 C4.34606119,12.9712988 7.5213444,11.9266211 8.99345377,11.0910937 C11.2016178,9.83780273 11.5361296,9.05759766 2.64063151,9.05759766 C-3.28970052,9.05759766 -5.06205404,10.0661816 -2.67642904,12.0833496 L-0.532395837,14.225127 Z" id="Path-107" fill="#45240D" mask="url(#mask-51)"></path>
                        <path d="M10.3080585,1.91425781 C14.4360108,1.62572266 16.8338542,1.79856445 17.5015885,2.4327832 C18.5031901,3.38411133 19.2666374,3.90070312 19.9282487,3.90070312 C20.58986,3.90070312 20.5514974,2.8987793 19.9282487,1.91425781 C19.305,0.929736328 20.341071,0.733476562 21.8222038,0.733476562 C22.8096256,0.733476562 24.3721237,0.488984375 26.509698,9.24149646e-13 L9.07015299,-1.59457031 L10.3080585,1.91425781 Z" id="Path-108" fill="#45240D" mask="url(#mask-51)"></path>
                    </g>
                </g>
            </g>
        </g>
    </g>
</svg>