<?xml version="1.0" encoding="UTF-8"?>
<svg width="42px" height="40px" viewBox="0 0 42 40" version="1.1" xmlns="http://www.w3.org/2000/svg" xmlns:xlink="http://www.w3.org/1999/xlink">
    <!-- Generator: Sketch 61 (89581) - https://sketch.com -->
    <title>noun_monthly calendar_1589939</title>
    <desc>Created with Sketch.</desc>
    <g id="New-v2" stroke="none" stroke-width="1" fill="none" fill-rule="evenodd">
        <g id="Case-Study-worldroamer" transform="translate(-435.000000, -1147.000000)" fill="#C035A5" stroke="#C035A5">
            <g id="noun_monthly-calendar_1589939" transform="translate(436.000000, 1148.000000)">
                <path d="M10.3271396,-8.60594944e-06 C10.8024331,-8.60594944e-06 11.1877346,0.385292884 11.1877346,0.86058636 L11.1877346,7.74534609 C11.1877346,8.22063956 10.8024331,8.60594105 10.3271396,8.60594105 C9.85184611,8.60594105 9.46654462,8.22063956 9.46654462,7.74534609 L9.46654462,0.86058636 C9.46654462,0.385292884 9.85184611,-8.60594944e-06 10.3271396,-8.60594944e-06 Z M29.2602288,-8.60594944e-06 C29.7355223,-8.60594944e-06 30.1208238,0.385292884 30.1208238,0.86058636 L30.1208238,7.74534609 C30.1208238,8.22063956 29.7355223,8.60594105 29.2602288,8.60594105 C28.7849354,8.60594105 28.3996339,8.22063956 28.3996339,7.74534609 L28.3996339,0.86058636 C28.3996339,0.385292884 28.7849354,-8.60594944e-06 29.2602288,-8.60594944e-06 Z M4.31644314,2.58170151 C1.94072771,2.58170151 0,4.52248248 0,6.89819792 L0,33.549744 C0,35.9254164 1.94072771,37.8661871 4.31644314,37.8661871 L35.2709683,37.8661871 C37.6466837,37.8661871 39.5873684,35.9254164 39.5873684,33.549744 L39.5873684,6.89819792 C39.5873684,4.52248248 37.6466837,2.58170151 35.2709683,2.58170151 L32.7026087,2.58170151 C32.2479564,2.57532183 31.8285884,2.98767591 31.8285884,3.44237126 C31.8285884,3.89706661 32.2479564,4.30937765 32.7026087,4.30296622 L35.2709683,4.30296622 C36.7212429,4.30296622 37.8661785,5.44788025 37.8661785,6.89819792 L37.8661785,14.630123 L1.72118993,14.630123 L1.72118993,6.89819792 C1.72118993,5.44788025 2.86608244,4.30296622 4.31644314,4.30296622 L6.88475973,4.30296622 C7.33941205,4.30942068 7.758823,3.89706661 7.758823,3.44237126 C7.758823,2.98767591 7.33941205,2.57536486 6.88475973,2.58170151 L4.31644314,2.58170151 Z M13.7695195,2.58177629 C13.2942129,2.58177629 12.9089245,2.96706466 12.9089245,3.44237126 C12.9089245,3.91767786 13.2942129,4.30296622 13.7695195,4.30296622 L25.817849,4.30296622 C26.2931556,4.30296622 26.6784439,3.91767786 26.6784439,3.44237126 C26.6784439,2.96706466 26.2931556,2.58177629 25.817849,2.58177629 L13.7695195,2.58177629 Z M1.72118993,16.351313 L37.8661785,16.351313 L37.8661785,33.549744 C37.8661785,35.0000616 36.7212429,36.1449972 35.2709683,36.1449972 L4.31644314,36.1449972 C2.86608244,36.1449972 1.72118993,35.0000616 1.72118993,33.549744 L1.72118993,16.351313 Z" id="Shape" fill-rule="nonzero"></path>
                <path d="M14.0215819,25.4181318 C14.3576651,25.0820485 14.9025637,25.0820485 15.238647,25.4181318 L18.8898422,29.069327 L26.1922326,21.7669366 C26.5283158,21.4308533 27.0732144,21.4308533 27.4092977,21.7669366 C27.7453809,22.1030198 27.7453809,22.6479184 27.4092977,22.9840016 L19.4983747,30.8949246 C19.1622915,31.2310079 18.6173929,31.2310079 18.2813096,30.8949246 L14.0215819,26.6351969 C13.6854986,26.2991136 13.6854986,25.754215 14.0215819,25.4181318 Z" id="Path"></path>
            </g>
        </g>
    </g>
</svg>