<?xml version="1.0" encoding="UTF-8"?>
<svg width="577px" height="224px" viewBox="0 0 577 224" version="1.1" xmlns="http://www.w3.org/2000/svg" xmlns:xlink="http://www.w3.org/1999/xlink">
    <!-- Generator: Sketch 61 (89581) - https://sketch.com -->
    <title>Group 33</title>
    <desc>Created with Sketch.</desc>
    <defs>
        <linearGradient x1="-0.000625475702%" y1="50.0029207%" x2="100.006536%" y2="50.0029207%" id="linearGradient-1">
            <stop stop-color="#EFF6FF" offset="0%"></stop>
            <stop stop-color="#C4D8FB" offset="100%"></stop>
        </linearGradient>
        <linearGradient x1="1.8128683%" y1="50.0089011%" x2="87.8084517%" y2="50.0089011%" id="linearGradient-2">
            <stop stop-color="#EFF6FF" offset="0%"></stop>
            <stop stop-color="#C4D8FB" offset="100%"></stop>
        </linearGradient>
        <linearGradient x1="-0.107305122%" y1="50.0114181%" x2="100.062026%" y2="50.0114181%" id="linearGradient-3">
            <stop stop-color="#FB6B14" offset="0%"></stop>
            <stop stop-color="#FDB522" offset="100%"></stop>
        </linearGradient>
        <linearGradient x1="15.7460317%" y1="59.2464797%" x2="64.5396825%" y2="50.5516521%" id="linearGradient-4">
            <stop stop-color="#FB6B14" offset="0%"></stop>
            <stop stop-color="#FDB522" offset="100%"></stop>
        </linearGradient>
        <linearGradient x1="0.040723229%" y1="49.9650423%" x2="100.039047%" y2="49.9650423%" id="linearGradient-5">
            <stop stop-color="#FB6B14" offset="0%"></stop>
            <stop stop-color="#FDB522" offset="100%"></stop>
        </linearGradient>
        <linearGradient x1="24.4636134%" y1="31.4129201%" x2="47.8719532%" y2="48.1503508%" id="linearGradient-6">
            <stop stop-color="#EFF6FF" offset="0%"></stop>
            <stop stop-color="#ECF3FE" offset="23%"></stop>
            <stop stop-color="#E1EBFA" offset="42%"></stop>
            <stop stop-color="#D0DEF4" offset="60%"></stop>
            <stop stop-color="#B7CBEB" offset="77%"></stop>
            <stop stop-color="#98B3DF" offset="94%"></stop>
            <stop stop-color="#8AA8DA" offset="100%"></stop>
        </linearGradient>
        <linearGradient x1="46.0778819%" y1="57.1226885%" x2="65.9008609%" y2="47.777867%" id="linearGradient-7">
            <stop stop-color="#EFF6FF" offset="0%"></stop>
            <stop stop-color="#E7F0FC" offset="16%"></stop>
            <stop stop-color="#D3E0F5" offset="41%"></stop>
            <stop stop-color="#B1C6E8" offset="71%"></stop>
            <stop stop-color="#8AA8DA" offset="100%"></stop>
        </linearGradient>
        <linearGradient x1="54.0181344%" y1="47.5807504%" x2="79.2688604%" y2="29.1978896%" id="linearGradient-8">
            <stop stop-color="#FB6B14" offset="0%"></stop>
            <stop stop-color="#FDB522" offset="100%"></stop>
        </linearGradient>
        <linearGradient x1="0%" y1="49.9857575%" x2="79.5016077%" y2="49.9857575%" id="linearGradient-9">
            <stop stop-color="#EFF6FF" offset="0%"></stop>
            <stop stop-color="#D7E4F6" offset="21%"></stop>
            <stop stop-color="#A0B9E2" offset="74%"></stop>
            <stop stop-color="#8AA8DA" offset="100%"></stop>
        </linearGradient>
        <linearGradient x1="-0.0731444601%" y1="49.9653179%" x2="100.059745%" y2="49.9653179%" id="linearGradient-10">
            <stop stop-color="#FB6B14" offset="0%"></stop>
            <stop stop-color="#FDB522" offset="100%"></stop>
        </linearGradient>
        <linearGradient x1="58.9029331%" y1="50.8611288%" x2="77.4383088%" y2="44.8294763%" id="linearGradient-11">
            <stop stop-color="#FB6B14" offset="0%"></stop>
            <stop stop-color="#FDB522" offset="100%"></stop>
        </linearGradient>
        <linearGradient x1="74.6941718%" y1="26.0028307%" x2="58.7244254%" y2="40.0495232%" id="linearGradient-12">
            <stop stop-color="#EFF6FF" offset="0%"></stop>
            <stop stop-color="#D7E4F6" offset="21%"></stop>
            <stop stop-color="#A0B9E2" offset="74%"></stop>
            <stop stop-color="#8AA8DA" offset="100%"></stop>
        </linearGradient>
        <linearGradient x1="1.49063757%" y1="50%" x2="39.7573754%" y2="50%" id="linearGradient-13">
            <stop stop-color="#EFF6FF" offset="0%"></stop>
            <stop stop-color="#8AA8DA" offset="100%"></stop>
        </linearGradient>
        <linearGradient x1="53.1828302%" y1="57.7160494%" x2="38.6183304%" y2="23.9711934%" id="linearGradient-14">
            <stop stop-color="#FB6B14" offset="0%"></stop>
            <stop stop-color="#FDB522" offset="100%"></stop>
        </linearGradient>
        <linearGradient x1="67.403709%" y1="50.336469%" x2="13.5520685%" y2="55.7019983%" id="linearGradient-15">
            <stop stop-color="#FB6B14" offset="0%"></stop>
            <stop stop-color="#FDB522" offset="100%"></stop>
        </linearGradient>
        <linearGradient x1="26.6306626%" y1="38.8687937%" x2="42.1187616%" y2="50.1284777%" id="linearGradient-16">
            <stop stop-color="#FB6B14" offset="0%"></stop>
            <stop stop-color="#FDB522" offset="100%"></stop>
        </linearGradient>
        <linearGradient x1="0.0360179755%" y1="50.3648075%" x2="100.257639%" y2="50.3648075%" id="linearGradient-17">
            <stop stop-color="#EFF6FF" offset="0%"></stop>
            <stop stop-color="#C4D8FB" offset="100%"></stop>
        </linearGradient>
        <linearGradient x1="51.260939%" y1="54.7875158%" x2="71.1957486%" y2="43.4589739%" id="linearGradient-18">
            <stop stop-color="#EFF6FF" offset="0%"></stop>
            <stop stop-color="#8AA8DA" offset="100%"></stop>
        </linearGradient>
        <linearGradient x1="54.8097933%" y1="45.6185261%" x2="70.3671398%" y2="31.7988116%" id="linearGradient-19">
            <stop stop-color="#FB6B14" offset="0%"></stop>
            <stop stop-color="#FDB522" offset="100%"></stop>
        </linearGradient>
        <linearGradient x1="-0.0284928996%" y1="50.0851573%" x2="99.9514356%" y2="50.0851573%" id="linearGradient-20">
            <stop stop-color="#FB6B14" offset="0%"></stop>
            <stop stop-color="#FDB522" offset="100%"></stop>
        </linearGradient>
        <linearGradient x1="0.143148148%" y1="49.6386408%" x2="99.7712466%" y2="49.6386408%" id="linearGradient-21">
            <stop stop-color="#EFF6FF" offset="0%"></stop>
            <stop stop-color="#C4D8FB" offset="100%"></stop>
        </linearGradient>
        <linearGradient x1="0%" y1="50.1638894%" x2="99.422201%" y2="50.1638894%" id="linearGradient-22">
            <stop stop-color="#EFF6FF" offset="0%"></stop>
            <stop stop-color="#C4D8FB" offset="100%"></stop>
        </linearGradient>
        <linearGradient x1="-9.08041835e-13%" y1="50.0478469%" x2="100.638978%" y2="50.0478469%" id="linearGradient-23">
            <stop stop-color="#FB6B14" offset="0%"></stop>
            <stop stop-color="#FDB522" offset="100%"></stop>
        </linearGradient>
        <linearGradient x1="0.0647637974%" y1="49.9840036%" x2="99.989757%" y2="49.9840036%" id="linearGradient-24">
            <stop stop-color="#EFF6FF" offset="0%"></stop>
            <stop stop-color="#8AA8DA" offset="100%"></stop>
        </linearGradient>
    </defs>
    <g id="New-v2" stroke="none" stroke-width="1" fill="none" fill-rule="evenodd">
        <g id="Case-Study-worldroamer" transform="translate(-94.000000, -2609.000000)">
            <g id="Group-33" transform="translate(94.000000, 2609.000000)">
                <path d="M466.288045,0 C354.925715,0 330.97027,74.8546214 231.629218,101.376539 C178.857551,115.475031 146.678855,167.280013 208.231282,180.331588 C240.444822,187.171451 277.553984,174.748026 310.690897,179.912821 C350.936045,186.176879 382.017146,209.819772 422.192604,219.433967 C462.368063,229.048162 508.327673,224.267238 535.628169,192.179208 C585.925892,133.133045 563.189997,0 466.288045,0 Z" id="Path" fill="url(#linearGradient-1)" fill-rule="nonzero"></path>
                <path d="M364.779289,141.837793 C309.534497,141.837793 136.630684,166.955234 56.8423428,167.287799 C-4.21126355,167.532847 -27.8302872,194.190592 45.8352497,193.052868 C87.194707,192.422744 91.538235,190.969958 137.101669,193.525461 C195.730575,196.798605 247.504033,206.267968 313.825694,210.678835 C413.395404,217.31264 512.215026,210.95889 541.049772,192.737806 C577.908707,169.458226 531.176532,141.837793 364.779289,141.837793 Z" id="Path" fill="url(#linearGradient-2)" fill-rule="nonzero"></path>
                <path d="M304.523383,119.517686 L306.28351,111.353749 C306.28351,111.353749 303.52011,105.383109 300.774312,105.609402 C299.275688,105.699739 297.801662,106.028912 296.409197,106.5842 C297.210626,104.148299 296.525964,101.473715 294.64907,99.7083901 C291.392835,96.801402 283.102637,93.5810859 275.956522,89.7341137 L275.956522,89.7341137 C279.578533,95.4335953 282.05841,101.768786 283.261049,108.39454 C285.021176,119.517686 300.492692,109.752295 301.407958,137.986634 C301.777585,149.945321 296.215583,154.314507 296.690818,160.894396 C296.844535,162.657805 297.33425,164.376526 298.134122,165.959866 C306.818413,151.513203 310.333739,134.596454 308.114042,117.933639 L304.523383,119.517686 Z" id="Path" fill="url(#linearGradient-3)" fill-rule="nonzero"></path>
                <path d="M275.956522,144.31405 C275.956522,144.31405 281.588438,140.079967 284.491849,146.483151 C289.616543,157.831882 293.376985,166.924749 297.102445,166.924749 C308.138903,166.924749 297.557196,142.734946 294.356448,139.316444 C287.570164,132.045621 275.956522,144.31405 275.956522,144.31405 Z" id="Path" fill="#42445D" fill-rule="nonzero"></path>
                <path d="M286.682894,109.510495 C286.978502,110.63396 284.944026,114.460764 284.944026,114.460764 C284.134978,112.122195 283.146627,109.850833 281.987948,107.66731 C280.979405,106.31564 268.076998,104.525118 267.659669,104.472455 C269.29726,106.297628 270.430644,108.525426 270.946131,110.932381 C270.946131,110.932381 266.512016,104.332022 259.765204,104.700659 C253.018393,105.069296 244.115385,101.312709 244.115385,101.312709 L244.115385,101.312709 C256.739573,116.356612 258.930547,116.426828 266.72068,121.00846 C274.510812,125.590092 283.135602,126.713557 287.726216,130.15417 C293.036549,133.954501 296.979059,139.394689 298.959309,145.65448 C300.024613,149.127674 300.437438,152.771288 300.176517,156.397617 L300.176517,156.397617 C300.1366,157.015915 300.061122,157.631347 299.950464,158.240803 C300.054796,157.854611 300.141739,157.46842 300.228683,157.099783 L300.228683,157.099783 C308.279646,123.571365 286.387287,108.404584 286.682894,109.510495 Z" id="Path" fill="#810F6B" fill-rule="nonzero"></path>
                <path d="M342.333196,147.355355 C318.316618,139.910128 300.078595,159.952338 300.078595,159.952338 L305.180383,165.959866 C306.794214,159.319066 323.991055,149.494788 336.415817,149.494788 C350.80147,149.494788 360.866221,161.646769 360.866221,161.646769 C356.527966,153.106152 346.792922,148.741708 342.333196,147.355355 Z" id="Path" fill="#42445D" fill-rule="nonzero"></path>
                <path d="M287.935479,106.809681 C284.972147,100.675696 281.272503,94.9399876 276.921405,89.7341137 C280.446272,95.4449674 282.859639,101.792799 284.030022,108.431773 C285.742942,119.577113 300.799507,109.792237 301.690225,138.082912 C302.049939,150.06546 299.4463,155.524758 299.977306,162.100334 C302.375393,156.170107 305.116065,139.705004 303.403145,127.966641 C301.313383,113.106188 292.046487,116.175953 287.935479,106.809681 Z" id="Path" fill="#C035A5" fill-rule="nonzero"></path>
                <path d="M341.729376,155.298863 C320.620494,145.414486 302.008361,164.437919 302.008361,164.437919 L304.993985,167.987067 L306.739963,167.987067 C310.476358,161.758313 325.544154,155.919964 336.054945,156.966963 C349.149785,158.280148 357.006689,171.749164 357.006689,171.749164 C354.108364,162.521379 345.675287,157.126675 341.729376,155.298863 Z" id="Path" fill="url(#linearGradient-4)" fill-rule="nonzero"></path>
                <path d="M313.049885,131.40699 C309.594184,135.524359 290.829724,167.490436 303.391199,166.917132 C307.641712,166.708657 320.825214,148.849349 326.302501,141.274779 C329.209337,137.374248 333.829176,135.149026 338.673913,135.315885 C338.673913,135.315885 320.41053,122.668437 313.049885,131.40699 Z" id="Path" fill="#810F6B" fill-rule="nonzero"></path>
                <path d="M286.570234,158.509029 C290.921688,161.380989 291.942399,165.459512 287.537224,167.889632 L302.973244,167.889632 C300.591584,155.756026 286.570234,158.509029 286.570234,158.509029 Z" id="Path" fill="#42445D" fill-rule="nonzero"></path>
                <path d="M282.211515,155.074375 C281.604941,154.745365 273.303545,153.03105 267.740397,156.650159 C260.808125,161.100451 259.716292,169.325699 264.066293,178.399447 L264.066293,178.503344 C264.066293,178.503344 276.093785,171.299759 283.130041,163.039878 C289.698369,155.264854 301.951159,162.416491 302.783032,168.771577 L305.867893,168.771577 C304.672076,165.671957 298.13841,151.57648 282.211515,155.074375 Z" id="Path" fill="url(#linearGradient-5)" fill-rule="nonzero"></path>
                <path d="M267.811457,155.881133 C260.800458,160.243636 259.696225,168.503079 264.095628,177.538462 C264.49876,173.848439 263.674968,167.537466 268.442447,160.65747 C270.52822,157.622685 275.751415,154.812061 281.745819,154.105094 C277.052511,152.759536 272.001245,153.403358 267.811457,155.881133 Z" id="Path" fill="#C035A5" fill-rule="nonzero"></path>
                <path d="M281.830068,134.855225 C281.830068,134.855225 278.292753,131.339485 271.695659,134.415758 C265.098566,137.49203 264.86864,146.263802 269.325658,152.451505 C269.325658,152.451505 277.779842,150.342061 281.918501,143.960992 C286.05716,137.579924 295.254181,140.322201 295.254181,140.322201 C292.822343,135.379532 287.052213,133.029644 281.830068,134.855225 L281.830068,134.855225 Z" id="Path" fill="#810F6B" fill-rule="nonzero"></path>
                <path d="M271.666416,134.441122 C265.105128,137.583284 264.876451,146.272504 269.309278,152.451505 C273.953191,134.897525 281.745819,134.897525 281.745819,134.897525 C281.745819,134.897525 278.245294,131.298959 271.666416,134.441122 Z" id="Path" fill="url(#linearGradient-6)" fill-rule="nonzero"></path>
                <path d="M338.859438,124.744177 C331.249391,121.438592 327.478959,125.792723 327.478959,125.792723 C318.710111,122.060611 312.622074,132.901509 312.622074,132.901509 C312.622074,132.901509 320.560735,127.036761 327.842166,136.455902 C333.221085,143.404741 342.47421,145.697324 342.47421,145.697324 C347.178602,138.197555 346.469484,128.067535 338.859438,124.744177 Z" id="Path" fill="url(#linearGradient-7)" fill-rule="nonzero"></path>
                <path d="M338.71904,123.782279 C330.946338,120.468732 327.095318,124.83335 327.095318,124.83335 C327.095318,124.83335 336.104586,124.441425 342.411074,144.732441 C347.216017,137.268055 346.491742,127.113639 338.71904,123.782279 Z" id="Path" fill="url(#linearGradient-8)" fill-rule="nonzero"></path>
                <path d="M268.964027,114.649179 C256.757676,113.647626 244.847766,102.033124 244.115385,101.312709 C256.775114,116.371147 258.972257,116.441432 266.784321,121.027491 C274.596386,125.61355 283.245457,126.7381 287.848995,130.182037 C293.174278,133.98604 297.127888,139.431485 299.113712,145.697324 C294.196297,114.051761 280.350808,115.598019 268.964027,114.649179 Z" id="Path" fill="#C035A5" fill-rule="nonzero"></path>
                <path d="M519.6234,95.488257 C517.606524,97.3561388 516.850631,100.207717 517.680294,102.818555 C516.20085,102.224826 514.634238,101.872859 513.041345,101.776333 C510.135438,101.533147 507.212025,107.890704 507.212025,107.890704 L509.102616,116.575892 L505.338941,114.838854 C502.955015,132.566086 506.654807,150.57352 515.84222,165.959866 C516.693847,164.277581 517.216558,162.450423 517.382701,160.57505 C517.890359,153.6269 511.973512,148.919529 512.376138,136.256526 C513.338938,106.223148 529.706548,116.610632 531.63215,104.764037 C532.904949,97.7149848 535.53177,90.9745175 539.369565,84.909699 L539.369565,84.909699 C531.877226,89.0264777 523.071977,92.3963304 519.6234,95.488257 Z" id="Path" fill="#C035A5" fill-rule="nonzero"></path>
                <path d="M523.866761,138.35393 C520.807847,141.681894 509.001814,162.100334 519.536164,162.100334 C523.09344,162.100334 529.70963,153.312432 534.572959,147.159166 C537.159635,144.001055 541.110095,142.312801 545.158863,142.635216 C545.158863,142.635216 530.311101,131.316675 523.866761,138.35393 Z" id="Path" fill="#333242" fill-rule="nonzero"></path>
                <path d="M559.310975,101.044348 C552.073728,100.660825 547.33028,107.668839 547.33028,107.668839 C547.866072,105.111724 549.069437,102.741949 550.81811,100.800288 C550.382131,100.800288 536.552887,102.75277 535.489099,104.199698 C534.242578,106.50604 533.181266,108.907705 532.315174,111.38204 C532.315174,111.38204 530.239916,107.337615 530.57126,106.152179 C530.902604,104.966744 505.61584,125.554964 514.091265,161.135452 L516.707138,158.084699 C515.992132,155.818426 513.58553,139.919649 529.33308,128.047864 C534.198602,124.369529 543.406472,123.236392 551.794702,118.372621 C560.182932,113.508851 562.519778,113.421686 576.035117,97.4531773 L576.035117,97.4531773 C576.035117,97.4531773 566.530782,101.445304 559.310975,101.044348 Z" id="Path" fill="#810F6B" fill-rule="nonzero"></path>
                <path d="M469.348331,145.582084 C464.601996,147.08733 454.225885,151.848109 449.635452,161.159631 C449.635452,161.159631 460.375333,147.909965 475.619036,147.909965 C488.818696,147.909965 507.232396,156.783916 508.947313,164.0301 L514.282609,159.321831 C514.282609,159.321831 494.916177,137.443254 469.348331,145.582084 Z" id="Path" fill="url(#linearGradient-9)" fill-rule="nonzero"></path>
                <path d="M510.868846,125.576671 C509.139433,138.070845 512.823082,153.871277 515.399907,160.170569 C515.901436,153.210026 512.304258,149.103305 512.702023,136.348111 C513.6532,106.261164 529.823208,116.667176 531.725562,104.79945 C532.982995,97.7378249 535.578103,90.985335 539.369565,84.909699 C534.690053,90.4533215 530.70558,96.5547531 527.505795,103.076716 C523.095793,113.030292 513.099788,109.776238 510.868846,125.576671 Z" id="Path" fill="url(#linearGradient-10)" fill-rule="nonzero"></path>
                <path d="M479.9236,154.289418 C475.526709,155.239691 468.158006,157.520347 464.108696,165.364421 C465.62067,163.463874 471.060302,158.591564 483.121339,157.399403 C492.702472,156.409263 502.03547,160.831767 507.295549,168.854515 L509.189862,168.854515 L512.352843,165.174366 C512.352843,165.174366 501.404063,149.62444 479.9236,154.289418 Z" id="Path" fill="#0D5BD9" fill-rule="nonzero"></path>
                <path d="M464.117272,165.168662 C464.117272,165.052876 464.117272,164.93709 464.117272,164.821304 C464.078677,165.033579 464.117272,165.168662 464.117272,165.168662 Z" id="Path" fill="#0D5BD9" fill-rule="nonzero"></path>
                <path d="M472.792642,132.933199 C477.977562,132.771459 482.916263,135.165887 486.031863,139.351963 C491.889005,147.48473 505.925352,164.0301 510.482833,164.0301 C524.345891,164.0301 503.915209,133.160566 500.20684,128.735642 C492.40887,119.361098 472.792642,132.933199 472.792642,132.933199 Z" id="Path" fill="#810F6B" fill-rule="nonzero"></path>
                <path d="M511.388507,168.854515 L526.826087,168.854515 C524.567363,166.922193 523.464678,159.4255 526.826087,155.346154 C526.826087,155.346154 511.281795,160.445337 511.388507,168.854515 Z" id="Path" fill="#333242" fill-rule="nonzero"></path>
                <path d="M549.175527,155.791903 C543.113894,151.866385 536.688563,154.031581 534.471738,153.855549 C511.679998,151.655147 509.792232,165.57929 508.493311,168.941505 L511.783912,168.941505 C512.667178,162.041044 526.83408,151.338289 532.895713,163.238063 C539.373001,175.982791 553.020334,179.468227 553.020334,179.468227 L553.020334,179.468227 C557.661813,169.610427 556.466806,160.544771 549.175527,155.791903 Z" id="Path" fill="url(#linearGradient-11)" fill-rule="nonzero"></path>
                <path d="M549.190289,155.128569 C544.78887,152.435588 539.477378,151.737063 534.545151,153.202558 C539.978859,153.657797 546.326811,157.019562 548.517544,160.206236 C553.520006,167.665153 554.089251,173.128022 553.071509,178.503344 C557.642724,168.873287 556.452483,159.856052 549.190289,155.128569 Z" id="Path" fill="url(#linearGradient-12)" fill-rule="nonzero"></path>
                <path d="M544.763863,133.420246 C538.378488,130.426624 534.983509,133.833159 534.983509,133.833159 C527.489928,131.252451 522.001672,138.994575 522.001672,138.994575 C522.001672,138.994575 530.884907,136.362253 534.895556,142.43552 C538.906205,148.508787 547.068227,150.521739 547.068227,150.521739 C551.377915,144.689338 551.149238,136.413867 544.763863,133.420246 Z" id="Path" fill="#810F6B" fill-rule="nonzero"></path>
                <path d="M544.947076,133.416789 C538.785841,130.431572 535.510033,133.828543 535.510033,133.828543 C535.510033,133.828543 542.808465,133.828543 547.170551,150.521739 C551.32896,144.654244 551.10831,136.402006 544.947076,133.416789 Z" id="Path" fill="#C035A5" fill-rule="nonzero"></path>
                <path d="M485.03295,123.009045 C485.03295,123.009045 481.007307,118.44252 472.990428,121.910987 C464.973548,125.379454 464.164979,135.97658 469.154024,143.767559 C469.154024,143.767559 479.390168,141.676021 484.637267,134.111625 C489.884366,126.54723 500.774247,130.434004 500.774247,130.434004 C500.774247,130.434004 494.322896,119.104841 485.03295,123.009045 Z" id="Path" fill="#ADCDED" fill-rule="nonzero"></path>
                <path d="M473.092135,121.910987 C464.923673,125.396884 464.157335,135.97658 469.208197,143.767559 C475.843984,122.590737 485.33612,123.009045 485.33612,123.009045 C485.33612,123.009045 481.208347,118.44252 473.092135,121.910987 Z" id="Path" fill="#0D5BD9" fill-rule="nonzero"></path>
                <path d="M518.14214,143.767559 C520.267051,137.099943 524.49382,131.304741 530.186413,127.254 C535.098518,123.590164 544.29342,122.415633 552.701686,117.524674 C561.109951,112.633716 563.452379,112.546064 577,96.4882943 C576.213364,97.2596283 563.469859,109.618502 550.411701,110.705381 C538.227582,111.73967 518.14214,118.40119 518.14214,143.767559 Z" id="Path" fill="#C035A5" fill-rule="nonzero"></path>
                <path d="M516.793024,41.4899666 L368.706942,44.9733929 C367.185387,44.9553724 365.861187,46.0109479 365.538767,47.4988771 L341.568562,162.364862 L487.374254,165.952792 C492.200706,166.133505 496.465452,162.834207 497.505452,158.115082 L521.876031,46.9415289 C522.31122,45.0256443 521.841216,41.4899666 516.793024,41.4899666 Z" id="Path" fill="#333242" fill-rule="nonzero"></path>
                <path d="M516.481382,41.4899666 L367.525806,41.4899666 C366.004437,41.4722292 364.680399,42.5244889 364.358019,44.0077444 L337.779945,163.548027 C337.568751,164.599524 337.834622,165.690356 338.5062,166.527754 C339.177778,167.365153 340.186278,167.86335 341.261028,167.889632 L479.964813,167.889632 C487.456753,167.972117 493.987086,162.818661 495.62969,155.526587 L519.997277,45.8307988 C520.216032,44.7725592 519.948285,43.672207 519.267526,42.8317648 C518.586768,41.9913227 517.564525,41.499097 516.481382,41.4899666 Z" id="Path" fill="#42445D" fill-rule="nonzero"></path>
                <polygon id="Path" fill="#810F6B" fill-rule="nonzero" points="344.463211 156.311037 490.707513 156.311037 515.247492 47.2792642 368.985724 47.2792642"></polygon>
                <polygon id="Path" fill="#973283" fill-rule="nonzero" points="348.322742 153.328968 371.478178 50.173913 511.38796 50.173913 488.249974 153.416388"></polygon>
                <polygon id="Path" fill="#C035A5" fill-rule="nonzero" points="350.252508 151.486622 487.768117 151.486622 510.423077 51.138796 372.890042 51.138796"></polygon>
                <path d="M208.414716,162.100334 C208.414716,162.20869 208.414716,162.317046 208.414716,162.443461 C208.424306,165.980071 211.193357,168.844595 214.612095,168.854515 L360.451277,168.854515 C363.870015,168.844595 366.639067,165.980071 366.648657,162.443461 C366.657806,162.329281 366.657806,162.214514 366.648657,162.100334 L208.414716,162.100334 Z" id="Path" fill="#FFFFFF" fill-rule="nonzero"></path>
                <path d="M350.259345,162.100334 C350.25023,162.214514 350.25023,162.329281 350.259345,162.443461 C350.268898,165.980071 353.027589,168.844595 356.433534,168.854515 L486.874158,168.854515 C490.280104,168.844595 493.038794,165.980071 493.048348,162.443461 C493.057463,162.329281 493.057463,162.214514 493.048348,162.100334 L350.259345,162.100334 Z" id="Path" fill="url(#linearGradient-13)" fill-rule="nonzero"></path>
                <rect id="Rectangle" fill="#42445D" fill-rule="nonzero" x="454.459866" y="164.0301" width="9.64882943" height="2.89464883" rx="0.607876254"></rect>
                <rect id="Rectangle" fill="#42445D" fill-rule="nonzero" x="443.846154" y="164.0301" width="6.7541806" height="2.89464883" rx="0.607876254"></rect>
                <polygon id="Path" fill="#973283" fill-rule="nonzero" points="375.339465 147.62709 388.284244 147.586321 388.847826 144.732441 375.920659 144.773211"></polygon>
                <polygon id="Path" fill="#973283" fill-rule="nonzero" points="389.812709 147.62709 396.95999 147.606561 397.531773 144.732441 390.384492 144.752971"></polygon>
                <polygon id="Path" fill="#973283" fill-rule="nonzero" points="407.180602 147.62709 412.394566 147.62709 412.9699 144.732441 407.755936 144.732441"></polygon>
                <polygon id="Path" fill="#973283" fill-rule="nonzero" points="404.285953 147.62709 405.744326 147.606414 406.215719 144.732441 404.757346 144.732441"></polygon>
                <polygon id="Path" fill="#973283" fill-rule="nonzero" points="398.496656 147.62709 401.773616 147.62709 402.356187 144.732441 399.097432 144.732441"></polygon>
                <polygon id="Path" fill="#973283" fill-rule="nonzero" points="389.812709 137.013378 395.026673 137.013378 395.602007 134.118729 390.388043 134.139405"></polygon>
                <polygon id="Path" fill="#973283" fill-rule="nonzero" points="377.269231 137.013378 387.315933 136.992849 387.882943 134.118729 377.83624 134.139259"></polygon>
                <polygon id="Path" fill="#973283" fill-rule="nonzero" points="402.356187 109.031773 412.40289 108.990714 412.9699 106.137124 402.923197 106.157653"></polygon>
                <polygon id="Path" fill="#973283" fill-rule="nonzero" points="397.531773 109.031773 400.790528 109.031773 401.391304 106.137124 398.114343 106.137124"></polygon>
                <polygon id="Path" fill="#973283" fill-rule="nonzero" points="399.461538 119.645485 409.509186 119.624956 410.075251 116.750836 400.045293 116.771366"></polygon>
                <polygon id="Path" fill="#973283" fill-rule="nonzero" points="394.637124 119.645485 397.911324 119.624956 398.496656 116.750836 395.222456 116.771366"></polygon>
                <polygon id="Path" fill="#973283" fill-rule="nonzero" points="396 58.8946488 414.736782 58.85359 415.297659 56 396.578404 56.0410588"></polygon>
                <polygon id="Path" fill="#973283" fill-rule="nonzero" points="416 58.8946488 420.304612 58.8946488 420.824415 56 416.519802 56"></polygon>
                <polygon id="Path" fill="#973283" fill-rule="nonzero" points="428.408027 75.2608696 447.144809 75.2198107 447.705686 72.3662207 428.968903 72.3867502"></polygon>
                <polygon id="Path" fill="#973283" fill-rule="nonzero" points="449.635452 75.2608696 453.938308 75.2608696 454.459866 72.3662207 450.15701 72.3662207"></polygon>
                <polygon id="Path" fill="#973283" fill-rule="nonzero" points="394.637124 63.6822742 399.851087 63.6617448 400.426421 60.7876254 395.212458 60.8081548"></polygon>
                <polygon id="Path" fill="#973283" fill-rule="nonzero" points="420.688963 75.2608696 425.884948 75.2403401 426.478261 72.3662207 421.264297 72.3867502"></polygon>
                <polygon id="Path" fill="#973283" fill-rule="nonzero" points="401.391304 63.6822742 411.438007 63.6617448 412.005017 60.7876254 401.958314 60.8081548"></polygon>
                <polygon id="Path" fill="#973283" fill-rule="nonzero" points="416.246861 63.6822742 416.829431 60.7876254 413.55247 60.7876254 412.9699 63.6822742"></polygon>
                <polygon id="Path" fill="#973283" fill-rule="nonzero" points="417.794314 63.6822742 427.824273 63.6617448 428.408027 60.7876254 418.360379 60.8081548"></polygon>
                <polygon id="Path" fill="#973283" fill-rule="nonzero" points="430.337793 63.6822742 433.611993 63.6822742 434.197324 60.7876254 430.923124 60.7876254"></polygon>
                <polygon id="Path" fill="#973283" fill-rule="nonzero" points="421.653846 69.4715719 426.86781 69.4715719 427.443144 66.5769231 422.247159 66.5769231"></polygon>
                <polygon id="Path" fill="#973283" fill-rule="nonzero" points="429.37291 69.4715719 439.402868 69.4510425 439.986622 66.5769231 429.938974 66.6179819"></polygon>
                <polygon id="Path" fill="#973283" fill-rule="nonzero" points="440.951505 69.4715719 444.225705 69.4715719 444.811037 66.5769231 441.536837 66.5769231"></polygon>
                <polygon id="Path" fill="#973283" fill-rule="nonzero" points="392.707358 69.4715719 402.776777 69.4510425 403.32107 66.5769231 393.251651 66.6179819"></polygon>
                <polygon id="Path" fill="#973283" fill-rule="nonzero" points="405.250836 69.4715719 412.417342 69.4510425 412.9699 66.5769231 405.78665 66.5974525"></polygon>
                <polygon id="Path" fill="#973283" fill-rule="nonzero" points="414.899666 69.4715719 420.111837 69.4715719 420.688963 66.5769231 415.476792 66.5769231"></polygon>
                <polygon id="Path" fill="#973283" fill-rule="nonzero" points="456.389632 75.2608696 466.459052 75.2403401 467.003344 72.3662207 456.933925 72.3867502"></polygon>
                <polygon id="Path" fill="#973283" fill-rule="nonzero" points="468.93311 75.2608696 476.11636 75.2608696 476.652174 72.3662207 469.485668 72.3868968"></polygon>
                <polygon id="Path" fill="#973283" fill-rule="nonzero" points="477.617057 75.2608696 482.813041 75.2608696 483.406355 72.3662207 478.192391 72.3868968"></polygon>
                <polygon id="Path" fill="#973283" fill-rule="nonzero" points="437.091973 141.837793 447.161393 141.817263 447.705686 138.943144 437.636266 138.963673"></polygon>
                <polygon id="Path" fill="#973283" fill-rule="nonzero" points="427.443144 141.837793 434.60965 141.817263 435.162207 138.943144 427.978957 138.963673"></polygon>
                <polygon id="Path" fill="#973283" fill-rule="nonzero" points="420.688963 141.837793 425.902927 141.817263 426.478261 138.943144 421.282276 138.963673"></polygon>
                <polygon id="Path" fill="#973283" fill-rule="nonzero" points="431.302676 147.62709 441.372095 147.606561 441.916388 144.732441 431.846969 144.752971"></polygon>
                <polygon id="Path" fill="#973283" fill-rule="nonzero" points="422.618729 147.62709 429.801979 147.606561 430.337793 144.732441 423.154543 144.752971"></polygon>
                <polygon id="Path" fill="#973283" fill-rule="nonzero" points="414.899666 147.62709 420.111837 147.606561 420.688963 144.732441 415.476792 144.752971"></polygon>
                <polygon id="Path" fill="#973283" fill-rule="nonzero" points="402.356187 114.82107 405.68337 114.82107 406.215719 111.926421 402.888537 111.926421"></polygon>
                <polygon id="Path" fill="#973283" fill-rule="nonzero" points="396.56689 114.82107 400.869746 114.800394 401.391304 111.926421 397.088448 111.926421"></polygon>
                <polygon id="Path" fill="#973283" fill-rule="nonzero" points="391.742475 75.2608696 401.811894 75.2403401 402.356187 72.3662207 392.286768 72.3867502"></polygon>
                <polygon id="Path" fill="#973283" fill-rule="nonzero" points="404.285953 75.2608696 411.469203 75.2403401 412.005017 72.3662207 404.821767 72.3867502"></polygon>
                <polygon id="Path" fill="#973283" fill-rule="nonzero" points="412.9699 75.2608696 418.182071 75.2608696 418.759197 72.3662207 413.547026 72.3662207"></polygon>
                <polygon id="Path" fill="#973283" fill-rule="nonzero" points="390.777592 81.0501672 394.104775 81.0296378 394.637124 78.1555184 391.309941 78.1760478"></polygon>
                <polygon id="Path" fill="#973283" fill-rule="nonzero" points="396.56689 81.0501672 400.871502 81.0501672 401.391304 78.1555184 397.102936 78.1555184"></polygon>
                <polygon id="Path" fill="#973283" fill-rule="nonzero" points="402.356187 81.0501672 409.535928 81.0501672 410.075251 78.1555184 402.895511 78.1761945"></polygon>
                <polygon id="Path" fill="#973283" fill-rule="nonzero" points="401.391304 131.22408 404.718487 131.203551 405.250836 128.329431 401.923654 128.349961"></polygon>
                <polygon id="Path" fill="#973283" fill-rule="nonzero" points="394.637124 131.22408 398.941736 131.22408 399.461538 128.329431 395.156926 128.350108"></polygon>
                <polygon id="Path" fill="#973283" fill-rule="nonzero" points="384.988294 131.22408 392.168035 131.203404 392.707358 128.329431 385.527618 128.329431"></polygon>
                <polygon id="Path" fill="#973283" fill-rule="nonzero" points="408.145485 126.399666 415.309583 126.399666 415.864548 123.505017 408.70045 123.525693"></polygon>
                <polygon id="Path" fill="#973283" fill-rule="nonzero" points="396.56689 125.434783 406.621065 125.414253 407.180602 122.540134 397.143912 122.560663"></polygon>
                <polygon id="Path" fill="#973283" fill-rule="nonzero" points="390.777592 125.434783 394.054553 125.434783 394.637124 122.540134 391.378368 122.56081"></polygon>
                <polygon id="Path" fill="#973283" fill-rule="nonzero" points="385.953177 125.434783 389.230138 125.434783 389.812709 122.540134 386.553953 122.540134"></polygon>
                <polygon id="Path" fill="#973283" fill-rule="nonzero" points="397.531773 97.4531773 407.561731 97.4326478 408.145485 94.5585284 398.097837 94.5790579"></polygon>
                <polygon id="Path" fill="#973283" fill-rule="nonzero" points="392.707358 97.4531773 395.984319 97.4326478 396.56689 94.5585284 393.289929 94.5790579"></polygon>
                <polygon id="Path" fill="#973283" fill-rule="nonzero" points="400.426421 91.6638796 403.753604 91.6638796 404.285953 88.7692308 400.958771 88.7692308"></polygon>
                <polygon id="Path" fill="#973283" fill-rule="nonzero" points="409.110368 103.242475 412.43755 103.242475 412.9699 100.347826 409.642717 100.347826"></polygon>
                <polygon id="Path" fill="#973283" fill-rule="nonzero" points="413.934783 103.242475 422.075982 103.221945 422.618729 100.347826 414.477529 100.368356"></polygon>
                <polygon id="Path" fill="#973283" fill-rule="nonzero" points="423.583612 103.242475 428.790339 103.242475 429.37291 100.347826 424.166183 100.368502"></polygon>
                <polygon id="Path" fill="#973283" fill-rule="nonzero" points="394.637124 91.6638796 398.941736 91.6638796 399.461538 88.7692308 395.156926 88.7692308"></polygon>
                <polygon id="Path" fill="#973283" fill-rule="nonzero" points="395.602007 85.8745819 398.929189 85.8540525 399.461538 82.9799331 396.134356 83.0004625"></polygon>
                <polygon id="Path" fill="#973283" fill-rule="nonzero" points="389.812709 85.8745819 394.101078 85.8745819 394.637124 82.9799331 390.332511 82.9799331"></polygon>
                <polygon id="Path" fill="#973283" fill-rule="nonzero" points="403.32107 103.242475 406.579826 103.221945 407.180602 100.347826 403.903641 100.368356"></polygon>
                <polygon id="Path" fill="#973283" fill-rule="nonzero" points="398.496656 103.242475 401.755411 103.242475 402.356187 100.347826 399.079226 100.347826"></polygon>
                <polygon id="Path" fill="#973283" fill-rule="nonzero" points="407.180602 141.837793 418.184755 141.817263 418.759197 138.943144 407.755044 138.963673"></polygon>
                <polygon id="Path" fill="#973283" fill-rule="nonzero" points="395.602007 141.837793 405.656182 141.817263 406.215719 138.943144 396.179029 138.963673"></polygon>
                <polygon id="Path" fill="#973283" fill-rule="nonzero" points="390.777592 141.837793 394.054553 141.817263 394.637124 138.943144 391.378368 138.963673"></polygon>
                <polygon id="Path" fill="#973283" fill-rule="nonzero" points="385.953177 141.837793 389.230138 141.837793 389.812709 138.943144 386.535748 138.943144"></polygon>
                <polygon id="Path" fill="#973283" fill-rule="nonzero" points="376.304348 141.837793 383.433889 141.817263 384.023411 138.943144 376.893871 138.963673"></polygon>
                <path d="M182.433213,147.303974 L183.220483,143.690626 C183.220483,143.690626 182.013336,141.050103 180.788693,141.154334 C180.128131,141.197205 179.478591,141.34379 178.864256,141.58863 C179.209471,140.500586 178.896711,139.312355 178.059491,138.531182 C176.62491,137.245665 172.968478,135.821172 169.819398,134.118729 L169.819398,134.118729 C171.413637,136.646015 172.506292,139.452788 173.038458,142.387736 C173.843222,147.321346 180.648734,142.995751 181.033622,155.486121 C181.208571,160.78454 178.759286,162.730189 178.969225,165.648662 C179.02606,166.429969 179.240227,167.192005 179.599041,167.889632 C183.432076,161.488417 184.984933,153.992886 184.007753,146.609099 L182.433213,147.303974 Z" id="Path" fill="url(#linearGradient-14)" fill-rule="nonzero"></path>
                <path d="M169.819398,157.672177 C170.408349,157.153066 171.214177,156.960783 171.971888,157.158561 C172.7296,157.356339 173.34113,157.91858 173.60538,158.660394 C175.88398,163.777945 177.566638,167.889632 179.214241,167.889632 C184.121995,167.889632 179.424574,156.966308 178.004831,155.413396 C174.97254,152.148751 169.819398,157.672177 169.819398,157.672177 Z" id="Path" fill="#333242" fill-rule="nonzero"></path>
                <path d="M174.46536,142.561789 C174.606332,143.048915 173.725262,144.736456 173.725262,144.736456 C173.3595,143.705694 172.911694,142.705124 172.386037,141.744115 C171.945502,141.152605 166.130444,140.352328 165.95423,140.334931 C166.686659,141.145354 167.196298,142.127711 167.434426,143.188093 C166.290765,141.534992 164.420949,140.515151 162.394709,140.439315 C159.972838,140.365864 157.584593,139.85892 155.346154,138.943144 L155.346154,138.943144 C161.037862,145.554131 162.02466,145.588926 165.548938,147.641811 C169.073216,149.694697 172.9323,150.147027 174.994002,151.660595 C177.386811,153.337238 179.161975,155.73713 180.051341,158.497748 C180.521846,160.02353 180.706954,161.621157 180.597604,163.212426 L180.597604,163.212426 C180.578757,163.486807 180.543452,163.759844 180.491875,164.0301 C180.543292,163.864545 180.584485,163.696061 180.615225,163.525578 L180.615225,163.525578 C184.192367,148.737843 174.342011,142.057267 174.46536,142.561789 Z" id="Path" fill="#810F6B" fill-rule="nonzero"></path>
                <path d="M199.21451,159.014703 C188.546814,155.537165 180.43311,164.906696 180.43311,164.906696 L182.674369,166.924749 C183.386707,163.825597 191.066058,160.023729 196.573647,160.023729 C202.967315,160.023729 207.449833,165.699503 207.449833,165.699503 C205.615797,162.473938 202.674245,160.086213 199.21451,159.014703 L199.21451,159.014703 Z" id="Path" fill="#333242" fill-rule="nonzero"></path>
                <path d="M174.945913,141.638216 C173.56168,138.940677 171.840121,136.415523 169.819398,134.118729 C171.458551,136.633549 172.58199,139.426478 173.129148,142.346949 C173.956585,147.256223 180.953829,142.951965 181.34956,155.380726 C181.529437,160.65301 180.306269,163.055789 180.522122,165.959866 C182.148772,161.116498 182.706274,156.000316 182.159009,150.938179 C181.18767,144.386718 176.852617,145.73504 174.945913,141.638216 Z" id="Path" fill="#C035A5" fill-rule="nonzero"></path>
                <path d="M198.775521,162.413258 C189.536182,157.973169 181.397993,166.529778 181.397993,166.529778 L182.705609,168.129648 L183.479856,168.129648 C185.200403,165.325381 191.721277,162.736827 196.315139,163.168253 C202.027356,163.761463 205.520067,169.819398 205.520067,169.819398 C204.266309,166.536909 201.851074,163.884756 198.775521,162.413258 L198.775521,162.413258 Z" id="Path" fill="url(#linearGradient-15)" fill-rule="nonzero"></path>
                <path d="M186.553595,151.903423 C185.03229,153.769235 176.793307,168.150072 182.314451,167.886042 C184.177623,167.798032 189.97226,159.753916 192.365326,156.356729 C193.643745,154.601728 195.671506,153.597074 197.801003,153.663623 C197.801003,153.663623 189.835514,147.978176 186.553595,151.903423 Z" id="Path" fill="#C035A5" fill-rule="nonzero"></path>
                <path d="M174.643813,164.16458 C176.440491,165.600274 176.823117,167.629389 175.043075,168.854515 L181.397993,168.854515 C180.43311,162.786313 174.643813,164.16458 174.643813,164.16458 Z" id="Path" fill="#333242" fill-rule="nonzero"></path>
                <path d="M173.046148,162.414764 C170.923847,161.824521 168.658778,162.071202 166.709806,163.104833 C163.720965,165.07153 163.293988,168.711645 165.121451,172.714047 L165.121451,172.714047 C168.193155,170.808608 170.991721,168.486756 173.438967,165.813355 C176.325333,162.363009 181.688167,165.554579 181.978511,168.366611 L183.327759,168.366611 C182.883703,167.089983 180.048574,160.862108 173.046148,162.414764 Z" id="Path" fill="url(#linearGradient-16)" fill-rule="nonzero"></path>
                <path d="M166.700319,163.191831 C163.710443,165.106532 163.302732,168.747882 165.120441,172.714047 C164.987825,170.108066 165.639056,167.52239 166.989114,165.294583 C168.449717,163.616698 170.504231,162.579867 172.714047,162.405436 C170.688423,161.809368 168.507293,162.094587 166.700319,163.191831 L166.700319,163.191831 Z" id="Path" fill="#C035A5" fill-rule="nonzero"></path>
                <path d="M172.681942,153.283252 C171.415496,152.25075 169.643189,152.172171 168.294297,153.088715 C165.426781,154.503526 165.34041,158.394256 167.27512,161.135452 C169.455629,160.531602 171.376762,159.199631 172.733764,157.350833 C174.461184,154.503526 178.503344,155.7238 178.503344,155.7238 C177.447979,153.51683 174.946148,152.467969 172.681942,153.283252 Z" id="Path" fill="#810F6B" fill-rule="nonzero"></path>
                <path d="M168.31149,153.097814 C165.422855,154.511025 165.335848,158.397355 167.284806,161.135452 C169.320771,153.2568 172.714047,153.2568 172.714047,153.2568 C171.434109,152.244846 169.659025,152.180744 168.31149,153.097814 L168.31149,153.097814 Z" id="Path" fill="url(#linearGradient-17)" fill-rule="nonzero"></path>
                <path d="M197.79761,149.135748 C194.448702,147.68801 192.782834,149.589257 192.782834,149.589257 C188.918709,147.967092 186.222408,152.694045 186.222408,152.694045 C187.307515,151.972149 188.634439,151.727937 189.899956,152.017216 C191.165474,152.306495 192.261436,153.104545 192.937399,154.228997 C194.657682,156.178347 196.902613,157.573065 199.394782,158.240803 C201.472823,154.996473 201.146519,150.583487 197.79761,149.135748 Z" id="Path" fill="url(#linearGradient-18)" fill-rule="nonzero"></path>
                <path d="M197.868572,149.131844 C194.601665,147.694499 192.976589,149.582097 192.976589,149.582097 C192.976589,149.582097 196.76285,149.408923 199.426636,158.240803 C201.453793,154.950495 201.135479,150.569189 197.868572,149.131844 Z" id="Path" fill="url(#linearGradient-19)" fill-rule="nonzero"></path>
                <path d="M167.202101,144.729008 C161.868405,144.299789 156.637941,139.252181 156.311037,138.943144 C161.868405,145.467263 162.831911,145.501601 166.273006,147.527512 C169.7141,149.553422 173.482099,149.99981 175.49514,151.49349 C177.831471,153.148102 179.564737,155.516459 180.43311,158.240803 C178.265221,144.471477 172.191689,145.141057 167.202101,144.729008 Z" id="Path" fill="#C035A5" fill-rule="nonzero"></path>
                <path d="M478.573259,185.257525 C456.731375,185.257525 439.021739,188.680613 439.021739,192.976589 C439.021739,197.272564 456.731375,200.695652 478.573259,200.695652 C500.415142,200.695652 518.14214,197.272564 518.14214,192.976589 C518.14214,188.680613 500.432505,185.257525 478.573259,185.257525 Z" id="Path" fill="#C4D8FB" fill-rule="nonzero" style="mix-blend-mode: multiply;"></path>
                <path d="M479.330535,154.399393 C474.589043,155.720478 472.083787,162.977868 469.897993,167.352891 C469.897993,167.352891 471.360794,170.458299 476.808465,170.784281 C476.808465,170.784281 482.40746,161.656783 482.441088,159.340595 C482.474716,157.024407 480.288922,154.124882 479.330535,154.399393 Z" id="Path" fill="#FFB725"></path>
                <path d="M479.298882,154.398602 C479.028634,154.469589 478.765604,154.566543 478.513327,154.688162 C478.686253,154.9675 478.768149,155.295376 478.747322,155.624973 C478.747322,160.496391 475.53825,165.367809 471.827759,169.251317 C473.341632,170.194028 475.068856,170.722085 476.841935,170.784281 C476.841935,170.784281 482.407671,161.722762 482.441099,159.423317 C482.474527,157.123871 480.251575,154.126076 479.298882,154.398602 Z" id="Path" fill="#42445D"></path>
                <path d="M477.388931,154.582083 C475.894808,155.62325 477.268715,173.217204 475.860461,175.97012 C473.610689,180.328903 470.862876,185.587678 470.862876,185.587678 C476.736326,189.117057 499.285563,189.117057 499.285563,189.117057 C500.25507,185.483735 500.983766,181.787059 501.46664,178.052454 C502.582939,170.076057 502.960763,152.658571 502.531417,152.535043 C493.051463,149.958596 480.016527,152.711512 477.388931,154.582083 Z" id="Path" fill="#FFB725"></path>
                <path d="M493.283973,142.802676 L485.707006,147.674818 C486.066341,149.259475 486.066341,150.908369 485.707006,152.493025 C485.219293,153.733534 484.766417,155.603286 487.448838,156.214551 C490.131258,156.825816 494.572929,154.416713 493.963288,152.259306 C493.294151,149.157715 493.065321,145.972208 493.283973,142.802676 Z" id="Path" fill="#FFCAB8"></path>
                <path d="M493.272847,142.802676 L485.549187,147.521171 C485.915478,149.055854 485.915478,150.652748 485.549187,152.187432 C485.46753,152.386839 485.396413,152.590242 485.33612,152.796832 C486.307483,152.642027 487.230306,152.272907 488.034963,151.717323 C488.987401,151.181752 490.160496,151.192129 491.102927,151.744462 C492.045358,152.296796 492.610291,153.30503 492.580381,154.381271 C493.592447,153.667403 494.21389,152.796832 493.965313,151.961083 C493.283222,148.957303 493.049961,145.872254 493.272847,142.802676 Z" id="Path" fill="#FFC3AB"></path>
                <path d="M501.63817,153.444141 C498.651467,153.010396 493.468658,157.694852 493.205125,165.103232 C493.03478,167.771011 492.247444,170.364727 490.903606,172.685111 C489.954889,174.420095 486.124881,175.842782 484.490978,176.415326 C482.857076,176.987871 482.611112,177.699214 483.577398,178.15031 C484.543685,178.601406 492.080719,179.885294 491.14957,180.995683 C490.218421,182.106073 480.95964,184.222753 482.646249,188.143816 C483.454416,190.034949 497.404079,188.681661 499.986699,188.143816 C500.830003,186.617031 500.917848,182.938865 501.480051,180.561937 C502.622026,175.738683 502.25308,165.398179 502.955834,159.880931 C503.342348,156.202766 504.905975,153.912587 501.63817,153.444141 Z" id="Path" fill="url(#linearGradient-20)"></path>
                <path d="M471.043933,193.17806 C470.634119,193.17806 464.558181,192.803424 462.134932,193.075886 C459.711684,193.348349 458.731694,193.399435 457.306254,194.932037 C455.880814,196.464639 456.3619,199.08709 457.110256,200.96027 C457.858612,202.83345 458.892056,202.850479 460.780764,202.339612 C462.669472,201.828744 464.718543,200.398316 466.625069,200.210998 C467.871027,200.2576 469.118719,200.183429 470.349031,199.989622 C471.685381,199.614986 471.934833,199.989622 471.792289,199.104119 C471.649745,198.218616 471.043933,193.17806 471.043933,193.17806 Z" id="Path" fill="#FFFFFF"></path>
                <path d="M471.011877,193.190592 C470.603854,193.190592 464.554462,192.792652 462.141801,193.082063 C459.72914,193.371474 458.753432,193.425738 457.334219,195.053674 C456.596076,196.002826 456.26935,197.217792 456.429472,198.418074 C457.785641,198.77027 459.206758,198.77027 460.562927,198.418074 C461.793226,197.984837 463.095996,197.806497 464.3948,197.893517 C465.947796,198.174449 467.270561,199.206216 467.942831,200.661008 C468.751277,200.741965 469.567354,200.680782 470.355492,200.480126 C471.686003,200.082187 471.934365,200.480126 471.792444,199.539541 C471.650523,198.598956 471.011877,193.190592 471.011877,193.190592 Z" id="Path" fill="url(#linearGradient-21)"></path>
                <path d="M460.174134,193.854002 C460.993584,193.3391 462.454345,192.944342 462.13369,192.978668 C459.710966,193.253283 458.731188,193.304773 457.306056,194.84948 C455.880924,196.394186 456.361906,199.037351 457.1101,200.925325 C457.858294,202.8133 458.695559,202.796137 460.263204,202.435705 C457.733595,200.39326 456.949773,195.913611 460.174134,193.854002 Z" id="Path" fill="#333242"></path>
                <path d="M502.402154,193.684169 C501.035964,193.448309 496.481998,193.502738 492.996462,192.976589 L489.195652,198.528377 C489.195652,198.655378 491.980578,200.342686 493.1541,201.231698 C495.340223,202.581035 497.798037,203.388277 500.335354,203.590301 C501.631483,203.336298 504.031073,197.984084 504.5215,196.060915 C505.011927,194.137747 503.82089,193.829314 502.402154,193.684169 Z" id="Path" fill="#FFFFFF"></path>
                <path d="M502.321871,193.685277 C500.956745,193.449048 496.406322,193.503562 492.923498,192.976589 L489.195652,198.42804 C490.805802,198.42804 492.345945,197.573979 494.008599,197.846552 C495.292193,198.575329 496.749174,198.909394 498.208989,198.809642 C499.661624,198.627927 499.3991,201.171937 498.208989,202.443943 C497.964476,202.694457 497.687639,202.908502 497.386413,203.079945 C498.333994,203.436239 499.336568,203.608704 500.344188,203.588747 C501.639308,203.334346 504.037031,197.973752 504.527076,196.047573 C505.017122,194.121393 503.739503,193.830649 502.321871,193.685277 Z" id="Path" fill="url(#linearGradient-22)"></path>
                <path d="M459.11631,181.514097 C456.225743,182.034601 454.217234,184.624004 454.483534,187.486749 C454.668999,189.375863 456.009399,190.9653 457.870374,191.502842 C459.748052,192.069214 488.895936,198.573913 489.72071,198.762703 C490.545485,198.951494 494.020067,190.679028 494.020067,190.679028 C492.984712,190.318609 465.433732,180.209725 459.11631,181.514097 Z" id="Path" fill="#C035A5"></path>
                <path d="M467.928013,189.492339 C461.817626,189.677747 459.815948,188.885547 454.601049,186.222408 C454.500478,186.705088 454.453393,187.196628 454.46058,187.68882 C454.646153,189.54409 455.987331,191.105051 457.849387,191.632963 C459.728155,192.189189 488.892961,198.577352 489.718214,198.76276 C490.543468,198.948169 494.020067,190.823908 494.020067,190.823908 C493.633778,190.689066 485.363686,187.907939 480.183904,186.222408 C476.403166,188.17471 472.215967,189.291875 467.928013,189.492339 L467.928013,189.492339 Z" id="Path" fill="#810F6B"></path>
                <path d="M477.085275,134.118729 C476.341324,134.811537 475.847481,135.753677 475.687291,136.785765 C475.842224,138.26731 476.370289,139.678355 477.21685,140.87291 C477.92545,139.117421 478.385387,137.261874 478.58194,135.365655 C478.532599,135.123197 477.085275,134.118729 477.085275,134.118729 Z" id="Path" fill="#333242"></path>
                <path d="M484.975469,153.069047 L485.220247,152.45372 C485.220247,152.45372 483.734098,152.320676 483.471836,154.116766 C483.237086,155.886413 483.637545,157.679608 484.608303,159.205686 C484.85308,157.642423 487.265886,155.613507 487.265886,155.613507 C486.076354,155.219616 485.201444,154.247665 484.975469,153.069047 Z" id="Path" fill="#FFFFFF"></path>
                <path d="M495.591532,139.825394 C494.793982,138.413163 493.411561,139.598739 493.411561,139.598739 C493.152432,137.337338 492.121529,135.229182 490.48721,133.618551 C487.864155,131.247397 485.170208,132.24119 480.508969,133.618551 C475.84773,134.995912 476.716174,136.443013 476.716174,136.443013 C476.851219,139.009832 477.147171,141.566005 477.602341,144.096957 C477.885914,145.683538 479.711419,147.862907 481.643263,150.23406 C483.575107,152.605214 486.180438,151.227852 489.601043,149.257703 C493.021648,147.287553 492.826691,145.317404 492.808968,144.95127 C492.808968,144.95127 493.393838,145.212794 494.474962,144.445656 C495.818661,143.372753 496.30551,141.569732 495.680149,139.982308 L495.591532,139.825394 Z" id="Path" fill="#FFCAB8"></path>
                <path d="M495.589589,140.619122 C494.787714,139.176165 493.397798,140.387536 493.397798,140.387536 C493.137263,138.076934 492.10077,135.92291 490.457589,134.277236 C489.851728,133.707179 486.804603,134.740407 487.196631,136.325879 C487.588658,137.91135 488.978575,139.300865 489.334964,140.975408 C489.655714,142.917165 490.172478,146.497837 488.996395,148.101123 C487.303547,150.452609 484.381158,152.323109 481.476589,151.093923 C481.515933,151.12768 481.546505,151.170469 481.565686,151.218623 C483.454547,153.534481 486.127464,152.234038 489.566617,150.221023 C493.00577,148.208009 492.809756,146.194994 492.791936,145.820894 C492.791936,145.820894 493.379978,146.088108 494.466964,145.30428 C495.81795,144.208034 496.307439,142.365784 495.678687,140.743822 L495.589589,140.619122 Z" id="Path" fill="#FFC3AB"></path>
                <path d="M477.101428,133.838003 C476.517478,135.0533 475.950703,139.046419 479.213953,139.949211 C482.820703,140.956171 489.192627,136.338042 490.600977,139.011696 C491.751702,141.19923 490.377702,142.640226 491.408202,143.508295 C491.628559,143.720847 491.938113,143.810481 492.236378,143.748101 C492.534644,143.685721 492.783598,143.47928 492.902427,143.19579 C492.919893,142.193838 493.160584,141.208756 493.606602,140.3138 C493.926994,140.042123 494.323254,139.878257 494.740152,139.845042 C495.146826,138.186997 495.044995,136.443132 494.448177,134.844963 C490.961652,126.580943 479.540278,128.66431 477.101428,133.838003 Z" id="Path" fill="#42445D"></path>
                <path d="M487.265886,129.294314 C489.500882,130.955026 486.636776,134.835845 488.921438,136.741293 C491.2061,138.646741 491.802099,138.961402 491.768988,140.237527 C491.768988,141.076623 491.437878,143.086958 491.388211,143.331694 C491.423685,143.401885 491.474827,143.461888 491.537211,143.506506 C491.749619,143.720524 492.048008,143.810777 492.335515,143.747967 C492.623023,143.685157 492.862998,143.477291 492.977541,143.191845 C492.994377,142.18298 493.226387,141.191102 493.656317,140.289971 C493.965153,140.016419 494.347121,139.851423 494.748982,139.817979 C495.140988,138.148494 495.042829,136.392597 494.467538,134.783402 C493.242802,131.663237 490.456166,129.539267 487.265886,129.294314 L487.265886,129.294314 Z" id="Path" fill="#333242"></path>
                <path d="M503.042495,182.104249 C499.720299,180.199183 493.705377,182.529487 487.00853,184.587639 C481.762958,186.186534 467.267694,191.034246 467.267694,191.034246 C467.267694,191.034246 465.798934,197.038606 469.785569,200.695652 C469.785569,200.695652 489.823653,196.001025 502.72776,190.643027 C504.161555,190.236383 505.237189,189.078137 505.507913,187.649352 C505.912813,185.486236 504.940151,183.29857 503.042495,182.104249 Z" id="Path" fill="#C035A5"></path>
                <path d="M503.472773,183.327759 C503.995589,184.674645 503.913052,186.174136 503.2454,187.458608 C502.242863,189.576444 499.922855,190.788668 497.561062,190.428723 C496.546627,190.292166 495.812035,189.575241 494.902541,189.404545 C493.293437,189.114362 492.593826,189.882495 491.404488,190.872533 C489.827513,192.493185 487.834521,193.672009 485.632699,194.286458 C484.310433,194.363077 482.984674,194.363077 481.662408,194.286458 C480.083545,194.638915 478.547462,195.153887 477.079957,195.822724 C473.702611,196.597621 470.156811,196.249165 467.005562,194.832686 C466.949655,197.381778 467.952724,199.844532 469.786515,201.660535 C469.786515,201.660535 489.830363,196.949319 502.738182,191.572387 C504.172389,191.164306 505.248332,190.001968 505.519135,188.568134 C505.862332,186.588314 505.079058,184.582485 503.472773,183.327759 Z" id="Path" fill="#810F6B"></path>
                <path d="M493.290249,141.699446 C493.163954,142.026899 493.163954,142.394924 493.290249,142.722376 C493.435352,143.121145 493.532087,142.913092 493.564332,143.294523 C493.596577,143.675954 493.209636,143.502577 493.096779,143.918683 C492.983921,144.33479 493.096779,144.612195 493.483719,144.716222 C493.87066,144.820249 494.338213,144.421479 494.676787,143.589265 C495.050612,142.825703 495.086118,141.922052 494.773522,141.127299 C494.289846,140.537815 493.483719,141.075286 493.290249,141.699446 Z" id="Path" fill="#C95F39"></path>
                <path d="M502.496674,192.976589 C503.66956,193.862751 500.467395,201.306512 497.879599,202.369906 C498.58594,202.568211 499.322268,202.652088 500.057816,202.618032 C501.435491,202.369906 503.986053,197.14155 504.507336,195.262887 C505.028619,193.384223 503.855733,193.189268 502.496674,192.976589 Z" id="Path" fill="#333242"></path>
                <path d="M499.09199,157.957989 C498.500956,162.017262 504.67205,172.585073 504.67205,172.585073 C504.67205,172.585073 489.53114,169.159526 488.018787,168.936866 C485.567732,168.697078 482.803777,166.624622 481.812926,166.693133 C481.048169,166.919066 480.299109,167.193687 479.570472,167.515264 C479.570472,167.600903 476.406699,170.084424 476.66745,170.649639 C476.754366,170.855172 477.432318,170.649639 477.623535,170.49549 C478.162419,170.170063 479.361871,168.988249 479.883372,168.782716 C480.628392,168.510918 481.405151,168.332531 482.19536,168.251757 C482.19536,168.251757 480.769924,168.919738 480.33534,169.21091 C479.339671,169.949646 478.440507,170.806824 477.658301,171.762942 C477.449701,172.036985 477.397551,172.259646 477.536618,172.328157 C477.858729,172.369147 478.18516,172.296325 478.457936,172.122624 C479.055541,171.751381 479.59441,171.295461 480.057206,170.769533 C480.231039,170.615384 481.691242,169.896019 481.691242,169.896019 C481.691242,169.896019 480.144123,171.506026 479.848605,171.917091 C479.553088,172.328157 478.562236,173.801142 478.909904,173.955292 C479.257571,174.109441 479.379255,173.801142 479.726922,173.527098 C480.509173,172.944755 480.961141,172.088369 481.291425,171.814325 C481.848659,171.467115 482.429476,171.158086 483.029761,170.889427 C482.684361,171.18044 482.385482,171.521117 482.14321,171.899964 C481.986759,172.225391 481.569558,173.201671 481.569558,173.201671 C481.569558,173.201671 481.378341,174.640401 481.830309,174.537634 C482.282276,174.434868 482.629944,172.996138 482.629944,172.996138 C482.843284,172.835138 483.02577,172.637935 483.168828,172.413796 C484.266121,172.768801 485.405578,172.981826 486.558584,173.047522 C487.391173,173.127364 488.226218,172.921672 488.922722,172.465179 L488.922722,172.465179 C489.061789,172.961883 506.306087,178.065947 508.044423,178.408502 C509.332654,178.745345 510.686637,178.163462 511.312496,177.004028 C511.973064,173.989547 508.148723,164.757699 505.628135,158.351927 C503.298765,152.477115 499.248441,156.827559 499.09199,157.957989 Z" id="Path" fill="#FFCAB8"></path>
                <path d="M499.129693,157.952522 C498.622822,161.376126 503.132229,169.72972 504.37319,171.989298 C505.260087,172.060831 506.149793,171.888929 506.942503,171.492876 C508.114772,171.191249 509.332298,171.795068 509.777829,172.899026 C510.22336,174.002983 509.756376,175.258891 508.690335,175.823735 C506.505545,177.15894 503.062316,176.029151 489.044702,171.492876 C487.733828,171.064925 486.300605,172.023534 485.374254,172.006416 C484.884861,172.006416 483.801205,171.424404 483.206942,171.801 C482.175721,172.434367 482.018417,173.136206 481.651372,174.248877 C481.628062,174.33983 481.56373,174.415437 481.476589,174.454293 C481.513842,174.521805 481.592419,174.556785 481.66885,174.539883 C482.140765,174.420057 482.472853,172.999261 482.472853,172.999261 C482.687359,172.838352 482.870842,172.641261 483.014681,172.417249 C484.117968,172.772052 485.263649,172.984957 486.422954,173.050615 C487.26009,173.130412 488.099697,172.924837 488.800005,172.468603 L488.800005,172.468603 C488.939832,172.965025 506.278327,178.066195 508.026159,178.408556 C509.321427,178.745207 510.682806,178.163655 511.312084,177.004878 C511.97626,173.992107 508.131029,164.765494 505.596672,158.363354 C503.359447,152.474755 499.286998,156.822732 499.129693,157.952522 Z" id="Path" fill="#FFC3AB"></path>
                <path d="M501.117164,152.496344 C496.606341,153.405496 496.155259,159.105178 503.99715,170.784281 C506.675713,170.597559 509.243034,169.631912 511.38796,168.004375 C511.38796,168.004375 506.183164,151.482291 501.117164,152.496344 Z" id="Path" fill="#FFB725"></path>
                <path d="M501.420072,153.416388 C501.601041,153.659793 501.728353,153.941218 501.793078,154.240924 C502.570372,158.226818 501.861712,162.369414 499.809365,165.837063 C500.826609,167.874892 501.958888,169.849006 503.200327,171.749164 C505.817981,171.561805 508.326925,170.592864 510.423077,168.959775 C510.423077,168.959775 506.031781,154.451444 501.420072,153.416388 Z" id="Path" fill="url(#linearGradient-23)"></path>
                <path d="M493.429716,150.521739 L493.684269,151.87222 C493.684269,151.87222 490.465987,156.563363 487.265886,156.225743 C488.600713,157.328081 489.71103,158.666374 490.538716,160.170569 C490.538716,160.170569 494.466112,156.616672 494.920672,153.489243 C495.194278,152.281117 494.575178,151.0489 493.429716,150.521739 L493.429716,150.521739 Z" id="Path" fill="#FFFFFF"></path>
                <path d="M477.617057,180.732224 L477.617057,180.732224 C477.617057,181.467612 478.156254,182.063763 478.821388,182.063763 L507.28898,182.063763 C507.954114,182.063763 508.493311,181.467612 508.493311,180.732224 L477.617057,180.732224 L477.617057,180.732224 Z" id="Path" fill="#42445D" fill-rule="nonzero"></path>
                <path d="M474.623928,156.01019 C474.358048,155.031048 473.476793,154.360723 472.483074,154.381752 L455.424749,154.381752 L455.424749,182.065205 L479.059777,182.362876 C480.498431,182.362876 480.584065,181.22472 480.481304,180.839498 L474.623928,156.01019 Z" id="Path" fill="#42445D" fill-rule="nonzero"></path>
                <path d="M473.174824,154.906581 C473.084482,154.602511 472.809679,154.390749 472.493128,154.381271 L441.659496,154.381271 C441.436989,154.383968 441.228356,154.490054 441.094842,154.668388 C440.961328,154.846722 440.918082,155.077069 440.9778,155.291809 L446.763476,179.8063 C447.187367,181.320651 448.567021,182.366176 450.136997,182.362876 L478.838145,182.362876 C479.059238,182.36582 479.268721,182.263883 479.403036,182.087929 C479.537352,181.911974 479.580667,181.682742 479.519841,181.469784 L473.174824,154.906581 Z" id="Path" fill="#FFFFFF" fill-rule="nonzero"></path>
                <path d="M221.424647,62.7681746 C221.23167,62.7681746 221.135182,62.7681746 221.135182,62.8528135 C221.126358,62.9824777 221.126358,63.112488 221.135182,63.2421522 C221.135182,63.2421522 221.135182,63.3437188 221.250968,63.3437188 C221.366754,63.3437188 221.405349,63.3437188 221.386051,63.6145632 C221.379463,63.9647605 221.438129,64.3135504 221.55973,64.6471572 C221.55973,64.6471572 221.55973,63.6145632 221.868493,63.2929355 C222.093029,63.0425499 222.384739,62.84482 222.71759,62.7173913 C222.289868,62.774376 221.856462,62.791399 221.424647,62.7681746 Z" id="Path" fill="#FFFFFF" fill-rule="nonzero"></path>
                <path d="M233.019231,62.8482229 C232.598155,62.8282217 232.179115,62.7845147 231.764883,62.7173913 C232.077432,62.8678961 232.347451,63.0744008 232.556087,63.3224874 C232.747146,63.7441099 232.81982,64.1976241 232.768361,64.6471572 C232.910391,64.3271323 232.994956,63.9908585 233.019231,63.6495664 C233.019231,63.4696729 233.019231,63.4206111 233.173612,63.4206111 C233.327993,63.4206111 233.289398,63.4206111 233.308696,63.3224874 L233.308696,62.9463466 C233.289398,62.8645768 233.289398,62.8482229 233.019231,62.8482229 Z" id="Path" fill="#FFFFFF" fill-rule="nonzero"></path>
                <path d="M227.704777,63.3252676 L227.172952,63.3252676 C227.172952,63.3252676 226.823467,63.3252676 226.747492,63.0936957 L226.884247,64.1936622 C227.083414,63.8960788 227.383025,63.7381325 227.689582,63.7691137 C227.996871,63.7658359 228.286106,63.9531016 228.464527,64.2708528 L228.677258,63.1901839 C228.543875,63.3108385 228.385116,63.3780464 228.221407,63.3831605 L227.704777,63.3252676 Z" id="Path" fill="#FFFFFF" fill-rule="nonzero"></path>
                <path d="M350.470383,65.6344596 C348.447179,65.924759 332.523163,68.6911412 328.825582,70.7573897 C324.814056,72.9602497 328.825582,74.4629758 330.377869,76.1706192 C332.85455,78.80039 340.179946,75.6241733 343.982176,74.6849695 C348.883214,73.4554663 351.743607,71.9015108 352.824975,70.6720075 C353.574956,69.7157273 353.104038,65.258778 350.470383,65.6344596 Z" id="Path" fill="#810F6B" fill-rule="nonzero"></path>
                <path d="M347.812808,69.5773054 C341.023993,70.529723 340.330894,71.6299295 336.509964,72.5166632 C330.84077,73.8139217 330.147671,74.1587625 331.622728,75.373916 C333.968601,77.2787512 337.469639,75.6202309 344.062965,73.9945526 C347.759493,73.058556 351.971402,71.5314036 353.073252,70.3490921 C353.730807,69.5773054 349.83879,69.2981485 347.812808,69.5773054 Z" id="Path" fill="#C035A5" fill-rule="nonzero"></path>
                <path d="M367.0885,51.7605118 C367.421068,51.4029628 367.0885,50.5627226 366.663552,50.4554579 C367.199356,49.8833795 366.663552,48.9179972 366.1647,49.2934237 C365.665849,49.6688501 364.575765,50.5627226 364.003009,51.0811687 C362.895018,52.0087088 361.995745,53.1465849 361.360941,54.4242519 C361.065326,55.0857175 360.21543,55.5862861 359.901338,55.8902028 C360.939834,56.8003725 361.897772,57.793057 362.765117,58.8578595 C363.042257,58.6075752 363.522633,57.963987 363.836725,57.6958253 C365.684325,56.1047322 366.34946,55.2823695 367.051548,54.6924136 C367.753636,54.1024578 367.772112,53.5661343 367.291736,53.1370755 C367.574325,52.6905156 367.489009,52.1126477 367.0885,51.7605118 L367.0885,51.7605118 Z" id="Path" fill="#FFCAB8"></path>
                <path d="M366.146779,51.2307811 C366.146779,50.6880868 363.690742,52.6662948 362.926641,54.0317836 C362.599169,54.6094903 362.926641,55.4322848 363.472427,55.5198162 C363.818059,55.5570737 364.155602,55.6456566 364.473035,55.7824101 C365.172427,56.114527 366.014007,55.9807309 366.565215,55.4497911 C366.897138,55.1093247 367.249468,54.7878277 367.620401,54.4869465 L367.620401,54.4869465 C366.720471,53.6189335 366.194188,52.4560418 366.146779,51.2307811 Z" id="Path" fill="#FFC3AB"></path>
                <path d="M361.180807,54.0334448 C361.180807,54.0334448 347.96297,65.4449617 347.428556,67.2099896 C346.894142,68.9750175 349.423701,74.0778703 353.859337,69.6216118 C356.798613,66.6682483 364.725753,57.9479621 364.725753,57.9479621 C363.629891,56.5707183 362.445853,55.2632403 361.180807,54.0334448 L361.180807,54.0334448 Z" id="Path" fill="#810F6B" fill-rule="nonzero"></path>
                <path d="M357.430791,62.872533 C353.498208,66.4460687 350.169311,67.837686 347.35786,70.0196045 C347.35786,72.4764103 349.738107,73.7134035 353.239486,70.1226872 C356.085434,67.2191894 363.76087,58.6461397 363.76087,58.6461397 C363.260673,58.0104627 362.777724,57.4435075 362.34652,56.9280936 C361.001162,57.838658 358.776148,61.6870812 357.430791,62.872533 Z" id="Path" fill="#C035A5" fill-rule="nonzero"></path>
                <path d="M317.693216,162.060294 C316.546868,161.072677 316.88719,159.148526 316.815544,157.888463 C316.743897,156.6284 312.158506,157.6671 312.122682,157.888463 C311.836096,159.812613 312.015212,161.77082 311.764449,163.69497 C311.591024,164.314421 311.62865,164.970193 311.871919,165.568037 C312.319711,166.300236 313.394412,166.385375 314.289996,166.385375 C316.314017,166.385375 318.320125,166.521598 320.326234,166.725933 C322.048286,167.030984 323.818879,166.984551 325.520622,166.58971 C325.843033,166.487543 326.219178,166.215096 326.111708,165.908595 C323.076772,165.138407 320.221071,163.832996 317.693216,162.060294 L317.693216,162.060294 Z" id="Path" fill="#FFCAB8" fill-rule="nonzero"></path>
                <path d="M313.972771,157.694675 L314.174143,157.27592 C313.449064,157.349306 312.743444,157.562307 312.093298,157.904053 C311.824802,159.875695 311.992612,161.882233 311.757678,163.853874 C311.595201,164.488614 311.630452,165.160572 311.858364,165.773171 C312.277889,166.523442 313.284749,166.610682 314.1238,166.610682 C315.885805,166.610682 317.63103,166.750268 319.376254,166.924749 C315.919367,165.249726 312.29467,161.882233 313.972771,157.694675 Z" id="Path" fill="#FFC3AB" fill-rule="nonzero"></path>
                <path d="M326.388932,166.303262 C326.051982,166.133179 322.842093,164.942594 321.068673,164.281159 C320.394773,164.035482 319.880482,165.018187 319.880482,165.585132 C315.81935,165.585132 312.272511,162.674814 311.722751,163.109472 C311.037608,163.619623 310.649165,164.471415 310.696129,165.360691 C310.743092,166.249967 311.218766,167.049937 311.953295,167.474949 C312.963521,167.68313 313.995304,167.746685 315.021311,167.663931 C316.936605,167.663931 318.851898,168.854515 320.057824,168.854515 L326.371198,168.854515 C327.0983,168.854515 327.541655,166.813513 326.388932,166.303262 Z" id="Path" fill="#FFB725" fill-rule="nonzero"></path>
                <path d="M325.324399,167.288856 C324.218635,167.589105 323.055665,167.589105 321.949902,167.288856 C321.1862,167.070392 316.621749,166.506026 315.218668,166.433205 C313.558017,166.390176 312.032556,165.484895 311.169272,164.0301 C310.747727,164.581064 310.594762,165.299212 310.753914,165.980137 C310.913067,166.661062 311.366906,167.230189 311.986255,167.525525 C312.99798,167.726075 314.031294,167.7873 315.058824,167.707579 C316.976959,167.707579 318.895094,168.854515 320.102809,168.854515 L326.42555,168.854515 C327.011647,168.854515 327.420139,167.325267 326.745239,166.633464 C326.310437,166.931326 325.830245,167.152824 325.324399,167.288856 Z" id="Path" fill="#333242" fill-rule="nonzero"></path>
                <path d="M315.258272,167.487598 L310.692308,165.959866 L311.674421,168.854515 L315.516722,168.854515 C315.326449,168.434422 315.237143,167.962095 315.258272,167.487598 L315.258272,167.487598 Z" id="Path" fill="#333242" fill-rule="nonzero"></path>
                <path d="M349.46126,161.01532 C347.971824,160.580722 347.415529,158.668491 346.769509,157.538536 C346.123488,156.408582 342.462706,159.276928 342.534486,159.502919 C343.144617,161.397766 344.203372,163.118774 344.867338,164.996237 C344.976851,165.661756 345.311382,166.273211 345.818423,166.734629 C346.667801,167.064842 347.631521,166.960385 348.38456,166.456486 C350.179061,165.639442 352.081232,164.874549 353.983403,164.213961 C355.674873,163.783608 357.248862,163.000455 358.595271,161.919283 C358.846501,161.693293 359.079786,161.276079 358.828556,161.032704 C355.73309,161.600866 352.554456,161.594967 349.46126,161.01532 L349.46126,161.01532 Z" id="Path" fill="#FFCAB8" fill-rule="nonzero"></path>
                <path d="M345.224135,158.697909 C345.215499,158.545658 345.215499,158.393054 345.224135,158.240803 C344.557758,158.611324 343.971526,159.105896 343.498328,159.696771 C344.085102,161.542126 345.103328,163.218183 345.741877,165.046608 C345.847198,165.694745 346.168923,166.290229 346.656554,166.739594 C347.473418,167.061183 348.400246,166.959454 349.124458,166.468717 C350.746717,165.723803 352.420749,165.046608 354.11204,164.437133 C350.263491,164.454063 345.500264,163.150463 345.224135,158.697909 Z" id="Path" fill="#FFC3AB" fill-rule="nonzero"></path>
                <path d="M359.583343,160.172374 C359.225402,160.172374 356.020981,160.522338 354.231278,160.722317 C353.549486,160.722317 353.481307,161.772209 353.70289,162.238827 C350.191662,163.905322 345.981598,163.02208 345.674792,163.588688 C345.112314,164.655244 345.41912,167.021666 347.566764,166.921677 C348.533706,166.702809 349.45965,166.337312 350.310976,165.838455 C352.015455,165.055203 354.09492,165.205187 355.134652,164.721904 L360.606031,162.155503 C361.185554,161.905528 360.776479,160.105714 359.583343,160.172374 Z" id="Path" fill="#FFB725" fill-rule="nonzero"></path>
                <path d="M359.997498,160.170569 C359.739398,160.594368 359.417687,160.977602 359.043195,161.307368 C358.206375,161.999815 357.203468,162.471611 356.129162,162.678214 C354.039054,163.25536 351.980115,163.936084 349.960273,164.717765 C348.504101,165.352914 346.819981,165.227275 345.478457,164.383413 C345.337622,165.007579 345.495761,165.66065 345.907683,166.156002 C346.319605,166.651354 346.939991,166.934487 347.591557,166.924493 C348.558291,166.704934 349.484035,166.338281 350.335178,165.837847 C352.039291,165.052118 354.118309,165.202577 355.157817,164.717765 L360.628019,162.14325 C361.08813,161.892485 360.883636,160.471486 359.997498,160.170569 Z" id="Path" fill="#333242" fill-rule="nonzero"></path>
                <path d="M350.440553,165.959866 L345.428094,166.84168 L347.51816,168.854515 L351.217391,166.937529 C350.886395,166.681086 350.619922,166.345726 350.440553,165.959866 Z" id="Path" fill="#333242" fill-rule="nonzero"></path>
                <path d="M322.271762,103.772637 C325.447383,114.729452 341.995895,158.974777 343.795413,161.988337 C346.298836,162.462635 348.845623,161.404576 350.252508,159.305746 C347.32388,150.735392 338.555639,110.653308 335.309449,99.3829431 C331.869193,99.7139121 322.165908,103.354571 322.271762,103.772637 Z" id="Path" fill="#C3391C" fill-rule="nonzero"></path>
                <path d="M341.569831,151.619656 C340.952814,148.723037 339.667362,144.639851 339.290296,141.690883 C338.913229,138.741915 337.387826,137.13656 335.862422,134.711078 C334.434595,132.364846 333.691556,129.653606 333.720001,126.893696 C333.720001,123.403793 331.543301,115.307219 329.263765,112.707241 C325.61308,108.554257 329.263765,106.477765 327.686943,101.312709 C325.791739,101.871518 323.97236,102.668711 322.270903,103.685843 C325.355989,114.661587 341.432717,158.983351 343.180932,162.002116 C344.994153,162.319968 346.855689,161.858798 348.322742,160.728302 C346.111764,155.912236 342.598194,156.784712 341.569831,151.619656 Z" id="Path" fill="#FD4B1B" fill-rule="nonzero"></path>
                <path d="M313.760408,105.055199 C313.459949,113.064706 314.661787,123.940956 314.272957,134.365477 C313.954823,143.156823 312.046021,151.201078 311.657191,161.347612 C313.793072,162.237002 316.183051,162.341832 318.391022,161.642973 C319.557513,157.751152 331.752641,109.172885 329.773142,105.593799 C328.465259,103.161411 316.48222,104.568722 313.760408,105.055199 Z" id="Path" fill="#C3391C" fill-rule="nonzero"></path>
                <path d="M313.636864,105.196536 C313.354054,113.196735 314.485296,124.060345 314.119306,134.472751 C313.819859,143.25388 312.023181,151.288786 311.657191,161.423528 C312.43092,161.753608 313.241333,161.980991 314.069398,162.100334 C314.269029,160.364933 313.137787,155.800829 313.553685,154.447216 C314.634012,151.349926 315.506727,148.178073 316.165523,144.954573 C316.357996,141.575021 316.207436,138.183713 315.716353,134.837185 C315.716353,133.101784 316.947411,129.266548 316.165523,123.366185 C316.0158,122.30759 317.945566,117.361697 317.679391,112.710823 C317.679391,112.086078 317.579576,105.387431 318.411371,104.207358 C316.29861,104.6065 314.46866,105.04035 313.636864,105.196536 Z" id="Path" fill="#FD4B1B" fill-rule="nonzero"></path>
                <path d="M324.721907,67.5602214 C316.812491,67.5602214 313.742389,74.3295413 313.81177,79.5112115 C313.898496,85.3035162 313.41283,105.524243 313.655663,106.989765 C313.898496,108.455288 336.915591,108.490182 337.644089,106.693172 C338.008339,105.80339 336.759484,73.9457139 335.909568,71.7997697 C334.01894,67.0193736 328.000152,67.5602214 324.721907,67.5602214 Z" id="Path" fill="#810F6B" fill-rule="nonzero"></path>
                <path d="M322.761363,73.3311037 L315.516722,78.0657817 C315.516722,78.0657817 316.78677,80.1075016 321.974291,87.5703399 C324.907923,91.794588 327.680563,93.8539089 329.290483,94.399541 C330.506867,94.8043647 334.3349,94.5931523 333.79826,91.8825931 C333.26162,89.172034 322.761363,73.3311037 322.761363,73.3311037 Z" id="Path" fill="#810F6B" fill-rule="nonzero"></path>
                <path d="M316.218455,74.2959866 L315.516722,78.3017466 C315.516722,78.3017466 316.762299,80.3132971 321.849863,87.665861 C324.726969,91.8276896 327.446184,93.856581 329.025084,94.3941506 C330.342266,94.7499219 331.750855,94.5220845 332.884615,93.7698763 C326.305868,89.9895486 317.586835,79.8624324 316.218455,74.2959866 Z" id="Path" fill="#C035A5" fill-rule="nonzero"></path>
                <path d="M327.095318,67.8919147 C326.126582,67.6882113 325.140812,67.5710234 324.150248,67.541806 C315.961516,67.541806 312.782995,74.3339151 312.854826,79.5330295 C312.944615,85.3448341 312.441798,105.633634 312.693206,107.104091 C312.782995,107.646759 317.218558,107.996868 322.282642,108.06689 C321.205177,105.493591 316.212924,105.511096 317.380178,103.07784 C318.512814,99.8728108 318.273311,96.3581404 316.715741,93.3273128 C315.440741,91.366704 318.296023,89.8262256 318.296023,86.4301711 C318.296023,84.5220786 315.69215,79.8131164 315.69215,77.9050239 C315.69215,70.9203551 321.384755,70.0275779 327.095318,67.8919147 Z" id="Path" fill="#C035A5" fill-rule="nonzero"></path>
                <path d="M320.341137,61.7525084 C320.341137,61.7525084 320.542504,66.364489 320.643187,68.8061259 C320.743871,71.2477627 328.060201,70.6543093 328.060201,68.9417724 C328.060201,66.907075 325.677359,66.2627542 325.492773,64.5332614 C325.308187,62.8037687 320.341137,61.7525084 320.341137,61.7525084 Z" id="Path" fill="#FFC3AB" fill-rule="nonzero"></path>
                <path d="M330.954434,52.8227296 C330.521682,52.0498009 329.725306,51.5256727 328.817472,51.4163061 C327.577561,51.1396305 326.297303,51.0691533 325.032512,51.2079471 C323.761694,51.3604688 322.58793,51.9385299 321.718409,52.8400929 C320.802813,53.9642461 320.317008,55.3554512 320.34206,56.7815514 C320.34206,58.2053382 320.486939,59.6117617 320.34206,61.0355485 C321.454262,64.0463814 323.93268,66.4098484 327.078926,67.4599522 C329.382707,67.8785756 331.669221,66.6582233 332.511882,64.5602889 C332.919465,63.3011476 332.994144,61.9646044 332.7292,60.6709202 C332.626621,57.9747804 332.025712,55.3175004 330.954434,52.8227296 Z" id="Path" fill="#FFCAB8" fill-rule="nonzero"></path>
                <path d="M328.983706,56.3972943 C328.983706,56.2546446 328.732159,54.7211598 328.696224,54.5250164 C328.134344,52.332534 326.017651,50.8964713 323.755128,51.1727473 C322.943707,51.3842916 322.228187,51.8618729 321.724787,52.5279199 C320.818866,53.6847796 320.331549,55.1105093 320.34128,56.5756065 C320.34128,58.0377665 320.502989,59.4820952 320.449086,60.9442551 C321.552553,64.0362344 324.011506,66.4634004 327.133041,67.541806 L327.420523,67.541806 C328.021054,67.3869083 328.567692,67.072512 329.001673,66.6324139 C330.431785,64.6376209 331.112071,62.208445 330.924209,59.7673947 C330.7625,58.8045089 329.145414,57.2175304 328.983706,56.3972943 Z" id="Path" fill="#FFC3AB" fill-rule="nonzero"></path>
                <path d="M331.919732,52.8385728 C330.703757,52.5536808 328.933441,49.6513436 324.498708,50.2567391 C319.241404,50.9867748 316.523342,55.2245432 319.903037,63.6822742 C320.821606,63.0650435 321.536929,62.1917348 321.959466,61.1716636 C322.245578,60.2635703 324.105304,60.0499013 323.533081,54.815011 C323.461553,54.0137522 328.629447,55.2423489 331.919732,52.8385728 Z" id="Path" fill="#42445D" fill-rule="nonzero"></path>
                <path d="M324.324792,50.2325935 C323.577418,50.3238804 322.84427,50.486958 322.139059,50.7187767 C321.589669,50.9143019 321.253919,51.3966466 321.312656,51.9060036 C321.371392,52.4153606 321.810744,52.8314395 322.394061,52.930126 C325.287903,53.2751366 328.23617,52.9726687 330.954849,52.0518596 C329.167006,50.6296166 326.738697,49.9632965 324.324792,50.2325935 L324.324792,50.2325935 Z" id="Path" fill="#333242" fill-rule="nonzero"></path>
                <path d="M322.787647,57.0991736 C322.14313,56.8028611 321.397777,56.8960418 320.836313,57.3431203 C320.310651,57.987897 320.192523,58.8993556 320.534744,59.6699962 C320.71784,60.2992455 321.076489,60.8552438 321.563628,61.2650321 C322.254477,61.793383 323.156519,61.9001965 323.940707,61.5465091 C326.459701,60.4018362 324.597065,57.7934834 322.787647,57.0991736 Z" id="Path" fill="#FFCAB8" fill-rule="nonzero"></path>
                <path d="M322.452142,59.0635346 C321.769789,59.7026372 323.234003,60.7876254 323.234003,60.7876254 C323.306589,60.4771432 323.416448,60.1775078 323.560964,59.8958543 C323.744782,59.7018199 323.961765,59.5455374 324.200669,59.4351059 C324.200669,59.4351059 323.134494,58.4392948 322.452142,59.0635346 Z" id="Path" fill="#FFC3AB" fill-rule="nonzero"></path>
                <path d="M333.003381,60.164557 C332.604539,59.7413846 330.302133,60.164557 329.377544,60.4995684 C328.395013,60.7027314 327.661306,61.5019554 327.564625,62.4743728 C325.606673,62.015936 323.521817,54.9983278 323.521817,54.9983278 L322.270903,56.7615459 C323.697724,58.0620931 324.432683,59.9270972 324.265114,61.821982 C324.029434,63.0386026 322.452195,67.4290158 326.078032,69.5625098 C327.63541,70.5206487 329.568203,70.7021675 331.285305,70.0515524 C333.002406,69.4009373 334.299554,67.9955839 334.780042,66.2652918 C334.979463,65.2073609 334.272424,64.343384 333.637903,62.7388555 C333.384094,62.015936 333.946099,61.2401201 333.003381,60.164557 Z" id="Path" fill="#42445D" fill-rule="nonzero"></path>
                <path d="M324.200669,56.9280936 C324.200669,57.1788776 325.376907,62.2524307 326.038541,61.7122806 C326.185571,61.5965341 326.038541,61.326459 326.130435,61.1528393 C325.335521,59.8266011 324.688041,58.409103 324.200669,56.9280936 L324.200669,56.9280936 Z" id="Path" fill="#333242" fill-rule="nonzero"></path>
                <path d="M332.141189,59.9824147 C332.005735,59.8203205 331.633238,59.8023101 331.15915,59.838331 C331.548579,60.4506866 331.785623,61.135084 331.480852,61.5133036 C330.735857,62.431837 329.262799,62.0356069 329.313595,62.7740357 C329.36439,63.5124645 331.904145,63.4944541 332.124257,63.6205273 C332.695711,64.3300914 332.926936,65.280683 332.75073,66.1960228 C332.242779,68.8975916 329.161209,70.5365433 326.130435,69.7981145 C327.580122,70.5928452 329.289776,70.6482567 330.782261,69.9488845 C332.274746,69.2495123 333.39024,67.8702487 333.817427,66.1960228 C334.003676,65.1153953 333.343339,64.2328829 332.75073,62.5939311 C332.496754,61.8735128 333.021637,61.0810526 332.141189,59.9824147 Z" id="Path" fill="#333242" fill-rule="nonzero"></path>
                <path d="M333.83501,69.5157664 C333.93018,68.6179786 333.5495,68.0928575 332.899171,68.0928575 C332.792055,67.5318482 332.324871,67.1327074 331.788854,67.1442516 C331.788854,66.6191305 331.106802,66.3311608 330.757845,66.5005547 C330.757845,65.6535851 329.9489,65.3656155 329.584081,65.8399185 C329.238488,66.7900581 329.066203,67.8020063 329.076508,68.8212513 C328.936848,70.3722192 329.082329,71.9373863 329.504773,73.4287658 C329.646424,75.1193276 329.646424,76.8200215 329.504773,78.5105832 C330.919224,78.5898667 332.325122,78.7938334 333.708116,79.1204013 C333.708116,78.7138559 333.533638,74.6653414 333.581223,74.2249172 C333.83501,71.6331903 333.723978,70.4813117 333.83501,69.5157664 Z" id="Path" fill="#FFCAB8"></path>
                <path d="M329.962351,65.577679 C329.962351,64.6906664 329.074326,64.3890821 328.673844,64.8858092 C328.294467,65.8808695 328.10534,66.9406607 328.116652,68.0080937 C327.963339,69.6323883 328.123042,71.2715534 328.586783,72.8334425 C328.742282,74.6039307 328.742282,76.3850302 328.586783,78.1555184 C328.847444,78.1317116 329.109673,78.1317116 329.370334,78.1555184 C329.343259,76.6424086 329.436428,75.1295482 329.64893,73.6317539 C329.87529,71.467443 330.658841,68.309678 330.328008,66.9614188 C330.259287,66.7306316 330.287761,66.4811293 330.406624,66.2725646 C330.525488,66.0639999 330.724054,65.9151211 330.954849,65.8615231 C330.70894,65.5741037 330.319146,65.4626269 329.962351,65.577679 Z" id="Path" fill="#FFC3AB"></path>
                <path d="M332.176324,63.7169564 L329.354049,64.7440119 C329.224075,64.7863308 329.119771,64.8730669 329.065475,64.9839819 C329.01118,65.094897 329.011641,65.2202891 329.066752,65.3309007 C329.175981,65.5602227 329.47677,65.6712079 329.742746,65.5803285 L332.277723,64.7440119 C332.548121,64.6559786 332.970617,64.1864675 332.869218,63.951712 C332.746737,63.7260994 332.442447,63.6230046 332.176324,63.7169564 Z" id="Path" fill="#FFC3AB"></path>
                <path d="M333.59667,74.5789125 C332.152188,74.2792515 330.670834,74.2171471 329.207534,74.3949021 C329.125331,74.4093203 329.060936,74.4757333 329.046956,74.5605115 C329.017793,75.0077651 329.017793,75.4565339 329.046956,75.9037875 C329.051009,75.9564329 329.076799,76.0047447 329.117764,76.0364314 C329.158729,76.068118 329.210921,76.0801248 329.26106,76.0693969 C330.694706,75.8100791 332.164918,75.860204 333.578828,76.2166052 C333.628686,76.2334528 333.683207,76.2268143 333.72789,76.1984555 C333.772573,76.1700966 333.802889,76.1228922 333.810774,76.0693969 C333.862406,75.6232214 333.862406,75.1722963 333.810774,74.7261209 C333.784904,74.6289139 333.693624,74.5661536 333.59667,74.5789125 L333.59667,74.5789125 Z" id="Path" fill="#333242"></path>
                <path d="M366.979848,52.3185539 L365.727853,54.5610672 C365.608616,54.7687074 365.802377,55.0178755 365.936519,54.9971115 C366.398565,54.9971115 367.516417,52.9207102 367.516417,52.9207102 C367.582891,52.8307794 367.620401,52.7071907 367.620401,52.578104 C367.620401,52.4490174 367.582891,52.3254287 367.516417,52.2354978 C367.440266,52.137769 367.337455,52.0908008 367.23455,52.1067295 C367.131646,52.1226583 367.038743,52.1999212 366.979848,52.3185539 L366.979848,52.3185539 Z" id="Path" fill="#FFCAB8"></path>
                <path d="M368.090177,47.3504911 L365.854206,49.3014461 C365.64251,49.4950563 365.63536,49.8157844 365.838235,50.0178124 C366.04111,50.2198405 366.377186,50.2266645 366.588882,50.0330543 C366.588882,50.0330543 368.585284,48.2497595 368.585284,47.5943605 C368.585284,47.4114585 368.297802,47.1523473 368.090177,47.3504911 Z" id="Path" fill="#FFCAB8"></path>
                <path d="M366.602612,50.2936501 L363.865403,52.4962363 C363.613037,52.7043547 363.865403,53.0512187 364.11777,53.0685619 C364.952522,53.0685619 367.437364,51.16081 367.437364,51.16081 C367.681414,50.9328392 367.681414,50.5736506 367.437364,50.3456797 C367.215877,50.1384046 366.85417,50.1158596 366.602612,50.2936501 Z" id="Path" fill="#FFCAB8"></path>
                <path d="M365.878721,51.2441929 L363.847804,53.4794153 C363.639914,53.67046 363.847804,54.0143404 364.02371,54.0334448 C364.663369,54.0334448 366.51838,52.1229983 366.51838,52.1229983 C366.701231,51.9001389 366.701231,51.5434702 366.51838,51.3206108 C366.349753,51.1110496 366.078745,51.0786732 365.878721,51.2441929 L365.878721,51.2441929 Z" id="Path" fill="#FFCAB8"></path>
                <path d="M333.89225,77.4759666 C332.341282,77.174832 330.753171,77.1115958 329.182996,77.2884513 C329.182996,77.2884513 328.25827,86.1016671 328.0699,90.1076742 C327.795907,96.1933958 333.412762,94.8466955 334.029246,93.0056369 C334.653704,91.1754573 334.909742,89.2407193 334.782727,87.3119927 C334.560108,84.3287958 333.89225,77.4759666 333.89225,77.4759666 Z" id="Path" fill="#810F6B" fill-rule="nonzero"></path>
                <path d="M330.880329,92.70912 C327.766527,88.4225013 330.307676,83.3985843 330.003454,79.6949458 C330.003454,79.2491375 330.003454,77.1401211 329.233951,77.1915606 C329.233951,77.1915606 328.267598,86.0562879 328.070749,90.0857094 C327.856004,94.5780857 330.969806,95.0410405 332.884615,94.2351562 C332.064204,93.9435477 331.362137,93.4090037 330.880329,92.70912 L330.880329,92.70912 Z" id="Path" fill="#C035A5" fill-rule="nonzero"></path>
                <path d="M330.542891,73.3328516 C329.744984,73.2939565 329.066452,73.9088889 329.026892,74.7067551 C328.987331,75.5046213 329.601705,76.1836582 330.399546,76.2238831 C331.197387,76.264108 331.876943,75.6503074 331.917833,74.8525082 C331.937513,74.4685396 331.803604,74.0925198 331.545653,73.8074196 C331.287703,73.5223194 330.926912,73.3515713 330.542891,73.3328516 L330.542891,73.3328516 Z" id="Path" fill="#FFFFFF"></path>
                <path d="M331.004401,73.3317331 C330.474884,73.3129191 330.026205,73.7180874 329.991216,74.2466638 C329.973701,74.5910481 330.141285,74.9186144 330.430839,75.1059716 C330.720393,75.2933288 331.087929,75.3120129 331.394998,75.1549857 C331.702068,74.9979586 331.90202,74.6890764 331.919535,74.3446921 C331.929929,73.8184009 331.529148,73.3747776 331.004401,73.3317331 L331.004401,73.3317331 Z" id="Path" fill="url(#linearGradient-24)"></path>
            </g>
        </g>
    </g>
</svg>