<?xml version="1.0" encoding="UTF-8"?>
<svg width="41px" height="22px" viewBox="0 0 41 22" version="1.1" xmlns="http://www.w3.org/2000/svg" xmlns:xlink="http://www.w3.org/1999/xlink">
    <!-- Generator: Sketch 61 (89581) - https://sketch.com -->
    <title>noun_Hotel_2470655</title>
    <desc>Created with Sketch.</desc>
    <g id="New-v2" stroke="none" stroke-width="1" fill="none" fill-rule="evenodd">
        <g id="Case-Study-worldroamer" transform="translate(-207.000000, -1156.000000)" fill="#C035A5" fill-rule="nonzero">
            <g id="noun_Hotel_2470655" transform="translate(207.000000, 1156.000000)">
                <path d="M1.83333333,21.6944444 C0.989564966,21.6944444 0.305555556,21.010435 0.305555556,20.1666667 L0.305555556,1.83333333 C0.305555556,0.989564966 0.989564966,0.305555556 1.83333333,0.305555556 C2.6771017,0.305555556 3.36111111,0.989564966 3.36111111,1.83333333 L3.36111111,20.1666667 C3.36111111,21.010435 2.6771017,21.6944444 1.83333333,21.6944444 Z" id="Path"></path>
                <path d="M38.5,15.5833333 L1.83333333,15.5833333 C0.989564966,15.5833333 0.305555556,14.8993239 0.305555556,14.0555556 C0.305555556,13.2117872 0.989564966,12.5277778 1.83333333,12.5277778 L38.5,12.5277778 C39.3437684,12.5277778 40.0277778,13.2117872 40.0277778,14.0555556 C40.0277778,14.8993239 39.3437684,15.5833333 38.5,15.5833333 Z" id="Path"></path>
                <path d="M38.5,21.6944444 C37.6562316,21.6944444 36.9722222,21.010435 36.9722222,20.1666667 L36.9722222,7.94444444 C36.9722222,7.10067608 37.6562316,6.41666667 38.5,6.41666667 C39.3437684,6.41666667 40.0277778,7.10067608 40.0277778,7.94444444 L40.0277778,20.1666667 C40.0277778,21.010435 39.3437684,21.6944444 38.5,21.6944444 Z" id="Path"></path>
                <path d="M32.3888889,9.47222222 L7.94444444,9.47222222 C7.10067608,9.47222222 6.41666667,8.78821281 6.41666667,7.94444444 C6.41666667,7.10067608 7.10067608,6.41666667 7.94444444,6.41666667 L32.3888889,6.41666667 C33.2326573,6.41666667 33.9166667,7.10067608 33.9166667,7.94444444 C33.9166667,8.78821281 33.2326573,9.47222222 32.3888889,9.47222222 Z" id="Path"></path>
            </g>
        </g>
    </g>
</svg>