<?xml version="1.0" encoding="UTF-8"?>
<svg width="234px" height="60px" viewBox="0 0 234 60" version="1.1" xmlns="http://www.w3.org/2000/svg" xmlns:xlink="http://www.w3.org/1999/xlink">
    <!-- Generator: Sketch 61.2 (89653) - https://sketch.com -->
    <title>App Store Copy</title>
    <desc>Created with Sketch.</desc>
    <g id="New-v2" stroke="none" stroke-width="1" fill="none" fill-rule="evenodd">
        <g id="Case-Study-paga" transform="translate(-295.000000, -8019.000000)">
            <g id="App-Store-Copy" transform="translate(295.000000, 8019.000000)">
                <rect id="Rectangle" stroke="#0A2630" stroke-width="2" fill="#0A2630" x="1" y="1" width="232" height="58"></rect>
                <g id="Apple_logo_black" transform="translate(32.000000, 10.000000)" fill="#FFFFFF" fill-rule="nonzero">
                    <path d="M29.3712552,27.7556355 C28.8326361,28.9999566 28.1950863,30.145347 27.456408,31.198404 C26.4495186,32.633988 25.6251012,33.627687 24.9897498,34.179498 C24.0048459,35.085258 22.9495911,35.54913 21.8195889,35.575512 C21.0083622,35.575512 20.0300529,35.344674 18.8912574,34.876407 C17.7487248,34.410333 16.6987461,34.179498 15.738684,34.179498 C14.7317952,34.179498 13.6519176,34.410333 12.4968537,34.876407 C11.3400297,35.344674 10.4081085,35.588703 9.6955914,35.612886 C8.6119767,35.659053 7.5318804,35.18199 6.4537611,34.179498 C5.7656478,33.579321 4.9049559,32.550447 3.8738835,31.092876 C2.76762528,29.5363776 1.85812764,27.7314525 1.14561084,25.673706 C0.38252985,23.4510756 0,21.2987958 0,19.2151083 C0,16.8282543 0.51575577,14.7696282 1.54880607,13.0445064 C2.36069262,11.6588259 3.4407897,10.5657576 4.7926143,9.7633239 C6.1444401,8.9608914 7.6050885,8.5519803 9.1780779,8.5258182 C10.0387692,8.5258182 11.1674529,8.7920502 12.5700618,9.3152808 C13.968714,9.84027 14.8667799,10.106502 15.2605212,10.106502 C15.5548932,10.106502 16.5525486,9.7952013 18.2438142,9.1745805 C19.8431853,8.5990269 21.1930314,8.3607144 22.2988503,8.454588 C25.2953343,8.6964174 27.5465442,9.8776434 29.043687,12.0057402 C26.3637801,13.6295136 25.0381161,15.903807 25.0644972,18.8213661 C25.0886802,21.0939006 25.9130976,22.9850046 27.5333532,24.4865451 C28.2676341,25.1834517 29.0876556,25.7220714 30,26.1046017 C29.8021515,26.6783961 29.593299,27.2280081 29.3712552,27.7556355 Z M22.4989098,0.71253711 C22.4989098,2.49374001 21.8481684,4.1568441 20.5510854,5.696196 C18.9857898,7.5261843 17.092488,8.5836369 15.0393576,8.4167751 C15.0131964,8.2030857 14.9980269,7.978185 14.9980269,7.7418522 C14.9980269,6.0318993 15.7424214,4.2019119 17.0643483,2.70564861 C17.724321,1.94806431 18.5636883,1.31814321 19.5815697,0.81564321 C20.5972521,0.32064081 21.5579739,0.046893822 22.4615349,1.58203184e-05 C22.4879181,0.238134822 22.4989098,0.47626881 22.4989098,0.71251401 L22.4989098,0.71253711 Z" id="path4"></path>
                </g>
                <text id="App-Store" font-family="HelveticaNeue-Bold, Helvetica Neue" font-size="22" font-weight="bold" letter-spacing="0.2562779" fill="#FFFFFF">
                    <tspan x="78" y="38">App Store</tspan>
                </text>
            </g>
        </g>
    </g>
</svg>