<?xml version="1.0" encoding="UTF-8"?>
<svg width="234px" height="60px" viewBox="0 0 234 60" version="1.1" xmlns="http://www.w3.org/2000/svg" xmlns:xlink="http://www.w3.org/1999/xlink">
    <!-- Generator: Sketch 61.2 (89653) - https://sketch.com -->
    <title>Google Play Copy</title>
    <desc>Created with Sketch.</desc>
    <g id="New-v2" stroke="none" stroke-width="1" fill="none" fill-rule="evenodd">
        <g id="Case-Study-paga" transform="translate(-911.000000, -8019.000000)">
            <g id="Google-Play-Copy" transform="translate(911.000000, 8019.000000)">
                <rect id="Rectangle" stroke="#0A2630" stroke-width="2" fill="#0A2630" x="1" y="1" width="232" height="58"></rect>
                <g id="google-store,-play,-google-play,-googleplay,-store,-google-svg-icon" transform="translate(32.000000, 14.000000)" fill="#FFFFFF">
                    <path d="M26.7380933,16.9448276 C26.7380933,16.9448276 24.5586207,18.2357404 21.3068154,20.0898986 L16.6593103,15.242069 L21.2555781,10.8259229 C23.3392698,12.0139959 25.2018256,13.0759838 26.6146856,13.8815416 C29.9171197,15.7645436 26.7380933,16.9448276 26.7380933,16.9448276 Z M0.94137931,0.287342799 C1.46008114,-0.00803245436 2.33160243,0.0359026369 3.78511156,0.864584178 C7.92681542,3.22612576 14.9277079,7.21789047 20.5589452,10.4286815 L16.0395943,14.7264097 L0.94137931,0.287342799 Z M0.341135903,30.7137931 C0.0410141988,30.3603651 0.134604462,29.634645 0.134604462,29.634645 L0.134604462,2.59070994 C0.134604462,2.59070994 0.0547667343,1.40336714 0.53464503,0.675212982 L15.5232049,15.3452738 L0.341135903,30.7137931 Z M20.6592292,20.4109533 C14.8157404,23.7427181 6.30924949,28.59286 2.37748479,30.8347667 C1.77614604,31.1776065 1.33874239,31.2966329 1.02158215,31.2774037 L16.1429209,15.7578499 L20.6592292,20.4109533 Z" id="Shape"></path>
                </g>
                <text id="Google-Play" font-family="HelveticaNeue-Bold, Helvetica Neue" font-size="22" font-weight="bold" letter-spacing="0.2562779" fill="#FFFFFF">
                    <tspan x="77" y="38">Google Play</tspan>
                </text>
            </g>
        </g>
    </g>
</svg>